<svg xmlns="http://www.w3.org/2000/svg" width="134" height="71" viewBox="0 0 112 70"><title>Add a customer</title><g fill="none" fill-rule="evenodd"><path fill="#D7E5F0" d="M.75 69.08h96.33V11.93H.75z"/><path stroke="#211F1F" stroke-width="1.5" d="M.75 69.076h96.33v-57.15H.75z"/><path d="M36.21 18.096c-1.24 0-2.25-1.01-2.25-2.25v-9.33c0-1.25 1.01-2.25 2.25-2.25s2.25 1 2.25 2.25v9.33c0 1.24-1.01 2.25-2.25 2.25" fill="#FFF"/><path d="M36.21 18.096c-1.24 0-2.25-1.01-2.25-2.25v-9.33c0-1.25 1.01-2.25 2.25-2.25s2.25 1 2.25 2.25v9.33c0 1.24-1.01 2.25-2.25 2.25z" stroke="#000" stroke-width="1.5"/><path d="M61.63 18.096c-1.25 0-2.25-1.01-2.25-2.25v-9.33c0-1.25 1-2.25 2.25-2.25 1.24 0 2.25 1 2.25 2.25v9.33c0 1.24-1.01 2.25-2.25 2.25" fill="#FFF"/><path d="M61.63 18.096c-1.25 0-2.25-1.01-2.25-2.25v-9.33c0-1.25 1-2.25 2.25-2.25 1.24 0 2.25 1 2.25 2.25v9.33c0 1.24-1.01 2.25-2.25 2.25z" stroke="#000" stroke-width="1.5"/><path fill="#FFF" d="M7.52 58.106h33.33v-33.34H7.52z"/><path stroke="#000" stroke-width="1.5" d="M7.52 58.106h33.33v-33.34H7.52z"/><path d="M34.35 45.646h-.89v-3.99c0-5.36-4.35-9.71-9.7-9.71h-.45c-5.36 0-9.7 4.35-9.7 9.71v16.44h19.85v-9.61h.89c.78 0 1.42-.64 1.42-1.42 0-.78-.64-1.42-1.42-1.42" fill="#FFF"/><path d="M34.35 45.646h-.89v-3.99c0-5.36-4.35-9.71-9.7-9.71h-.45c-5.36 0-9.7 4.35-9.7 9.71v16.44h19.85v-9.61h.89c.78 0 1.42-.64 1.42-1.42 0-.78-.64-1.42-1.42-1.42z" stroke="#000" stroke-width="1.5"/><path d="M23.53 31.116c-5.48 0-9.92 4.44-9.92 9.92v1.99c.3-1.26 1.44-2.21 2.8-2.21 1.54 0 2.79 1.21 2.87 2.73v-8.18s4.79 7.05 14.18 7.05v-1.38c0-5.48-4.44-9.92-9.93-9.92" fill="#FFF"/><path d="M23.53 31.116c-5.48 0-9.92 4.44-9.92 9.92v1.99c.3-1.26 1.44-2.21 2.8-2.21 1.54 0 2.79 1.21 2.87 2.73v-8.18s4.79 7.05 14.18 7.05v-1.38c0-5.48-4.44-9.92-9.93-9.92z" stroke="#000" stroke-width="1.5" stroke-linecap="round" stroke-linejoin="round"/><path fill="#AEBCC6" d="M48.92 30.436h39.77v-5.67H48.92z"/><path stroke="#211F1F" stroke-width="1.5" stroke-linejoin="round" d="M48.92 30.436h39.77v-5.67H48.92z"/><path fill="#AEBCC6" d="M48.92 41.076H68.8v-5.67H48.92z"/><path stroke="#211F1F" stroke-width="1.5" stroke-linejoin="round" d="M48.92 41.076H68.8v-5.67H48.92z"/><path d="M48.92 47.936h39.77M48.92 52.766h39.77M48.92 57.596h39.77" stroke="#000" stroke-width="1.5"/><path d="M111.02 18.666c0 9.9-8.02 17.92-17.92 17.92-9.89 0-17.91-8.02-17.91-17.92 0-9.89 8.02-17.92 17.91-17.92 9.9 0 17.92 8.03 17.92 17.92" fill="#42B573"/><path d="M111.02 18.666c0 9.9-8.02 17.92-17.92 17.92-9.89 0-17.91-8.02-17.91-17.92 0-9.89 8.02-17.92 17.91-17.92 9.9 0 17.92 8.03 17.92 17.92z" stroke="#211F1F" stroke-width="1.5" stroke-linecap="round" stroke-linejoin="round"/><path d="M101.27 15.746h-5.25v-5.25c0-1.61-1.31-2.91-2.92-2.91-1.61 0-2.91 1.3-2.91 2.91v5.25h-5.25c-1.61 0-2.92 1.31-2.92 2.92 0 1.61 1.31 2.92 2.92 2.92h5.25v5.25c0 1.61 1.3 2.91 2.91 2.91s2.92-1.3 2.92-2.91v-5.25h5.25c1.61 0 2.92-1.31 2.92-2.92 0-1.61-1.31-2.92-2.92-2.92" fill="#FFF"/><path d="M101.27 15.746h-5.25v-5.25c0-1.61-1.31-2.91-2.92-2.91-1.61 0-2.91 1.3-2.91 2.91v5.25h-5.25c-1.61 0-2.92 1.31-2.92 2.92 0 1.61 1.31 2.92 2.92 2.92h5.25v5.25c0 1.61 1.3 2.91 2.91 2.91s2.92-1.3 2.92-2.91v-5.25h5.25c1.61 0 2.92-1.31 2.92-2.92 0-1.61-1.31-2.92-2.92-2.92z" stroke="#000" stroke-width="1.5"/></g></svg>