<svg version="1.1" id="Layer_1" 
    xmlns="http://www.w3.org/2000/svg" 
    xmlns:xlink="http://www.w3.org/1999/xlink" x="0px" y="0px" viewBox="0 0 65 65" enable-background="new 0 0 65 65" xml:space="preserve">
    <g>
        <path fill="#A4D399" d="M10.5,57.5c-1.9,0-3.4-1.6-3.4-3.6L4.5,21.1c0-1.9,1.5-3.6,3.4-3.6h14.2c1.9,0,3.4,1.6,3.4,3.6l-2.6,32.8
		c0,2-1.5,3.6-3.4,3.6H10.5z"></path>
        <g>
            <path fill="#0E9B49" d="M22.1,18c1.6,0,2.9,1.4,2.9,3.1l-2.6,32.8l0,0v0c0,1.7-1.3,3.1-2.9,3.1h-9.1c-1.6,0-2.9-1.4-2.9-3.1v0l0,0
			L5,21.1C5,19.4,6.3,18,7.9,18H22.1 M22.1,17H7.9C5.7,17,4,18.8,4,21.1l2.6,32.8c0,2.3,1.7,4.1,3.9,4.1h9.1c2.1,0,3.9-1.8,3.9-4.1
			L26,21.1C26,18.8,24.3,17,22.1,17L22.1,17z"></path>
        </g>
    </g>
    <g>
        <path fill="#E9F1F8" d="M8.1,22c-2,0-4.1-2.1-4.1-4.1V11h21v6.9c0,2-1.1,4.1-3.1,4.1H8.1z"></path>
        <g>
            <path fill="#5F7886" d="M25,11v6.9c0,1.7-1.4,3.1-3.1,3.1H8.1C6.4,21,5,19.6,5,17.9V11H25 M26,10H4v7.9C4,20.1,5.8,22,8.1,22h13.9
			c2.2,0,4.1-1.9,4.1-4.1V10L26,10z"></path>
        </g>
    </g>
    <g>
        <polygon fill="#5F7886" points="5,7 4,7 4,17.3 5,17.3 5,7 	"></polygon>
    </g>
    <g>
        <polygon fill="#5F7886" points="26,7 25,7 25,17.3 26,17.3 26,7 	"></polygon>
    </g>
    <g>
        <polygon fill="#5F7886" points="8,7 7,7 7,18 8,18 8,7 	"></polygon>
    </g>
    <g>
        <polygon fill="#5F7886" points="11,7 10,7 10,19 11,19 11,7 	"></polygon>
    </g>
    <g>
        <polygon fill="#5F7886" points="14,7 13,7 13,19 14,19 14,7 	"></polygon>
    </g>
    <g>
        <polygon fill="#5F7886" points="17,7 16,7 16,19 17,19 17,7 	"></polygon>
    </g>
    <g>
        <polygon fill="#5F7886" points="20,7 19,7 19,19 20,19 20,7 	"></polygon>
    </g>
    <g>
        <polygon fill="#5F7886" points="23,7 22,7 22,19 23,19 23,7 	"></polygon>
    </g>
    <g>
        <path fill="#E9F1F8" d="M15,38.5c-0.8,0-1.5-0.7-1.5-1.5v-6c0-0.8,0.7-1.5,1.5-1.5h1c0.8,0,1.5,0.7,1.5,1.5v6
		c0,0.8-0.7,1.5-1.5,1.5H15z"></path>
        <g>
            <path fill="#5F7886" d="M16,30c0.6,0,1,0.4,1,1v6c0,0.6-0.4,1-1,1h-1c-0.6,0-1-0.4-1-1v-6c0-0.6,0.4-1,1-1H16 M16,29h-1
			c-1.1,0-2,0.9-2,2v6c0,1.1,0.9,2,2,2h1c1.1,0,2-0.9,2-2v-6C18,29.9,17.1,29,16,29L16,29z"></path>
        </g>
    </g>
    <g>
        <path fill="#E9F1F8" d="M39.3,46.9c0.5-0.7,1.1-2,1.9-3.9c0.4-1,0.9-2.1,1.1-2.4c1.7-2.6,11-22.6,14.4-30
		c-1.6,5.5-5.2,17.2-7.8,25.6l-4.2,4.7c-1.6,1.8-2.9,6.1-3.5,8L39.3,46.9z"></path>
        <path fill="#5F7886" d="M54.1,17.3c-1.7,5.8-4,13-5.7,18.7c-0.5,0.6-2.4,2.7-4.1,4.6c-1.5,1.6-2.7,5.2-3.3,7.4l-1-1.1
		c0.4-0.7,0.9-1.9,1.7-3.6c0.4-0.9,0.9-2.1,1.1-2.4C44.1,38.9,50,26.2,54.1,17.3 M57.8,7.4c-0.2,0-0.3,0.1-0.4,0.3
		c0,0-13.5,29.5-15.5,32.6c-0.6,0.8-2.4,6-3.2,6.6l2.8,3.1c0,0,1.6-6.5,3.6-8.7c2-2.2,4.2-4.8,4.2-4.8s9-28.9,8.7-29
		C57.9,7.4,57.9,7.4,57.8,7.4L57.8,7.4z"></path>
    </g>
    <g>
        <path fill="#E9F1F8" d="M53.1,49c-0.6-2-2.1-7-3.7-8.8c-1.7-1.9-3.5-3.6-3.9-4c-2.7-8.4-6.4-20.1-8-25.6c3.4,7.3,12.9,27.5,14.6,30
		c0.2,0.3,0.7,1.4,1.1,2.4c0.8,1.8,1.4,3.2,1.9,3.9L53.1,49z"></path>
        <path fill="#5F7886" d="M40,17.3c4.2,9,10.3,21.6,11.6,23.6c0.2,0.3,0.7,1.4,1.1,2.3c0.7,1.7,1.3,2.9,1.7,3.6l-1,1.1
		c-0.7-2.4-2.1-6.5-3.6-8.2c-1.6-1.9-3.3-3.4-3.9-3.9C44.1,30.2,41.8,23,40,17.3 M36.2,7.4c-0.1,0-0.1,0-0.2,0c-0.2,0.1,9,29,9,29
		s2,1.8,4,4c2,2.2,3.9,9.5,3.9,9.5l2.8-3.1c-0.8-0.6-2.6-5.8-3.2-6.6C50.3,37.2,36.6,7.7,36.6,7.7C36.5,7.5,36.3,7.4,36.2,7.4
		L36.2,7.4z"></path>
    </g>
    <g>
        <path fill="#E9F1F8" d="M30.3,58.5c-0.6,0-0.7-0.5-0.8-0.7c0.1-0.4,0.2-0.6,0.5-0.7c0.1-0.1,0.2-0.1,0.2-0.1l0.2,0.1l0.1-0.1
		c0,0,0,0,0,0c0,0,0.1,0,0.1,0c0.4-0.1,1.3-0.2,2.4-0.6c0.4-0.2,0.8-0.4,1.2-0.7l0.4-0.3l-0.3-0.4c-0.6-0.9-0.9-1.9-0.9-2.9
		c0-3,2.5-5.5,5.5-5.5s5.5,2.5,5.5,5.5S42,57.5,39,57.5c-1.1,0-2.1-0.3-3-0.9l-0.3-0.2l-0.3,0.2c-0.6,0.4-1.2,0.8-1.8,1.1
		c-1.2,0.5-2.3,0.8-3.2,0.8C30.4,58.5,30.3,58.5,30.3,58.5z M39,48.5c-1.9,0-3.5,1.6-3.5,3.5c0,0.2,0,0.4,0.1,0.5
		c0.2,1.2,1,2.3,2.1,2.7c0.4,0.2,0.9,0.3,1.3,0.3c1.9,0,3.5-1.6,3.5-3.5S40.9,48.5,39,48.5z"></path>
        <path fill="#5F7886" d="M39,47c2.8,0,5,2.2,5,5c0,2.8-2.2,5-5,5c-1,0-1.9-0.3-2.8-0.8l-0.6-0.4l-0.6,0.4c-0.5,0.4-1.1,0.8-1.7,1
		c-1.1,0.5-2.2,0.8-3,0.8c0,0-0.1,0-0.1,0l-0.1,0l0,0c-0.1,0-0.1,0-0.2-0.2c0.1-0.2,0.1-0.3,0.2-0.3c0,0,0,0,0,0l0.2,0.1l0.3-0.1
		c0,0,0,0,0.1,0c0.5-0.1,1.4-0.2,2.5-0.7c0.4-0.2,0.9-0.4,1.3-0.7l0.8-0.5l-0.5-0.8C34.3,53.9,34,52.9,34,52C34,49.2,36.2,47,39,47
		 M39,56c2.2,0,4-1.8,4-4c0-2.2-1.8-4-4-4s-4,1.8-4,4c0,0.2,0,0.4,0.1,0.6c0.2,1.4,1.1,2.6,2.4,3.1C38,55.9,38.5,56,39,56 M39,46
		c-3.3,0-6,2.7-6,6c0,1.2,0.3,2.3,0.9,3.2c-0.4,0.3-0.8,0.5-1.1,0.6c-1.3,0.6-2.3,0.6-2.5,0.7c0,0-0.1,0-0.1,0
		c-0.2,0-0.3,0.1-0.4,0.1c-0.5,0.2-0.7,0.7-0.8,1.2c0,0.7,0.5,1.2,1.2,1.2c0,0,0,0,0.1,0c0.1,0,0.1,0,0.2,0c0.9,0,2.1-0.3,3.4-0.9
		c0.6-0.3,1.2-0.7,1.8-1.1c0.9,0.6,2.1,1,3.3,1c3.3,0,6-2.7,6-6C45,48.7,42.3,46,39,46L39,46z M39,55c-0.4,0-0.8-0.1-1.1-0.2
		c-1-0.4-1.7-1.3-1.8-2.3c0-0.1,0-0.3,0-0.4c0-1.7,1.3-3,3-3s3,1.3,3,3C42,53.7,40.7,55,39,55L39,55z"></path>
    </g>
    <g>
        <path fill="#E9F1F8" d="M55,57.5c-3,0-5.5-2.5-5.5-5.5s2.5-5.5,5.5-5.5s5.5,2.5,5.5,5.5S58,57.5,55,57.5z M55,48.5
		c-1.9,0-3.5,1.6-3.5,3.5s1.6,3.5,3.5,3.5s3.5-1.6,3.5-3.5S56.9,48.5,55,48.5z"></path>
        <path fill="#5F7886" d="M55,47c2.8,0,5,2.2,5,5s-2.2,5-5,5s-5-2.2-5-5S52.2,47,55,47 M55,56c2.2,0,4-1.8,4-4s-1.8-4-4-4s-4,1.8-4,4
		S52.8,56,55,56 M55,46c-3.3,0-6,2.7-6,6s2.7,6,6,6c3.3,0,6-2.7,6-6S58.3,46,55,46L55,46z M55,55c-1.7,0-3-1.3-3-3s1.3-3,3-3
		s3,1.3,3,3S56.7,55,55,55L55,55z"></path>
    </g>
</svg>