<svg version="1.1" id="Layer_1" 
    xmlns="http://www.w3.org/2000/svg" 
    xmlns:xlink="http://www.w3.org/1999/xlink" x="0px" y="0px" viewBox="0 0 65 65" enable-background="new 0 0 65 65" xml:space="preserve">
    <g>
        <path fill="#EAF2F9" d="M46.5,58.5c-0.6,0-1.5-0.5-1.5-1V29l0,0c-2.1,0-3-2.4-3-4V5.5c0-1,0.3-1,0.5-1s0.5,0,0.5,1V22h3V5.5
		c0-1,0.3-1,0.5-1c0.2,0,0.5,0,0.5,1V22h3V5.5c0-1,0.3-1,0.5-1c0.2,0,0.5,0,0.5,1V25c0,1.6,0.1,4-2,4h-1v28.5
		C48,58,47.1,58.5,46.5,58.5z"></path>
        <g>
            <path fill="#5F7887" d="M51,6v19c0,3-1.5,3-2,3h-1v1l0,28.5c-0.1,0.2-0.6,0.5-1,0.5s-0.9-0.3-1-0.5V29v-1h-1c-0.5,0-2,0-2-3v-3h1
			h2h1h1h2h1v-1V6 M51,4c-0.8,0-1,0.7-1,1.5V21h-2V5.5C48,4.7,47.8,4,47,4c-0.8,0-1,0.7-1,1.5V21h-2V5.5C44,4.7,43.8,4,43,4
			c-0.8,0-1,0.7-1,1.5V25c0,2.2,0.8,4,3,4v28.5c0,0.8,1.2,1.5,2,1.5s2-0.7,2-1.5V29c2.2,0,3-1.8,3-4V5.5C52,4.7,51.8,4,51,4L51,4z"></path>
        </g>
    </g>
    <g>
        <path fill="#A4D399" d="M12.7,50.6c-0.7,0-1.5-0.6-2.7-1.7c-0.6-0.5-1.7-1.4-2-1.4c-3,0-5.5-2.5-5.5-5.5S5,36.5,8,36.5
		s5.5,2.5,5.5,5.5c0,0.4,0.1,1.2,0.2,2c0.4,3.1,0.6,5.6-0.4,6.3C13.1,50.5,12.9,50.6,12.7,50.6L12.7,50.6z M8,39.5
		c-1.4,0-2.5,1.1-2.5,2.5s1.1,2.5,2.5,2.5c0.5,0,1.1,0.3,1.8,0.6c0.5,0.2,1.1,0.5,1.5,0.5c-0.3-1-0.9-3-0.9-3.6
		C10.5,40.6,9.4,39.5,8,39.5z"></path>
        <path fill="#0E9B49" d="M8,37c2.8,0,5,2.2,5,5c0,1.6,1.2,7.1,0,8c-0.1,0.1-0.1,0.1-0.2,0.1C11.7,50.1,9,47,8,47c-2.8,0-5-2.2-5-5
		C3,39.2,5.2,37,8,37 M11.6,46.1c0.2,0,0.3,0,0.4-0.1c0,0-1-3.2-1-4c0-1.7-1.3-3-3-3s-3,1.3-3,3c0,1.7,1.3,3,3,3
		C8.7,45,10.7,46.1,11.6,46.1 M8,36c-3.3,0-6,2.7-6,6c0,3.3,2.7,6,5.9,6c0.3,0.1,1.2,0.8,1.8,1.3c1.3,1.1,2.2,1.8,3,1.8
		c0.3,0,0.6-0.1,0.8-0.3c1.2-0.9,1-3.3,0.6-6.8c-0.1-0.8-0.2-1.6-0.2-2C14,38.7,11.3,36,8,36L8,36z M10.6,44.8
		c-0.2-0.1-0.4-0.2-0.6-0.2C9.2,44.3,8.5,44,8,44c-1.1,0-2-0.9-2-2c0-1.1,0.9-2,2-2s2,0.9,2,2C10,42.5,10.3,43.8,10.6,44.8
		L10.6,44.8z"></path>
    </g>
    <g>
        <path fill="#A4D399" d="M14.8,58.5l-4.4-14.3c-0.6-1.8-0.9-3.7-0.9-5.6v-4.4c0-0.9,0.7-1.7,1.7-1.7h22.7c0.9,0,1.7,0.8,1.7,1.7v4.4
		c0,1.9-0.3,3.8-0.9,5.6l-4.4,14.3H14.8z"></path>
        <g>
            <path fill="#0E9B49" d="M33.8,33c0.6,0,1.2,0.5,1.2,1.2v4.4c0,1.9-0.3,3.7-0.8,5.5L29.9,58H15.1l-4.3-13.9
			c-0.6-1.8-0.8-3.6-0.8-5.5v-4.4c0-0.6,0.5-1.2,1.2-1.2H33.8 M33.8,32H11.2C10,32,9,33,9,34.2v4.4c0,2,0.3,3.9,0.9,5.8L14.4,59
			h16.2l4.5-14.6c0.6-1.9,0.9-3.8,0.9-5.8v-4.4C36,33,35,32,33.8,32L33.8,32z"></path>
        </g>
    </g>
    <path fill="none" stroke="#B2C1CA" d="M18,18c0.8,0.8,0.8,2.2,0,3l-1.4,1.4c-0.8,0.8-0.8,2.2,0,3l1.6,1.6c0.8,0.8,0.6,2.2-0.2,3"></path>
    <path fill="none" stroke="#B2C1CA" d="M23.2,18c0.8,0.8,0.8,2.2,0,3l-1.4,1.4c-0.8,0.8-0.8,2.2,0,3l1.6,1.6c0.8,0.8,0.6,2.2-0.2,3"></path>
    <path fill="none" stroke="#B2C1CA" d="M28,18c0.8,0.8,0.8,2.2,0,3l-1.4,1.4c-0.8,0.8-0.8,2.2,0,3l1.6,1.6c0.8,0.8,0.6,2.2-0.2,3"></path>
    <g>
        <path fill="#EAF2F9" d="M59.5,58.5c-0.6,0-1.5-0.5-1.5-1V33.8l-2-1.9V12c0-2.4,2-7,5-7.5v53C61,58,60.1,58.5,59.5,58.5z"></path>
        <g>
            <path fill="#5F7887" d="M61,5v5.6v21.8l0,25.1c-0.1,0.2-0.6,0.5-1,0.5s-0.9-0.3-1-0.5V34v-0.4l-0.3-0.3L57,31.7V12
			C57,10.1,58.4,5.9,61,5 M62,4c-4,0-6,5.3-6,8v20.1l2,1.9v23.5c0,0.8,1.2,1.5,2,1.5s2-0.7,2-1.5V32.4V10.6V4L62,4z"></path>
        </g>
    </g>
</svg>