<svg width="284" height="284" viewBox="0 0 284 284" xmlns="http://www.w3.org/2000/svg" xmlns:xlink="http://www.w3.org/1999/xlink"><title>tiled background copy 2</title><defs><path id="a" d="M0 0h284v284H0z"/></defs><g fill="none" fill-rule="evenodd"><mask id="b" fill="#fff"><use xlink:href="#a"/></mask><g stroke="#E4E9EB" mask="url(#b)" stroke-linecap="round" stroke-linejoin="round"><path d="M306.702 109.278c-3.339.175-7.44-2.88-11.402-.598-3.394 1.956-4.678 4.796-4.38 7.35-2.069-1.535-5.174-1.842-8.565.113-3.964 2.282-3.366 7.357-5.184 10.155-1.82 2.8-6.523 2.48-8.56.357 0 0 6.827 10.638 18.104 4.138 5.367-3.093 7.152-7.168 6.706-10.435 2.612 2.017 7.04 2.512 12.407-.583 11.276-6.497 5.461-17.72 5.461-17.72.824 2.826-1.25 7.048-4.587 7.223zM22.536 109.278c-3.338.175-7.44-2.88-11.401-.598-3.394 1.956-4.678 4.796-4.38 7.35-2.069-1.535-5.174-1.842-8.565.113-3.964 2.282-3.366 7.357-5.184 10.155-1.82 2.8-6.524 2.48-8.56.357 0 0 6.827 10.638 18.104 4.138 5.367-3.093 7.152-7.168 6.706-10.435 2.612 2.017 7.04 2.512 12.406-.583 11.277-6.497 5.462-17.72 5.462-17.72.824 2.826-1.25 7.048-4.588 7.223z" stroke-width="1.25"/><path d="M39.391 274.488l-13.578-23.74 3.148-8.703 9.085 1.758 13.578 23.74z"/><path d="M33.261 249.573a2.245 2.245 0 0 1-3.06-.835 2.243 2.243 0 0 1 3.897-2.22 2.237 2.237 0 0 1-.837 3.055zM32.026 247.698c-9.123-2.635-9.967-24.45-9.967-24.45M19.347 229.97s11.32 6.013 12.699 12.328M38.677 254.869l1.177-.68-1.86-3.22-1.929 1.11.015 4.287-1.775 1.023-1.863-3.223 1.054-.605M39.849 252.046l.13-.075M32.45 256.31l-.186.108M148.04 197.815l-47.09 27.14a3.416 3.416 0 0 1-4.666-1.247l-20.643-35.692a3.406 3.406 0 0 1 1.25-4.658l47.09-27.143a3.418 3.418 0 0 1 4.666 1.25l20.643 35.693a3.406 3.406 0 0 1-1.25 4.657z"/><path d="M136.853 176.732c.385.67.157 1.525-.514 1.91a1.4 1.4 0 1 1 .513-1.91zM88.945 204.143a.186.186 0 0 1-.07.258.188.188 0 1 1-.188-.328.19.19 0 0 1 .258.07zM141.583 195.177l-41.13 23.705-18.54-32.058 41.128-23.705zM184.922 173.023c1.953 3.388 2.567 18.653 2.567 18.653s-12.907-8.208-14.86-11.595a7.074 7.074 0 0 1 2.612-9.665 7.1 7.1 0 0 1 9.681 2.607z"/><path d="M181.285 174.306a3.292 3.292 0 0 1-1.214 4.495 3.303 3.303 0 0 1-4.503-1.212 3.291 3.291 0 0 1 1.215-4.495 3.302 3.302 0 0 1 4.502 1.212zM35.45 28.961c5.353 3.103 7.176 9.95 4.069 15.297-3.108 5.345-9.967 7.166-15.324 4.063-5.354-3.102-7.177-9.95-4.07-15.297 3.108-5.346 9.97-7.165 15.324-4.063zM29.822 38.641l-5.897-3.415M29.822 38.641l4.936-1.38M170.483 148.475c-.854 6.122-6.516 10.394-12.65 9.542-6.13-.85-10.412-6.505-9.558-12.625.854-6.123 6.516-10.395 12.65-9.545 6.132.852 10.412 6.505 9.558 12.627zM159.38 146.933l.938-6.743M159.38 146.933l3.145 4.043M151.572 113.094l-13.318-7.618 4.648 14.602 3.29-2.65 3.764 4.658 2.091-1.685-3.763-4.657zM206.842 124.524l-19.33 11.143-1.05-2.77 18.068-11.412z"/><path d="M207.92 123.903l-21.488 12.384 1.327 2.296 21.49-12.386zM199.77 116.866c-.346 2.323 2 1.408 1.655 3.73M216.02 141.468l-18.4 10.605-6.93-9.245 20.773-11.972z"/><path d="M210.71 131.288l-2.118-4.713-20.177 11.63 3.03 4.188M198.2 151.736l4.973 6.88 15.747-9.075-3.481-7.737M152.41 73.582l-24.992 14.405a1.298 1.298 0 0 1-1.77-.472l-8.1-14.005a1.293 1.293 0 0 1 .474-1.768l24.992-14.405a1.298 1.298 0 0 1 1.77.473l8.1 14.005c.358.617.147 1.41-.474 1.767z"/><path d="M147.774 63.07l-27.198 15.674-2.009-3.472 27.199-15.675zM206.401 91.619c2.126 3.674.864 8.375-2.817 10.497-3.682 2.12-8.39.862-10.516-2.812a7.68 7.68 0 0 1 2.818-10.498c3.683-2.122 8.389-.862 10.515 2.813z"/><path d="M202.552 95.882a2.84 2.84 0 0 1-5.264.99 2.83 2.83 0 0 1 1.04-3.872 2.835 2.835 0 0 1 2.399-.205M197.59 91.752l4.29 7.417M69.323 234.636c2.126 3.675.864 8.375-2.818 10.498-3.681 2.12-8.39.862-10.515-2.813a7.68 7.68 0 0 1 2.817-10.497c3.684-2.123 8.39-.863 10.516 2.812z"/><path d="M65.474 238.9a2.84 2.84 0 0 1-5.264.99 2.83 2.83 0 0 1 1.039-3.872 2.835 2.835 0 0 1 2.4-.205M60.512 234.77l4.29 7.417M15.78 155.333l6.542-3.775M40.54 153.989l6.538-3.775M51.694 152.121L20.797 169.93l-9.431-16.305 30.897-17.808z"/><path d="M36.972 149.737a6.265 6.265 0 0 1-2.3 8.567 6.29 6.29 0 0 1-8.584-2.295 6.265 6.265 0 0 1 2.301-8.567 6.288 6.288 0 0 1 8.583 2.294z"/><path d="M31.618 150.865l-1.795 2.052 3.46-.01-1.867 1.93M107.99 92.933l1.21 9.26-5.393-.503 11.768 20.03-22.574 13.01-11.206-20.352-2.262 4.912-7.713-5.51 5.157-9.122 5.173-3.36a5.706 5.706 0 0 0 7.979 2.447 5.689 5.689 0 0 0 1.868-8.125l5.502-2.79 10.49.103zM93 134.731l-13.212-23.963M115.574 121.743l-12.776-21.82M240.697 13.62a2.515 2.515 0 0 1 3.421.914l16.1 27.838a2.505 2.505 0 0 1-.916 3.415l-43.873 25.288a2.515 2.515 0 0 1-3.42-.915l-16.1-27.84a2.506 2.506 0 0 1 .916-3.416l43.872-25.285z"/><path d="M241.367 17.225l15.055 26.032-42.197 24.32-15.053-26.032zM262.779 43.791l1.472 2.548-51.157 29.487-1.475-2.55zM178.046 43.998l-12.531 7.222.796-4.995 7.002-4.038zM178.046 43.998l-12.531 7.222 10.26 3.295zM170.026 48.62l-.223-4.41M169.804 44.21l3.714 2.398"/><path d="M173.534 46.598l-3.508 2.023 5.594 5.63z"/><path d="M171.919 56.384c-2.45 3.315-2.855 7.892-.659 11.687 2.955 5.11 9.499 6.86 14.615 3.91 5.119-2.95 6.872-9.482 3.917-14.592-2.194-3.792-6.369-5.733-10.468-5.273"/><path d="M-6.17-11.051c-8.965 5.168-13.137 14.713-9.318 21.317 1.425 2.46 3.754 4.165 6.581 5.07l1.417 10.17 7.644-9.802c2.499-.482 5.058-1.423 7.51-2.835C16.629 7.701 20.8-1.843 16.982-8.449c-3.821-6.604-14.186-7.77-23.152-2.602zM-6.17 272.622c-8.965 5.167-13.137 14.712-9.318 21.317 1.425 2.46 3.754 4.165 6.581 5.07l1.417 10.17 7.644-9.8c2.499-.485 5.058-1.425 7.51-2.837 8.965-5.168 13.137-14.713 9.318-21.318-3.821-6.605-14.186-7.77-23.152-2.602zM277.988 272.622c-8.965 5.167-13.138 14.712-9.319 21.317 1.423 2.46 3.754 4.165 6.582 5.07l1.417 10.17 7.643-9.8c2.5-.485 5.059-1.425 7.51-2.837 8.966-5.168 13.138-14.713 9.319-21.318-3.822-6.605-14.187-7.77-23.152-2.602zM277.988-11.051c-8.965 5.168-13.138 14.713-9.319 21.317 1.423 2.46 3.754 4.165 6.582 5.07l1.417 10.17 7.643-9.802c2.5-.482 5.059-1.423 7.51-2.835 8.966-5.168 13.138-14.712 9.319-21.318-3.822-6.604-14.187-7.77-23.152-2.602z" stroke-width="1.25"/><g stroke-width="1.25"><path d="M251.567-22.207l-45.432 26.16-11.307-19.573 45.433-26.157z"/><path d="M209.74 1.876L234.708-12.5l-9.046-15.66-24.97 14.374z"/></g><path d="M86.648 150.434c3.228 5.524 1.36 12.617-4.177 15.84-5.535 3.222-12.637 1.355-15.865-4.17-3.23-5.526-1.36-12.616 4.175-15.84 5.534-3.223 12.639-1.356 15.867 4.17z" stroke-width="1.25"/><path d="M73.44 167.403a11.548 11.548 0 0 1 5.432-7.287 11.588 11.588 0 0 1 9.03-1.135M65.35 153.556c2.932.835 6.188.522 9.03-1.133a11.56 11.56 0 0 0 5.432-7.287M70.781 146.265l11.69 20.007M66.605 162.104l20.042-11.67M166.903 101.581l3.138-1.802c-.91-4.886 1.252-10.02 5.772-12.683l-2.64-4.58-22.79 13.09 2.636 4.58c4.578-2.56 10.11-1.847 13.884 1.395z" stroke-width="1.25"/><path stroke-width="1.25" d="M165.82 87.133l-.747 7.098 3.273 5.673M157.982 91.242l6.18 2.205M251.567 261.793l-45.432 26.16-11.307-19.573 45.433-26.157zM231.54 227.126l-44.782 25.782-2.038-3.527 44.781-25.783z"/><path stroke-width="1.25" d="M241.83 234.285l3.05 5.277-54.018 31.103-3.05-5.278M236.37 237.428l5.46-3.143-11.98-6.185-41.398 23.835-.639 13.45 5.457-3.142M226.793 242.942l4.888-2.815M217.215 248.457l4.789-2.758M207.638 253.971l4.788-2.757M198.06 259.486l4.788-2.758"/><path d="M194.026 263.636c.598 1.035 5.386-1.723 4.788-2.758l-.754-1.392-2.013-11.925-3.744 2.157.969 12.525.754 1.393zM203.603 258.121c.551.953 5.34-1.805 4.789-2.757l-.754-1.393-4.105-10.72-3.744 2.155 3.06 11.323.754 1.392zM237.125 238.82c.551.953-4.14 3.653-4.69 2.7l-.754-1.392-9.428-7.655 3.743-2.155 10.376 7.11.753 1.392zM227.548 244.335c.55.952-4.24 3.71-4.789 2.757l-.756-1.392-7.237-8.915 3.744-2.158 8.284 8.315.754 1.393zM217.964 249.839c.558.967-4.23 3.724-4.788 2.757l-.75-1.382-5.148-10.118 3.744-2.158 6.193 9.518.749 1.383zM238.046 269.577l9.925-5.714-9.048-15.658-9.925 5.713zM209.74 285.875l24.968-14.375-9.046-15.66-24.97 14.376zM202.558 273.467l24.977-14.382M215.052 266.274l7.172 12.414M100.047 64.252c-8.562-14.802-15.61-4.593-19.18-4.968-13.774-1.452-19.386.823-20.498-.265-4.853-4.744-11.066-7.09-12.22-5.964-1.158 1.125.666 6.804-3.942 9.46-4.608 2.654-3.674.81-5.848 2.062-2.176 1.255-.46 3.385.346 4.78.809 1.395 10.03 17.34 10.03 17.34l2.328 5.787M61.229 59.31l-2.572 18.875" stroke-width="1.25"/><path d="M78.88 59.095s-.722 3.35-5.102 3.452c-2.933.068-12.955 1.583-12.955 1.583M48.735 86.697c3.408-7.35 12.383-1.76 16.68-6.415 2.542-2.75 9.164-4.983 18.477-6.717M43.337 77.2c6.234-7.23 2.517-10.752 10.536-22.88M54.994 58.067a.122.122 0 0 1-.045.165.12.12 0 0 1-.166-.042.12.12 0 0 1 .045-.168.122.122 0 0 1 .166.045zM66.81 57.963l.068 2.705M64.39 57.87l-.147 2.378M69.497 57.786l-.095 2.87M72.323 60.914l.108-2.602M74.968 59.99l.98-2.013" stroke-width="1.25"/><path d="M74.272 75.826s2.058-3.243 2.206-6.565c.148-3.325 9.619-3.39 17.22-12.108M45.895 81.787l5.229-3.015c2.124-1.223 9.71-.712 14.292 1.51M76.627 68.355L59.582 78.18M85.588 59.888l.07-.04M83.375 61.164l.07-.04M80.796 61.973l.07-.04M38.917 69.732c-.757-1.31-2.815-2.405-3.892-2.118-1.788.483-1.207 1.995-.015 1.738.974-.213 3.17-.905 4.558 1.498M47.629 68.78s6.799-5.837 12.564-1.87M71.079 86.123a34.157 34.157 0 0 1 7.563-3.218l25.5-14.7-3.275-4.427-50.461 29.085 2.74 4.738 11.36-6.548a34.194 34.194 0 0 1 6.573-4.93zM135.869 39.492l-2.17.37-.207 2.232-1.395-.43-2.5.56-1.602 1.805-2.527.665-2.764 2.385-.922 1.765-1.46-.393-1.59.3-.581 1.745-1.468.053-19.1-33.023L116.771 6.47z" stroke-width="1.25"/><path stroke-width="1.25" d="M115.872 15.44l-10.057 5.795-1.986-3.433 10.057-5.797zM106.283 25.018l12.637-7.283M107.62 27.33l10.52-6.063M108.957 29.64l10.52-6.062M110.294 31.953l12.637-7.283M112.968 36.576l7.916-4.563M114.305 38.887l7.916-4.562M115.641 41.199l12.637-7.282M124.366 39.252l5.249-3.024M17.027 198.08l4.586 7.93 4.618-2.662-4.586-7.93 2.632-1.515-7.86-2.202-2.022 7.897z"/><g stroke-width="1.25"><path d="M-12.446 225.57a5.577 5.577 0 0 1-5.582-5.572c0-3.078 2.499-5.573 5.582-5.573a5.577 5.577 0 0 1 5.582 5.572c0 3.078-2.5 5.573-5.582 5.573zm0-20.945c-8.505 0-15.4 6.883-15.4 15.373 0 8.49 6.895 15.37 15.4 15.37 8.504 0 15.398-6.88 15.398-15.37 0-8.49-6.894-15.373-15.398-15.373zM-1.033 221.526l.819.583"/></g><path d="M60.4 191.27c.795 1.37.902 3.02.895 4.498M48.361 203.223c-1.285-.733-2.662-1.65-3.456-3.02" stroke-width="1.25"/><path stroke-width="1.25" d="M61.794 195.48l3.168 21.537L47.86 203.51zM47.516 184.13a1.85 1.85 0 0 0-.879 1.202 1.855 1.855 0 0 0-2.166 2.698c.516.887 1.728 2.447 4.287.972 2.56-1.475 1.813-3.305 1.3-4.192a1.864 1.864 0 0 0-2.542-.68z"/><path d="M50.487 187.072c-.176.642-.664 1.317-1.728 1.93-1.065.612-1.894.697-2.537.527-2.707 2.795-3.358 7.14-1.315 10.673.701 1.212 2.136.417 2.32-.798.18-1.212-.414-2.217.515-2.792.93-.575 1.938 1.41 2.958.117 1.021-1.295-1.781-3.415-.22-4.412 1.562-.995 2.982 2.655 4.301 1.737 1.323-.915-.626-2.822.702-3.46.646-.307 1.69 1.575 2.97 2.34 1.355.808 2.907.453 1.948-1.662-1.683-3.718-6.138-5.143-9.914-4.2zM42.265 181.259s2.324-1.045 4.372 4.073M58.194 197.555l1.615 15.393M54.137 199.892l1.037 9.393M50.59 201.937l13.27 7.59M55.82 198.923l6.958 3.697M79.008 37.819c-3.13 1.802-5.442 1.797-6.088.682l-5.001-8.647c-1.708-2.955 4.685-6.715 1.362-12.46-3.323-5.748-7.598-7.598-7.598-7.598l-8.046 4.638s-.53 4.62 2.792 10.367c3.323 5.745 9.782 2.098 11.49 5.053 1.71 2.957 4.357 7.532 5 8.647.647 1.115-.505 3.118-3.635 4.923M69.954 19.49s-5.45 4.82-12.043 6.94M142.024 240.882l9.271 9.522 18.622-10.732-3.776-12.69" stroke-width="1.25"/><path stroke-width="1.25" d="M152.026 235.743l6.721 10.365 3.594-2.072-2.902-5.598"/><path stroke-width="1.25" d="M148.952 241.741l5.71 6.723 11.832-6.82-3.35-8.953M143.533 240.149a6.466 6.466 0 0 1-8.827-2.363 6.44 6.44 0 0 1 2.366-8.81 6.393 6.393 0 0 1 2.955-.86M137.547 228.565a6.152 6.152 0 0 1 2.259-8.412 6.15 6.15 0 0 1 3.721-.792"/><path d="M143.412 221.278a7.562 7.562 0 0 1 3.774-7.07c3.624-2.09 8.259-.85 10.35 2.767.473.818.776 1.688.92 2.565" stroke-width="1.25"/><path d="M157.707 217.287a6.41 6.41 0 0 1 9.486 1.843 6.387 6.387 0 0 1-2.343 8.732 6.384 6.384 0 0 1-4.859.638M152.318 234.083a4.395 4.395 0 0 1-2.204 3.897 4.393 4.393 0 0 1-3.621.355" stroke-width="1.25"/><path d="M161.433 228.714a6.816 6.816 0 0 1-3.341 4.873 6.854 6.854 0 0 1-8.242-1.067M155.889 222.538a6.733 6.733 0 0 1-8.312 1.533" stroke-width="1.25"/><path d="M149.214 224.695a4.522 4.522 0 0 1-2.124 5.057 4.5 4.5 0 0 1-1.97.597M299.163 76.48l-2.953 1.703-15.687-27.128 2.95-1.702z" stroke-width="1.25"/><path stroke-width="1.25" d="M281.658 46.819l-2.427 1.397 1.555 2.687 2.424-1.397zM15.005 76.48l-2.953 1.703-15.686-27.128 2.95-1.702zM7.031 57.747l-4.593-7.942L.345 51.01"/><path stroke-width="1.25" d="M15.005 76.48l-2.953 1.703 4.483 6.38 1.765-1.018zM17.418 84.055l1.032 1.785M270.506 161.553l-19.546 11.264-16.596-28.697.965-3.597 14.975-8.633c1.408.378 2.199.588 3.606.965l16.596 28.698z"/><path d="M261.166 150.083c2.469 4.268 1.004 9.728-3.273 12.193-4.275 2.462-9.745 1-12.211-3.268-2.47-4.27-1.004-9.727 3.27-12.192 4.278-2.465 9.744-1 12.214 3.267z" stroke-width="1.25"/><path d="M254.346 154.014c.293.507.12 1.16-.391 1.452a1.065 1.065 0 1 1 .39-1.452zM253.761 153.54l1.265-3.763M251.821 159.315l1.265-3.763M244.788 152.236l1.011.27M261.047 156.585l1.011.27M251.11 163.167l.27-1.01M255.466 146.935l.27-1.01M248.953 146.816l.523.905M257.37 161.369l.523.905M245.68 159.008l.907-.523M260.258 150.606l.907-.522M243.314 141.418l.799-2.972 2.977.795M244.112 138.446l3.14 5.43M251.412 135.007l-1.482.856M255.473 142.03l-1.482.854M254.12 139.689l-1.483.855M252.766 137.348l-1.482.855M100.245 264.165c-14.49.037-22.07 8.058-22.07 8.058l-2.567 2.854-7.175-12.412 3.76-.783s10.68-3.167 18.736-16.034M108.92 260.289l5.694 15.417-7.385 4.258-5.778-15.228" stroke-width="1.25"/><path d="M109.77 247.114c3.138 5.427 1.278 12.367-4.16 15.5-5.436 3.135-12.388 1.275-15.528-4.152-3.138-5.428-1.275-12.368 4.162-15.5 5.437-3.135 12.388-1.275 15.526 4.152z" stroke-width="1.25"/><path d="M101.733 251.747c.576.994.233 2.27-.764 2.844a2.086 2.086 0 0 1-2.847-.762 2.08 2.08 0 0 1 .761-2.845c1-.575 2.274-.232 2.85.763zM102.355 267.115l-1.562.352 1.532 3.883 1.53-.28M102.743 257.658l.781 1.352M96.328 246.565l.781 1.353M93.694 256.38l1.354-.78M104.805 249.976l1.354-.78M105.367 254.243l1.51.405M92.975 250.928l1.51.405M98.064 259.728l.406-1.508M101.385 247.356l.405-1.507M72.184 261.866l5.995 10.367M278.088 93.768l-37.72 21.74-12.378-21.402 37.72-21.74zM246.85 83.237l13.413 20.36M271.296 82.026l-36.715 23.48" stroke-width="1.25"/><path d="M246.467 83.458c-1.135-.345-4.173-2.83-1.207-7.077 2.967-4.25 7.527-3.025 4.908.547-2.62 3.57-3.318 6.31-3.318 6.31s-2.4-4.392-8.282-3.41c-5.885.983-4.43 5.85 1.61 4.073 4.54-1.338 6.672-.663 6.672-.663M246.397 83.145s-3.088 1.793-.506 6.38M254.564 88.655c-1.12-2.928-5.304-5.2-7.446-6.37M150.278 277.18c-5.504 3.172-10.205-2.885-10.205-2.885l-1.938 1.117s14.079 14.01 13.916 20.375c-.163 6.365 1.961 11.635 8.875 23.59l10.318-5.947" stroke-width="1.25"/><path d="M150.278 277.18c5.505-3.173 2.6-10.265 2.6-10.265l1.938-1.118s5.114 19.175 10.718 22.22c5.602 3.043 9.113 7.513 16.028 19.468l-10.318 5.945M150.278-6.493c-5.504 3.172-10.205-2.885-10.205-2.885l-1.938 1.117s14.079 14.01 13.916 20.375c-.163 6.365 1.961 11.635 8.875 23.59l2.417-2.305 3.744.518 1.695-2.74 2.181-1.313" stroke-width="1.25"/><path d="M150.278-6.493c5.505-3.173 2.6-10.265 2.6-10.265l1.938-1.118S159.93 1.3 165.534 4.344c5.602 3.043 9.113 7.513 16.028 19.468l-2.913.647-.135 3.335-2.893-.332-1.785 2.402h-2.873M151.013 7.805l11.207-6.637M163.788 2.993l-12.046 6.892M208.8 182.09c-.929-1.263-2.078-5.498 2.82-6.72 4.896-1.225 7.057 3.725 4.78 6.535-2.278 2.812.566 6.557.566 6.557s18.512-.567 23.919-.387c5.409.18 5.624 5.052 3.073 6.522-2.552 1.473-23.72 13.673-32.353 18.648-8.632 4.975-8.672-1.498-7.187-3.95 1.482-2.453 11.038-20.09 12.28-21.07 1.245-.978.03-1.79-.73-1.605-.76.185-2.21-1.035.017-1.573M271.554 225.57a5.577 5.577 0 0 1-5.582-5.572c0-3.078 2.499-5.573 5.582-5.573a5.577 5.577 0 0 1 5.582 5.572c0 3.078-2.5 5.573-5.582 5.573zm0-20.945c-8.505 0-15.4 6.882-15.4 15.373 0 8.49 6.895 15.37 15.4 15.37 8.504 0 15.398-6.88 15.398-15.37 0-8.49-6.894-15.373-15.398-15.373zM271.866 208.85l-.506 1.05M276.852 211.572l2.492.74M279.41 216.705l.48.965M265.09 214.41h-.802M260.415 216.122l.819 1.282M262.618 225.181l-.956 1.245M265.556 227.98l.82 1.168M262.87 220.71l-.73.04M275.567 229.886l1.284 2.015M280.435 225.181l-1.557-2.1M282.967 221.526l.819.583M273.658 227.98l-1.79 1.36M271.613 232.375l.644.545M268.75 229.886l-.35 1.672M266.803 210.756l-1.247-.855" stroke-width="1.25"/></g></g></svg>