<svg width="126" height="73" viewBox="0 0 126 73" xmlns="http://www.w3.org/2000/svg" xmlns:xlink="http://www.w3.org/1999/xlink"><title>Ecommerce</title><defs><path id="a" d="M0 73h99V.668H0z"/><path id="c" d="M15.379 9.15V.546H.178V9.15z"/><path id="e" d="M16.379 9.15V.546H0V9.15z"/><path id="g" d="M10.379 8.124V.54H.268v7.585h10.111z"/><path id="i" d="M10.379 8.124V.54H.268v7.585h10.111z"/><path id="k" d="M2.379 4.845V.539H.434v4.306H2.38z"/><path id="m" d="M15.379 3.247V.124H.179v3.123h15.2z"/><path id="o" d="M16.379 4V.124H0V4h16.379z"/><path id="q" d="M.712.546V9.15h14.486V.546H.712z"/><path id="s" d="M.712 0v10.15H17V0H.712z"/><path id="u" d="M.712.54v7.584h9.918V.54H.712z"/><path id="w" d="M.712.54v7.584h9.918V.54H.712z"/><path id="y" d="M.712.72v1.927h.07V.72h-.07z"/><path id="A" d="M.712.124v3.123h14.5V.124H.712z"/><path id="C" d="M.712.124V4H16V.124H.712z"/></defs><g fill="none" fill-rule="evenodd"><g transform="translate(13 -.668)"><path d="M96.784 66.842h-93V5.576a4.159 4.159 0 0 1 4.158-4.158h84.684a4.159 4.159 0 0 1 4.158 4.158v61.266z" fill="#D7E5F0"/><path d="M96.784 66.842h-93V5.576a4.159 4.159 0 0 1 4.158-4.158h84.684a4.159 4.159 0 0 1 4.158 4.158v61.266z" stroke="#211F1F" stroke-width="1.5"/><mask id="b" fill="#fff"><use xlink:href="#a"/></mask><path fill="#FFF" mask="url(#b)" d="M8.712 61.792h82.667V6.448H8.712z"/><path stroke="#211F1F" stroke-width="1.5" stroke-linecap="round" stroke-linejoin="round" mask="url(#b)" d="M8.712 61.792h82.667V6.448H8.712z"/><path fill="#FFF" mask="url(#b)" d="M8.712 61.792h82.667V6.448H8.712z"/></g><path d="M41.68 46.228a6.377 6.377 0 0 1 4.17-5.983l21.074-7.776a2.757 2.757 0 0 1 3.713 2.587v.582l1.746.896c1.28.656 2.78.764 4.127.26 1.675-.627 3.748-1.742 4.358-3.545a1.59 1.59 0 0 1 1.507-1.08h.159a1.6 1.6 0 0 1 1.62 1.593v12.466H41.682z" fill="#FFF"/><path d="M41.68 46.228a6.377 6.377 0 0 1 4.17-5.983l21.074-7.776a2.757 2.757 0 0 1 3.713 2.587v.582l1.746.896c1.28.656 2.78.764 4.127.26 1.675-.627 3.748-1.742 4.358-3.545a1.59 1.59 0 0 1 1.507-1.08h.159a1.6 1.6 0 0 1 1.62 1.593v12.466H41.682z" stroke="#211F1F" stroke-width="1.5" stroke-linecap="round" stroke-linejoin="round"/><path d="M76.69 46.185v-5.358c-5.53 0-10.172-2.965-13.347-7.037l-13.345 4.925v.193l3.109 7.277H76.69z" fill="#FFF"/><path d="M76.69 46.185v-5.358c-5.53 0-10.172-2.965-13.347-7.037l-13.345 4.925v.193l3.109 7.277H76.69zM63.343 33.79c3.175 4.072 7.817 7.037 13.347 7.037" stroke="#211F1F" stroke-width="1.5" stroke-linecap="round" stroke-linejoin="round"/><path d="M73.151 46.228h11.004v-8.155c-5.188 0-9.572 3.435-11.004 8.155" fill="#FFF"/><path d="M73.151 46.228h11.004v-8.155c-5.188 0-9.572 3.435-11.004 8.155zM49.995 38.903l3.112 7.282M59.679 34.086l1.735 3.148M57.212 34.976l1.735 3.148M54.728 35.903l1.735 3.148" stroke="#211F1F" stroke-width="1.5" stroke-linecap="round" stroke-linejoin="round"/><path d="M78.039 51.212l1.549-1.472 1.548 1.548a3.711 3.711 0 0 0 3.041-3.65v-1.453H41.681v1.332a3.833 3.833 0 0 0 2.473 3.582l1.359-1.36 1.548 1.473 1.549-1.472 1.549 1.472 1.549-1.472 1.549 1.472 1.549-1.472 1.549 1.472 1.549-1.472 1.548 1.472 1.549-1.472 1.549 1.472 1.549-1.472 1.549 1.472 1.549-1.472 1.549 1.472 1.549-1.472 1.548 1.472 1.549-1.472 1.549 1.472 1.549-1.472 1.549 1.472z" fill="#FFF"/><path d="M78.039 51.212l1.549-1.472 1.548 1.548a3.711 3.711 0 0 0 3.041-3.65v-1.453H41.681v1.332a3.833 3.833 0 0 0 2.473 3.582l1.359-1.36 1.548 1.473 1.549-1.472 1.549 1.472 1.549-1.472 1.549 1.472 1.549-1.472 1.549 1.472 1.549-1.472 1.548 1.472 1.549-1.472 1.549 1.472 1.549-1.472 1.549 1.472 1.549-1.472 1.549 1.472 1.549-1.472 1.548 1.472 1.549-1.472 1.549 1.472 1.549-1.472 1.549 1.472z" stroke="#211F1F" stroke-width="1.5" stroke-linecap="round" stroke-linejoin="round"/><g transform="translate(89 35.332)"><mask id="d" fill="#fff"><use xlink:href="#c"/></mask><path d="M.178 9.15A3.901 3.901 0 0 1 2.73 5.49L15.626.73a1.686 1.686 0 0 1 2.272 1.583v.357l1.069.547a3.134 3.134 0 0 0 2.525.16c1.025-.383 2.294-1.066 2.667-2.17a.974.974 0 0 1 .923-.66h.097c.556 0 .992.436.992.975V9.15H.178z" fill="#FFF" mask="url(#d)"/></g><g transform="translate(88 35.332)"><mask id="f" fill="#fff"><use xlink:href="#e"/></mask><path d="M1.178 9.15A3.901 3.901 0 0 1 3.73 5.49L16.626.73a1.686 1.686 0 0 1 2.272 1.583v.357l1.069.547a3.134 3.134 0 0 0 2.525.16c1.025-.383 2.294-1.066 2.667-2.17a.974.974 0 0 1 .923-.66h.097c.556 0 .992.436.992.975V9.15H1.178z" stroke="#211F1F" stroke-width="1.5" stroke-linecap="round" stroke-linejoin="round" mask="url(#f)"/></g><g transform="translate(94 36.332)"><mask id="h" fill="#fff"><use xlink:href="#g"/></mask><path d="M16.603 8.124V4.845c-3.384 0-6.225-1.814-8.168-4.306L.268 3.552v.118L2.17 8.124h14.432z" fill="#FFF" mask="url(#h)"/></g><g transform="translate(94 36.332)"><mask id="j" fill="#fff"><use xlink:href="#i"/></mask><path d="M16.603 8.124V4.845c-3.384 0-6.225-1.814-8.168-4.306L.268 3.552v.118L2.17 8.124h14.432z" stroke="#211F1F" stroke-width="1.5" stroke-linecap="round" stroke-linejoin="round" mask="url(#j)"/></g><g transform="translate(102 36.332)"><mask id="l" fill="#fff"><use xlink:href="#k"/></mask><path d="M.434.539c1.944 2.492 4.784 4.306 8.168 4.306" stroke="#211F1F" stroke-width="1.5" stroke-linecap="round" stroke-linejoin="round" mask="url(#l)"/></g><path d="M94.266 40l1.904 4.455M99.693 37.052l1.062 1.927M97.163 38.163l1.062 1.927" stroke="#211F1F" stroke-width="1.5" stroke-linecap="round" stroke-linejoin="round"/><g transform="translate(89 44.332)"><mask id="n" fill="#fff"><use xlink:href="#m"/></mask><path d="M22.428 3.2l.948-.9.947.947a2.271 2.271 0 0 0 1.861-2.233v-.89H.178V.94c0 1.002.63 1.855 1.513 2.192l.832-.832.947.901.948-.9.948.9.948-.9.948.9.948-.9.948.9.948-.9.948.9.947-.9.948.9.948-.9.948.9.948-.9.948.9.948-.9.947.9.948-.9.948.9.948-.9.948.9z" fill="#FFF" mask="url(#n)"/></g><g transform="translate(88 44.332)"><mask id="p" fill="#fff"><use xlink:href="#o"/></mask><path d="M23.428 3.2l.948-.9.947.947a2.271 2.271 0 0 0 1.861-2.233v-.89H1.178V.94c0 1.002.63 1.855 1.513 2.192l.832-.832.947.901.948-.9.948.9.948-.9.948.9.948-.9.948.9.948-.9.948.9.947-.9.948.9.948-.9.948.9.948-.9.948.9.948-.9.947.9.948-.9.948.9.948-.9.948.9z" stroke="#211F1F" stroke-width="1.5" stroke-linecap="round" stroke-linejoin="round" mask="url(#p)"/></g><g transform="translate(21 35.332)"><mask id="r" fill="#fff"><use xlink:href="#q"/></mask><path d="M-10.795 9.15a3.901 3.901 0 0 1 2.552-3.66L4.653.73a1.686 1.686 0 0 1 2.272 1.583v.357l1.07.547a3.134 3.134 0 0 0 2.524.16c1.025-.383 2.294-1.066 2.667-2.17a.974.974 0 0 1 .923-.66h.097c.556 0 .992.436.992.975V9.15h-25.993z" fill="#FFF" mask="url(#r)"/></g><g transform="translate(21 34.332)"><mask id="t" fill="#fff"><use xlink:href="#s"/></mask><path d="M-10.795 10.15a3.901 3.901 0 0 1 2.552-3.66L4.653 1.73a1.686 1.686 0 0 1 2.272 1.583v.357l1.07.548a3.134 3.134 0 0 0 2.524.16c1.025-.385 2.294-1.067 2.667-2.17a.974.974 0 0 1 .923-.662h.097c.556 0 .992.438.992.976v7.628h-25.993z" stroke="#211F1F" stroke-width="1.5" stroke-linecap="round" stroke-linejoin="round" mask="url(#t)"/></g><g transform="translate(21 36.332)"><mask id="v" fill="#fff"><use xlink:href="#u"/></mask><path d="M10.63 8.124V4.845c-3.384 0-6.225-1.814-8.168-4.306l-8.167 3.013v.118l1.903 4.454H10.63z" fill="#FFF" mask="url(#v)"/></g><g transform="translate(21 36.332)"><mask id="x" fill="#fff"><use xlink:href="#w"/></mask><path d="M10.63 8.124V4.845c-3.384 0-6.225-1.814-8.168-4.306l-8.167 3.013v.118l1.903 4.454H10.63z" stroke="#211F1F" stroke-width="1.5" stroke-linecap="round" stroke-linejoin="round" mask="url(#x)"/></g><path d="M23.462 36.87c1.943 2.493 4.784 4.307 8.168 4.307" stroke="#211F1F" stroke-width="1.5" stroke-linecap="round" stroke-linejoin="round"/><path d="M29.465 44.482h6.734v-4.99a7.04 7.04 0 0 0-6.734 4.99" fill="#FFF"/><path d="M29.465 44.482h6.734v-4.99a7.04 7.04 0 0 0-6.734 4.99z" stroke="#211F1F" stroke-width="1.5" stroke-linecap="round" stroke-linejoin="round"/><g transform="translate(21 36.332)"><mask id="z" fill="#fff"><use xlink:href="#y"/></mask><path d="M-.28.72L.784 2.647" stroke="#211F1F" stroke-width="1.5" stroke-linecap="round" stroke-linejoin="round" mask="url(#z)"/></g><g transform="translate(21 44.332)"><mask id="B" fill="#fff"><use xlink:href="#A"/></mask><path d="M11.456 3.2l.948-.9.947.947a2.271 2.271 0 0 0 1.86-2.233v-.89h-26.005V.94c0 1.002.629 1.855 1.513 2.192l.832-.832.948.901.947-.9.948.9.948-.9.948.9.948-.9.948.9.948-.9.948.9.947-.9.948.9.948-.9.948.9.948-.9.948.9.948-.9.948.9.947-.9.948.9.948-.9.948.9z" fill="#FFF" mask="url(#B)"/></g><g transform="translate(21 44.332)"><mask id="D" fill="#fff"><use xlink:href="#C"/></mask><path d="M11.456 3.2l.948-.9.947.947a2.271 2.271 0 0 0 1.86-2.233v-.89h-26.005V.94c0 1.002.629 1.855 1.513 2.192l.832-.832.948.901.947-.9.948.9.948-.9.948.9.948-.9.948.9.948-.9.948.9.947-.9.948.9.948-.9.948.9.948-.9.948.9.948-.9.948.9.947-.9.948.9.948-.9.948.9z" stroke="#211F1F" stroke-width="1.5" stroke-linecap="round" stroke-linejoin="round" mask="url(#D)"/></g><g><path stroke="#211F1F" stroke-width="1.5" stroke-linecap="round" stroke-linejoin="round" d="M21.712 61.124h82.667V5.78H21.712z"/><path d="M118.7 71.582H7.108a6.153 6.153 0 0 1-6.153-6.153v-1.455h123.946v1.407a6.201 6.201 0 0 1-6.2 6.2" fill="#D7E5F0"/><path d="M118.7 71.582H7.108a6.153 6.153 0 0 1-6.153-6.153v-1.455h123.946v1.407a6.201 6.201 0 0 1-6.2 6.2z" stroke="#211F1F" stroke-width="1.5"/><path d="M26.313 23.468a4.601 4.601 0 0 1-4.601-4.601V5.779h9.202v13.088a4.601 4.601 0 0 1-4.601 4.601" fill="#42B573"/><path d="M26.313 23.468a4.601 4.601 0 0 1-4.601-4.601V5.779h9.202v13.088a4.601 4.601 0 0 1-4.601 4.601z" stroke="#211F1F" stroke-width="1.5" stroke-linecap="round" stroke-linejoin="round"/><path d="M35.514 23.468a4.601 4.601 0 0 1-4.6-4.601V5.779h9.201v13.088a4.601 4.601 0 0 1-4.6 4.601" fill="#FFF"/><path d="M35.514 23.468a4.601 4.601 0 0 1-4.6-4.601V5.779h9.201v13.088a4.601 4.601 0 0 1-4.6 4.601z" stroke="#211F1F" stroke-width="1.5" stroke-linecap="round" stroke-linejoin="round"/><path d="M44.716 23.468a4.601 4.601 0 0 1-4.601-4.601V5.779h9.202v13.088a4.601 4.601 0 0 1-4.601 4.601" fill="#42B573"/><path d="M44.716 23.468a4.601 4.601 0 0 1-4.601-4.601V5.779h9.202v13.088a4.601 4.601 0 0 1-4.601 4.601z" stroke="#211F1F" stroke-width="1.5" stroke-linecap="round" stroke-linejoin="round"/><path d="M53.917 23.468a4.601 4.601 0 0 1-4.6-4.601V5.779h9.201v13.088a4.601 4.601 0 0 1-4.6 4.601" fill="#FFF"/><path d="M53.917 23.468a4.601 4.601 0 0 1-4.6-4.601V5.779h9.201v13.088a4.601 4.601 0 0 1-4.6 4.601z" stroke="#211F1F" stroke-width="1.5" stroke-linecap="round" stroke-linejoin="round"/><path d="M63.119 23.468a4.601 4.601 0 0 1-4.601-4.601V5.779h9.202v13.088a4.601 4.601 0 0 1-4.601 4.601" fill="#42B573"/><path d="M63.119 23.468a4.601 4.601 0 0 1-4.601-4.601V5.779h9.202v13.088a4.601 4.601 0 0 1-4.601 4.601z" stroke="#211F1F" stroke-width="1.5" stroke-linecap="round" stroke-linejoin="round"/><path d="M72.32 23.468a4.601 4.601 0 0 1-4.6-4.601V5.779h9.201v13.088a4.601 4.601 0 0 1-4.6 4.601" fill="#FFF"/><path d="M72.32 23.468a4.601 4.601 0 0 1-4.6-4.601V5.779h9.201v13.088a4.601 4.601 0 0 1-4.6 4.601z" stroke="#211F1F" stroke-width="1.5" stroke-linecap="round" stroke-linejoin="round"/><path d="M81.522 23.468a4.601 4.601 0 0 1-4.601-4.601V5.779h9.202v13.088a4.601 4.601 0 0 1-4.601 4.601" fill="#42B573"/><path d="M81.522 23.468a4.601 4.601 0 0 1-4.601-4.601V5.779h9.202v13.088a4.601 4.601 0 0 1-4.601 4.601z" stroke="#211F1F" stroke-width="1.5" stroke-linecap="round" stroke-linejoin="round"/><path d="M90.723 23.468a4.601 4.601 0 0 1-4.6-4.601V5.779h9.201v13.088a4.601 4.601 0 0 1-4.6 4.601" fill="#FFF"/><path d="M90.723 23.468a4.601 4.601 0 0 1-4.6-4.601V5.779h9.201v13.088a4.601 4.601 0 0 1-4.6 4.601z" stroke="#211F1F" stroke-width="1.5" stroke-linecap="round" stroke-linejoin="round"/><path d="M99.925 23.468a4.601 4.601 0 0 1-4.601-4.601V5.779h9.202v13.088a4.601 4.601 0 0 1-4.601 4.601" fill="#42B573"/><path d="M99.925 23.468a4.601 4.601 0 0 1-4.601-4.601V5.779h9.202v13.088a4.601 4.601 0 0 1-4.601 4.601z" stroke="#211F1F" stroke-width="1.5" stroke-linecap="round" stroke-linejoin="round"/><path d="M68.379 67.531H58.76a3.5 3.5 0 0 1-3.5-3.5h16.618a3.5 3.5 0 0 1-3.5 3.5" fill="#FFF"/><path d="M68.379 67.531H58.76a3.5 3.5 0 0 1-3.5-3.5h16.618a3.5 3.5 0 0 1-3.5 3.5z" stroke="#211F1F" stroke-width="1.5" stroke-linecap="round" stroke-linejoin="round"/></g></g></svg>