<svg version="1.1" 
    xmlns="http://www.w3.org/2000/svg" 
    xmlns:xlink="http://www.w3.org/1999/xlink" x="0px" y="0px"  viewBox="0 0 65 65" enable-background="new 0 0 65 65" xml:space="preserve">
    <g id="Layer_1">
        <g id="Stroke-5">
            <rect x="50.5" y="49.5" fill="#FFFFFF" width="3" height="9"></rect>
            <g>
                <path fill="#5F7887" d="M53,50v8h-2v-8H53 M54,49h-4v10h4V49L54,49z"></path>
            </g>
        </g>
        <g id="Stroke-7">
            <path fill="#FFFFFF" d="M43.987,61.5c-0.23,0-0.487-0.356-0.487-0.833v-1.334c0-0.477,0.257-0.833,0.487-0.833h16.027
			c0.229,0,0.485,0.356,0.485,0.833v1.334c0,0.477-0.256,0.833-0.485,0.833H43.987z"></path>
            <g>
                <path fill="#5F7887" d="M59.918,59C59.954,59.057,60,59.173,60,59.333v1.334c0,0.16-0.046,0.275-0.082,0.333H44.082
				C44.046,60.943,44,60.827,44,60.667v-1.334c0-0.16,0.046-0.276,0.082-0.333H59.918 M60.014,58H43.987
				C43.442,58,43,58.598,43,59.333v1.334C43,61.402,43.442,62,43.987,62h16.027C60.558,62,61,61.402,61,60.667v-1.334
				C61,58.598,60.558,58,60.014,58L60.014,58z"></path>
            </g>
        </g>
        <g id="Stroke-2">
            <path fill="#92D68F" d="M42.732,51.5l-2.601-10.925c0.013-2.392,0.827-4.724,2.237-6.405l1.117-1.333
			c1.553-1.849,1.981-4.684,1.068-7.055l-3.562-6.819c-0.555-1.449-0.86-3.118-0.86-4.773v-2.084c0-1.158,0.629-2.181,1.529-2.487
			l6.894-2.735V2.731c0-0.668,0.823-1.231,1.341-1.231h3.208c0.518,0,1.342,0.563,1.342,1.231v4.152l6.87,2.727
			c0.924,0.315,1.553,1.338,1.553,2.496v2.084c0,1.656-0.306,3.324-0.884,4.825l-3.517,6.715c-0.936,2.423-0.507,5.258,1.045,7.107
			l1.117,1.333c1.381,1.645,2.238,4.122,2.238,6.463c0,4.107-2.021,9.528-2.546,10.867H42.732z"></path>
            <path fill="#189345" d="M53.104,2c0.295,0,0.842,0.376,0.842,0.732v3.813v0.679l0.631,0.25l6.6,2.618
			c0.701,0.239,1.191,1.067,1.191,2.014v2.084c0,1.575-0.287,3.162-0.831,4.593l-3.513,6.716l-0.027,0.051l-0.021,0.054
			c-0.991,2.575-0.539,5.54,1.152,7.555l1.118,1.333c1.309,1.56,2.121,3.913,2.121,6.142c0,3.75-1.737,8.659-2.388,10.367H43.128
			l-2.495-10.481c0.025-2.256,0.795-4.447,2.12-6.028l1.117-1.332c1.692-2.015,2.144-4.981,1.152-7.556l-0.021-0.053l-0.026-0.051
			l-3.513-6.715c-0.543-1.433-0.83-3.02-0.83-4.594v-2.084c0-0.947,0.489-1.775,1.237-2.031l6.555-2.601l0.631-0.25V6.544V2.732
			C49.054,2.376,49.601,2,49.896,2H53.104 M53.104,1h-3.208c-0.799,0-1.841,0.776-1.841,1.732v3.813L41.5,9.146
			c-1.106,0.376-1.868,1.586-1.868,2.96v2.084c0,1.727,0.313,3.435,0.917,5.006l3.54,6.767c0.854,2.215,0.46,4.833-0.985,6.553
			l-1.118,1.333c-1.507,1.798-2.354,4.239-2.354,6.785L42.338,52h18.324c0,0,2.707-6.516,2.707-11.367
			c0-2.367-0.847-4.987-2.355-6.785l-1.118-1.333c-1.444-1.721-1.837-4.338-0.985-6.553l3.54-6.768
			c0.605-1.569,0.918-3.277,0.918-5.005v-2.084c0-1.375-0.763-2.584-1.869-2.96l-6.554-2.601V2.732C54.946,1.776,53.903,1,53.104,1
			L53.104,1z"></path>
        </g>
        <path id="Stroke-8" fill="none" stroke="#189345" d="M40.686,10.041c2.169,0,2.948,8.865,0,8.865 M62.311,10.041
		c-2.17,0-2.949,8.865,0,8.865"></path>
        <path id="Stroke-10_1_" fill="none" stroke="#5D727B" stroke-linejoin="round" d="M21.411,17.5h11.177"></path>
        <path id="Stroke-11" fill="none" stroke="#5D727B" stroke-linejoin="round" d="M22.5,11V9.744C22.5,8.228,23.62,7,25,7
		c1.38,0,2.5,1.228,2.5,2.744V17"></path>
        <g>
            <path fill="#EAF2F9" d="M12.5,56.5V30.829c0-0.193-0.111-0.369-0.285-0.452c-0.068-0.032-0.142-0.048-0.215-0.048
			c-0.113,0-0.225,0.038-0.316,0.113l-4.089,3.336l-5.89-8.155l10.323-7.101l8.46-2.564c0.886,2.7,3.489,4.543,6.512,4.543
			c2.938,0,5.399-1.806,6.276-4.546l8.524,2.516l9.535,7.157l-4.992,8.17l-5.067-3.357c-0.084-0.055-0.18-0.083-0.276-0.083
			c-0.081,0-0.162,0.02-0.236,0.06c-0.162,0.087-0.264,0.256-0.264,0.44V56.5H12.5z"></path>
            <path fill="#5D727B" d="M33.588,16.567l7.985,2.357l9.1,6.83l-4.485,7.339l-4.635-3.071c-0.167-0.11-0.359-0.166-0.552-0.166
			c-0.162,0-0.325,0.039-0.473,0.119C40.202,30.15,40,30.488,40,30.857V56H13V30.828c0-0.386-0.222-0.738-0.571-0.903
			c-0.137-0.065-0.283-0.097-0.429-0.097c-0.226,0-0.45,0.077-0.632,0.225L7.69,33.055l-5.28-7.311l9.838-6.767l7.934-2.405
			C21.266,19.224,23.933,21,27,21C29.994,21,32.527,19.257,33.588,16.567 M32.931,15.331C32.278,18.066,29.945,20,27,20
			c-2.945,0-5.518-1.934-6.17-4.669l-9.021,2.734L1,25.5l6.5,9l4.5-3.672V57h29V30.857l5.5,3.643l5.5-9l-9.971-7.484L32.931,15.331
			L32.931,15.331z"></path>
        </g>
    </g>
    <g id="Shopping_Store_Cart">
    </g>
    <g id="Star_Black_Fivepointed_Shape">
    </g>
    <g id="Favourite_Symbol">
    </g>
    <g id="Star">
    </g>
</svg>