<svg version="1.1" id="Layer_1" 
    xmlns="http://www.w3.org/2000/svg" 
    xmlns:xlink="http://www.w3.org/1999/xlink" x="0px" y="0px" viewBox="0 0 65 65" enable-background="new 0 0 65 65" xml:space="preserve">
    <g>
        <path fill="#A4D399" d="M11.3,63.5c-1.5,0-2.8-1.3-2.8-2.8V29.5c0-0.1,0-0.1,0-0.2l0-0.1l0-0.3c0-0.2,0-0.3,0-0.5
		c0-4.8,2.6-9.2,6.4-11c1-0.5,1.6-1.4,1.6-2.5V1.5h5V15c0,1,0.6,2,1.6,2.5c3.8,1.8,6.4,6.2,6.4,11l0,0.3c0,0.1,0,0.3,0,0.4
		c0,0.1,0,0.2,0,0.3l0,0.1l0,31.2c0,1.5-1.3,2.8-2.8,2.8H11.3z"></path>
        <g>
            <path fill="#0E9B49" d="M21,2v13c0,1.2,0.7,2.4,1.9,2.9c3.7,1.7,6.1,5.9,6.1,10.5c0,0.1,0,0.2,0,0.3c0,0.1,0,0.3,0,0.4l0,0.1
			l0,0.1c0,0,0,0.1,0,0.1c0,0.1,0,0.1,0,0.2l0,31.2c0,1.3-1,2.3-2.3,2.3H11.3C10,63,9,62,9,60.7V29.5c0,0,0-0.1,0-0.1l0-0.1l0-0.1
			l0-0.1l0-0.2c0-0.2,0-0.3,0-0.5c0-4.6,2.5-8.8,6.1-10.5c1.1-0.5,1.9-1.7,1.9-2.9V2H21 M22,1h-6v14c0,0.9-0.5,1.6-1.3,2
			c-4,1.9-6.7,6.4-6.7,11.4c0,0.2,0,0.5,0,0.7c0,0.1,0,0.2,0,0.4v31.2c0,1.8,1.5,3.3,3.3,3.3h15.4c1.8,0,3.3-1.5,3.3-3.3l0-31.2
			c0-0.1,0-0.2,0-0.4c0-0.2,0-0.5,0-0.7c0-5-2.7-9.6-6.7-11.4c-0.8-0.4-1.3-1.1-1.3-2V1L22,1z"></path>
        </g>
    </g>
    <g>
        <rect x="15.5" y="30.5" fill="#EAF2F9" width="14" height="20"></rect>
        <path fill="#5F7887" d="M29,31v19H16V31H29 M30,30H15v21h15V30L30,30z"></path>
    </g>
    <g>
        <path fill="#A4D399" d="M17,4.5c-0.3,0-0.5-0.2-0.5-0.5V1c0-0.3,0.2-0.5,0.5-0.5h4c0.3,0,0.5,0.2,0.5,0.5v3c0,0.3-0.2,0.5-0.5,0.5
		H17z"></path>
        <g>
            <path fill="#0E9B49" d="M21,1v3h-4V1H21 M21,0h-4c-0.5,0-1,0.4-1,1v3c0,0.5,0.5,1,1,1h4c0.5,0,1-0.5,1-1V1C22,0.4,21.5,0,21,0
			L21,0z"></path>
        </g>
    </g>
    <g>
        <line fill="none" stroke="#0E9B49" stroke-miterlimit="10" x1="17" y1="2.5" x2="21" y2="2.5"></line>
    </g>
    <g>
        <path fill="#EAF2F9" d="M32.2,64c-3.1,0-6.2-3.1-6.2-6.2V43.2c0-3.2,3.1-5.2,6.2-5.2H58v4.5c-2,0-4,1.8-4,4s2,4,4,4v4
		c-1,0.2-2,1.2-2,2.5s1,2.2,2,2.5V64H32.2z"></path>
        <g>
            <path fill="#5F7887" d="M58,38v4c-2.2,0.2-4,2.2-4,4.5s1.8,4.2,4,4.5v3.2c-1.2,0.4-2,1.5-2,2.8s0.8,2.4,2,2.8V63H32.2
			c-2.9,0-5.2-2.4-5.2-5.2V43.2c0-2.9,2.3-5.2,5.2-5.2H58 M59,37H32.2c-3.4,0-6.2,2.8-6.2,6.2v14.5c0,3.4,2.8,6.2,6.2,6.2H59v-5
			c-1.1,0-2-0.9-2-2c0-1.1,0.9-2,2-2v-5.1c-0.2,0-0.3,0.1-0.5,0.1c-1.9,0-3.5-1.6-3.5-3.5s1.6-3.5,3.5-3.5c0.2,0,0.3,0,0.5,0.1V37
			L59,37z"></path>
        </g>
    </g>
    <path fill="none" stroke="#B2C1CA" d="M58.5,40.5H33.9c-3.3,0-4.4,2.1-4.4,5.2v9.5c0,3.1,1.2,5.2,4.4,5.2h24.6"></path>
    <g>
        <circle fill="#EAF2F9" cx="36.5" cy="49.5" r="3"></circle>
        <g>
            <path fill="#5F7887" d="M36.5,47c1.4,0,2.5,1.1,2.5,2.5S37.9,52,36.5,52S34,50.9,34,49.5S35.1,47,36.5,47 M36.5,46
			c-1.9,0-3.5,1.6-3.5,3.5s1.6,3.5,3.5,3.5s3.5-1.6,3.5-3.5S38.4,46,36.5,46L36.5,46z"></path>
        </g>
    </g>
    <g>
        <circle fill="#EAF2F9" cx="48" cy="46" r="1.5"></circle>
        <g>
            <path fill="#5F7887" d="M48,45c0.6,0,1,0.4,1,1s-0.4,1-1,1s-1-0.4-1-1S47.4,45,48,45 M48,44c-1.1,0-2,0.9-2,2s0.9,2,2,2s2-0.9,2-2
			S49.1,44,48,44L48,44z"></path>
        </g>
    </g>
    <g>
        <circle fill="#EAF2F9" cx="46.5" cy="57.5" r="2"></circle>
        <g>
            <path fill="#5F7887" d="M46.5,56c0.8,0,1.5,0.7,1.5,1.5S47.3,59,46.5,59S45,58.3,45,57.5S45.7,56,46.5,56 M46.5,55
			c-1.4,0-2.5,1.1-2.5,2.5s1.1,2.5,2.5,2.5s2.5-1.1,2.5-2.5S47.9,55,46.5,55L46.5,55z"></path>
        </g>
    </g>
    <line fill="none" stroke="#5F7887" stroke-miterlimit="10" x1="58.5" y1="55" x2="58.5" y2="61"></line>
</svg>