<svg version="1.1" id="Layer_1" xmlns="http://www.w3.org/2000/svg" xmlns:xlink="http://www.w3.org/1999/xlink" x="0px" y="0px" viewBox="0 0 65 65" enable-background="new 0 0 65 65" xml:space="preserve">
<g>
	<path fill="#A4D399" d="M36,56.5c-1.4,0-2.5-1.1-2.5-2.5V23c0-1.4,1.1-2.5,2.5-2.5h16c1.4,0,2.5,1.1,2.5,2.5v31
		c0,1.4-1.1,2.5-2.5,2.5H36z"></path>
	<path fill="#0E9B49" d="M52,21c1.1,0,2,0.9,2,2v31c0,1.1-0.9,2-2,2H36c-1.1,0-2-0.9-2-2V23c0-1.1,0.9-2,2-2H52 M52,20H36
		c-1.7,0-3,1.3-3,3v31c0,1.7,1.3,3,3,3h16c1.7,0,3-1.3,3-3V23C55,21.3,53.7,20,52,20L52,20z"></path>
</g>
<g>
	<rect x="40.5" y="15.5" fill="#EAF2F9" width="7" height="4"></rect>
	<path fill="#5F7887" d="M47,16v3h-6v-3H47 M48,15h-8v5h8V15L48,15z"></path>
</g>
<g>
	<rect x="43.5" y="27.5" fill="#EAF2F9" width="11" height="21"></rect>
	<path fill="#5F7887" d="M54,28v20H44V28H54 M55,27H43v22h12V27L55,27z"></path>
</g>
<g>
	<rect x="42.5" y="11.5" fill="#EAF2F9" width="3" height="4"></rect>
	<path fill="#5F7887" d="M45,12v3h-2v-3H45 M46,11h-4v5h4V11L46,11z"></path>
</g>
<g>
	<polygon fill="#EAF2F9" points="40.5,11.5 40.5,8.6 51.5,10.4 51.5,11.5 	"></polygon>
	<path fill="#5F7887" d="M41,9.2l10,1.7V11H41V9.2 M40,8v4h12v-2L40,8L40,8z"></path>
</g>
<g>
	<polygon fill="#E9F1F8" points="19,56.5 9.7,41.7 19.1,35.1 17,27.5 31,27.5 28.9,35.1 38.3,41.7 29,56.5 	"></polygon>
	<path fill="#5F7886" d="M30.4,28l-1.9,6.6l-0.2,0.7l0.6,0.4l8.8,6.1l-9,14.2H24h-4.7l-8.9-14.2l8.8-6.1l0.6-0.4l-0.2-0.7l-2-6.6H24
		H30.4 M31.7,27H24h-7.7l2.2,7.9L9,41.5L18.8,57H24h5.2L39,41.5l-9.6-6.6L31.7,27L31.7,27z"></path>
</g>
<line fill="none" stroke="#5F7886" stroke-miterlimit="10" x1="37" y1="41.5" x2="10" y2="41.5"></line>
<g>
	<rect x="20.5" y="19.5" fill="#EAF2F9" width="7" height="4"></rect>
	<path fill="#5F7887" d="M27,20v3h-6v-3H27 M28,19h-8v5h8V19L28,19z"></path>
</g>
<g>
	<rect x="22.5" y="23.5" fill="#EAF2F9" width="3" height="4"></rect>
	<path fill="#5F7887" d="M25,24v3h-2v-3H25 M26,23h-4v5h4V23L26,23z"></path>
</g>
<g>
	<path fill="none" stroke="#5F7887" stroke-miterlimit="10" d="M10,32c0-6.1,4.9-11,11-11"></path>
	<g>
		<ellipse fill="#A4D399" cx="11" cy="32" rx="3.5" ry="4.5"></ellipse>
		<path fill="#0E9B49" d="M11,28c1.7,0,3,1.8,3,4s-1.3,4-3,4s-3-1.8-3-4S9.3,28,11,28 M11,27c-2.2,0-4,2.2-4,5s1.8,5,4,5s4-2.2,4-5
			S13.2,27,11,27L11,27z"></path>
	</g>
</g>
<line fill="none" stroke="#5F7886" stroke-miterlimit="10" x1="24" y1="21.5" x2="26" y2="21.5"></line>
</svg>