<?xml version="1.0" encoding="UTF-8" standalone="no"?>
<svg
   xmlns:dc="http://purl.org/dc/elements/1.1/"
   xmlns:cc="http://creativecommons.org/ns#"
   xmlns:rdf="http://www.w3.org/1999/02/22-rdf-syntax-ns#"
   xmlns:svg="http://www.w3.org/2000/svg"
   xmlns="http://www.w3.org/2000/svg"
   xmlns:sodipodi="http://sodipodi.sourceforge.net/DTD/sodipodi-0.dtd"
   xmlns:inkscape="http://www.inkscape.org/namespaces/inkscape"
   version="1.1"
   id="Capa_1"
   x="0px"
   y="0px"
   viewBox="0 0 121.87719 64.576719"
   xml:space="preserve"
   width="134"
   height="71"
   class=""
   sodipodi:docname="kiosk.svg"
   inkscape:version="0.92.4 (5da689c313, 2019-01-14)"><metadata
   id="metadata95"><rdf:RDF><cc:Work
       rdf:about=""><dc:format>image/svg+xml</dc:format><dc:type
         rdf:resource="http://purl.org/dc/dcmitype/StillImage" /><dc:title></dc:title></cc:Work></rdf:RDF></metadata><defs
   id="defs93">
	
	

	
	
	
	
	
	
	
	
	
	
	
</defs><sodipodi:namedview
   pagecolor="#ffffff"
   bordercolor="#666666"
   borderopacity="1"
   objecttolerance="10"
   gridtolerance="10"
   guidetolerance="10"
   inkscape:pageopacity="0"
   inkscape:pageshadow="2"
   inkscape:window-width="1920"
   inkscape:window-height="1013"
   id="namedview91"
   showgrid="false"
   inkscape:zoom="11.793609"
   inkscape:cx="67.203332"
   inkscape:cy="35.445469"
   inkscape:window-x="-9"
   inkscape:window-y="-9"
   inkscape:window-maximized="1"
   inkscape:current-layer="Capa_1" /><g
   id="g18"
   transform="matrix(0.13853667,0,0,0.13853667,28.866653,0.0629497)">
	<circle
   id="circle2"
   class=""
   data-original="#FFFFFF"
   r="9.8800001"
   cy="168"
   cx="135.72"
   style="fill:#ffffff" />
	<circle
   id="circle4"
   class=""
   data-original="#FFFFFF"
   r="5.8400002"
   cy="168"
   cx="135.72"
   style="fill:#ffffff" />
	<path
   inkscape:connector-curvature="0"
   id="path6"
   class=""
   data-original="#FFFFFF"
   d="m 281.52,228.28 c -4.418,0 -8,-3.582 -8,-8 0,-4.418 3.582,-8 8,-8 h 45.64 c 4.418,0 8,3.582 8,8 0,4.418 -3.582,8 -8,8 z"
   style="fill:#ffffff" />
	<path
   inkscape:connector-curvature="0"
   id="path8"
   class=""
   data-original="#FFFFFF"
   d="m 327.16,216.24 h -45.64 c -2.209,0 -4,1.791 -4,4 0,2.209 1.791,4 4,4 h 45.64 c 2.209,0 4,-1.791 4,-4 0,-2.209 -1.791,-4 -4,-4 z"
   style="fill:#ffffff" />
	<path
   inkscape:connector-curvature="0"
   id="path10"
   class=""
   data-original="#FFFFFF"
   d="m 138.52,228.28 c -4.418,0 -8,-3.582 -8,-8 0,-4.418 3.582,-8 8,-8 h 45.64 c 4.418,0 8,3.582 8,8 0,4.418 -3.582,8 -8,8 z"
   style="fill:#ffffff" />
	<path
   inkscape:connector-curvature="0"
   id="path12"
   class=""
   data-original="#FFFFFF"
   d="m 188.16,220.2 c 0,-2.209 -1.791,-4 -4,-4 h -45.64 c -2.209,0 -4,1.791 -4,4 0,2.209 1.791,4 4,4 h 45.64 c 2.209,0 4,-1.791 4,-4 z"
   style="fill:#ffffff" />
	<path
   inkscape:connector-curvature="0"
   id="path14"
   class=""
   data-original="#FFFFFF"
   d="m 185,273.92 c -4.418,0 -8,-3.582 -8,-8 0,-4.418 3.582,-8 8,-8 h 95.68 c 4.418,0 8,3.582 8,8 0,4.418 -3.582,8 -8,8 z"
   style="fill:#ffffff" />
	<path
   inkscape:connector-curvature="0"
   id="path16"
   class=""
   data-original="#FFFFFF"
   d="M 280.64,261.88 H 185 c -2.209,0 -4,1.791 -4,4 0,2.209 1.791,4 4,4 h 95.64 c 2.209,0 4,-1.791 4,-4 0,-2.209 -1.791,-4 -4,-4 z"
   style="fill:#ffffff" />
</g><path
   style="fill:#47b452;stroke-width:0.13853668"
   d="m 46.665844,39.828515 c -1.266917,0.01219 -2.304003,-1.004945 -2.316194,-2.271862 -1.39e-4,-0.0075 -1.39e-4,-0.01482 -1.39e-4,-0.0223 V 2.7283952 c 0,-1.2670564 1.027111,-2.29416722 2.294167,-2.29416722 h 28.93754 c 1.267057,0 2.294167,1.02711082 2.294167,2.29416722 V 37.534348 c 0,1.267057 -1.02711,2.294167 -2.294167,2.294167 z m 7.830093,-3.879026 c -0.508014,-2.77e-4 -0.920022,0.411454 -0.920299,0.919468 -2.77e-4,0.508014 0.411454,0.920022 0.919468,0.920299 2.77e-4,0 5.54e-4,0 8.31e-4,0 h 13.255189 c 0.508014,-2.77e-4 0.919744,-0.412285 0.919467,-0.920299 -2.77e-4,-0.507737 -0.411731,-0.91933 -0.919467,-0.919468 z m 13.371559,-6.300648 c -0.508014,-2.77e-4 -0.920022,0.411454 -0.920299,0.919468 -2.77e-4,0.508014 0.411454,0.920022 0.919468,0.920299 2.77e-4,0 5.54e-4,0 8.31e-4,0 h 6.322814 c 0.508014,2.77e-4 0.920022,-0.411454 0.920299,-0.919468 2.77e-4,-0.508014 -0.411454,-0.920022 -0.919468,-0.920299 -2.77e-4,0 -5.54e-4,0 -8.31e-4,0 z m -19.805202,0 c -0.508014,-2.77e-4 -0.920022,0.411454 -0.920299,0.919468 -2.77e-4,0.508014 0.411454,0.920022 0.919468,0.920299 2.77e-4,0 5.54e-4,0 8.31e-4,0 h 6.317272 c 0.508014,-2.77e-4 0.919745,-0.412285 0.919468,-0.920299 -2.77e-4,-0.507737 -0.411731,-0.91933 -0.919468,-0.919468 z m 4.1561,-23.4071558 c -0.694761,0 -1.257913,0.5631515 -1.257913,1.2579129 v 0 18.0818059 c 0,0.694762 0.563152,1.257913 1.257913,1.257913 v 0 h 17.810274 c 0.694762,0 1.257913,-0.563151 1.257913,-1.257913 V 7.4995981 c 0,-0.6947614 -0.563151,-1.2579129 -1.257913,-1.2579129 z M 74.572671,22.162319 c -0.648767,0 -1.174791,0.526024 -1.174791,1.174791 0,0.648767 0.526024,1.174791 1.174791,1.174791 0.648767,0 1.174791,-0.526024 1.174791,-1.174791 -0.003,-0.64752 -0.52727,-1.171743 -1.174791,-1.174791 z m -26.89828,0 c -0.648767,0 -1.174791,0.526024 -1.174791,1.174791 0,0.648767 0.526024,1.174791 1.174791,1.174791 0.648768,0 1.174791,-0.526024 1.174791,-1.174791 0,0 0,0 0,0 -0.003,-0.64752 -0.52727,-1.171743 -1.174791,-1.174791 z m 26.89828,-6.793838 c -0.648767,0 -1.174791,0.526024 -1.174791,1.174791 0,0.648767 0.526024,1.174791 1.174791,1.174791 0.648767,0 1.174791,-0.526024 1.174791,-1.174791 0,-0.648767 -0.526024,-1.174791 -1.174791,-1.174791 z m -26.89828,0 c -0.648767,0 -1.174791,0.526024 -1.174791,1.174791 0,0.648767 0.526024,1.174791 1.174791,1.174791 0.648768,0 1.174791,-0.526024 1.174791,-1.174791 0,0 0,0 0,0 0,-0.648767 -0.526023,-1.174791 -1.174791,-1.174791 z m 26.89828,-6.7993798 c -0.648767,0 -1.174791,0.5260238 -1.174791,1.174791 0,0.6487668 0.526024,1.1747908 1.174791,1.1747908 0.648767,0 1.174791,-0.526024 1.174791,-1.1747908 0,-0.6487672 -0.526024,-1.174791 -1.174791,-1.174791 z m -26.89828,0 c -0.648767,0 -1.174791,0.5260238 -1.174791,1.174791 0,0.6487668 0.526024,1.1747908 1.174791,1.1747908 0.648768,0 1.174791,-0.526024 1.174791,-1.1747908 v 0 c 0,-0.6487672 -0.526023,-1.174791 -1.174791,-1.174791 z"
   data-original="#3AC3ED"
   class="active-path"
   data-old_color="#3AC3ED"
   id="path20"
   inkscape:connector-curvature="0" /><path
   style="fill:#47b452;stroke-width:0.13853668"
   d="M 77.310156,37.534348 V 2.7283952 c 0,-0.957981 -0.776498,-1.73447908 -1.734479,-1.73447908 H 46.665844 c -0.957981,0 -1.734479,0.77649808 -1.734479,1.73447908 v 0 34.8059528 c 0,0.957981 0.776498,1.734479 1.734479,1.734479 h 28.915374 c 0.955765,-0.003 1.728938,-0.778714 1.728938,-1.734479 z M 74.572671,8.0094131 c 0.961029,0 1.740021,0.7789917 1.740021,1.7400206 0,0.9610293 -0.778992,1.7400203 -1.740021,1.7400203 -0.961029,0 -1.74002,-0.778991 -1.74002,-1.7400203 v 0 c 0,-0.9610289 0.778991,-1.7400206 1.74002,-1.7400206 z m 0,6.7938379 c 0.961029,0 1.740021,0.778992 1.740021,1.740021 0,0.961029 -0.778992,1.740021 -1.740021,1.740021 -0.961029,0 -1.74002,-0.778992 -1.74002,-1.740021 v 0 c 0,-0.961029 0.778991,-1.740021 1.74002,-1.740021 z m 0,6.793839 c 0.961029,0 1.740021,0.778991 1.740021,1.74002 0,0.961029 -0.778992,1.740021 -1.740021,1.740021 -0.961029,0 -1.74002,-0.778992 -1.74002,-1.740021 v 0 c 0.003,-0.958812 0.781208,-1.734479 1.74002,-1.734479 z M 50.400793,7.4995981 c 0.003,-1.0025898 0.815011,-1.8145533 1.817601,-1.8176011 h 17.810274 c 1.00259,0.00305 1.814554,0.8150113 1.817602,1.8176011 V 25.581404 c -0.003,1.00259 -0.815012,1.814554 -1.817602,1.817601 H 52.218394 c -1.00259,-0.003 -1.814553,-0.815011 -1.817601,-1.817601 z m -2.726402,0.509815 c 0.961029,0 1.740021,0.7789917 1.740021,1.7400206 0,0.9610293 -0.778992,1.7400203 -1.740021,1.7400203 -0.961029,0 -1.74002,-0.778991 -1.74002,-1.7400203 v 0 c 0,-0.9610289 0.778991,-1.7400206 1.74002,-1.7400206 z m 0,6.7938379 c 0.961029,0 1.740021,0.778992 1.740021,1.740021 0,0.961029 -0.778992,1.740021 -1.740021,1.740021 -0.961029,0 -1.74002,-0.778992 -1.74002,-1.740021 v 0 c 0,-0.961029 0.778991,-1.740021 1.74002,-1.740021 z m -1.74002,8.533859 c 0,-0.961029 0.778991,-1.74002 1.74002,-1.74002 0.961029,0 1.740021,0.778991 1.740021,1.74002 0,0.961029 -0.778992,1.740021 -1.740021,1.740021 v 0 c -0.961029,0 -1.74002,-0.778992 -1.74002,-1.740021 z m 0.631727,7.231614 c 0,-0.820137 0.664976,-1.485113 1.485113,-1.485113 v 0 h 6.328355 c 0.818613,-0.05015 1.522934,0.572988 1.573084,1.391601 0.05015,0.818613 -0.572988,1.522934 -1.391601,1.573084 -0.0604,0.0037 -0.120942,0.0037 -0.181344,0 h -6.322814 c -0.820276,0.003 -1.487745,-0.659296 -1.490793,-1.479572 0,0 0,0 0,0 z m 21.179486,7.807927 H 54.495937 c -0.818613,-0.05015 -1.441751,-0.754332 -1.391601,-1.573084 0.04586,-0.74879 0.64281,-1.345883 1.391601,-1.391601 h 13.249647 c 0.818613,-0.05015 1.522934,0.572988 1.573084,1.391601 0.05015,0.818613 -0.572988,1.522934 -1.391601,1.573084 -0.06054,0.0037 -0.121081,0.0037 -0.181483,0 z m 6.444726,-6.322813 h -6.322814 c -0.818613,0.05015 -1.522933,-0.572988 -1.573084,-1.391601 -0.05015,-0.818613 0.572988,-1.522934 1.391601,-1.573084 0.0604,-0.0037 0.120943,-0.0037 0.181345,0 h 6.322813 c 0.818614,-0.05015 1.522934,0.572987 1.573084,1.391601 0.05015,0.818613 -0.572987,1.522933 -1.391601,1.573084 -0.0604,0.0037 -0.120942,0.0037 -0.181344,0 z"
   data-original="#3AC3ED"
   class="active-path"
   data-old_color="#3AC3ED"
   id="path22"
   inkscape:connector-curvature="0" /><g
   id="g30"
   transform="matrix(0.13853667,0,0,0.13853667,28.866653,0.0629497)">
	<path
   inkscape:connector-curvature="0"
   id="path26"
   class=""
   data-original="#FFFFFF"
   d="M 142.88,285.64 H 322.8 V 421.36 H 142.88 Z"
   style="fill:#ffffff" />
	<path
   inkscape:connector-curvature="0"
   id="path28"
   class=""
   data-original="#FFFFFF"
   d="m 146.92,289.68 h 171.84 v 127.6 H 146.92 Z"
   style="fill:#ffffff" />
</g><g
   id="g36"
   style="opacity:1;fill:#b0bfc9;fill-opacity:1"
   transform="matrix(0.13853667,0,0,0.13853667,28.928316,0.18627637)">
	<path
   inkscape:connector-curvature="0"
   id="path32"
   data-old_color="#3AC3ED"
   class="active-path"
   data-original="#3AC3ED"
   d="m 114.44639,462.05579 0.94421,-40.83685 237.45669,-0.9442 v 43.04 z"
   style="fill:#b0bfc9;fill-opacity:1"
   sodipodi:nodetypes="ccccc" />
	<path
   inkscape:connector-curvature="0"
   id="path34"
   data-old_color="#3AC3ED"
   class="active-path"
   data-original="#3AC3ED"
   d="m 133.96,458.96 v 0 h 197.8 c 9.643,-0.462 17.086,-8.653 16.624,-18.296 -0.431,-8.997 -7.627,-16.194 -16.624,-16.624 h -197.8 z"
   style="fill:#b0bfc9;fill-opacity:1"
   sodipodi:nodetypes="ccccccc" />
</g><g
   id="g62"
   transform="matrix(0.13853667,0,0,0.13853667,28.866653,0.0629497)">
	<circle
   id="circle38"
   class=""
   data-original="#FFFFFF"
   r="9.8800001"
   cy="168"
   cx="329.92001"
   style="fill:#ffffff" />
	<circle
   id="circle40"
   class=""
   data-original="#FFFFFF"
   r="5.8400002"
   cy="168"
   cx="329.92001"
   style="fill:#ffffff" />
	<path
   inkscape:connector-curvature="0"
   id="path42"
   class=""
   data-original="#FFFFFF"
   d="m 168.56,43.24 h 128.52 c 5.788,0 10.48,4.692 10.48,10.48 V 184.2 c 0,5.788 -4.692,10.48 -10.48,10.48 H 168.56 c -5.788,0 -10.48,-4.692 -10.48,-10.48 V 53.72 c 0,-5.788 4.692,-10.48 10.48,-10.48 z"
   style="fill:#ffffff" />
	<path
   inkscape:connector-curvature="0"
   id="path44"
   class=""
   data-original="#FFFFFF"
   d="m 168.56,47.28 h 128.6 c 3.535,0 6.4,2.865 6.4,6.4 v 130.56 c 0,3.535 -2.865,6.4 -6.4,6.4 h -128.6 c -3.535,0 -6.4,-2.865 -6.4,-6.4 V 53.68 c 0,-3.535 2.865,-6.4 6.4,-6.4 z"
   style="fill:#ffffff" />
	<circle
   id="circle46"
   class=""
   data-original="#FFFFFF"
   r="9.8800001"
   cy="69.879997"
   cx="135.72"
   style="fill:#ffffff" />
	<circle
   id="circle48"
   class=""
   data-original="#FFFFFF"
   r="5.8400002"
   cy="69.879997"
   cx="135.72"
   style="fill:#ffffff" />
	<circle
   id="circle50"
   class=""
   data-original="#FFFFFF"
   r="9.8800001"
   cy="118.96"
   cx="135.72"
   style="fill:#ffffff" />
	<circle
   id="circle52"
   class=""
   data-original="#FFFFFF"
   r="5.8400002"
   cy="118.96"
   cx="135.72"
   style="fill:#ffffff" />
	<circle
   id="circle54"
   class=""
   data-original="#FFFFFF"
   r="9.8800001"
   cy="69.879997"
   cx="329.92001"
   style="fill:#ffffff" />
	<circle
   id="circle56"
   class=""
   data-original="#FFFFFF"
   r="5.8400002"
   cy="69.879997"
   cx="329.92001"
   style="fill:#ffffff" />
	<circle
   id="circle58"
   class=""
   data-original="#FFFFFF"
   r="9.8800001"
   cy="118.96"
   cx="329.92001"
   style="fill:#ffffff" />
	<circle
   id="circle60"
   class=""
   data-original="#FFFFFF"
   r="5.8400002"
   cy="118.96"
   cx="329.92001"
   style="fill:#ffffff" />
</g><path
   style="fill:#000000;stroke-width:0.13853668"
   d="m 75.581218,40.194252 c 1.472091,0 2.665446,-1.193355 2.665446,-2.665445 V 2.7283952 c 0,-1.4720906 -1.193355,-2.6654455 -2.665446,-2.6654455 H 46.665844 c -1.47209,0 -2.665445,1.1933549 -2.665445,2.6654455 v 0 34.8059528 c 0,1.472091 1.193355,2.665446 2.665445,2.665446 h 1.62365 v 17.677279 c -1.422377,-0.01219 -2.782595,-1.24e-4 -4.26525,-0.0012 l 0.05096,6.711613 34.138476,0.02548 5e-6,-6.587225 -4.256113,-0.148699 V 40.194252 Z M 44.931365,37.534348 V 2.7283952 c 0,-0.957981 0.776498,-1.73447908 1.734479,-1.73447908 v 0 h 28.915374 c 0.957981,0 1.734479,0.77649808 1.734479,1.73447908 V 37.534348 c 0,0.957981 -0.776498,1.734479 -1.734479,1.734479 H 46.665844 c -0.957981,0 -1.734479,-0.776498 -1.734479,-1.734479 z m 32.381552,26.111392 -32.242422,-0.0436 -0.01761,-4.861189 32.347237,0.06709 z M 73.02106,57.899239 H 49.192753 V 40.194252 H 73.02106 Z"
   data-original="#262742"
   class=""
   data-old_color="#262742"
   id="path64"
   inkscape:connector-curvature="0"
   sodipodi:nodetypes="sssssccssccccccccsssccsssssscccccccccc" /><path
   style="fill:#000000;stroke-width:0.13853668"
   d="m 52.218394,27.404547 h 17.810274 c 1.00259,-0.003 1.814554,-0.815011 1.817602,-1.817601 V 7.4995981 C 71.843222,6.4970083 71.031258,5.6850448 70.028668,5.681997 H 52.218394 c -1.00259,0.00305 -1.814553,0.8150113 -1.817601,1.8176011 V 25.581404 c 0,1.004668 0.812933,1.820095 1.817601,1.823143 z M 51.331759,7.4995981 c 0,-0.4897271 0.396908,-0.8866346 0.886635,-0.8866346 h 17.810274 c 0.489728,0 0.886635,0.3969075 0.886635,0.8866346 V 25.581404 c -0.003,0.488481 -0.398154,0.883587 -0.886635,0.886635 H 52.218394 c -0.48848,-0.003 -0.883587,-0.398154 -0.886635,-0.886635 z"
   data-original="#262742"
   class=""
   data-old_color="#262742"
   id="path66"
   inkscape:connector-curvature="0" /><path
   style="fill:#000000;stroke-width:0.13853668"
   d="m 47.674391,11.483913 c 0.961029,0 1.740021,-0.778992 1.740021,-1.7400208 0,-0.9610289 -0.778992,-1.7400206 -1.740021,-1.7400206 -0.961029,0 -1.74002,0.7789917 -1.74002,1.7400206 v 0 c 0,0.9610288 0.778991,1.7400208 1.74002,1.7400208 z m 0,-2.5435335 c 0.446781,0 0.809054,0.3622734 0.809054,0.8090542 0,0.4467803 -0.362273,0.8090543 -0.809054,0.8090543 -0.44678,0 -0.809054,-0.362274 -0.809054,-0.8090543 v 0 c 0,-0.4467808 0.362274,-0.8090542 0.809054,-0.8090542 z"
   data-original="#262742"
   class=""
   data-old_color="#262742"
   id="path68"
   inkscape:connector-curvature="0" /><path
   style="fill:#000000;stroke-width:0.13853668"
   d="m 47.674391,18.277751 c 0.961029,0 1.740021,-0.778992 1.740021,-1.740021 0,-0.961028 -0.778992,-1.74002 -1.740021,-1.74002 -0.961029,0 -1.74002,0.778992 -1.74002,1.74002 v 0 c 0,0.961029 0.778991,1.740021 1.74002,1.740021 z m 0,-2.543533 c 0.446781,0 0.809054,0.362273 0.809054,0.809054 0,0.446781 -0.362273,0.809054 -0.809054,0.809054 -0.44678,0 -0.809054,-0.362273 -0.809054,-0.809054 0,0 0,0 0,0 0,-0.446781 0.362274,-0.809054 0.809054,-0.809054 z"
   data-original="#262742"
   class=""
   data-old_color="#262742"
   id="path70"
   inkscape:connector-curvature="0" /><path
   style="fill:#000000;stroke-width:0.13853668"
   d="m 49.40887,23.33711 c 0,-0.961029 -0.778991,-1.74002 -1.74002,-1.74002 -0.961029,0 -1.740021,0.778991 -1.740021,1.74002 0,0.961029 0.778992,1.740021 1.740021,1.740021 0.0018,0 0.0037,0 0.0055,0 0.958813,-0.003 1.734479,-0.781208 1.734479,-1.740021 z m -2.543533,0 c 0,-0.446781 0.362274,-0.809054 0.809054,-0.809054 0.446781,0 0.809054,0.362273 0.809054,0.809054 0,0.446781 -0.362273,0.809054 -0.809054,0.809054 0,0 0,0 0,0 -0.44678,0 -0.809054,-0.362273 -0.809054,-0.809054 z"
   data-original="#262742"
   class=""
   data-old_color="#262742"
   id="path72"
   inkscape:connector-curvature="0" /><path
   style="fill:#000000;stroke-width:0.13853668"
   d="m 74.572671,11.483913 c 0.961029,0 1.740021,-0.778992 1.740021,-1.7400208 0,-0.9610289 -0.778992,-1.7400206 -1.740021,-1.7400206 -0.961029,0 -1.74002,0.7789917 -1.74002,1.7400206 v 0 c 0,0.9610288 0.778991,1.7400208 1.74002,1.7400208 z m 0,-2.5435335 c 0.446781,0 0.809054,0.3622734 0.809054,0.8090542 0,0.4467803 -0.362273,0.8090543 -0.809054,0.8090543 -0.446781,0 -0.809054,-0.362274 -0.809054,-0.8090543 v 0 c 0,-0.4467808 0.362273,-0.8090542 0.809054,-0.8090542 z"
   data-original="#262742"
   class=""
   data-old_color="#262742"
   id="path74"
   inkscape:connector-curvature="0" /><path
   style="fill:#000000;stroke-width:0.13853668"
   d="m 74.572671,18.277751 c 0.961029,0 1.740021,-0.778992 1.740021,-1.740021 0,-0.961028 -0.778992,-1.74002 -1.740021,-1.74002 -0.961029,0 -1.74002,0.778992 -1.74002,1.74002 v 0 c 0,0.961029 0.778991,1.740021 1.74002,1.740021 z m 0,-2.543533 c 0.446781,0 0.809054,0.362273 0.809054,0.809054 0,0.446781 -0.362273,0.809054 -0.809054,0.809054 -0.446781,0 -0.809054,-0.362273 -0.809054,-0.809054 0,0 0,0 0,0 0,-0.446781 0.362273,-0.809054 0.809054,-0.809054 z"
   data-original="#262742"
   class=""
   data-old_color="#262742"
   id="path76"
   inkscape:connector-curvature="0" /><path
   style="fill:#000000;stroke-width:0.13853668"
   d="m 74.572671,25.077131 c 0.961029,0 1.740021,-0.778992 1.740021,-1.740021 0,-0.961029 -0.778992,-1.74002 -1.740021,-1.74002 -0.961029,0 -1.74002,0.778991 -1.74002,1.74002 v 0 c 0,0.961029 0.778991,1.740021 1.74002,1.740021 z m 0,-2.543533 c 0.446781,0 0.809054,0.362273 0.809054,0.809054 0,0.44678 -0.362273,0.809054 -0.809054,0.809054 -0.446781,0 -0.809054,-0.362274 -0.809054,-0.809054 0,0 0,0 0,0 0,-0.446781 0.362273,-0.809054 0.809054,-0.809054 z"
   data-original="#262742"
   class=""
   data-old_color="#262742"
   id="path78"
   inkscape:connector-curvature="0" /><path
   style="fill:#000000;stroke-width:0.13853668"
   d="M 67.745584,35.411966 H 54.495937 c -0.818613,0.05015 -1.441751,0.754333 -1.391601,1.573084 0.04586,0.748791 0.64281,1.345884 1.391601,1.391601 h 13.249647 c 0.818613,0.05015 1.522934,-0.572988 1.573084,-1.391601 0.05015,-0.818613 -0.572988,-1.522933 -1.391601,-1.573084 -0.06054,-0.0037 -0.121081,-0.0037 -0.181483,0 z m 0,2.033719 H 54.495937 c -0.306028,0 -0.554147,-0.248119 -0.554147,-0.554147 0,-0.306027 0.248119,-0.554147 0.554147,-0.554147 h 13.249647 c 0.306028,0 0.554147,0.24812 0.554147,0.554147 0,0.306028 -0.248119,0.554147 -0.554147,0.554147 z"
   data-original="#262742"
   class=""
   data-old_color="#262742"
   id="path80"
   inkscape:connector-curvature="0" /><path
   style="fill:#000000;stroke-width:0.13853668"
   d="m 74.19031,29.089153 h -6.322814 c -0.818613,-0.05015 -1.522933,0.572987 -1.573084,1.391601 -0.05015,0.818613 0.572988,1.522933 1.391601,1.573084 0.0604,0.0037 0.120943,0.0037 0.181345,0 h 6.322813 c 0.818614,0.05015 1.522934,-0.572988 1.573084,-1.391601 0.05015,-0.818613 -0.572987,-1.522934 -1.391601,-1.573084 -0.0604,-0.0037 -0.120942,-0.0037 -0.181344,0 z m 0,2.033718 h -6.322814 c -0.306027,0 -0.554146,-0.248119 -0.554146,-0.554147 0,-0.306027 0.248119,-0.554146 0.554146,-0.554146 h 6.322814 c 0.306027,0 0.554147,0.248119 0.554147,0.554146 0,0.306028 -0.24812,0.554147 -0.554147,0.554147 z"
   data-original="#262742"
   class=""
   data-old_color="#262742"
   id="path82"
   inkscape:connector-curvature="0" /><path
   style="fill:#000000;stroke-width:0.13853668"
   d="m 55.864679,30.568724 c 0,-0.820137 -0.664837,-1.485113 -1.485113,-1.485113 v 0 h -6.322813 c -0.818614,0.05015 -1.441752,0.754332 -1.391601,1.573084 0.04586,0.748791 0.64281,1.345884 1.391601,1.391601 h 6.322813 c 0.818059,0 1.482065,-0.661513 1.485113,-1.479572 z m -8.356532,0 c 0,-0.306027 0.248119,-0.554146 0.554147,-0.554146 h 6.317272 c 0.306028,0 0.554147,0.248119 0.554147,0.554146 0,0.306028 -0.248119,0.554147 -0.554147,0.554147 h -6.322813 c -0.306028,0 -0.554147,-0.248119 -0.554147,-0.554147 z"
   data-original="#262742"
   class=""
   data-old_color="#262742"
   id="path84"
   inkscape:connector-curvature="0" /> <path
   style="opacity:0;fill:#b0bfc9;fill-opacity:1;stroke-width:0.09664856"
   d="m 46.321283,63.372758 c -1.520137,-0.75831 -1.851109,-2.625962 -0.673946,-3.803116 0.787564,-0.787567 -0.339005,-0.733918 15.411417,-0.733918 15.173701,0 14.501126,-0.02327 15.222163,0.526695 0.18247,0.139174 0.452337,0.458155 0.599701,0.708849 0.353689,0.601682 0.376528,1.592205 0.05098,2.209256 -0.263245,0.498915 -0.916597,1.067838 -1.371392,1.194176 -0.220594,0.06128 -5.474055,0.09454 -14.600242,0.09241 -14.002541,-0.0032 -14.262466,-0.0067 -14.638639,-0.194355 z"
   id="path4648"
   inkscape:connector-curvature="0" /><path
   style="opacity:0;fill:#b0bfc9;fill-opacity:1;stroke-width:0.09664856"
   d="m 46.321283,63.372758 c -1.520137,-0.75831 -1.851109,-2.625962 -0.673946,-3.803116 0.787564,-0.787567 -0.339005,-0.733918 15.411417,-0.733918 15.173701,0 14.501126,-0.02327 15.222163,0.526695 0.18247,0.139174 0.452337,0.458155 0.599701,0.708849 0.353689,0.601682 0.376528,1.592205 0.05098,2.209256 -0.263245,0.498915 -0.916597,1.067838 -1.371392,1.194176 -0.220594,0.06128 -5.474055,0.09454 -14.600242,0.09241 -14.002541,-0.0032 -14.262466,-0.0067 -14.638639,-0.194355 z"
   id="path4650"
   inkscape:connector-curvature="0" /></svg>