<?xml version="1.0" encoding="UTF-8" standalone="no"?>
<svg
   xmlns:dc="http://purl.org/dc/elements/1.1/"
   xmlns:cc="http://creativecommons.org/ns#"
   xmlns:rdf="http://www.w3.org/1999/02/22-rdf-syntax-ns#"
   xmlns:svg="http://www.w3.org/2000/svg"
   xmlns="http://www.w3.org/2000/svg"
   xmlns:sodipodi="http://sodipodi.sourceforge.net/DTD/sodipodi-0.dtd"
   xmlns:inkscape="http://www.inkscape.org/namespaces/inkscape"
   width="110"
   height="26"
   viewBox="0 0 110 26"
   version="1.1"
   id="svg16"
   sodipodi:docname="logo.svg"
   inkscape:version="0.92.4 (5da689c313, 2019-01-14)">
  <metadata
     id="metadata22">
    <rdf:RDF>
      <cc:Work
         rdf:about="">
        <dc:format>image/svg+xml</dc:format>
        <dc:type
           rdf:resource="http://purl.org/dc/dcmitype/StillImage" />
        <dc:title />
      </cc:Work>
    </rdf:RDF>
  </metadata>
  <defs
     id="defs20" />
  <sodipodi:namedview
     pagecolor="#ffffff"
     bordercolor="#666666"
     borderopacity="1"
     objecttolerance="10"
     gridtolerance="10"
     guidetolerance="10"
     inkscape:pageopacity="0"
     inkscape:pageshadow="2"
     inkscape:window-width="1920"
     inkscape:window-height="1013"
     id="namedview18"
     showgrid="false"
     inkscape:zoom="19.89023"
     inkscape:cx="12.245678"
     inkscape:cy="9.4913886"
     inkscape:window-x="-9"
     inkscape:window-y="-9"
     inkscape:window-maximized="1"
     inkscape:current-layer="layer2" />
  <g
     id="g14"
     style="fill:none;fill-rule:evenodd"
     transform="translate(-3.2176603,4.5977925)">
    <g
       id="g12"
       style="fill-rule:nonzero">
      <path
         d="m 17,21 c -11.3333333,0 -5.666667,0 0,0 z"
         id="path6"
         inkscape:connector-curvature="0"
         style="fill:#b3b4e8"
         sodipodi:nodetypes="cc" />
      <path
         d="M 0,21 Z"
         id="path10"
         inkscape:connector-curvature="0"
         style="fill:#54c5eb"
         sodipodi:nodetypes="cc" />
    </g>
  </g>
  <g
     inkscape:groupmode="layer"
     id="layer1"
     inkscape:label="Layer 1"
     transform="translate(0,5)">
    <g
       aria-label="MI"
       style="font-style:normal;font-variant:normal;font-weight:normal;font-stretch:normal;font-size:21.76204681px;line-height:1.25;font-family:'Segoe UI';-inkscape-font-specification:'Segoe UI';letter-spacing:0px;word-spacing:0px;fill:#06158d;fill-opacity:1;stroke:none;stroke-width:0.81607687"
       id="text3791"
       transform="matrix(0.72387835,0,0,0.72387835,-2.0890556,-2.0953378)">
      <text
         xml:space="preserve"
         style="font-style:normal;font-variant:normal;font-weight:bold;font-stretch:normal;font-size:28.96401405px;line-height:1.25;font-family:sans-serif;-inkscape-font-specification:'sans-serif Bold';letter-spacing:0px;word-spacing:0px;fill:#06158d;fill-opacity:1;stroke:none;stroke-width:0.59092152"
         x="45.211315"
         y="23.394428"
         id="text877"><tspan
           sodipodi:role="line"
           id="tspan875"
           x="45.211315"
           y="23.394428"
           style="font-style:normal;font-variant:normal;font-weight:normal;font-stretch:normal;font-family:sans-serif;-inkscape-font-specification:sans-serif;fill:#06158d;fill-opacity:1;stroke-width:0.59092152">BEAT</tspan></text>
    </g>
  </g>
  <g
     inkscape:groupmode="layer"
     id="layer2"
     inkscape:label="Layer 2"
     transform="translate(0,-1)">
    <path
       inkscape:connector-curvature="0"
       d="M 8.5314202,21.308119 A 10.266483,10.266483 0 0 1 14.870168,3.8235622 C 14.565718,3.7966759 14.25869,3.7821279 13.949407,3.7821279 A 10.266483,10.266483 0 0 0 6.6898986,21.308119 10.199267,10.199267 0 0 0 13.949407,24.315094 c 0.309283,0 0.616311,-0.01432 0.920761,-0.0412 A 10.188909,10.188909 0 0 1 8.5314202,21.308119 Z"
       style="fill:#d4e1f4;stroke-width:0.04603804"
       id="path851" />
    <path
       inkscape:connector-curvature="0"
       d="m 5.8608916,15.292098 a 0.32226628,0.32226628 0 0 0 0.562769,-0.107222 l 0.7904732,-2.67237 0.4839518,4.810146 a 0.32226628,0.32226628 0 0 0 0.2808321,0.287508 0.3293101,0.3293101 0 0 0 0.040191,0.0025 0.32226628,0.32226628 0 0 0 0.302608,-0.212005 l 1.1701951,-3.21393 H 11.10619 a 0.3222665,0.3222665 0 0 0 0,-0.644533 H 9.2662794 A 0.32226628,0.32226628 0 0 0 8.9634872,13.753967 L 8.1982889,15.855282 7.691226,10.815359 A 0.32226628,0.32226628 0 0 0 7.0615177,10.7562 L 5.9829845,14.402413 5.4064501,13.665805 A 0.32226628,0.32226628 0 0 0 5.1525043,13.542192 H 3.417837 a 0.3222665,0.3222665 0 1 0 0,0.644533 h 1.5778617 z"
       style="fill:#06158d;stroke-width:0.04603804;fill-opacity:1"
       id="path853" />
    <path
       inkscape:connector-curvature="0"
       d="M 22.559809,13.665805 21.983275,14.402413 20.904742,10.7562 a 0.32226628,0.32226628 0 0 0 -0.626624,0.03683 l -0.836235,4.860006 -0.427233,-1.860674 a 0.32226628,0.32226628 0 0 0 -0.314117,-0.250171 h -1.839588 v 0.644533 h 1.582741 l 0.729197,3.175704 a 0.32226628,0.32226628 0 0 0 0.313979,0.250171 h 0.0092 a 0.32226628,0.32226628 0 0 0 0.308685,-0.267481 l 0.874078,-5.080252 0.863766,2.920009 a 0.32226628,0.32226628 0 0 0 0.562769,0.107222 l 0.865193,-1.105373 h 1.578736 v -0.644533 h -1.735634 a 0.32226628,0.32226628 0 0 0 -0.253854,0.123613 z"
       style="fill:#06158d;stroke-width:0.04603804;fill-opacity:1"
       id="path855" />
    <path
       inkscape:connector-curvature="0"
       d="m 14.216197,9.0580873 a 0.32226628,0.32226628 0 0 0 -0.266744,-0.141567 v 0 a 0.32226628,0.32226628 0 0 0 -0.266744,0.1414289 c -0.08835,0.1302876 -2.169129,3.2032348 -2.69783,4.3268848 -0.290546,0.617969 -0.600474,1.350895 -0.600474,2.23128 a 3.5648636,3.5648636 0 1 0 7.129727,0 c 0,-0.89102 -0.27213,-1.538039 -0.600888,-2.232108 -0.535653,-1.131155 -2.609022,-4.1961835 -2.697047,-4.3259187 z m -0.26679,9.4784037 a 2.9236457,2.9236457 0 0 1 -2.920331,-2.920377 c 0,-0.747566 0.266376,-1.376537 0.539197,-1.956985 0.398368,-0.8471 1.791295,-2.959417 2.380996,-3.8421506 0.588458,0.8816286 1.97738,2.9897106 2.38164,3.8429336 0.305278,0.644532 0.538645,1.197863 0.538645,1.956202 a 2.9236457,2.9236457 0 0 1 -2.920147,2.920193 z"
       style="fill:#b90035;stroke-width:0.04603804;fill-opacity:1"
       id="path857" />
    <path
       inkscape:connector-curvature="0"
       d="M 13.949407,3.1375954 A 10.911015,10.911015 0 0 0 6.234122,21.76385 10.911015,10.911015 0 1 0 21.664646,6.3333719 10.839426,10.839426 0 0 0 13.949407,3.1375954 Z M 21.208869,21.308119 A 10.266483,10.266483 0 0 1 6.6898986,6.7891025 10.266483,10.266483 0 1 1 21.208869,21.308119 Z"
       style="fill:#06158d;stroke-width:0.04603804;fill-opacity:1"
       id="path859" />
  </g>
</svg>
