<svg version="1.1" 
    xmlns="http://www.w3.org/2000/svg" 
    xmlns:xlink="http://www.w3.org/1999/xlink" x="0px" y="0px" viewBox="0 0 65 65" enable-background="new 0 0 65 65" xml:space="preserve">
    <g id="Layer_1">
        <g>
            <g>
                <path fill="#EAF2F9" d="M13.237,58.99c-2.393,0-4.564-0.925-6.114-2.605c-1.566-1.698-2.32-3.979-2.124-6.421
				c0.794-9.841,3.708-23.542,13.086-32.919c9.379-9.378,23.079-12.292,32.92-13.085c0.255-0.021,0.509-0.031,0.758-0.031
				c2.393,0,4.564,0.925,6.114,2.605c1.566,1.698,2.32,3.979,2.124,6.421c-0.794,9.841-3.708,23.542-13.086,32.919
				c-9.379,9.378-23.079,12.292-32.92,13.085C13.74,58.98,13.486,58.99,13.237,58.99z"></path>
                <path fill="#5D727B" d="M51.763,4.427L51.763,4.427c2.251,0,4.292,0.868,5.747,2.445c1.471,1.594,2.179,3.74,1.993,6.042
				c-1.425,17.679-7.824,27.489-12.941,32.606c-5.117,5.117-14.928,11.516-32.606,12.941c-0.242,0.019-0.481,0.029-0.717,0.029
				c-2.252,0-4.293-0.868-5.748-2.445c-1.471-1.594-2.179-3.74-1.993-6.042c1.425-17.679,7.824-27.489,12.941-32.606
				c5.117-5.117,14.928-11.516,32.606-12.941C51.286,4.437,51.526,4.427,51.763,4.427 M51.762,3.427
				c-0.262,0-0.529,0.011-0.798,0.032C41.576,4.217,27.378,7.044,17.731,16.69S5.258,40.535,4.501,49.923
				c-0.431,5.352,3.507,9.567,8.737,9.567c0.262,0,0.529-0.011,0.798-0.032c9.388-0.757,23.587-3.584,33.233-13.231
				s12.474-23.845,13.231-33.233C60.931,7.643,56.992,3.427,51.762,3.427L51.762,3.427z"></path>
            </g>
            <line fill="#B2C1CA" stroke="#B2C1CA" stroke-linejoin="round" x1="54.429" y1="9.457" x2="10.571" y2="53.315"></line>
            <line fill="none" stroke="#5D727B" stroke-linejoin="round" x1="33.843" y1="25.568" x2="39.213" y2="30.939"></line>
            <line fill="none" stroke="#5D727B" stroke-linejoin="round" x1="24.892" y1="34.519" x2="30.262" y2="39.889"></line>
            <line fill="none" stroke="#5D727B" stroke-linejoin="round" x1="26.682" y1="32.729" x2="32.052" y2="38.099"></line>
            <line fill="none" stroke="#5D727B" stroke-linejoin="round" x1="28.472" y1="30.939" x2="33.843" y2="36.309"></line>
            <line fill="none" stroke="#5D727B" stroke-linejoin="round" x1="30.262" y1="29.149" x2="35.633" y2="34.519"></line>
            <line fill="none" stroke="#5D727B" stroke-linejoin="round" x1="32.052" y1="27.359" x2="37.423" y2="32.729"></line>
            <g>
                <circle fill="#92D68F" stroke="#189345" cx="50.221" cy="50.374" r="10.126"></circle>
                <path fill="none" stroke="#189345" d="M56.817,57.971c-2.104-1.856-3.431-4.571-3.431-7.597c0-3.025,1.326-5.74,3.429-7.595"></path>
                <path fill="none" stroke="#189345" d="M43.895,43.022c1.947,1.846,3.162,4.457,3.162,7.351c0,2.896-1.216,5.508-3.164,7.353"></path>
            </g>
        </g>
    </g>
    <g id="Shopping_Store_Cart">
    </g>
    <g id="Star_Black_Fivepointed_Shape">
    </g>
    <g id="Favourite_Symbol">
    </g>
    <g id="Star">
    </g>
</svg>