<svg width="118" height="78" viewBox="0 0 118 78" xmlns="http://www.w3.org/2000/svg" xmlns:xlink="http://www.w3.org/1999/xlink"><title>Stock</title><defs><path d="M1.677 3.602H.27C.63 2.42 1.103 1.287 1.677.217v3.385z" id="a"/><path d="M4.44 7.776H.27A18.71 18.71 0 0 1 4.44.519v7.257z" id="c"/><path d="M7.204 9.863H.27c1.2-3.945 3.67-7.34 6.935-9.71v9.71z" id="e"/><path d="M9.967 11.95H.27A18.802 18.802 0 0 1 9.967.575V11.95z" id="g"/><path d="M12.73 12.646H.27A18.8 18.8 0 0 1 12.73.179v12.467z" id="i"/><path d="M15.494 13.341H.27C2.352 6.5 8.25 1.313 15.494.254v13.087z" id="k"/><path d="M.27 13.341h17.968V.056C9.767.056 2.609 5.653.269 13.34z" id="m"/><path d="M.27 13.341h17.968V.056C9.767.056 2.609 5.653.269 13.34z" id="o"/><path d="M.27 13.341h17.968V.056C9.767.056 2.609 5.653.269 13.34z" id="q"/><path d="M.27 13.341h17.968V.056C9.767.056 2.609 5.653.269 13.34z" id="s"/><path d="M.27 13.341h17.968V.056C9.767.056 2.609 5.653.269 13.34z" id="u"/><path d="M.27 13.341h17.968V.056C9.767.056 2.609 5.653.269 13.34z" id="w"/><path d="M.27 13.341h17.968V.056C9.767.056 2.609 5.653.269 13.34z" id="y"/><path d="M.27 13.341h17.968V.056C9.767.056 2.609 5.653.269 13.34z" id="A"/><path d="M.27 13.341h17.968V.056C9.767.056 2.609 5.653.269 13.34z" id="C"/><path d="M.27 13.341h17.968V.056C9.767.056 2.609 5.653.269 13.34z" id="E"/><path d="M.27 13.341h17.968V.056C9.767.056 2.609 5.653.269 13.34z" id="G"/></defs><g fill="none" fill-rule="evenodd"><path fill="#AEBCC6" d="M1 46h73v-9H1z"/><path stroke="#211F1F" stroke-width="1.5" stroke-linejoin="round" d="M1 46h73v-9H1z"/><path fill="#AEBCC6" d="M3 73h68V46H3z"/><path stroke="#211F1F" stroke-width="1.5" stroke-linejoin="round" d="M3 73h68V46H3z"/><path fill="#AEBCC6" d="M17 10h73V1H17z"/><path stroke="#211F1F" stroke-width="1.5" stroke-linejoin="round" d="M17 10h73V1H17z"/><path fill="#AEBCC6" d="M19 37h68V10H19z"/><path stroke="#211F1F" stroke-width="1.5" stroke-linejoin="round" d="M19 37h68V10H19z"/><path fill="#AEBCC6" d="M35 46h73v-9H35z"/><path stroke="#211F1F" stroke-width="1.5" stroke-linejoin="round" d="M35 46h73v-9H35z"/><path fill="#AEBCC6" d="M37 73h68V46H37z"/><path stroke="#211F1F" stroke-width="1.5" stroke-linejoin="round" d="M37 73h68V46H37z"/><path d="M47.473 71.42c0-4.415 2.701-8.362 6.768-9.89l34.206-12.856a4.415 4.415 0 0 1 4.512.859 4.597 4.597 0 0 1 1.515 3.419v.962l2.834 1.48c2.078 1.085 4.512 1.264 6.698.43 2.72-1.036 6.084-2.88 7.074-5.86a2.586 2.586 0 0 1 2.446-1.786h.258a2.62 2.62 0 0 1 2.632 2.635V71.42H47.473z" fill="#D7E5F0"/><path d="M47.473 71.42c0-4.415 2.701-8.362 6.768-9.89l34.206-12.856a4.415 4.415 0 0 1 4.512.859 4.597 4.597 0 0 1 1.515 3.419v.962l2.834 1.48c2.078 1.085 4.512 1.264 6.698.43 2.72-1.036 6.084-2.88 7.074-5.86a2.586 2.586 0 0 1 2.446-1.786h.258a2.62 2.62 0 0 1 2.632 2.635V71.42H47.473z" stroke="#211F1F" stroke-width="1.5"/><path d="M104.299 71.35v-8.858c-8.976 0-16.511-4.902-21.665-11.633l-21.662 8.14v.32l5.049 12.03h38.278z" fill="#FFF"/><path d="M104.299 71.35v-8.858c-8.976 0-16.511-4.902-21.665-11.633l-21.662 8.14v.32l5.049 12.03h38.278zM82.634 50.859c5.154 6.731 12.689 11.633 21.665 11.633" stroke="#211F1F" stroke-width="1.5" stroke-linecap="round" stroke-linejoin="round"/><path d="M98.555 71.42h17.86V57.938c-8.42 0-15.535 5.68-17.86 13.482" fill="#FFF"/><g><g transform="translate(98.174 66.913)"><mask id="b" fill="#fff"><use xlink:href="#a"/></mask><path d="M1.677 17.855l-47.341-95.292" stroke="#D7E5F0" stroke-width="1.5" mask="url(#b)"/></g><g transform="translate(98.174 62.74)"><mask id="d" fill="#fff"><use xlink:href="#c"/></mask><path d="M4.44 22.03L-42.9-73.264" stroke="#D7E5F0" stroke-width="1.5" mask="url(#d)"/></g><g transform="translate(98.174 60.652)"><mask id="f" fill="#fff"><use xlink:href="#e"/></mask><path d="M7.204 24.116l-47.342-95.292" stroke="#D7E5F0" stroke-width="1.5" mask="url(#f)"/></g><g transform="translate(98.174 58.565)"><mask id="h" fill="#fff"><use xlink:href="#g"/></mask><path d="M9.967 26.203l-47.341-95.292" stroke="#D7E5F0" stroke-width="1.5" mask="url(#h)"/></g><g transform="translate(98.174 57.87)"><mask id="j" fill="#fff"><use xlink:href="#i"/></mask><path d="M12.73 26.899L-34.61-68.394" stroke="#D7E5F0" stroke-width="1.5" mask="url(#j)"/></g><g transform="translate(98.174 57.174)"><mask id="l" fill="#fff"><use xlink:href="#k"/></mask><path d="M15.494 27.594l-47.342-95.292" stroke="#D7E5F0" stroke-width="1.5" mask="url(#l)"/></g><g transform="translate(98.174 57.174)"><mask id="n" fill="#fff"><use xlink:href="#m"/></mask><path d="M18.257 27.594l-47.341-95.292" stroke="#D7E5F0" stroke-width="1.5" mask="url(#n)"/></g><g transform="translate(98.174 57.174)"><mask id="p" fill="#fff"><use xlink:href="#o"/></mask><path d="M21.02 27.594L-26.32-67.698" stroke="#D7E5F0" stroke-width="1.5" mask="url(#p)"/></g><g transform="translate(98.174 57.174)"><mask id="r" fill="#fff"><use xlink:href="#q"/></mask><path d="M23.784 27.594l-47.342-95.292" stroke="#D7E5F0" stroke-width="1.5" mask="url(#r)"/></g><g transform="translate(98.174 57.174)"><mask id="t" fill="#fff"><use xlink:href="#s"/></mask><path d="M26.547 27.594l-47.341-95.292" stroke="#D7E5F0" stroke-width="1.5" mask="url(#t)"/></g><g transform="translate(98.174 57.174)"><mask id="v" fill="#fff"><use xlink:href="#u"/></mask><path d="M29.31 27.594l-47.34-95.292" stroke="#D7E5F0" stroke-width="1.5" mask="url(#v)"/></g><g transform="translate(98.174 57.174)"><mask id="x" fill="#fff"><use xlink:href="#w"/></mask><path d="M32.074 27.594l-47.342-95.292" stroke="#D7E5F0" stroke-width="1.5" mask="url(#x)"/></g><g transform="translate(98.174 57.174)"><mask id="z" fill="#fff"><use xlink:href="#y"/></mask><path d="M34.837 27.594l-47.341-95.292" stroke="#D7E5F0" stroke-width="1.5" mask="url(#z)"/></g><g transform="translate(98.174 57.174)"><mask id="B" fill="#fff"><use xlink:href="#A"/></mask><path d="M37.6 27.594L-9.74-67.698" stroke="#D7E5F0" stroke-width="1.5" mask="url(#B)"/></g><g transform="translate(98.174 57.174)"><mask id="D" fill="#fff"><use xlink:href="#C"/></mask><path d="M40.364 27.594L-6.978-67.698" stroke="#D7E5F0" stroke-width="1.5" mask="url(#D)"/></g><g transform="translate(98.174 57.174)"><mask id="F" fill="#fff"><use xlink:href="#E"/></mask><path d="M43.127 27.594L-4.214-67.698" stroke="#D7E5F0" stroke-width="1.5" mask="url(#F)"/></g><g transform="translate(98.174 57.174)"><mask id="H" fill="#fff"><use xlink:href="#G"/></mask><path d="M45.89 27.594L-1.45-67.698" stroke="#D7E5F0" stroke-width="1.5" mask="url(#H)"/></g></g><g><path d="M98.563 70.516h17.964V57.229c-8.469 0-15.625 5.598-17.964 13.287zM60.758 58.582l5.08 11.864M76.567 50.734l2.832 5.13M72.54 52.184l2.832 5.13M68.485 53.693l2.832 5.13" stroke="#211F1F" stroke-width="1.5" stroke-linecap="round" stroke-linejoin="round"/><path d="M91.626 51.572a1.321 1.321 0 0 1-2.645 0 1.321 1.321 0 0 1 2.645 0" fill="#FFF"/><path d="M91.626 51.572a1.321 1.321 0 0 1-2.645 0 1.321 1.321 0 0 1 2.645 0z" stroke="#211F1F" stroke-width="1.5" stroke-linecap="round" stroke-linejoin="round"/><path d="M47.183 70.446v1.5a4.32 4.32 0 0 0 2.792 4.036l1.535-1.53 1.662 1.658 1.662-1.659 1.662 1.659 1.662-1.659 1.663 1.659 1.662-1.659 1.662 1.659 1.661-1.659 1.663 1.659 1.662-1.659 1.662 1.659 1.662-1.659 1.663 1.659 1.661-1.659 1.662 1.659 1.663-1.659 1.662 1.659 1.662-1.659 1.662 1.659 1.662-1.659 1.662 1.659 1.662-1.659 1.662 1.659 1.663-1.659 1.662 1.659 1.662-1.659 1.662 1.659 1.662-1.659 1.662 1.659 1.662-1.659 1.663 1.659 1.662-1.659 1.661 1.659 1.662-1.659 1.663 1.659 1.662-1.659 1.748 1.745a4.185 4.185 0 0 0 3.434-4.112v-1.638H47.183z" fill="#D7E5F0"/><path d="M47.183 70.446v1.5a4.32 4.32 0 0 0 2.792 4.036l1.535-1.53 1.662 1.658 1.662-1.659 1.662 1.659 1.662-1.659 1.663 1.659 1.662-1.659 1.662 1.659 1.661-1.659 1.663 1.659 1.662-1.659 1.662 1.659 1.662-1.659 1.663 1.659 1.661-1.659 1.662 1.659 1.663-1.659 1.662 1.659 1.662-1.659 1.662 1.659 1.662-1.659 1.662 1.659 1.662-1.659 1.662 1.659 1.663-1.659 1.662 1.659 1.662-1.659 1.662 1.659 1.662-1.659 1.662 1.659 1.662-1.659 1.663 1.659 1.662-1.659 1.661 1.659 1.662-1.659 1.663 1.659 1.662-1.659 1.748 1.745a4.185 4.185 0 0 0 3.434-4.112v-1.638H47.183z" stroke="#211F1F" stroke-width="1.5"/><path fill="#D7E5F0" d="M47.183 72.366h69.345v-1.85H47.183z"/><path stroke="#211F1F" stroke-width="1.5" d="M47.183 72.366h69.345v-1.85H47.183z"/></g></g></svg>