<?xml version="1.0"?>
<svg xmlns="http://www.w3.org/2000/svg" xmlns:xlink="http://www.w3.org/1999/xlink" version="1.1" id="Capa_1" x="0px" y="0px" viewBox="0 0 480 480" style="enable-background:new 0 0 480 480;" xml:space="preserve" width="512px" height="512px" class=""><g><g>
	<g>
		<path d="M208,152c-13.232,0-24,10.768-24,24h16c0-4.408,3.584-8,8-8s8,3.592,8,8h16C232,162.768,221.232,152,208,152z" data-original="#000000" class="active-path" data-old_color="#000000" fill="#FFFFFF"/>
	</g>
</g><g>
	<g>
		<path d="M272,152c-13.232,0-24,10.768-24,24h16c0-4.408,3.584-8,8-8c4.416,0,8,3.592,8,8h16C296,162.768,285.232,152,272,152z" data-original="#000000" class="active-path" data-old_color="#000000" fill="#FFFFFF"/>
	</g>
</g><g>
	<g>
		<path d="M240,368c-17.648,0-32,14.352-32,32s14.352,32,32,32s32-14.352,32-32S257.648,368,240,368z M240,416    c-8.824,0-16-7.176-16-16c0-8.824,7.176-16,16-16c8.824,0,16,7.176,16,16C256,408.824,248.824,416,240,416z" data-original="#000000" class="active-path" data-old_color="#000000" fill="#FFFFFF"/>
	</g>
</g><g>
	<g>
		<path d="M432,464V360c0-66.168-53.832-120-120-120h-8.712c2.848-2.504,5.528-5.176,8.064-8H320c22.056,0,40-17.944,40-40v-14.096    c9.64-6.464,16-17.456,16-29.904c0-12.496-6.408-23.504-16.096-29.96C358.84,52.784,305.512,0,240,0S121.16,52.784,120.096,118.04    C110.408,124.496,104,135.504,104,148c0,19.848,16.152,36,36,36h5.448c3.744,22.168,15.072,41.744,31.272,56H168    c-66.168,0-120,53.832-120,120v104H0v16h56h40h288h40h56v-16H432z M344,192c0,12.136-9.088,22.088-20.792,23.672    c5.544-9.64,9.432-20.32,11.344-31.672H340c1.368,0,2.672-0.256,4-0.408V192z M360,148c0,11.024-8.968,20-20,20h-4v-40h4    C351.032,128,360,136.976,360,148z M144,168h-4c-11.032,0-20-8.976-20-20s8.968-20,20-20h4V168z M140,112    c-1.24,0-2.408,0.24-3.616,0.368C140.32,58.584,185.232,16,240,16s99.68,42.584,103.616,96.368C342.408,112.24,341.24,112,340,112    h-5.448c-7.648-45.328-47.08-80-94.552-80s-86.904,34.672-94.552,80H140z M319.992,127.8C262.256,125.768,224,102.16,224,80    c0-4.416-3.576-8-8-8s-8,3.584-8,8c0,19.992-20.672,36.56-47.536,39.496C164.728,79.368,198.768,48,240,48    C284.04,48,319.88,83.784,319.992,127.8z M160,168v-32.448c24.984-2.168,46.184-14.216,56.768-31.088    C233.504,126.64,272.616,142.248,320,143.84V168c0,18.024-6.064,34.608-16.152,48H240v16h47.792c-4.592,3.44-9.544,6.4-14.824,8.8    c-20.992,9.536-44.952,9.536-65.952,0C179.336,228.208,160,200.352,160,168z M215.272,260.656C223.176,262.768,231.44,264,240,264    s16.824-1.232,24.728-3.344L240,310.112L215.272,260.656z M227.056,320h-14.112l-32-64h14.112L227.056,320z M284.944,256h14.112    l-32,64h-14.112L284.944,256z M88,360v104H64V360c0-55.72,44.08-101.208,99.176-103.752L195.056,320H128    C105.944,320,88,337.944,88,360z M376,464H104V360c0-13.232,10.768-24,24-24h80h32h32h80c13.232,0,24,10.768,24,24V464z M416,464    h-24V360c0-22.056-17.944-40-40-40h-67.056l31.88-63.752C371.92,258.792,416,304.28,416,360V464z" data-original="#000000" class="active-path" data-old_color="#000000" fill="#FFFFFF"/>
	</g>
</g><g>
	<g>
		<rect x="344" y="392" width="16" height="56" data-original="#000000" class="active-path" data-old_color="#000000" fill="#FFFFFF"/>
	</g>
</g><g>
	<g>
		<rect x="344" y="360" width="16" height="16" data-original="#000000" class="active-path" data-old_color="#000000" fill="#FFFFFF"/>
	</g>
</g><g>
	<g>
		<rect x="416" y="72" width="16" height="16" data-original="#000000" class="active-path" data-old_color="#000000" fill="#FFFFFF"/>
	</g>
</g><g>
	<g>
		<rect x="416" y="104" width="16" height="16" data-original="#000000" class="active-path" data-old_color="#000000" fill="#FFFFFF"/>
	</g>
</g><g>
	<g>
		<rect x="416" y="136" width="16" height="16" data-original="#000000" class="active-path" data-old_color="#000000" fill="#FFFFFF"/>
	</g>
</g><g>
	<g>
		<rect x="48" y="168" width="16" height="16" data-original="#000000" class="active-path" data-old_color="#000000" fill="#FFFFFF"/>
	</g>
</g><g>
	<g>
		<rect x="48" y="200" width="16" height="16" data-original="#000000" class="active-path" data-old_color="#000000" fill="#FFFFFF"/>
	</g>
</g><g>
	<g>
		<rect x="48" y="232" width="16" height="16" data-original="#000000" class="active-path" data-old_color="#000000" fill="#FFFFFF"/>
	</g>
</g></g> </svg>
