<svg xmlns="http://www.w3.org/2000/svg" xmlns:xlink="http://www.w3.org/1999/xlink" width="134" height="71" viewBox="0 0 134 71"><title>Add a product</title><defs><path d="M2.63 5.18H.61c.52-1.7 1.2-3.33 2.02-4.87v4.87z" id="a"/><path d="M6.6 11.18H.61C1.81 7.24 3.88 3.69 6.6.75v10.43z" id="c"/><path d="M10.56 14.18H.61C2.33 8.51 5.88 3.63 10.56.22v13.96z" id="e"/><path d="M14.52 17.18H.61C2.79 10 7.89 4.09 14.52.83v16.35z" id="g"/><path d="M18.48 18.18H.61C3.21 9.63 9.94 2.87 18.48.26v17.92z" id="i"/><path d="M22.45 19.18H.61C3.6 9.34 12.06 1.89 22.45.37v18.81z" id="k"/><path d="M.61 19.18h25.77V.08C14.23.08 3.97 8.13.61 19.18z" id="m"/><path d="M.61 19.18h25.77V.08C14.23.08 3.97 8.13.61 19.18z" id="o"/><path d="M.61 19.18h25.77V.08C14.23.08 3.97 8.13.61 19.18z" id="q"/><path d="M.61 19.18h25.77V.08C14.23.08 3.97 8.13.61 19.18z" id="s"/><path d="M.61 19.18h25.77V.08C14.23.08 3.97 8.13.61 19.18z" id="u"/><path d="M.61 19.18h25.77V.08C14.23.08 3.97 8.13.61 19.18z" id="w"/><path d="M.61 19.18h25.77V.08C14.23.08 3.97 8.13.61 19.18z" id="y"/><path d="M.61 19.18h25.77V.08C14.23.08 3.97 8.13.61 19.18z" id="A"/><path d="M.61 19.18h25.77V.08C14.23.08 3.97 8.13.61 19.18z" id="C"/><path d="M.61 19.18h25.77V.08C14.23.08 3.97 8.13.61 19.18z" id="E"/><path d="M.61 19.18h25.77V.08C14.23.08 3.97 8.13.61 19.18z" id="G"/></defs><g fill="none" fill-rule="evenodd"><path fill="#AEBCC6" d="M.75 25.68h104.3V12.85H.75z"/><path stroke="#211F1F" stroke-width="1.5" stroke-linejoin="round" d="M.75 25.69h104.3V12.85H.75z"/><path fill="#AEBCC6" d="M3.85 64.58h97.95v-38.9H3.85z"/><path stroke="#211F1F" stroke-width="1.5" stroke-linejoin="round" d="M3.85 64.58h97.95v-38.9H3.85z"/><path d="M20.91 61.829c0-6.26 3.9-11.85 9.76-14.01l49.36-18.22a6.457 6.457 0 0 1 8.69 6.06v1.37l4.09 2.09c3 1.54 6.51 1.79 9.67.61 3.92-1.46 8.78-4.08 10.2-8.3a3.744 3.744 0 0 1 3.53-2.53h.38c2.12 0 3.79 1.67 3.79 3.73v29.2H20.91z" fill="#D7E5F0"/><path d="M20.91 61.829c0-6.26 3.9-11.85 9.76-14.01l49.36-18.22a6.457 6.457 0 0 1 8.69 6.06v1.37l4.09 2.09c3 1.54 6.51 1.79 9.67.61 3.92-1.46 8.78-4.08 10.2-8.3a3.744 3.744 0 0 1 3.53-2.53h.38c2.12 0 3.79 1.67 3.79 3.73v29.2H20.91z" stroke="#211F1F" stroke-width="1.5"/><path d="M102.9 61.729v-12.55c-12.95 0-23.82-6.94-31.26-16.48l-31.25 11.53v.45l7.28 17.05h55.23z" fill="#FFF"/><path d="M102.9 61.729v-12.55c-12.95 0-23.82-6.94-31.26-16.48l-31.25 11.53v.45l7.28 17.05h55.23zM71.64 32.699c7.44 9.54 18.31 16.48 31.26 16.48" stroke="#211F1F" stroke-width="1.5" stroke-linecap="round" stroke-linejoin="round"/><path d="M94.61 61.829h25.77v-19.1c-12.15 0-22.41 8.05-25.77 19.1" fill="#FFF"/><g><g transform="translate(94 56.649)"><mask id="b" fill="#fff"><use xlink:href="#a"/></mask><path d="M2.63 25.67l-67.9-136.99" stroke="#D7E5F0" stroke-width="1.5" mask="url(#b)"/></g><g transform="translate(94 50.649)"><mask id="d" fill="#fff"><use xlink:href="#c"/></mask><path d="M6.6 31.67l-67.9-136.99" stroke="#D7E5F0" stroke-width="1.5" mask="url(#d)"/></g><g transform="translate(94 47.649)"><mask id="f" fill="#fff"><use xlink:href="#e"/></mask><path d="M10.56 34.67l-67.9-136.99" stroke="#D7E5F0" stroke-width="1.5" mask="url(#f)"/></g><g transform="translate(94 44.649)"><mask id="h" fill="#fff"><use xlink:href="#g"/></mask><path d="M14.52 37.67l-67.9-136.99" stroke="#D7E5F0" stroke-width="1.5" mask="url(#h)"/></g><g transform="translate(94 43.649)"><mask id="j" fill="#fff"><use xlink:href="#i"/></mask><path d="M18.48 38.67L-49.41-98.32" stroke="#D7E5F0" stroke-width="1.5" mask="url(#j)"/></g><g transform="translate(94 42.649)"><mask id="l" fill="#fff"><use xlink:href="#k"/></mask><path d="M22.45 39.67l-67.9-136.99" stroke="#D7E5F0" stroke-width="1.5" mask="url(#l)"/></g><g transform="translate(94 42.649)"><mask id="n" fill="#fff"><use xlink:href="#m"/></mask><path d="M26.41 39.67l-67.9-136.99" stroke="#D7E5F0" stroke-width="1.5" mask="url(#n)"/></g><g transform="translate(94 42.649)"><mask id="p" fill="#fff"><use xlink:href="#o"/></mask><path d="M30.37 39.67L-37.52-97.32" stroke="#D7E5F0" stroke-width="1.5" mask="url(#p)"/></g><g transform="translate(94 42.649)"><mask id="r" fill="#fff"><use xlink:href="#q"/></mask><path d="M34.34 39.67l-67.9-136.99" stroke="#D7E5F0" stroke-width="1.5" mask="url(#r)"/></g><g transform="translate(94 42.649)"><mask id="t" fill="#fff"><use xlink:href="#s"/></mask><path d="M38.3 39.67L-29.6-97.32" stroke="#D7E5F0" stroke-width="1.5" mask="url(#t)"/></g><g transform="translate(94 42.649)"><mask id="v" fill="#fff"><use xlink:href="#u"/></mask><path d="M42.26 39.67L-25.63-97.32" stroke="#D7E5F0" stroke-width="1.5" mask="url(#v)"/></g><g transform="translate(94 42.649)"><mask id="x" fill="#fff"><use xlink:href="#w"/></mask><path d="M46.23 39.67l-67.9-136.99" stroke="#D7E5F0" stroke-width="1.5" mask="url(#x)"/></g><g transform="translate(94 42.649)"><mask id="z" fill="#fff"><use xlink:href="#y"/></mask><path d="M50.19 39.67l-67.9-136.99" stroke="#D7E5F0" stroke-width="1.5" mask="url(#z)"/></g><g transform="translate(94 42.649)"><mask id="B" fill="#fff"><use xlink:href="#A"/></mask><path d="M54.15 39.67L-13.74-97.32" stroke="#D7E5F0" stroke-width="1.5" mask="url(#B)"/></g><g transform="translate(94 42.649)"><mask id="D" fill="#fff"><use xlink:href="#C"/></mask><path d="M58.12 39.67L-9.78-97.32" stroke="#D7E5F0" stroke-width="1.5" mask="url(#D)"/></g><g transform="translate(94 42.649)"><mask id="F" fill="#fff"><use xlink:href="#E"/></mask><path d="M62.08 39.67L-5.82-97.32" stroke="#D7E5F0" stroke-width="1.5" mask="url(#F)"/></g><g transform="translate(94 42.649)"><mask id="H" fill="#fff"><use xlink:href="#G"/></mask><path d="M66.04 39.67L-1.85-97.32" stroke="#D7E5F0" stroke-width="1.5" mask="url(#H)"/></g></g><g><path d="M94.61 61.829h25.77v-19.1c-12.15 0-22.41 8.05-25.77 19.1zM40.38 44.669l7.29 17.06M63.06 33.389l4.06 7.38M57.28 35.479l4.07 7.37M51.47 37.649l4.06 7.37" stroke="#211F1F" stroke-width="1.5" stroke-linecap="round" stroke-linejoin="round"/><path d="M84.66 34.599a1.895 1.895 0 1 1-1.9-1.9c1.05 0 1.9.85 1.9 1.9" fill="#FFF"/><path d="M84.66 34.599a1.895 1.895 0 1 1-1.9-1.9c1.05 0 1.9.85 1.9 1.9z" stroke="#211F1F" stroke-width="1.5" stroke-linecap="round" stroke-linejoin="round"/><path d="M20.91 61.729v2.16c0 2.65 1.67 4.91 4.01 5.8l2.2-2.2 2.38 2.38 2.39-2.38 2.38 2.38 2.38-2.38 2.39 2.38 2.38-2.38 2.39 2.38 2.38-2.38 2.39 2.38 2.38-2.38 2.38 2.38 2.39-2.38 2.38 2.38 2.39-2.38 2.38 2.38 2.39-2.38 2.38 2.38 2.38-2.38 2.39 2.38 2.38-2.38 2.39 2.38 2.38-2.38 2.38 2.38 2.39-2.38 2.38 2.38 2.39-2.38 2.38 2.38 2.39-2.38 2.38 2.38 2.38-2.38 2.39 2.38 2.38-2.38 2.39 2.38 2.38-2.38 2.39 2.38 2.38-2.38 2.51 2.5c2.8-.51 4.92-2.96 4.92-5.91v-2.35H20.91z" fill="#D7E5F0"/><path d="M20.91 61.729v2.16c0 2.65 1.67 4.91 4.01 5.8l2.2-2.2 2.38 2.38 2.39-2.38 2.38 2.38 2.38-2.38 2.39 2.38 2.38-2.38 2.39 2.38 2.38-2.38 2.39 2.38 2.38-2.38 2.38 2.38 2.39-2.38 2.38 2.38 2.39-2.38 2.38 2.38 2.39-2.38 2.38 2.38 2.38-2.38 2.39 2.38 2.38-2.38 2.39 2.38 2.38-2.38 2.38 2.38 2.39-2.38 2.38 2.38 2.39-2.38 2.38 2.38 2.39-2.38 2.38 2.38 2.38-2.38 2.39 2.38 2.38-2.38 2.39 2.38 2.38-2.38 2.39 2.38 2.38-2.38 2.51 2.5c2.8-.51 4.92-2.96 4.92-5.91v-2.35H20.91z" stroke="#211F1F" stroke-width="1.5"/><path fill="#D7E5F0" d="M20.91 64.489h99.47v-2.66H20.91z"/><path stroke="#211F1F" stroke-width="1.5" d="M20.91 64.489h99.47v-2.66H20.91z"/><path d="M132.78 19.579c0 9.9-8.02 17.92-17.91 17.92-9.9 0-17.92-8.02-17.92-17.92 0-9.89 8.02-17.91 17.92-17.91 9.89 0 17.91 8.02 17.91 17.91" fill="#42B573"/><path d="M132.78 19.579c0 9.9-8.02 17.92-17.91 17.92-9.9 0-17.92-8.02-17.92-17.92 0-9.89 8.02-17.91 17.92-17.91 9.89 0 17.91 8.02 17.91 17.91z" stroke="#211F1F" stroke-width="1.5" stroke-linecap="round" stroke-linejoin="round"/><path d="M123.03 16.669h-5.25v-5.25c0-1.61-1.3-2.92-2.91-2.92s-2.92 1.31-2.92 2.92v5.25h-5.25a2.915 2.915 0 1 0 0 5.83h5.25v5.25c0 1.61 1.31 2.92 2.92 2.92 1.61 0 2.91-1.31 2.91-2.92v-5.25h5.25c1.61 0 2.92-1.3 2.92-2.91 0-1.62-1.31-2.92-2.92-2.92" fill="#FFF"/><path d="M123.03 16.669h-5.25v-5.25c0-1.61-1.3-2.92-2.91-2.92s-2.92 1.31-2.92 2.92v5.25h-5.25a2.915 2.915 0 1 0 0 5.83h5.25v5.25c0 1.61 1.31 2.92 2.92 2.92 1.61 0 2.91-1.31 2.91-2.92v-5.25h5.25c1.61 0 2.92-1.3 2.92-2.91 0-1.62-1.31-2.92-2.92-2.92z" stroke="#000" stroke-width="1.5"/></g></g></svg>