<svg width="100" height="77" viewBox="0 0 100 77" xmlns="http://www.w3.org/2000/svg" xmlns:xlink="http://www.w3.org/1999/xlink"><title>boost revenue</title><defs><path id="a" d="M1.022 24h23.962V.132H1.022V24z"/><path id="c" d="M22.878 22.568V.5H.72v22.068h22.158z"/><path id="e" d="M22.878 24.668V.8H.72v23.868z"/><path id="g" d="M22.878 23.237V1.169H.72v22.068h22.158z"/><path id="i" d="M22.878 24.138V.268H.72v23.87h22.158z"/><path id="k" d="M22.878 22.705V.637H.72v22.068h22.158z"/><path id="m" d="M22.878 24.805V.937H.72v23.868h22.158z"/><path id="o" d="M22.878 22.173V.105H.72v22.068h22.158z"/><path id="q" d="M22.878 24.273V.405H.72v23.868z"/><path id="s" d="M22.878 22.842V.774H.72v22.068h22.158z"/><path id="u" d="M22.878 24.943V1.073H.72v23.87h22.158z"/><path id="w" d="M22.878 22.31V.242H.72V22.31h22.158z"/><path id="y" d="M22.878 24.41V.542H.72v23.87h22.158z"/><path id="A" d="M22.878 18.178V.275H.72v17.903h22.158z"/><path id="C" d="M22.878 19.079V.275H.72v18.804h22.158z"/><path id="E" d="M.938 24h23.964V.132H.938V24z"/><path id="G" d="M22.794 22.568V.5H.637v22.068h22.157z"/><path id="I" d="M22.794 24.668V.8H.637v23.868h22.157z"/><path id="K" d="M22.794 23.237V1.169H.637v22.068h22.157z"/><path id="M" d="M22.794 24.138V.268H.637v23.87h22.157z"/><path id="O" d="M22.794 22.705V.637H.637v22.068h22.157z"/><path id="Q" d="M22.794 24.805V.937H.637v23.868h22.157z"/><path id="S" d="M22.794 22.173V.105H.637v22.068h22.157z"/><path id="U" d="M22.794 24.273V.405H.637v23.868z"/><path id="W" d="M22.794 21.642V.976H.637v20.666h22.157z"/><path id="Y" d="M22.794 22.543V.976H.637v21.567h22.157z"/><path id="aa" d="M.856 24h23.962V.132H.856z"/><path id="ac" d="M22.71 22.568V.5H.555v22.068h22.157z"/><path id="ae" d="M22.71 24.668V.8H.555v23.868z"/><path id="ag" d="M22.71 23.237V1.169H.555v22.068h22.157z"/><path id="ai" d="M22.71 24.138V.268H.555v23.87h22.157z"/><path id="ak" d="M22.71 22.705V.637H.555v22.068h22.157z"/><path id="am" d="M22.71 23.605V.283H.555v23.322h22.157z"/></defs><g fill="none" fill-rule="evenodd"><path d="M98.78 64.726c0 6.094-4.96 11.034-11.078 11.034-6.118 0-11.078-4.94-11.078-11.034 0-6.093 4.96-11.034 11.078-11.034 6.118 0 11.078 4.94 11.078 11.034" fill="#FFF"/><g transform="translate(74.699 52.66)"><mask id="b" fill="#fff"><use xlink:href="#a"/></mask><path d="M13.004 1.932c-5.611 0-10.175 4.546-10.175 10.133 0 5.59 4.564 10.135 10.175 10.135 5.61 0 10.173-4.545 10.173-10.135 0-5.587-4.564-10.133-10.173-10.133m0 22.068C6.398 24 1.022 18.646 1.022 12.065 1.022 5.485 6.398.132 13.004.132c6.606 0 11.98 5.354 11.98 11.933C24.984 18.646 19.61 24 13.004 24" fill="#221F1F" mask="url(#b)"/></g><g transform="translate(75.904 46.66)"><mask id="d" fill="#fff"><use xlink:href="#c"/></mask><path d="M23.732 11.534c0 6.094-5.342 11.034-11.934 11.034-6.59 0-11.932-4.94-11.932-11.034C-.134 5.441 5.208.5 11.798.5c6.592 0 11.934 4.94 11.934 11.034" fill="#FFF" mask="url(#d)"/></g><g transform="translate(75.904 45.46)"><mask id="f" fill="#fff"><use xlink:href="#e"/></mask><path d="M11.799 2.6C5.717 2.6.769 7.146.769 12.734c0 5.589 4.948 10.134 11.03 10.134 6.082 0 11.029-4.545 11.029-10.134 0-5.588-4.947-10.134-11.03-10.134m0 22.068c-7.078 0-12.835-5.353-12.835-11.934C-1.037 6.154 4.72.8 11.799.8c7.078 0 12.836 5.355 12.836 11.934 0 6.581-5.758 11.934-12.836 11.934" fill="#221F1F" mask="url(#f)"/></g><g transform="translate(75.904 39.46)"><mask id="h" fill="#fff"><use xlink:href="#g"/></mask><path d="M23.732 12.203c0 6.093-5.342 11.034-11.934 11.034-6.59 0-11.932-4.94-11.932-11.034S5.208 1.169 11.798 1.169c6.592 0 11.934 4.94 11.934 11.034" fill="#FFF" mask="url(#h)"/></g><g transform="translate(75.904 39.46)"><mask id="j" fill="#fff"><use xlink:href="#i"/></mask><path d="M11.799 2.068C5.717 2.068.769 6.614.769 12.202c0 5.59 4.948 10.136 11.03 10.136 6.082 0 11.029-4.546 11.029-10.136 0-5.588-4.947-10.134-11.03-10.134m0 22.07c-7.078 0-12.835-5.355-12.835-11.936C-1.037 5.622 4.72.268 11.799.268c7.078 0 12.836 5.355 12.836 11.934 0 6.581-5.758 11.936-12.836 11.936" fill="#221F1F" mask="url(#j)"/></g><g transform="translate(75.904 33.46)"><mask id="l" fill="#fff"><use xlink:href="#k"/></mask><path d="M23.732 11.671c0 6.094-5.342 11.034-11.934 11.034-6.59 0-11.932-4.94-11.932-11.034S5.208.637 11.798.637c6.592 0 11.934 4.94 11.934 11.034" fill="#FFF" mask="url(#l)"/></g><g transform="translate(75.904 32.26)"><mask id="n" fill="#fff"><use xlink:href="#m"/></mask><path d="M11.799 2.737C5.717 2.737.769 7.283.769 12.87c0 5.59 4.948 10.135 11.03 10.135 6.082 0 11.029-4.545 11.029-10.135 0-5.587-4.947-10.133-11.03-10.133m0 22.068c-7.078 0-12.835-5.354-12.835-11.935C-1.037 6.29 4.72.937 11.799.937c7.078 0 12.836 5.354 12.836 11.933 0 6.581-5.758 11.935-12.836 11.935" fill="#221F1F" mask="url(#n)"/></g><g transform="translate(75.904 27.46)"><mask id="p" fill="#fff"><use xlink:href="#o"/></mask><path d="M23.732 11.14c0 6.093-5.342 11.033-11.934 11.033-6.59 0-11.932-4.94-11.932-11.034C-.134 5.046 5.208.105 11.798.105c6.592 0 11.934 4.94 11.934 11.034" fill="#FFF" mask="url(#p)"/></g><g transform="translate(75.904 26.26)"><mask id="r" fill="#fff"><use xlink:href="#q"/></mask><path d="M11.799 2.205C5.717 2.205.769 6.751.769 12.34c0 5.589 4.948 10.134 11.03 10.134 6.082 0 11.029-4.545 11.029-10.134 0-5.588-4.947-10.134-11.03-10.134m0 22.068c-7.078 0-12.835-5.353-12.835-11.934C-1.037 5.76 4.72.405 11.799.405c7.078 0 12.836 5.355 12.836 11.934 0 6.581-5.758 11.934-12.836 11.934" fill="#221F1F" mask="url(#r)"/></g><g transform="translate(75.904 20.26)"><mask id="t" fill="#fff"><use xlink:href="#s"/></mask><path d="M23.732 11.808c0 6.093-5.342 11.034-11.934 11.034-6.59 0-11.932-4.94-11.932-11.034S5.208.774 11.798.774c6.592 0 11.934 4.94 11.934 11.034" fill="#FFF" mask="url(#t)"/></g><g transform="translate(75.904 19.06)"><mask id="v" fill="#fff"><use xlink:href="#u"/></mask><path d="M11.799 2.873C5.717 2.873.769 7.42.769 13.007c0 5.59 4.948 10.136 11.03 10.136 6.082 0 11.029-4.546 11.029-10.136 0-5.588-4.947-10.134-11.03-10.134m0 22.07c-7.078 0-12.835-5.355-12.835-11.936 0-6.58 5.757-11.934 12.836-11.934 7.078 0 12.836 5.355 12.836 11.934 0 6.581-5.758 11.936-12.836 11.936" fill="#221F1F" mask="url(#v)"/></g><g transform="translate(75.904 14.26)"><mask id="x" fill="#fff"><use xlink:href="#w"/></mask><path d="M23.732 11.276c0 6.094-5.342 11.034-11.934 11.034-6.59 0-11.932-4.94-11.932-11.034S5.208.242 11.798.242c6.592 0 11.934 4.94 11.934 11.034" fill="#FFF" mask="url(#x)"/></g><g transform="translate(75.904 13.06)"><mask id="z" fill="#fff"><use xlink:href="#y"/></mask><path d="M11.799 2.341C5.717 2.341.769 6.887.769 12.475c0 5.59 4.948 10.136 11.03 10.136 6.082 0 11.029-4.546 11.029-10.136 0-5.588-4.947-10.134-11.03-10.134m0 22.07c-7.078 0-12.835-5.355-12.835-11.936C-1.037 5.895 4.72.541 11.799.541c7.078 0 12.836 5.355 12.836 11.934 0 6.581-5.758 11.936-12.836 11.936" fill="#221F1F" mask="url(#z)"/></g><g transform="translate(75.904 11.86)"><mask id="B" fill="#fff"><use xlink:href="#A"/></mask><path d="M23.732 7.144c0 6.094-5.342 11.034-11.934 11.034-6.59 0-11.932-4.94-11.932-11.034 0-6.093 5.342-11.034 11.932-11.034 6.592 0 11.934 4.94 11.934 11.034" fill="#FFF" mask="url(#B)"/></g><g transform="translate(75.904 11.86)"><mask id="D" fill="#fff"><use xlink:href="#C"/></mask><path d="M11.799-2.99C5.717-2.99.769 1.557.769 7.144c0 5.59 4.948 10.136 11.03 10.136 6.082 0 11.029-4.546 11.029-10.136 0-5.587-4.947-10.132-11.03-10.132m0 22.068c-7.078 0-12.835-5.355-12.835-11.936 0-6.58 5.757-11.932 12.836-11.932 7.078 0 12.836 5.353 12.836 11.932 0 6.581-5.758 11.936-12.836 11.936" fill="#221F1F" mask="url(#D)"/></g><g><path d="M98.78 12.134c0 6.094-4.96 11.034-11.078 11.034-6.118 0-11.078-4.94-11.078-11.034 0-6.093 4.96-11.034 11.078-11.034 6.118 0 11.078 4.94 11.078 11.034" fill="#FFF"/><path d="M87.702 2c-5.61 0-10.174 4.546-10.174 10.134 0 5.59 4.564 10.135 10.174 10.135 5.61 0 10.174-4.545 10.174-10.135C97.876 6.546 93.312 2 87.702 2m0 22.07c-6.606 0-11.982-5.355-11.982-11.936C75.72 5.554 81.096.2 87.702.2c6.606 0 11.981 5.354 11.981 11.934 0 6.58-5.375 11.935-11.98 11.935" fill="#221F1F"/><path d="M95.481 12.134c0 4.28-3.483 7.749-7.78 7.749-4.295 0-7.778-3.47-7.778-7.749s3.483-7.748 7.779-7.748c4.296 0 7.78 3.469 7.78 7.748" fill="#FFF"/><path d="M87.702 5.286c-3.79 0-6.875 3.073-6.875 6.848 0 3.777 3.085 6.848 6.875 6.848s6.875-3.071 6.875-6.848c0-3.775-3.084-6.848-6.875-6.848m0 15.496c-4.788 0-8.683-3.879-8.683-8.648 0-4.768 3.895-8.648 8.683-8.648s8.682 3.88 8.682 8.648c0 4.77-3.894 8.648-8.682 8.648" fill="#221F1F"/><path d="M89.55 14.601c0-.296-.096-.533-.286-.71a2.332 2.332 0 0 0-.755-.444l-.25 2.574c.86-.15 1.29-.624 1.29-1.42zm-3.32-5.047c0 .307.097.556.293.745.195.19.452.35.771.479l.235-2.354c-.24.036-.442.09-.607.16-.164.07-.298.154-.399.252a.91.91 0 0 0-.223.333c-.047.121-.07.25-.07.385zm.36 8.37a6.877 6.877 0 0 1-1.72-.518 5.127 5.127 0 0 1-1.382-.893l.752-1.086a.78.78 0 0 1 .255-.221c.106-.06.22-.09.34-.09.125 0 .253.032.383.097.132.065.274.144.428.238.154.093.322.188.505.284.183.096.391.177.626.239l.29-2.948a12.57 12.57 0 0 1-1.12-.369 3.632 3.632 0 0 1-1.002-.571 2.715 2.715 0 0 1-.724-.916c-.186-.37-.279-.835-.279-1.394 0-.412.084-.812.251-1.204.166-.392.412-.745.733-1.057a3.846 3.846 0 0 1 1.185-.771c.47-.202 1.007-.302 1.613-.302l.087-.88a.667.667 0 0 1 .196-.4.59.59 0 0 1 .446-.179h.893l-.157 1.537c.564.105 1.05.272 1.457.504.407.23.752.48 1.034.744l-.595.866c-.09.13-.179.225-.27.285a.59.59 0 0 1-.326.089.88.88 0 0 1-.282-.054 4.443 4.443 0 0 1-.344-.137l-.403-.175a3.816 3.816 0 0 0-.459-.164l-.274 2.77c.25.072.501.152.752.237.25.086.492.185.725.296.231.112.448.241.65.387a2.32 2.32 0 0 1 .873 1.198c.083.256.125.549.125.876 0 .494-.083.958-.25 1.392a3.381 3.381 0 0 1-.737 1.151c-.324.334-.72.604-1.19.815-.47.211-1.007.34-1.613.386l-.093.976a.66.66 0 0 1-.198.394.597.597 0 0 1-.445.174h-.893l.156-1.606z" fill="#000"/><path d="M98.78 66.77a.902.902 0 0 1-.904-.9V10.739c0-.497.405-.9.904-.9s.903.403.903.9V65.87c0 .497-.404.9-.903.9M76.624 66.77a.902.902 0 0 1-.904-.9V10.739c0-.497.405-.9.904-.9s.903.403.903.9V65.87c0 .497-.404.9-.903.9" fill="#211F1F"/><path d="M61.348 64.726c0 6.094-4.96 11.034-11.079 11.034-6.118 0-11.078-4.94-11.078-11.034 0-6.093 4.96-11.034 11.078-11.034 6.118 0 11.079 4.94 11.079 11.034" fill="#FFF"/><g transform="translate(37.35 52.66)"><mask id="F" fill="#fff"><use xlink:href="#E"/></mask><path d="M12.92 1.932c-5.61 0-10.175 4.546-10.175 10.133 0 5.59 4.564 10.135 10.175 10.135 5.61 0 10.175-4.545 10.175-10.135 0-5.587-4.564-10.133-10.175-10.133m0 22.068C6.314 24 .938 18.646.938 12.065.938 5.485 6.314.132 12.92.132c6.606 0 11.982 5.354 11.982 11.933C24.902 18.646 19.526 24 12.92 24" fill="#221F1F" mask="url(#F)"/></g></g><g><g transform="translate(38.554 46.66)"><mask id="H" fill="#fff"><use xlink:href="#G"/></mask><path d="M23.648 11.534c0 6.094-5.342 11.034-11.933 11.034-6.59 0-11.933-4.94-11.933-11.034C-.218 5.441 5.124.5 11.715.5s11.933 4.94 11.933 11.034" fill="#FFF" mask="url(#H)"/></g><g transform="translate(38.554 45.46)"><mask id="J" fill="#fff"><use xlink:href="#I"/></mask><path d="M11.715 2.6C5.633 2.6.686 7.146.686 12.734c0 5.589 4.947 10.134 11.03 10.134 6.081 0 11.028-4.545 11.028-10.134 0-5.588-4.947-10.134-11.029-10.134m0 22.068c-7.078 0-12.836-5.353-12.836-11.934C-1.121 6.154 4.637.8 11.715.8s12.836 5.355 12.836 11.934c0 6.581-5.758 11.934-12.836 11.934" fill="#221F1F" mask="url(#J)"/></g><g transform="translate(38.554 39.46)"><mask id="L" fill="#fff"><use xlink:href="#K"/></mask><path d="M23.648 12.203c0 6.093-5.342 11.034-11.933 11.034-6.59 0-11.933-4.94-11.933-11.034S5.124 1.169 11.715 1.169s11.933 4.94 11.933 11.034" fill="#FFF" mask="url(#L)"/></g><g transform="translate(38.554 39.46)"><mask id="N" fill="#fff"><use xlink:href="#M"/></mask><path d="M11.715 2.068C5.633 2.068.686 6.614.686 12.202c0 5.59 4.947 10.136 11.03 10.136 6.081 0 11.028-4.546 11.028-10.136 0-5.588-4.947-10.134-11.029-10.134m0 22.07c-7.078 0-12.836-5.355-12.836-11.936 0-6.58 5.758-11.934 12.836-11.934s12.836 5.355 12.836 11.934c0 6.581-5.758 11.936-12.836 11.936" fill="#221F1F" mask="url(#N)"/></g><g transform="translate(38.554 33.46)"><mask id="P" fill="#fff"><use xlink:href="#O"/></mask><path d="M23.648 11.671c0 6.094-5.342 11.034-11.933 11.034-6.59 0-11.933-4.94-11.933-11.034S5.124.637 11.715.637s11.933 4.94 11.933 11.034" fill="#FFF" mask="url(#P)"/></g><g transform="translate(38.554 32.26)"><mask id="R" fill="#fff"><use xlink:href="#Q"/></mask><path d="M11.715 2.737C5.633 2.737.686 7.283.686 12.87c0 5.59 4.947 10.135 11.03 10.135 6.081 0 11.028-4.545 11.028-10.135 0-5.587-4.947-10.133-11.029-10.133m0 22.068c-7.078 0-12.836-5.354-12.836-11.935C-1.121 6.29 4.637.937 11.715.937S24.551 6.291 24.551 12.87c0 6.581-5.758 11.935-12.836 11.935" fill="#221F1F" mask="url(#R)"/></g><g transform="translate(38.554 27.46)"><mask id="T" fill="#fff"><use xlink:href="#S"/></mask><path d="M23.648 11.14c0 6.093-5.342 11.033-11.933 11.033-6.59 0-11.933-4.94-11.933-11.034C-.218 5.046 5.124.105 11.715.105s11.933 4.94 11.933 11.034" fill="#FFF" mask="url(#T)"/></g><g transform="translate(38.554 26.26)"><mask id="V" fill="#fff"><use xlink:href="#U"/></mask><path d="M11.715 2.205C5.633 2.205.686 6.751.686 12.34c0 5.589 4.947 10.134 11.03 10.134 6.081 0 11.028-4.545 11.028-10.134 0-5.588-4.947-10.134-11.029-10.134m0 22.068C4.637 24.273-1.12 18.92-1.12 12.34-1.121 5.76 4.637.405 11.715.405S24.551 5.76 24.551 12.34c0 6.581-5.758 11.934-12.836 11.934" fill="#221F1F" mask="url(#V)"/></g><g transform="translate(38.554 21.46)"><mask id="X" fill="#fff"><use xlink:href="#W"/></mask><path d="M23.648 10.608c0 6.093-5.342 11.034-11.933 11.034-6.59 0-11.933-4.94-11.933-11.034S5.124-.426 11.715-.426s11.933 4.94 11.933 11.034" fill="#FFF" mask="url(#X)"/></g><g transform="translate(38.554 21.46)"><mask id="Z" fill="#fff"><use xlink:href="#Y"/></mask><path d="M11.715.473C5.633.473.686 5.02.686 10.607c0 5.59 4.947 10.136 11.03 10.136 6.081 0 11.028-4.546 11.028-10.136C22.744 5.02 17.797.473 11.715.473m0 22.07c-7.078 0-12.836-5.355-12.836-11.936 0-6.58 5.758-11.934 12.836-11.934s12.836 5.355 12.836 11.934c0 6.581-5.758 11.936-12.836 11.936" fill="#221F1F" mask="url(#Z)"/></g></g><g><path d="M61.348 25.936c0 6.093-4.96 11.034-11.079 11.034-6.118 0-11.078-4.94-11.078-11.034s4.96-11.034 11.078-11.034c6.118 0 11.079 4.94 11.079 11.034" fill="#FFF"/><path d="M50.27 15.801c-5.611 0-10.175 4.546-10.175 10.134 0 5.59 4.564 10.135 10.174 10.135 5.611 0 10.175-4.545 10.175-10.135 0-5.588-4.564-10.134-10.175-10.134m0 22.07c-6.606 0-11.982-5.355-11.982-11.936 0-6.58 5.376-11.934 11.982-11.934 6.606 0 11.982 5.355 11.982 11.934 0 6.581-5.376 11.935-11.982 11.935" fill="#221F1F"/><path d="M58.048 25.936c0 4.279-3.483 7.748-7.78 7.748-4.294 0-7.777-3.47-7.777-7.748 0-4.28 3.483-7.749 7.778-7.749 4.296 0 7.78 3.47 7.78 7.749" fill="#FFF"/><path d="M50.27 19.087c-3.791 0-6.877 3.073-6.877 6.849 0 3.776 3.086 6.848 6.876 6.848 3.79 0 6.876-3.072 6.876-6.848s-3.085-6.849-6.876-6.849m0 15.497c-4.788 0-8.683-3.88-8.683-8.648 0-4.77 3.895-8.649 8.683-8.649s8.684 3.88 8.684 8.649c0 4.768-3.896 8.648-8.684 8.648" fill="#221F1F"/><path d="M52.117 28.402c0-.296-.096-.532-.286-.71a2.332 2.332 0 0 0-.755-.444l-.25 2.574c.86-.15 1.29-.624 1.29-1.42zm-3.32-5.047c0 .307.097.556.293.745.195.19.452.35.771.48l.235-2.355c-.24.036-.442.09-.607.16-.164.07-.298.154-.399.253a.91.91 0 0 0-.223.332c-.047.121-.07.25-.07.385zm.36 8.37a6.877 6.877 0 0 1-1.72-.518 5.127 5.127 0 0 1-1.382-.893l.752-1.086a.78.78 0 0 1 .255-.22c.106-.06.22-.09.34-.09.125 0 .253.032.383.096.132.065.274.144.428.238.154.094.322.188.505.284.183.096.391.177.626.24l.29-2.95a12.57 12.57 0 0 1-1.12-.368 3.632 3.632 0 0 1-1.002-.57 2.715 2.715 0 0 1-.724-.916c-.186-.371-.279-.836-.279-1.395 0-.411.084-.812.251-1.203.166-.393.412-.746.733-1.058a3.846 3.846 0 0 1 1.185-.771c.47-.202 1.007-.301 1.613-.301l.087-.88a.667.667 0 0 1 .196-.4.59.59 0 0 1 .446-.18h.893l-.157 1.538c.564.104 1.05.27 1.457.504.407.23.752.478 1.034.744l-.595.865c-.09.13-.179.225-.27.285a.59.59 0 0 1-.326.09.88.88 0 0 1-.282-.055 4.443 4.443 0 0 1-.344-.137l-.403-.175a3.816 3.816 0 0 0-.459-.164l-.274 2.77c.25.073.5.152.752.237.25.086.492.185.725.296.231.112.448.242.65.387.2.145.376.317.525.513.149.198.263.426.348.684.083.257.125.55.125.878 0 .493-.083.957-.25 1.392a3.381 3.381 0 0 1-.737 1.15c-.324.334-.72.604-1.19.815-.47.211-1.007.34-1.613.387l-.093.975a.66.66 0 0 1-.198.394.597.597 0 0 1-.445.174H49l.156-1.606z" fill="#000"/><path d="M61.348 66.77a.902.902 0 0 1-.904-.9V24.522c0-.497.405-.9.904-.9s.904.403.904.9v41.35c0 .497-.405.9-.904.9M39.19 66.77a.902.902 0 0 1-.903-.9V24.522c0-.497.405-.9.904-.9s.903.403.903.9v41.35c0 .497-.404.9-.903.9" fill="#211F1F"/><path d="M23.915 64.726c0 6.094-4.96 11.034-11.078 11.034-6.118 0-11.079-4.94-11.079-11.034 0-6.093 4.96-11.034 11.079-11.034 6.118 0 11.078 4.94 11.078 11.034" fill="#FFF"/><g transform="translate(0 52.66)"><mask id="ab" fill="#fff"><use xlink:href="#aa"/></mask><path d="M12.837 1.932c-5.61 0-10.174 4.546-10.174 10.133 0 5.59 4.564 10.135 10.174 10.135 5.61 0 10.174-4.545 10.174-10.135 0-5.587-4.564-10.133-10.174-10.133m0 22.068C6.23 24 .856 18.646.856 12.065.856 5.485 6.23.132 12.836.132c6.607 0 11.982 5.354 11.982 11.933C24.818 18.646 19.443 24 12.837 24" fill="#221F1F" mask="url(#ab)"/></g></g><g><g transform="translate(1.205 46.66)"><mask id="ad" fill="#fff"><use xlink:href="#ac"/></mask><path d="M23.565 11.534c0 6.094-5.342 11.034-11.934 11.034-6.59 0-11.932-4.94-11.932-11.034C-.301 5.441 5.04.5 11.63.5c6.592 0 11.934 4.94 11.934 11.034" fill="#FFF" mask="url(#ad)"/></g><g transform="translate(1.205 45.46)"><mask id="af" fill="#fff"><use xlink:href="#ae"/></mask><path d="M11.632 2.6C5.55 2.6.602 7.146.602 12.734c0 5.589 4.948 10.134 11.03 10.134 6.082 0 11.029-4.545 11.029-10.134C22.66 7.146 17.714 2.6 11.63 2.6m0 22.068c-7.078 0-12.835-5.353-12.835-11.934C-1.204 6.154 4.553.8 11.632.8c7.078 0 12.836 5.355 12.836 11.934 0 6.581-5.758 11.934-12.836 11.934" fill="#221F1F" mask="url(#af)"/></g><g transform="translate(1.205 39.46)"><mask id="ah" fill="#fff"><use xlink:href="#ag"/></mask><path d="M23.565 12.203c0 6.093-5.342 11.034-11.934 11.034-6.59 0-11.932-4.94-11.932-11.034S5.04 1.169 11.63 1.169c6.592 0 11.934 4.94 11.934 11.034" fill="#FFF" mask="url(#ah)"/></g><g transform="translate(1.205 39.46)"><mask id="aj" fill="#fff"><use xlink:href="#ai"/></mask><path d="M11.632 2.068C5.55 2.068.602 6.614.602 12.202c0 5.59 4.948 10.136 11.03 10.136 6.082 0 11.029-4.546 11.029-10.136 0-5.588-4.947-10.134-11.03-10.134m0 22.07c-7.078 0-12.835-5.355-12.835-11.936 0-6.58 5.757-11.934 12.836-11.934 7.078 0 12.836 5.355 12.836 11.934 0 6.581-5.758 11.936-12.836 11.936" fill="#221F1F" mask="url(#aj)"/></g><g transform="translate(1.205 33.46)"><mask id="al" fill="#fff"><use xlink:href="#ak"/></mask><path d="M23.565 11.671c0 6.094-5.342 11.034-11.934 11.034-6.59 0-11.932-4.94-11.932-11.034S5.04.637 11.63.637c6.592 0 11.934 4.94 11.934 11.034" fill="#FFF" mask="url(#al)"/></g><g transform="translate(1.205 33.46)"><mask id="an" fill="#fff"><use xlink:href="#am"/></mask><path d="M11.632 1.537C5.55 1.537.602 6.083.602 11.67c0 5.59 4.948 10.135 11.03 10.135 6.082 0 11.029-4.545 11.029-10.135 0-5.587-4.947-10.133-11.03-10.133m0 22.068c-7.078 0-12.835-5.354-12.835-11.935 0-6.58 5.757-11.933 12.836-11.933 7.078 0 12.836 5.354 12.836 11.933 0 6.581-5.758 11.935-12.836 11.935" fill="#221F1F" mask="url(#an)"/></g></g><g><path d="M23.915 39.434c0 6.094-4.96 11.034-11.078 11.034-6.118 0-11.079-4.94-11.079-11.034 0-6.093 4.96-11.034 11.079-11.034 6.118 0 11.078 4.94 11.078 11.034" fill="#FFF"/><path d="M12.837 29.3c-5.61 0-10.174 4.546-10.174 10.134 0 5.59 4.564 10.135 10.174 10.135 5.61 0 10.174-4.545 10.174-10.135 0-5.588-4.564-10.134-10.174-10.134m0 22.07C6.23 51.37.856 46.014.856 39.433c0-6.58 5.374-11.934 11.98-11.934 6.607 0 11.982 5.354 11.982 11.934 0 6.58-5.375 11.935-11.981 11.935" fill="#221F1F"/><path d="M20.616 39.434c0 4.28-3.483 7.749-7.78 7.749-4.295 0-7.778-3.47-7.778-7.749s3.483-7.748 7.778-7.748c4.297 0 7.78 3.469 7.78 7.748" fill="#FFF"/><path d="M12.837 32.586c-3.79 0-6.875 3.073-6.875 6.848 0 3.777 3.084 6.848 6.875 6.848 3.79 0 6.875-3.071 6.875-6.848 0-3.775-3.085-6.848-6.875-6.848m0 15.496c-4.788 0-8.682-3.879-8.682-8.648 0-4.768 3.894-8.648 8.682-8.648 4.787 0 8.683 3.88 8.683 8.648 0 4.77-3.896 8.648-8.683 8.648" fill="#221F1F"/><path d="M14.684 41.901c0-.296-.095-.533-.286-.71a2.332 2.332 0 0 0-.755-.444l-.25 2.574c.86-.15 1.29-.624 1.29-1.42zm-3.32-5.047c0 .307.097.556.293.745.195.19.452.35.771.479l.235-2.354c-.24.036-.442.09-.607.16-.164.07-.298.154-.399.252a.91.91 0 0 0-.223.333c-.047.121-.07.25-.07.385zm.36 8.37a6.877 6.877 0 0 1-1.72-.518 5.127 5.127 0 0 1-1.382-.893l.752-1.086a.78.78 0 0 1 .256-.221c.106-.06.219-.09.34-.09.125 0 .252.032.382.097.132.065.274.144.428.238.154.093.322.188.505.284.183.096.392.177.626.239l.29-2.948a12.57 12.57 0 0 1-1.12-.369 3.632 3.632 0 0 1-1.002-.571 2.715 2.715 0 0 1-.724-.916c-.186-.37-.278-.835-.278-1.394 0-.412.083-.812.25-1.204.166-.392.412-.745.733-1.057a3.846 3.846 0 0 1 1.185-.771c.47-.202 1.007-.302 1.613-.302l.087-.88a.667.667 0 0 1 .197-.4.59.59 0 0 1 .445-.179h.893l-.157 1.537c.564.105 1.05.272 1.457.504.407.23.752.48 1.034.744l-.595.866c-.09.13-.179.225-.27.285a.59.59 0 0 1-.326.089.88.88 0 0 1-.281-.054 4.443 4.443 0 0 1-.345-.137l-.402-.175a3.816 3.816 0 0 0-.46-.164l-.274 2.77c.25.072.501.152.752.237.25.086.492.185.725.296.231.112.448.241.65.387a2.32 2.32 0 0 1 .873 1.198c.083.256.125.549.125.876 0 .494-.083.958-.25 1.392a3.381 3.381 0 0 1-.737 1.151c-.324.334-.72.604-1.19.815-.47.211-1.007.34-1.613.386l-.093.976a.66.66 0 0 1-.198.394.597.597 0 0 1-.445.174h-.893l.156-1.606z" fill="#000"/><path d="M23.915 66.77a.902.902 0 0 1-.903-.9V38.305c0-.496.404-.9.903-.9s.904.404.904.9v27.567c0 .497-.405.9-.904.9M1.759 66.77a.902.902 0 0 1-.904-.9V38.305c0-.496.405-.9.904-.9s.904.404.904.9v27.567c0 .497-.405.9-.904.9" fill="#211F1F"/></g></g></svg>