<?xml version="1.0" encoding="UTF-8" standalone="no"?>
<svg
   xmlns:dc="http://purl.org/dc/elements/1.1/"
   xmlns:cc="http://creativecommons.org/ns#"
   xmlns:rdf="http://www.w3.org/1999/02/22-rdf-syntax-ns#"
   xmlns:svg="http://www.w3.org/2000/svg"
   xmlns="http://www.w3.org/2000/svg"
   xmlns:xlink="http://www.w3.org/1999/xlink"
   xmlns:sodipodi="http://sodipodi.sourceforge.net/DTD/sodipodi-0.dtd"
   xmlns:inkscape="http://www.inkscape.org/namespaces/inkscape"
   width="81"
   height="81"
   viewBox="0 0 70 48"
   version="1.1"
   id="svg24"
   sodipodi:docname="credit_requirement_2.svg"
   inkscape:version="0.92.4 (5da689c313, 2019-01-14)">
  <metadata
     id="metadata28">
    <rdf:RDF>
      <cc:Work
         rdf:about="">
        <dc:format>image/svg+xml</dc:format>
        <dc:type
           rdf:resource="http://purl.org/dc/dcmitype/StillImage" />
      </cc:Work>
    </rdf:RDF>
  </metadata>
  <sodipodi:namedview
     pagecolor="#ffffff"
     bordercolor="#666666"
     borderopacity="1"
     objecttolerance="10"
     gridtolerance="10"
     guidetolerance="10"
     inkscape:pageopacity="0"
     inkscape:pageshadow="2"
     inkscape:window-width="1920"
     inkscape:window-height="1013"
     id="namedview26"
     showgrid="false"
     inkscape:zoom="2.9135802"
     inkscape:cx="40.5"
     inkscape:cy="40.5"
     inkscape:window-x="-9"
     inkscape:window-y="-9"
     inkscape:window-maximized="1"
     inkscape:current-layer="svg24" />
  <defs
     id="defs4">
    <path
       id="a"
       d="M69.452.296v46.939H0V.296z" />
    <path
       id="c"
       d="M12.985.303H.629v12.44h12.356z" />
  </defs>
  <g
     style="fill:none;fill-rule:evenodd"
     id="g11">
    <mask
       fill="#fff"
       id="b">
      <use
         height="100%"
         width="100%"
         y="0"
         x="0"
         id="use6"
         xlink:href="#a" />
    </mask>
    <path
       style="fill:#9577ff"
       inkscape:connector-curvature="0"
       id="path9"
       mask="url(#b)"
       d="m 1.878,24.724 h 65.696 v 15.374 a 5.262,5.262 0 0 1 -5.253,5.257 H 7.129 A 5.262,5.262 0 0 1 1.878,40.098 Z m 0,-1.88 H 67.574 V 19.085 H 1.878 v 3.76 z m 5.251,24.39 h 55.192 c 3.932,0 7.131,-3.2 7.131,-7.136 V 17.206 H 1.878 v -9.82 c 0,-2.922 2.264,-5.21 5.156,-5.21 H 51.62 V 0.299 L 7.034,0.296 C 3.09,0.296 0,3.41 0,7.386 v 32.712 c 0,3.937 3.197,7.137 7.13,7.137 z" />
  </g>
  <g
     style="fill:none;fill-rule:evenodd"
     id="g18"
     transform="translate(55.823)">
    <mask
       fill="#fff"
       id="d">
      <use
         height="100%"
         width="100%"
         y="0"
         x="0"
         id="use13"
         xlink:href="#c" />
    </mask>
    <path
       style="fill:#39dca3"
       inkscape:connector-curvature="0"
       id="path16"
       d="m 11.084,12.742 h 1.902 V 0.303 H 0.629 v 1.914 h 10.455 z"
       mask="url(#d)" />
  </g>
  <path
     style="fill:#ea4c89;fill-rule:evenodd;fill-opacity:1"
     inkscape:connector-curvature="0"
     id="path20"
     d="m 46.166,32.303 c 0,-1.129 0.902,-2.049 2.008,-2.049 h 10.869 c 1.105,0 2.007,0.92 2.007,2.05 v 5.395 c 0,1.129 -0.902,2.047 -2.007,2.047 h -10.87 c -1.105,0 -2.007,-0.918 -2.007,-2.047 z m 2.008,9.343 h 10.869 c 2.134,0 3.868,-1.77 3.868,-3.947 v -5.396 c 0,-2.179 -1.734,-3.949 -3.868,-3.949 h -10.87 c -2.135,0 -3.87,1.77 -3.87,3.95 v 5.395 c 0,2.177 1.735,3.947 3.87,3.947 z" />
</svg>
