<?xml version="1.0" encoding="UTF-8" standalone="no"?>
<svg
   xmlns:dc="http://purl.org/dc/elements/1.1/"
   xmlns:cc="http://creativecommons.org/ns#"
   xmlns:rdf="http://www.w3.org/1999/02/22-rdf-syntax-ns#"
   xmlns:svg="http://www.w3.org/2000/svg"
   xmlns="http://www.w3.org/2000/svg"
   xmlns:sodipodi="http://sodipodi.sourceforge.net/DTD/sodipodi-0.dtd"
   xmlns:inkscape="http://www.inkscape.org/namespaces/inkscape"
   width="81"
   height="81"
   version="1.1"
   id="Layer_1"
   x="0"
   y="0"
   xml:space="preserve"
   sodipodi:docname="credit_requirement_5.svg"
   inkscape:version="0.92.4 (5da689c313, 2019-01-14)"><metadata
     id="metadata48"><rdf:RDF><cc:Work
         rdf:about=""><dc:format>image/svg+xml</dc:format><dc:type
           rdf:resource="http://purl.org/dc/dcmitype/StillImage" /></cc:Work></rdf:RDF></metadata><defs
     id="defs46"><defs
       id="defs33"><filter
         height="1.9"
         width="11.1"
         y="68.1"
         x="20"
         filterUnits="userSpaceOnUse"
         id="Adobe_OpacityMaskFilter_2_"><feColorMatrix
           id="feColorMatrix30"
           values="1 0 0 0 0 0 1 0 0 0 0 0 1 0 0 0 0 0 1 0" /></filter></defs><mask
       id="f_1_"
       height="1.9"
       width="11.1"
       y="68.1"
       x="20"
       maskUnits="userSpaceOnUse"><g
         id="g36"
         filter="url(#Adobe_OpacityMaskFilter_2_)"><path
           d="M2.2 78.6h46.6V-1.6H2.2v80.2z"
           class="st1"
           id="e_1_" /></g></mask><defs
       id="defs7"><filter
         id="Adobe_OpacityMaskFilter"
         filterUnits="userSpaceOnUse"
         x="2.2"
         y="-2.3"
         width="46.599998"
         height="80.199997"><feColorMatrix
           values="1 0 0 0 0 0 1 0 0 0 0 0 1 0 0 0 0 0 1 0"
           id="feColorMatrix4" /></filter></defs><mask
       maskUnits="userSpaceOnUse"
       x="2.2"
       y="-2.3"
       width="46.6"
       height="80.2"
       id="b_1_"><g
         id="g10"
         style="filter:url(#Adobe_OpacityMaskFilter)"><path
           id="a_1_"
           class="st1"
           d="M 48.8,-2.3 H 2.2 v 80.2 h 46.6 z"
           inkscape:connector-curvature="0"
           style="fill:#ffffff" /></g></mask></defs><sodipodi:namedview
     pagecolor="#ffffff"
     bordercolor="#666666"
     borderopacity="1"
     objecttolerance="10"
     gridtolerance="10"
     guidetolerance="10"
     inkscape:pageopacity="0"
     inkscape:pageshadow="2"
     inkscape:window-width="1920"
     inkscape:window-height="1013"
     id="namedview44"
     showgrid="false"
     inkscape:zoom="2.9135802"
     inkscape:cx="-37.239407"
     inkscape:cy="40.499999"
     inkscape:window-x="-9"
     inkscape:window-y="-9"
     inkscape:window-maximized="1"
     inkscape:current-layer="Layer_1" /><style
     id="style2">.st1{fill:#fff}</style><path
     d="M 4.1,61.1 H 47 v 9.7 C 47,73.7 44.7,76 41.8,76 H 9.3 C 6.4,76 4.1,73.6 4.1,70.8 Z m 5.2,16.8 h 32.5 c 3.9,0 7.1,-3.2 7.1,-7.1 V 15.4 H 47 V 59.2 H 4.1 V 4.8 c 0,-2.9 2.3,-5.2 5.2,-5.2 H 31.4 V -2.3 H 9.3 c -3.9,0 -7.1,3.2 -7.1,7.1 v 66 c 0,3.9 3.2,7.1 7.1,7.1 z"
     mask="url(#b_1_)"
     id="path13"
     inkscape:connector-curvature="0"
     style="fill:#3c4876;fill-opacity:1"
     transform="translate(15,2.688)" /><g
     id="g28"
     transform="translate(51.667,2.688)"
     style="fill:#ea4c89;fill-opacity:1"><defs
       id="defs20"><filter
         height="12.2"
         width="11.9"
         y="-2.3"
         x="0.30000001"
         filterUnits="userSpaceOnUse"
         id="Adobe_OpacityMaskFilter_1_"><feColorMatrix
           id="feColorMatrix17"
           values="1 0 0 0 0 0 1 0 0 0 0 0 1 0 0 0 0 0 1 0" /></filter></defs><mask
       id="d_1_"
       height="12.2"
       width="11.9"
       y="-2.3"
       x=".3"
       maskUnits="userSpaceOnUse"><g
         style="filter:url(#Adobe_OpacityMaskFilter_1_)"
         id="g23"><path
           style="fill:#ffffff"
           inkscape:connector-curvature="0"
           d="M 12.1,9.9 V -2.3 H 0.3 V 9.9 Z"
           class="st1"
           id="c_1_" /></g></mask><path
       style="fill:#ea4c89;fill-opacity:1"
       inkscape:connector-curvature="0"
       id="path26"
       mask="url(#d_1_)"
       d="m 10.3,9.9 h 1.9 V -2.3 H 0.3 v 1.9 h 10 z" /></g><path
     style="fill:#3c4876;fill-opacity:1"
     inkscape:connector-curvature="0"
     id="path39"
     mask="url(#f_1_)"
     d="M 20,69.9 H 31 V 68 H 20 Z"
     transform="translate(15,2)" /></svg>