<?xml version="1.0" encoding="UTF-8" standalone="no"?>
<svg
   xmlns:dc="http://purl.org/dc/elements/1.1/"
   xmlns:cc="http://creativecommons.org/ns#"
   xmlns:rdf="http://www.w3.org/1999/02/22-rdf-syntax-ns#"
   xmlns:svg="http://www.w3.org/2000/svg"
   xmlns="http://www.w3.org/2000/svg"
   xmlns:sodipodi="http://sodipodi.sourceforge.net/DTD/sodipodi-0.dtd"
   xmlns:inkscape="http://www.inkscape.org/namespaces/inkscape"
   width="81"
   height="81"
   version="1.1"
   id="Layer_1"
   x="0"
   y="0"
   xml:space="preserve"
   sodipodi:docname="credit_requirement_1.svg"
   inkscape:version="0.92.4 (5da689c313, 2019-01-14)"><metadata
     id="metadata37"><rdf:RDF><cc:Work
         rdf:about=""><dc:format>image/svg+xml</dc:format><dc:type
           rdf:resource="http://purl.org/dc/dcmitype/StillImage" /></cc:Work></rdf:RDF></metadata><defs
     id="defs35"><defs
       id="defs7"><filter
         height="54"
         width="79.4"
         y="12.8"
         x="-.2"
         filterUnits="userSpaceOnUse"
         id="Adobe_OpacityMaskFilter"><feColorMatrix
           id="feColorMatrix4"
           values="1 0 0 0 0 0 1 0 0 0 0 0 1 0 0 0 0 0 1 0" /></filter></defs><mask
       id="b_1_"
       height="54"
       width="79.4"
       y="12.8"
       x="-.2"
       maskUnits="userSpaceOnUse"><g
         id="g10"
         filter="url(#Adobe_OpacityMaskFilter)"><path
           d="M39.5 12.8h39.7v54H-.2v-54h39.7z"
           class="st1"
           id="a_1_" /></g></mask></defs><sodipodi:namedview
     pagecolor="#ffffff"
     bordercolor="#666666"
     borderopacity="1"
     objecttolerance="10"
     gridtolerance="10"
     guidetolerance="10"
     inkscape:pageopacity="0"
     inkscape:pageshadow="2"
     inkscape:window-width="1920"
     inkscape:window-height="1013"
     id="namedview33"
     showgrid="false"
     inkscape:zoom="2.9135802"
     inkscape:cx="-37.239407"
     inkscape:cy="40.499999"
     inkscape:window-x="-9"
     inkscape:window-y="-9"
     inkscape:window-maximized="1"
     inkscape:current-layer="Layer_1" /><style
     id="style2">.st1{fill:#fff}</style><path
     style="fill:#3c4876;fill-opacity:1"
     inkscape:connector-curvature="0"
     id="path13"
     mask="url(#b_1_)"
     d="m 71,66.9 c 4.5,0 8.2,-3.7 8.2,-8.2 V 33.4 H 77 v 25.3 c 0,3.3 -2.7,6 -6,6 H 8 C 4.7,64.7 2,62 2,58.7 V 21 C 2,17.7 4.7,15 8,15 H 58.7 V 12.8 H 8 c -4.5,0 -8.2,3.7 -8.2,8.2 v 37.6 c 0,4.5 3.7,8.2 8.2,8.2 0,0.1 63,0.1 63,0.1 z"
     transform="translate(1,0.657)" /><g
     transform="translate(65.72 .657)"
     id="g28"
     style="fill:#ea4c89;fill-opacity:1"><defs
       id="defs20"><filter
         id="Adobe_OpacityMaskFilter_1_"
         filterUnits="userSpaceOnUse"
         x=".5"
         y="12.9"
         width="13.9"
         height="14"><feColorMatrix
           values="1 0 0 0 0 0 1 0 0 0 0 0 1 0 0 0 0 0 1 0"
           id="feColorMatrix17" /></filter></defs><mask
       maskUnits="userSpaceOnUse"
       x=".5"
       y="12.9"
       width="13.9"
       height="14"
       id="d_1_"><g
         filter="url(#Adobe_OpacityMaskFilter_1_)"
         id="g23"><path
           id="c_1_"
           class="st1"
           d="M14.5 26.9v-14H.5v14h14z" /></g></mask><path
       d="M12.3 26.9h2.1v-14H.5V15h11.8v11.9z"
       mask="url(#d_1_)"
       fill="#39dca3"
       id="path26"
       style="fill:#ea4c89;fill-opacity:1" /></g><path
     d="M53.4 38.6c-2.7 0-5-2.2-5-5s2.2-5 5-5c2.7 0 5 2.2 5 5s-2.3 5-5 5m5.8 8c0 3.2-2.6 5.8-5.8 5.8-3.2 0-5.8-2.6-5.8-5.8s2.6-5.8 5.8-5.8c3.2 0 5.8 2.6 5.8 5.8m1.3-13c0-4-3.2-7.2-7.1-7.2-3.9 0-7.1 3.2-7.1 7.2 0 2.4 1.2 4.7 3.3 6-2.4 1.4-4.1 4-4.1 7 0 4.4 3.6 8 7.9 8 4.4 0 7.9-3.6 7.9-8 0-3-1.7-5.6-4.1-7 2.1-1.3 3.3-3.6 3.3-6M35.1 53.4v-27h-7.5v2.2H33v24.8h2.1zm-13-6.4v-5.4h5.4v-2.2h-5.4V34H20v5.4h-5.1v2.2H20V47h2.1z"
     fill="#9577ff"
     id="path30"
     style="fill:#3c4876;fill-opacity:1" /></svg>