<?xml version="1.0" encoding="UTF-8" standalone="no"?>
<svg
   xmlns:dc="http://purl.org/dc/elements/1.1/"
   xmlns:cc="http://creativecommons.org/ns#"
   xmlns:rdf="http://www.w3.org/1999/02/22-rdf-syntax-ns#"
   xmlns:svg="http://www.w3.org/2000/svg"
   xmlns="http://www.w3.org/2000/svg"
   xmlns:sodipodi="http://sodipodi.sourceforge.net/DTD/sodipodi-0.dtd"
   xmlns:inkscape="http://www.inkscape.org/namespaces/inkscape"
   width="81"
   height="81"
   version="1.1"
   id="Layer_1"
   x="0"
   y="0"
   xml:space="preserve"
   sodipodi:docname="credit_requirement_4.svg"
   inkscape:version="0.92.4 (5da689c313, 2019-01-14)"><metadata
     id="metadata35"><rdf:RDF><cc:Work
         rdf:about=""><dc:format>image/svg+xml</dc:format><dc:type
           rdf:resource="http://purl.org/dc/dcmitype/StillImage" /></cc:Work></rdf:RDF></metadata><defs
     id="defs33"><defs
       id="defs7"><filter
         height="53.8"
         width="79.5"
         y="11.9"
         x="-.3"
         filterUnits="userSpaceOnUse"
         id="Adobe_OpacityMaskFilter"><feColorMatrix
           id="feColorMatrix4"
           values="1 0 0 0 0 0 1 0 0 0 0 0 1 0 0 0 0 0 1 0" /></filter></defs><mask
       id="b_1_"
       height="53.8"
       width="79.5"
       y="11.9"
       x="-.3"
       maskUnits="userSpaceOnUse"><g
         id="g10"
         filter="url(#Adobe_OpacityMaskFilter)"><path
           d="M39.5 65.7H-.3V11.9h79.5v53.8H39.5z"
           class="st1"
           id="a_1_" /></g></mask></defs><sodipodi:namedview
     pagecolor="#ffffff"
     bordercolor="#666666"
     borderopacity="1"
     objecttolerance="10"
     gridtolerance="10"
     guidetolerance="10"
     inkscape:pageopacity="0"
     inkscape:pageshadow="2"
     inkscape:window-width="1920"
     inkscape:window-height="1013"
     id="namedview31"
     showgrid="false"
     inkscape:zoom="2.9135802"
     inkscape:cx="-37.239407"
     inkscape:cy="40.499999"
     inkscape:window-x="-9"
     inkscape:window-y="-9"
     inkscape:window-maximized="1"
     inkscape:current-layer="Layer_1" /><style
     id="style2">.st1{fill:#fff}</style><path
     style="fill:#3c4876;fill-opacity:1"
     inkscape:connector-curvature="0"
     id="path13"
     mask="url(#b_1_)"
     d="M 1.9,20.1 C 1.9,18.8 2.3,17.7 3,16.7 L 25.1,38.8 3,60.9 C 2.3,59.9 1.9,58.7 1.9,57.5 Z m 50.5,20.1 22.1,22.1 c -1,0.7 -2.2,1.1 -3.5,1.1 H 7.9 C 6.6,63.4 5.5,63 4.5,62.3 L 26.6,40.1 39.5,53 Z M 7.9,65.7 h 63.2 c 4.5,0 8.2,-3.7 8.2,-8.2 V 32.3 h -2.1 v 25.2 c 0,1.2 -0.4,2.4 -1,3.4 L 53.9,38.7 72.5,20.1 71,18.7 39.5,50.1 4.5,15.1 C 5.5,14.4 6.7,14 7.9,14 H 59.3 V 11.9 H 7.9 c -4.5,0 -8.2,3.7 -8.2,8.2 v 37.4 c 0,4.5 3.7,8.2 8.2,8.2 z"
     transform="translate(1,1.728)" /><g
     transform="translate(66.52 1.728)"
     id="g28"
     style="fill:#ea4c89;fill-opacity:1"><defs
       id="defs20"><filter
         id="Adobe_OpacityMaskFilter_1_"
         filterUnits="userSpaceOnUse"
         x="-.2"
         y="11.9"
         width="14"
         height="14"><feColorMatrix
           values="1 0 0 0 0 0 1 0 0 0 0 0 1 0 0 0 0 0 1 0"
           id="feColorMatrix17" /></filter></defs><mask
       maskUnits="userSpaceOnUse"
       x="-.2"
       y="11.9"
       width="14"
       height="14"
       id="d_1_"><g
         filter="url(#Adobe_OpacityMaskFilter_1_)"
         id="g23"><path
           id="c_1_"
           class="st1"
           d="M13.7 25.9v-14h-14v14h14z" /></g></mask><path
       d="M11.6 25.9h2.1v-14h-14V14h11.8v11.9z"
       mask="url(#d_1_)"
       fill="#39dca3"
       id="path26"
       style="fill:#ea4c89;fill-opacity:1" /></g></svg>