<svg width="146" height="100" viewBox="0 0 146 100" xmlns="http://www.w3.org/2000/svg" xmlns:xlink="http://www.w3.org/1999/xlink"><title>customise gift cards</title><defs><path id="a" d="M0 99.048h144.998V.712H0z"/></defs><g fill="none" fill-rule="evenodd"><path fill="#AFBEC7" d="M71.337 77.694L64.7 98.566h5l6.638-20.872z"/><path stroke="#211F1F" stroke-width="1.5" stroke-linejoin="round" d="M76.338 77.694h-5L64.7 98.566h5z"/><path fill="#AFBEC7" d="M98.403 77.694l6.638 20.872h5l-6.638-20.872z"/><g transform="translate(0 .24)"><path stroke="#211F1F" stroke-width="1.5" stroke-linejoin="round" d="M98.403 77.454h5l6.637 20.872h-5z"/><path d="M124.064 73.558H49.578a5.45 5.45 0 0 1-5.45-5.45V23.732a5.45 5.45 0 0 1 5.45-5.45h74.486a5.45 5.45 0 0 1 5.45 5.45v44.376a5.45 5.45 0 0 1-5.45 5.45" fill="#FFF"/><path d="M124.064 73.558H49.578a5.45 5.45 0 0 1-5.45-5.45V23.732a5.45 5.45 0 0 1 5.45-5.45h74.486a5.45 5.45 0 0 1 5.45 5.45v44.376a5.45 5.45 0 0 1-5.45 5.45z" stroke="#211F1F" stroke-width="1.5" stroke-linecap="round" stroke-linejoin="round"/><mask id="b" fill="#fff"><use xlink:href="#a"/></mask><path fill="#AFBEC7" mask="url(#b)" d="M4.944 98.333h38.128V82.208H4.944z"/><path stroke="#211F1F" stroke-width="1.5" stroke-linejoin="round" mask="url(#b)" d="M4.944 98.333h38.128V82.208H4.944z"/><path fill="#D8E6F2" mask="url(#b)" d="M41.052 71.69l4.384 15.517L7.131 98.03 2.747 82.512z"/><path stroke="#211F1F" stroke-width="1.5" mask="url(#b)" d="M41.052 71.69l4.384 15.517L7.131 98.03 2.747 82.512z"/><path fill="#FFF" mask="url(#b)" d="M36.178 61.624l8.44 13.74-35.465 21.78L.715 83.403z"/><path stroke="#211F1F" stroke-width="1.5" stroke-linecap="round" stroke-linejoin="round" mask="url(#b)" d="M36.178 61.624l8.44 13.74-35.465 21.78L.715 83.403z"/><path d="M7.998 86.63a1.539 1.539 0 1 1 0 3.078 1.539 1.539 0 0 1 0-3.078" fill="#FFF" mask="url(#b)"/><path d="M7.998 86.63a1.539 1.539 0 1 1 0 3.078 1.539 1.539 0 0 1 0-3.078z" stroke="#211F1F" stroke-width="1.5" mask="url(#b)"/><path fill="#FFF" mask="url(#b)" d="M6.656 24.161h8.334v-3.563H6.656z"/><path stroke="#211F1F" stroke-width="1.5" stroke-linecap="round" stroke-linejoin="round" mask="url(#b)" d="M6.656 24.161h8.334v-3.563H6.656z"/><path fill="#FFF" mask="url(#b)" d="M19.272 62.97H2.671l1.426-35.952h13.75z"/><path stroke="#211F1F" stroke-width="1.5" stroke-linecap="round" stroke-linejoin="round" mask="url(#b)" d="M19.272 62.97H2.671l1.426-35.952h13.75z"/><path fill="#FFF" mask="url(#b)" d="M13.564 24.161H8.081l-3.985 2.857h13.75z"/><path stroke="#211F1F" stroke-width="1.5" stroke-linecap="round" stroke-linejoin="round" mask="url(#b)" d="M13.564 24.161H8.081l-3.985 2.857h13.75z"/><path fill="#FFF" mask="url(#b)" d="M2.671 66.066h16.601V62.97h-16.6z"/><path stroke="#211F1F" stroke-width="1.5" stroke-linecap="round" stroke-linejoin="round" mask="url(#b)" d="M2.671 66.066h16.601V62.97h-16.6z"/><path fill="#D8E6F2" mask="url(#b)" d="M18.482 45.53H3.462l.318-10.528h14.384z"/><path stroke="#211F1F" stroke-width="1.5" mask="url(#b)" d="M18.482 45.53H3.462l.318-10.528h14.384z"/><path d="M29.588 60.33a1.427 1.427 0 0 1-1.011-2.439c.7-.7.7-1.838 0-2.538a4.656 4.656 0 0 1 0-6.577c.7-.7.7-1.839 0-2.538a1.43 1.43 0 0 1 2.022-2.02 4.659 4.659 0 0 1 0 6.578 1.794 1.794 0 0 0 0 2.537 4.66 4.66 0 0 1 0 6.58 1.426 1.426 0 0 1-1.01.417" fill="#49B24E" mask="url(#b)"/><path d="M29.588 60.33a1.427 1.427 0 0 1-1.011-2.439c.7-.7.7-1.838 0-2.538a4.656 4.656 0 0 1 0-6.577c.7-.7.7-1.839 0-2.538a1.43 1.43 0 0 1 2.022-2.02 4.659 4.659 0 0 1 0 6.578 1.794 1.794 0 0 0 0 2.537 4.66 4.66 0 0 1 0 6.58 1.426 1.426 0 0 1-1.01.417z" stroke="#211F1F" stroke-width="1.5" stroke-linecap="round" stroke-linejoin="round" mask="url(#b)"/><path fill="#FFF" mask="url(#b)" d="M27.415 45.469h5.236V43.33h-5.236z"/><path stroke="#211F1F" stroke-width="1.5" stroke-linecap="round" stroke-linejoin="round" mask="url(#b)" d="M27.415 45.469h5.236V43.33h-5.236z"/><path fill="#FFF" mask="url(#b)" d="M21.584 4.522h16.601L36.76 40.475H23.01z"/><path stroke="#211F1F" stroke-width="1.5" stroke-linecap="round" stroke-linejoin="round" mask="url(#b)" d="M21.584 4.522h16.601L36.76 40.475H23.01z"/><path fill="#FFF" mask="url(#b)" d="M27.292 43.332h5.483l3.985-2.857H23.01z"/><path stroke="#211F1F" stroke-width="1.5" stroke-linecap="round" stroke-linejoin="round" mask="url(#b)" d="M27.292 43.332h5.483l3.985-2.857H23.01z"/><path fill="#FFF" mask="url(#b)" d="M21.585 4.522h16.6V1.427h-16.6z"/><path stroke="#211F1F" stroke-width="1.5" stroke-linecap="round" stroke-linejoin="round" mask="url(#b)" d="M21.585 4.522h16.6V1.427h-16.6z"/><path fill="#49B24E" mask="url(#b)" d="M22.375 21.963h15.02l-.318 10.527H22.693z"/><path stroke="#211F1F" stroke-width="1.5" stroke-linecap="round" stroke-linejoin="round" mask="url(#b)" d="M22.375 21.963h15.02l-.318 10.527H22.693z"/><path fill="#AFBEC7" mask="url(#b)" d="M78.799 18.282h16.905v-4.81H78.799z"/><path stroke="#211F1F" stroke-width="1.5" stroke-linejoin="round" mask="url(#b)" d="M78.799 18.282h16.905v-4.81H78.799z"/><path fill="#AFBEC7" mask="url(#b)" d="M63.049 78.368h48.405v-4.81H63.05z"/><path stroke="#211F1F" stroke-width="1.5" stroke-linejoin="round" mask="url(#b)" d="M63.049 78.368h48.405v-4.81H63.05z"/><path fill="#AFBEC7" mask="url(#b)" d="M84.752 13.472h5V3.653h-5z"/><path stroke="#211F1F" stroke-width="1.5" stroke-linejoin="round" mask="url(#b)" d="M84.752 13.472h5V3.653h-5z"/></g><path d="M99.81 31.314a5.227 5.227 0 0 1-1.316-.399 3.92 3.92 0 0 1-1.06-.687l.577-.834a.582.582 0 0 1 .456-.24c.096 0 .194.025.294.075.1.05.209.111.327.183.118.072.247.145.387.22.14.073.3.134.48.182l.222-2.268a9.768 9.768 0 0 1-.858-.282 2.796 2.796 0 0 1-.768-.438 2.085 2.085 0 0 1-.555-.702c-.142-.284-.213-.64-.213-1.068 0-.316.064-.624.192-.924.128-.3.315-.57.56-.81a2.94 2.94 0 0 1 .91-.59c.36-.155.772-.244 1.236-.268l.066-.666a.503.503 0 0 1 .15-.303.457.457 0 0 1 .342-.135h.684l-.12 1.182c.432.08.804.21 1.116.387.312.178.576.37.792.573l-.456.666a.786.786 0 0 1-.207.22.443.443 0 0 1-.25.068.662.662 0 0 1-.215-.042 3.782 3.782 0 0 1-.264-.105l-.31-.135a2.895 2.895 0 0 0-.35-.126l-.21 2.13c.192.056.384.117.576.183.192.066.377.142.555.228.178.086.344.185.498.297a1.779 1.779 0 0 1 .669.921c.064.198.096.423.096.675 0 .38-.064.737-.192 1.071a2.592 2.592 0 0 1-.564.885 2.922 2.922 0 0 1-.912.627 3.69 3.69 0 0 1-1.236.297l-.072.75a.503.503 0 0 1-.15.303.457.457 0 0 1-.342.135h-.684l.12-1.236zm2.269-2.556a.71.71 0 0 0-.22-.546 1.768 1.768 0 0 0-.578-.342l-.192 1.98c.66-.116.99-.48.99-1.092zm-2.544-3.882c0 .236.075.427.225.573.15.146.347.27.59.37l.18-1.813a1.926 1.926 0 0 0-.464.123.994.994 0 0 0-.306.195.708.708 0 0 0-.171.255.823.823 0 0 0-.054.297zm6.168 5.064h1.68v-4.41c0-.216.006-.442.018-.678l-.99.822a.635.635 0 0 1-.192.111.57.57 0 0 1-.465-.036.594.594 0 0 1-.183-.147l-.588-.78 2.724-2.286h1.536v7.404h1.44v1.344h-4.98V29.94zm12.168-3.03c0 .764-.082 1.426-.246 1.986-.164.56-.391 1.024-.681 1.392-.29.368-.634.642-1.032.822a3.1 3.1 0 0 1-1.293.27 3.06 3.06 0 0 1-1.287-.27 2.735 2.735 0 0 1-1.023-.822c-.288-.368-.513-.832-.675-1.392-.162-.56-.243-1.222-.243-1.986s.08-1.426.243-1.986c.162-.56.387-1.024.675-1.392a2.707 2.707 0 0 1 1.023-.819 3.09 3.09 0 0 1 1.287-.267c.464 0 .895.09 1.293.267.398.178.742.451 1.032.82.29.367.517.831.68 1.391.165.56.247 1.222.247 1.986zm-1.92 0c0-.604-.038-1.099-.114-1.485-.076-.386-.177-.689-.303-.909-.126-.22-.27-.37-.43-.453a1.055 1.055 0 0 0-.485-.123c-.164 0-.325.041-.483.123-.158.082-.298.233-.42.453s-.22.523-.294.91c-.074.385-.111.88-.111 1.484 0 .608.037 1.104.11 1.488.075.384.173.687.295.91.122.221.262.373.42.455.158.082.319.123.483.123.164 0 .326-.04.486-.123.16-.082.303-.234.429-.456s.227-.525.303-.909c.076-.384.114-.88.114-1.488zm8.88 0c0 .764-.082 1.426-.246 1.986-.164.56-.391 1.024-.681 1.392-.29.368-.634.642-1.032.822a3.1 3.1 0 0 1-1.293.27 3.06 3.06 0 0 1-1.287-.27 2.735 2.735 0 0 1-1.023-.822c-.288-.368-.513-.832-.675-1.392-.162-.56-.243-1.222-.243-1.986s.08-1.426.243-1.986c.162-.56.387-1.024.675-1.392a2.707 2.707 0 0 1 1.023-.819 3.09 3.09 0 0 1 1.287-.267c.464 0 .895.09 1.293.267.398.178.742.451 1.032.82.29.367.517.831.68 1.391.165.56.247 1.222.247 1.986zm-1.92 0c0-.604-.038-1.099-.114-1.485-.076-.386-.177-.689-.303-.909-.126-.22-.27-.37-.43-.453a1.055 1.055 0 0 0-.485-.123c-.164 0-.325.041-.483.123-.158.082-.298.233-.42.453s-.22.523-.294.91c-.074.385-.111.88-.111 1.484 0 .608.037 1.104.11 1.488.075.384.173.687.295.91.122.221.262.373.42.455.158.082.319.123.483.123.164 0 .326-.04.486-.123.16-.082.303-.234.429-.456s.227-.525.303-.909c.076-.384.114-.88.114-1.488z" fill="#000"/><path d="M70.784 73.798l22.531-22.395a6.41 6.41 0 0 1 9.097.06 6.41 6.41 0 0 0 9.125.034l17.976-18.079v34.73a5.545 5.545 0 0 1-5.533 5.545l-53.196.105z" fill="#49B24E"/><path d="M70.784 73.798l22.531-22.395a6.41 6.41 0 0 1 9.097.06 6.41 6.41 0 0 0 9.125.034l17.976-18.079v34.73a5.545 5.545 0 0 1-5.533 5.545l-53.196.105z" stroke="#211F1F" stroke-width="1.5" stroke-linecap="round" stroke-linejoin="round"/><path fill="#AFBEC7" d="M130.022 57.437l-5.266 5.266-6.956-8.971 3.25-3.251z"/><path stroke="#211F1F" stroke-width="1.5" stroke-linejoin="round" d="M130.022 57.437l-5.266 5.266-6.956-8.971 3.25-3.251z"/><path d="M143.704 76.386a1.98 1.98 0 0 1-2.68.11l-16.269-13.792 5.267-5.267 13.792 16.269a1.98 1.98 0 0 1-.11 2.68" fill="#D8E6F2"/><path d="M143.704 76.386a1.98 1.98 0 0 1-2.68.11l-16.269-13.792 5.267-5.267 13.792 16.269a1.98 1.98 0 0 1-.11 2.68z" stroke="#211F1F" stroke-width="1.5"/><path d="M119.988 46.576a4.463 4.463 0 0 1 0 6.313 4.463 4.463 0 0 1-6.314 0c-1.743-1.743-2.255-8.568-2.255-8.568s6.825.511 8.569 2.255" fill="#48B350"/><path d="M119.988 46.576a4.463 4.463 0 0 1 0 6.313 4.463 4.463 0 0 1-6.314 0c-1.743-1.743-2.255-8.568-2.255-8.568s6.825.511 8.569 2.255z" stroke="#211F1F" stroke-width="1.5" stroke-linecap="round" stroke-linejoin="round"/></g></svg>