<?xml version="1.0" encoding="UTF-8" standalone="no"?>
<!-- Created with Inkscape (http://www.inkscape.org/) -->

<svg
   xmlns:dc="http://purl.org/dc/elements/1.1/"
   xmlns:cc="http://creativecommons.org/ns#"
   xmlns:rdf="http://www.w3.org/1999/02/22-rdf-syntax-ns#"
   xmlns:svg="http://www.w3.org/2000/svg"
   xmlns="http://www.w3.org/2000/svg"
   xmlns:sodipodi="http://sodipodi.sourceforge.net/DTD/sodipodi-0.dtd"
   xmlns:inkscape="http://www.inkscape.org/namespaces/inkscape"
   version="1.1"
   id="svg2"
   xml:space="preserve"
   width="1066.6667"
   height="1066.6667"
   viewBox="0 0 1066.6667 1066.6667"
   sodipodi:docname="default-user.svg"
   inkscape:version="0.92.4 (5da689c313, 2019-01-14)"><metadata
     id="metadata8"><rdf:RDF><cc:Work
         rdf:about=""><dc:format>image/svg+xml</dc:format><dc:type
           rdf:resource="http://purl.org/dc/dcmitype/StillImage" /><dc:title></dc:title></cc:Work></rdf:RDF></metadata><defs
     id="defs6" /><sodipodi:namedview
     pagecolor="#ffffff"
     bordercolor="#666666"
     borderopacity="1"
     objecttolerance="10"
     gridtolerance="10"
     guidetolerance="10"
     inkscape:pageopacity="0"
     inkscape:pageshadow="2"
     inkscape:window-width="1920"
     inkscape:window-height="1013"
     id="namedview4"
     showgrid="false"
     inkscape:zoom="0.62578945"
     inkscape:cx="503.57722"
     inkscape:cy="459.70675"
     inkscape:window-x="-9"
     inkscape:window-y="-9"
     inkscape:window-maximized="1"
     inkscape:current-layer="g10" /><g
     id="g10"
     inkscape:groupmode="layer"
     inkscape:label="ink_ext_XXXXXX"
     transform="matrix(1.3333333,0,0,-1.3333333,0,1066.6667)"><path
       inkscape:connector-curvature="0"
       id="path14"
       style="fill:#eed5d5;fill-opacity:1;fill-rule:nonzero;stroke:none;stroke-width:0.08523657"
       d="M 0,0 H 799.17997 V 800 H 0 Z" /><path
       inkscape:connector-curvature="0"
       id="path118"
       style="fill:#292949;fill-opacity:1;fill-rule:nonzero;stroke:none;stroke-width:0.44085777"
       d="m 315.05841,-1494.4098 v -32.3987 l -83.09287,-41.5508 -41.55085,41.5508 41.55085,41.5465 h 5.36083 l 1.3358,-9.1478 h 76.39624" /><path
       inkscape:connector-curvature="0"
       id="path120"
       style="fill:#292949;fill-opacity:1;fill-rule:nonzero;stroke:none;stroke-width:0.44085777"
       d="m 519.69135,-1485.262 h 5.73556 l 41.54202,-41.5465 -41.54202,-41.5508 -83.09287,41.5508 v 32.3987 h 76.39624 l 0.96107,9.1478" /><path
       inkscape:connector-curvature="0"
       id="path122"
       style="fill:#2f3789;fill-opacity:1;fill-rule:nonzero;stroke:none;stroke-width:0.44085777"
       d="m 715.91272,-465.55805 c -0.78032,23.46686 -2.17343,43.10707 -2.3674,50.12994 -1.75903,63.53641 -7.83845,127.44315 -16.46163,191.54387 -7.78996,57.8714 -17.6784,115.8971 -28.38242,174.200532 -16.79228,91.425081 -32.05918,171.983018 -65.71867,258.933388 -11.95606,30.88209 -24.22072,62.31525 -44.85727,88.02607 -27.88867,34.74841 -84.86512,59.68773 -129.08315,58.18 -0.78914,-1.81634 -4.06471,-22.42203 -1.85161,-22.15751 -0.67451,-0.0794 -1.34902,-0.16312 -2.02353,-0.24247 l 9.38586,0.0882 50.85294,-105.25038 c 0,0 10.4836,-275.161367 12.84219,-358.47907 0.78031,-27.6991 9.33295,-78.78128 20.26623,-134.12216 21.2273,-107.38413 51.4481,-230.83752 51.4481,-230.83752 0,0 -4.16611,-6.30868 -37.6713,-4.53643 19.92677,-5.31234 39.34656,-12.0266 57.53194,-20.83053 9.07726,-4.39535 17.49323,-9.32414 25.60502,-14.50863 23.08331,-14.75551 43.70663,-31.64036 69.88477,-44.57512 3.35492,-1.65763 7.02727,-3.37257 10.83628,-2.90966 20.34999,2.45557 21.39924,68.19628 19.76365,117.34751" /><path
       inkscape:connector-curvature="0"
       id="path124"
       style="fill:#2f3789;fill-opacity:1;fill-rule:nonzero;stroke:none;stroke-width:0.44085777"
       d="m 364.08179,352.63426 c -11.57693,-2.11171 -22.80557,-4.99933 -33.47874,-8.7378 C 270.85801,322.95131 236.74003,280.77885 216.5267,220.90596 200.25905,172.73784 183.9914,124.56532 167.72375,76.392792 154.37016,36.834626 141.00336,-2.7411743 129.42202,-42.868047 99.104236,-147.92004 81.183369,-256.18148 68.019356,-364.69861 61.419716,-419.10487 56.0148,-473.6522 50.80827,-528.21275 c -3.187402,-33.43906 7.06695,-26.95405 30.458862,-10.59381 15.831202,11.08316 31.340578,25.20824 50.403268,30.35305 3.31525,0.89494 6.66577,1.8472 10.02951,2.83031 46.79264,13.68863 97.47806,34.80572 146.34714,34.36486 5.19331,-0.0485 10.39102,-0.18516 15.58873,-0.3086 -70.26832,5.32997 -118.83321,6.49383 -118.83321,6.49383 0,0 10.50124,101.28707 19.54764,195.03547 5.71792,59.23806 10.85832,115.47387 12.40573,141.23319 4.06471,67.764247 114.69796,460.94764 114.69796,460.94764 l 39.20989,0.37914 c -3.57094,4.17492 -5.1933,10.54972 -5.88545,16.29851 -0.15871,1.32257 -0.41881,2.57461 -0.69655,3.81342" /><path
       inkscape:connector-curvature="0"
       id="path128"
       style="fill:#ffffff;fill-opacity:1;fill-rule:nonzero;stroke:none;stroke-width:0.44085777"
       d="m 184.80257,-465.07311 c 0,0 48.5693,-1.16386 118.83321,-6.49383 4.34686,-0.33064 8.78189,-0.67892 13.29186,-1.04042 32.74251,-2.63193 69.5409,-6.14997 107.95725,-10.81424 1.88687,-0.22925 3.76051,-0.44968 5.6562,-0.68774 49.13801,-10.6908 81.03847,-14.87454 101.74997,-15.97228 33.50519,-1.77666 37.6713,4.53643 37.6713,4.53643 0,0 -30.22521,123.45339 -51.4481,230.83752 -10.93328,55.34088 -19.48592,106.41866 -20.26623,134.12216 -3.23149,87.175208 -5.27266,174.385688 -7.89136,261.57413 -1.30053,43.54792 -2.74213,87.09585 -4.54524,130.62615 -0.79795,19.31838 2.53052,46.32092 -13.23014,60.88686 -23.96944,22.14429 -54.41067,5.67825 -81.90696,6.61287 -20.5043,0.69655 -51.00725,9.88844 -64.7091,-11.23747 -8.42039,-12.99207 -9.98102,-41.37009 -14.34992,-57.27624 -12.96122,-47.20264 -25.71965,-94.46259 -38.16947,-141.8063 -20.88784,-79.442566 -51.73465,-165.06155 -56.6899,-247.59453 -1.54741,-25.76373 -6.68781,-81.99954 -12.40573,-141.2376 -9.0464,-93.7484 -19.54764,-195.03547 -19.54764,-195.03547" /><path
       inkscape:connector-curvature="0"
       id="path130"
       style="fill:#292949;fill-opacity:1;fill-rule:nonzero;stroke:none;stroke-width:0.44085777"
       d="m 299.5843,583.78479 c -9.83995,-19.843 -13.93111,-42.32675 -13.76799,-64.55039 0.0441,-5.9119 -0.009,-12.74079 -4.51438,-16.46604 -4.8318,-3.98976 -0.009,-11.93401 -4.07794,-7.15071 -4.06911,4.78772 -17.90764,21.42128 -18.8114,27.68146 -2.1073,14.66734 -2.83912,29.53747 -2.18224,44.34588 0.57752,12.87746 2.47321,26.40297 10.21908,36.60442 4.59815,6.04857 10.91564,10.46155 17.14055,14.74669 9.02877,6.21169 18.33527,12.4895 28.9379,15.07734 18.26474,4.45707 29.92102,-1.67967 14.31024,-15.61078 -11.18456,-9.98102 -20.51311,-21.08181 -27.25382,-34.67787" /><path
       inkscape:connector-curvature="0"
       id="path132"
       style="fill:#eac5b0;fill-opacity:1;fill-rule:nonzero;stroke:none;stroke-width:0.44085777"
       d="m 428.954,338.01541 c -0.32182,-7.26092 -1.6973,-14.12508 -5.48427,-20.11193 -3.78696,-5.98244 -9.89725,-10.078 -16.0913,-13.49906 -7.71942,-4.25869 -16.07809,-7.79877 -24.87761,-8.26608 -8.80393,-0.46731 -18.15452,2.57902 -23.59911,9.5093 -15.96787,20.31032 -15.96346,63.94201 -17.90323,88.54187 -22.29859,2.69364 -48.66188,8.60113 -57.40409,31.75057 -2.75536,7.29179 -3.24912,15.35067 -3.70762,23.23762 -1.88687,32.60584 -3.76933,65.21168 -5.6562,97.81751 -0.65247,11.27715 -1.26967,22.89816 2.00149,33.56691 5.73556,18.71882 22.11784,30.55585 38.37667,38.31495 41.49353,19.80333 90.93132,21.6902 131.3183,-1.26967 10.74811,-6.11029 21.00687,-14.15594 27.59328,-25.46394 10.15296,-17.43152 10.10887,-39.61548 9.72092,-60.36666 -0.3571,-19.15086 -0.7186,-38.30613 -1.07569,-57.45699 -0.41441,-22.02966 -2.37623,-47.46715 -18.54689,-59.93902 -8.58791,-6.61727 -20.03258,-8.34984 -27.29791,-16.71732 -13.8738,-15.97228 -6.4762,-39.35537 -7.36674,-59.64806" /><path
       inkscape:connector-curvature="0"
       id="path136"
       style="fill:#292949;fill-opacity:1;fill-rule:nonzero;stroke:none;stroke-width:0.44085777"
       d="m 257.93647,638.27922 c -2.5173,7.79436 -4.48353,15.76948 -5.88545,23.846 7.52985,-2.25279 15.6284,-2.53494 23.29051,-0.80677 -0.22043,4.69072 -0.43645,9.38145 -0.65247,14.07218 -0.16752,3.90599 51.58477,9.355 55.78614,9.92811 39.30688,5.35642 75.2456,10.3822 112.03077,-9.29328 31.42434,-16.8055 52.36068,-43.26578 58.85451,-78.7901 6.19846,-33.94163 -2.54375,-79.14719 -20.53956,-108.53036 -0.34828,9.10372 3.71202,30.83359 1.16827,39.3686 -1.73698,8.59673 -5.10072,16.80109 -9.55339,24.30008 -8.8921,14.97594 -22.10901,27.28028 -37.08495,35.7712 -23.88567,13.52992 -51.17918,19.91795 -78.23902,22.32062 -24.78944,2.19548 -54.94851,3.83988 -78.93118,-4.0647 -11.52843,-3.79579 -13.31831,-6.88179 -21.00246,4.74803 -1.35784,2.04999 -12.50272,26.23104 -11.53284,26.29717 4.09116,0.27774 8.19114,0.55548 12.29112,0.83322" /></g></svg>