<svg width="147" height="103" viewBox="0 0 147 103" xmlns="http://www.w3.org/2000/svg" xmlns:xlink="http://www.w3.org/1999/xlink"><title>Group 3</title><defs><path id="b" d="M.7.7h124.259v81H.7z"/><path d="M7.5 94C27.106 94 44 78.106 44 58.5S28.106 23 8.5 23-27 38.894-27 58.5-12.106 94 7.5 94z" id="a"/><mask id="d" x="0" y="0" width="71" height="71" fill="#fff"><use xlink:href="#a"/></mask><path d="M33.567 99H127V0H2l-.385 38.121A35.564 35.564 0 0 1 10.5 37C30.106 37 46 52.894 46 72.5c0 10.535-4.878 19.999-12.433 26.5z" id="e"/><path id="g" d="M98.023.207v42.967H.115V.207h97.908z"/><path id="i" d="M98.023 0v45.174H.115V0h97.908z"/></defs><g fill="none" fill-rule="evenodd"><g transform="translate(22 14)"><mask id="c" fill="#fff"><use xlink:href="#b"/></mask><use mask="url(#d)" xlink:href="#a" stroke-width="3" stroke="#000" fill="#F0F2F2"/></g><g transform="translate(20)"><mask id="f" fill="#fff"><use xlink:href="#e"/></mask><g mask="url(#f)"><path d="M112.282 87.197H3.442v-64.23c0-2.7 2.189-4.887 4.888-4.887h99.064c2.7 0 4.888 2.188 4.888 4.888v64.229z" fill="#D8E6F2"/><path d="M112.282 87.197H3.442v-64.23c0-2.7 2.189-4.887 4.888-4.887h99.064c2.7 0 4.888 2.188 4.888 4.888v64.229z" stroke="#211F1F" stroke-width="1.5"/><path d="M9.115 82.558a.75.75 0 0 1-.75-.75V23.382a.75.75 0 0 1 .75-.75h97.908a.75.75 0 0 1 .75.75v58.426a.75.75 0 0 1-.75.75H9.115z" fill="#AFBEC7"/><path d="M107.024 21.882H9.116a1.5 1.5 0 0 0-1.5 1.5v58.426a1.5 1.5 0 0 0 1.5 1.5h97.908a1.5 1.5 0 0 0 1.5-1.5V23.382a1.5 1.5 0 0 0-1.5-1.5zM9.116 81.808h97.908V23.382H9.116v58.426z" fill="#211F1F"/><path d="M120.748 94.884H-5.024a5.226 5.226 0 0 1-5.226-5.226v-1.402c0-.585.474-1.06 1.06-1.06h134.105c.585 0 1.06.475 1.06 1.06v1.402a5.226 5.226 0 0 1-5.227 5.226" fill="#D8E6F2"/><path d="M120.748 94.884H-5.024a5.226 5.226 0 0 1-5.226-5.226v-1.402c0-.585.474-1.06 1.06-1.06h134.105c.585 0 1.06.475 1.06 1.06v1.402a5.226 5.226 0 0 1-5.227 5.226z" stroke="#211F1F" stroke-width="1.5"/><path d="M63.873 90.487h-11.56a3.29 3.29 0 0 1-3.29-3.29h18.14a3.29 3.29 0 0 1-3.29 3.29" fill="#D8E6F2"/><path d="M63.873 90.487h-11.56a3.29 3.29 0 0 1-3.29-3.29h18.14a3.29 3.29 0 0 1-3.29 3.29z" stroke="#211F1F" stroke-width="1.5"/><g><path fill="#FFF" d="M80.773 61.435L68.3 56.325 86.63 24.75l3.239 1.327z"/><path stroke="#211F1F" stroke-width="1.5" stroke-linejoin="round" d="M80.773 61.435L68.3 56.325 86.63 24.75l3.239 1.327z"/><g transform="translate(9 38.634)"><mask id="h" fill="#fff"><use xlink:href="#g"/></mask><path d="M84.159 17.207c-2.909 0-5.592.935-7.788 2.508.115-.429.197-.872.197-1.338a5.17 5.17 0 0 0-5.17-5.17 5.12 5.12 0 0 0-1.36.203c-.483-4.609-4.38-8.203-9.117-8.203a9.13 9.13 0 0 0-5.904 2.158C52.769 3.11 48.305.207 43.157.207c-7.273 0-13.18 5.795-13.389 13.018-.12-.005-.24-.018-.362-.018a8.656 8.656 0 0 0-8.655 8.638 14.558 14.558 0 0 0-8.368-2.638C4.301 19.207-2.25 25.76-2.25 33.84c0 8.082-2.437 12.658 5.645 12.658 4.12 0 16.825.266 19.484-2.474h76.639c0-6.029-1.953-6.004-1.953-13.409 0-7.405-6.002-13.408-13.407-13.408" fill="#FFF" mask="url(#h)"/></g><g transform="translate(9 36.634)"><mask id="j" fill="#fff"><use xlink:href="#i"/></mask><path d="M84.159 19.207c-2.909 0-5.592.935-7.788 2.508.115-.429.197-.872.197-1.338a5.17 5.17 0 0 0-5.17-5.17 5.12 5.12 0 0 0-1.36.203c-.483-4.609-4.38-8.203-9.117-8.203a9.13 9.13 0 0 0-5.904 2.158c-2.248-4.255-6.712-7.158-11.859-7.158-7.273 0-13.18 5.795-13.389 13.018-.12-.005-.24-.018-.362-.018a8.656 8.656 0 0 0-8.655 8.638 14.558 14.558 0 0 0-8.368-2.638C4.301 21.207-2.25 27.76-2.25 35.84c0 8.082-2.437 12.658 5.645 12.658 4.12 0 16.825.266 19.484-2.474h76.639c0-6.029-1.953-6.004-1.953-13.409 0-7.405-6.002-13.408-13.407-13.408z" stroke="#211F1F" stroke-width="1.5" stroke-linejoin="round" mask="url(#j)"/></g></g><g><path d="M91.185 30.944c-1.016 2.48-5.916 6.062-7.467 5.426-1.552-.635-2.53-6.626-1.513-9.106a4.852 4.852 0 1 1 8.98 3.68" fill="#FFF"/><path d="M91.185 30.944c-1.016 2.48-5.916 6.062-7.467 5.426-1.552-.635-2.53-6.626-1.513-9.106a4.852 4.852 0 1 1 8.98 3.68z" stroke="#211F1F" stroke-width="1.5" stroke-linejoin="round"/><path d="M88.968 29.705c-.488 1.19-2.842 2.912-3.587 2.607-.745-.306-1.215-3.183-.727-4.375a2.332 2.332 0 0 1 4.314 1.768" fill="#FFF"/><path d="M88.968 29.705c-.488 1.19-2.842 2.912-3.587 2.607-.745-.306-1.215-3.183-.727-4.375a2.332 2.332 0 0 1 4.314 1.768z" stroke="#211F1F" stroke-width="1.5" stroke-linejoin="round"/><path fill="#44B773" d="M87.236 13.275l-6.803.448-3.08 7.518 2.084.854 2.463-3.38 3.228-.296z"/><path stroke="#211F1F" stroke-width="1.5" stroke-linecap="round" stroke-linejoin="round" d="M87.236 13.275l-6.803.448-3.08 7.518 2.084.854 2.463-3.38 3.228-.296z"/><path fill="#44B773" d="M97.532 17.494l4.534 5.092-3.082 7.519-2.083-.854.616-4.138-2.093-2.475z"/><path stroke="#211F1F" stroke-width="1.5" stroke-linecap="round" stroke-linejoin="round" d="M97.532 17.494l4.534 5.092-3.082 7.519-2.083-.854.616-4.138-2.093-2.475z"/><path d="M98.313.75S90.27 2.859 87.516 9.583c-2.754 6.724-3.265 11.918-3.265 11.918l9.52 3.901s3.199-3.859 6.037-10.783C102.644 7.694 98.312.75 98.312.75" fill="#44B773"/><path d="M98.313.75S90.27 2.859 87.516 9.583c-2.754 6.724-3.265 11.918-3.265 11.918l9.52 3.901s3.199-3.859 6.037-10.783C102.644 7.694 98.312.75 98.312.75z" stroke="#211F1F" stroke-width="1.5" stroke-linecap="round" stroke-linejoin="round"/><path fill="#44B773" d="M91.566 27.065l-6.911-2.832.9-2.197 6.91 2.83z"/><path stroke="#211F1F" stroke-width="1.5" stroke-linecap="round" stroke-linejoin="round" d="M91.566 27.065l-6.911-2.832.9-2.197 6.91 2.83z"/><path d="M97.412 12.44a3.667 3.667 0 1 1-6.786-2.782 3.667 3.667 0 0 1 6.786 2.781" fill="#FFF"/><path d="M97.412 12.44a3.667 3.667 0 1 1-6.786-2.782 3.667 3.667 0 0 1 6.786 2.781zM93.352 3.008l6.91 2.832" stroke="#211F1F" stroke-width="1.5" stroke-linejoin="round"/></g></g></g><path d="M29.993 102.986c16.565 0 29.993-13.428 29.993-29.993C59.986 56.428 46.558 43 29.993 43 13.428 43 0 56.428 0 72.993c0 16.565 13.428 29.993 29.993 29.993" fill="#00B7E3"/><path d="M14.432 71.906l5.119-5.13a.916.916 0 1 0-1.306-1.29l-5.114 5.112-5.136-5.12a.918.918 0 0 0-1.564.65.91.91 0 0 0 .274.654l5.118 5.117-5.115 5.125a.918.918 0 1 0 1.287 1.305l5.129-5.122 5.109 5.104a.914.914 0 0 0 1.581-.63.91.91 0 0 0-.266-.647l-5.116-5.128zM44.86 71.905c0 .919.748 1.666 1.668 1.666.918 0 1.666-.747 1.666-1.666 0-.92-.748-1.667-1.666-1.667-.92 0-1.667.748-1.667 1.667" fill="#FFF"/><path d="M39.802 71.906a6.732 6.732 0 0 0 6.725 6.724c3.708 0 6.726-3.017 6.726-6.724 0-3.708-3.018-6.726-6.726-6.726a6.733 6.733 0 0 0-6.725 6.726m1.898 0a4.832 4.832 0 0 1 4.827-4.827 4.832 4.832 0 0 1 4.825 4.827 4.831 4.831 0 0 1-4.825 4.825 4.831 4.831 0 0 1-4.827-4.825M39.324 65.295h-.282c-.847 0-1.664.267-2.346.793a.92.92 0 0 0-.896-.721.907.907 0 0 0-.91.909l.004 11.326a.918.918 0 0 0 .917.914c.504 0 .915-.41.917-.915v-6.964c0-2.322.213-3.259 2.2-3.507.185-.023.385-.02.385-.02.545-.018.931-.392.931-.898a.92.92 0 0 0-.92-.917M33.031 70.625c-.395-1.87-1.42-3.408-2.98-4.395-2.28-1.447-5.29-1.367-7.493.199-1.796 1.278-2.833 3.369-2.833 5.522 0 .54.065 1.085.2 1.622a6.778 6.778 0 0 0 5.708 5.024 6.399 6.399 0 0 0 2.42-.161 6.622 6.622 0 0 0 2.01-.858c.65-.418 1.193-.97 1.72-1.63l.032-.035c.365-.453.297-1.098-.104-1.405-.339-.26-.907-.365-1.354.208a6.169 6.169 0 0 1-.322.419 5.264 5.264 0 0 1-1.325 1.069c-.673.36-1.44.565-2.255.57-2.667-.03-4.095-1.893-4.602-3.222a4.83 4.83 0 0 1-.205-.77 1.79 1.79 0 0 1-.013-.142l9.573-.002c1.312-.027 2.018-.953 1.823-2.013zm-11.316.173l.003-.077a4.859 4.859 0 0 1 9.436.077h-9.44z" fill="#FFF"/></g></svg>