<svg width="109" height="92" viewBox="0 0 109 92" xmlns="http://www.w3.org/2000/svg" xmlns:xlink="http://www.w3.org/1999/xlink"><title>gift cards</title><defs><rect id="a" x="8.662" y="16.531" width="91.675" height="58.938" rx="3.623"/><mask id="d" x="-1.44" y="-1.44" width="94.555" height="61.818"><path fill="#fff" d="M7.222 15.091h94.555v61.818H7.222z"/><use xlink:href="#a"/></mask><rect id="b" x="8.662" y="16.531" width="91.675" height="58.938" rx="3.623"/><mask id="e" x="-1.44" y="-1.44" width="94.555" height="61.818"><path fill="#fff" d="M7.222 15.091h94.555v61.818H7.222z"/><use xlink:href="#b"/></mask><rect id="c" x="8.662" y="16.531" width="91.675" height="58.938" rx="3.623"/><mask id="f" x="0" y="0" width="91.675" height="58.938" fill="#fff"><use xlink:href="#c"/></mask><path id="g" d="M11.918 7.667H.09V.25h11.83v7.416z"/><path id="i" d="M13.88 7.667H.09V.25h13.79v7.416z"/><path id="k" d="M15.843 7.667H.089V.25h15.754v7.416z"/><path id="m" d="M17.805 7.667H.09V.25h17.716v7.416z"/><path id="o" d="M19.767 7.667H.09V.25h19.678v7.416z"/><path id="q" d="M21.73 7.667H.09V.25h21.64v7.416z"/><path id="s" d="M23.692 7.667H.089V.25h23.603v7.416z"/><path id="u" d="M25.654 7.667H.089V.25h25.565v7.416z"/><path id="w" d="M27.616 7.667H.09V.25h27.527v7.416z"/><path id="y" d="M29.578 7.667H.09V.25h29.49z"/><path id="A" d="M31.54 7.667H.09V.25h31.45z"/><path id="C" d="M33.503 7.667H.089V.25h33.414v7.416z"/><path id="E" d="M.31 7.667h33.356V.25H.31v7.416z"/><path id="G" d="M.222 7.667h31.393V.25H.222v7.416z"/><path id="I" d="M.134 7.667h29.43V.25H.135v7.416z"/><path id="K" d="M.046 7.667h27.468V.25H.046v7.416z"/><path id="M" d="M.47 7.667h25.507V.25H.47v7.416z"/><path id="O" d="M.382 7.667h23.544V.25H.382v7.416z"/><path id="Q" d="M.294 7.667h21.582V.25H.294v7.416z"/><path id="S" d="M.205 7.667h19.62V.25H.205v7.416z"/><path id="U" d="M.117 7.667h17.658V.25H.117v7.416z"/><path id="W" d="M.029 7.667h15.695V.25H.03v7.416z"/><path id="Y" d="M.453 7.667h13.733V.25H.453v7.416z"/><path id="aa" d="M.365 7.667h11.77V.25H.366v7.416z"/><path id="ac" d="M.277 7.667h9.808V.25H.277v7.416z"/><path id="ae" d="M.188 7.667h7.847V.25H.188v7.416z"/><path id="ag" d="M.1 7.667h5.884V.25H.1v7.416z"/><path id="ai" d="M.012 7.667h3.922V.25H.012v7.416z"/><path id="ak" d="M.436 7.667h1.96V.25H.436v7.416z"/><path id="am" d="M9.795 14.132H.09V.264h9.706v13.868z"/><path id="ao" d="M11.743 14.132H.09V.264h11.654v13.868z"/><path id="aq" d="M13.69 14.132H.09V.264H13.69v13.868z"/><path id="as" d="M15.639 14.132H.089V.264h15.55z"/><path id="au" d="M17.586 14.132H.09V.264h17.497z"/><path id="aw" d="M19.534 14.132H.09V.264h19.445v13.868z"/><path id="ay" d="M21.482 14.132H.089V.264h21.393v13.868z"/><path id="aA" d="M23.43 14.132H.089V.264h23.34z"/><path id="aC" d="M25.378 14.132H.088V.264h25.29z"/><path id="aE" d="M27.325 14.132H.09V.264h27.236z"/><path id="aG" d="M29.273 14.132H.09V.264h29.184z"/><path id="aI" d="M.089 14.132h30.785V.264H.089z"/><path id="aK" d="M.089 14.132h30.785V.264H.089z"/><path id="aM" d="M.22 14.132h29.127V.264H.221v13.868z"/><path id="aO" d="M.133 14.132h27.179V.264H.133v13.868z"/><path id="aQ" d="M.045 14.132h25.232V.264H.045v13.868z"/><path id="aS" d="M.467 14.132H23.75V.264H.467z"/><path id="aU" d="M.379 14.132h21.336V.264H.379z"/><path id="aW" d="M.291 14.132H19.68V.264H.291z"/><path id="aY" d="M.204 14.132h17.44V.264H.204v13.868z"/><path id="ba" d="M.116 14.132h15.492V.264H.116z"/><path id="bc" d="M.029 14.132h13.544V.264H.029z"/><path id="be" d="M.45 14.132h11.596V.264H.45z"/><path id="bg" d="M.362 14.132h9.65V.264H.361z"/><path id="bi" d="M.275 14.132h7.7V.264h-7.7z"/><path id="bk" d="M.187 14.132H5.94V.264H.187z"/><path id="bm" d="M.1 14.132h3.805V.264H.099v13.868z"/><path id="bo" d="M.012 14.132H1.87V.264H.012z"/></defs><g fill="none" fill-rule="evenodd"><g transform="rotate(-24 54.5 46)"><use fill="#FFF" xlink:href="#a"/><use stroke="#3A4953" mask="url(#d)" stroke-width="2.88" xlink:href="#a"/></g><g transform="rotate(-12 54.5 46)"><use fill="#B0BFC9" xlink:href="#b"/><use stroke="#3A4953" mask="url(#e)" stroke-width="2.88" xlink:href="#b"/></g><use stroke="#3A4953" mask="url(#f)" stroke-width="2.88" fill="#44B773" xlink:href="#c"/><path fill="#FEFEFE" d="M36.093 45.281h35.37v-7.906h-35.37z"/><g transform="translate(36.093 37.375)"><mask id="h" fill="#fff"><use xlink:href="#g"/></mask><path d="M11.918-25.021l-33.616 65.376" stroke="#48B450" stroke-width="1.08" mask="url(#h)"/></g><g transform="translate(36.093 37.375)"><mask id="j" fill="#fff"><use xlink:href="#i"/></mask><path d="M13.88-25.021l-33.616 65.376" stroke="#48B450" stroke-width="1.08" mask="url(#j)"/></g><g transform="translate(36.093 37.375)"><mask id="l" fill="#fff"><use xlink:href="#k"/></mask><path d="M15.843-25.021l-33.617 65.376" stroke="#48B450" stroke-width="1.08" mask="url(#l)"/></g><g transform="translate(36.093 37.375)"><mask id="n" fill="#fff"><use xlink:href="#m"/></mask><path d="M17.805-25.021l-33.617 65.376" stroke="#48B450" stroke-width="1.08" mask="url(#n)"/></g><g transform="translate(36.093 37.375)"><mask id="p" fill="#fff"><use xlink:href="#o"/></mask><path d="M19.767-25.021l-33.616 65.376" stroke="#48B450" stroke-width="1.08" mask="url(#p)"/></g><g transform="translate(36.093 37.375)"><mask id="r" fill="#fff"><use xlink:href="#q"/></mask><path d="M21.73-25.021l-33.617 65.376" stroke="#48B450" stroke-width="1.08" mask="url(#r)"/></g><g transform="translate(36.093 37.375)"><mask id="t" fill="#fff"><use xlink:href="#s"/></mask><path d="M23.692-25.021L-9.925 40.355" stroke="#48B450" stroke-width="1.08" mask="url(#t)"/></g><g transform="translate(36.093 37.375)"><mask id="v" fill="#fff"><use xlink:href="#u"/></mask><path d="M25.654-25.021L-7.963 40.355" stroke="#48B450" stroke-width="1.08" mask="url(#v)"/></g><g transform="translate(36.093 37.375)"><mask id="x" fill="#fff"><use xlink:href="#w"/></mask><path d="M27.616-25.021L-6 40.355" stroke="#48B450" stroke-width="1.08" mask="url(#x)"/></g><g transform="translate(36.093 37.375)"><mask id="z" fill="#fff"><use xlink:href="#y"/></mask><path d="M29.578-25.021L-4.038 40.355" stroke="#48B450" stroke-width="1.08" mask="url(#z)"/></g><g transform="translate(36.093 37.375)"><mask id="B" fill="#fff"><use xlink:href="#A"/></mask><path d="M31.54-25.021L-2.075 40.355" stroke="#48B450" stroke-width="1.08" mask="url(#B)"/></g><g transform="translate(36.093 37.375)"><mask id="D" fill="#fff"><use xlink:href="#C"/></mask><path d="M33.503-25.021L-.114 40.355" stroke="#48B450" stroke-width="1.08" mask="url(#D)"/></g><g transform="translate(37.63 37.375)"><mask id="F" fill="#fff"><use xlink:href="#E"/></mask><path d="M33.927-25.021L.311 40.355" stroke="#48B450" stroke-width="1.08" mask="url(#F)"/></g><g transform="translate(39.681 37.375)"><mask id="H" fill="#fff"><use xlink:href="#G"/></mask><path d="M33.839-25.021L.222 40.355" stroke="#48B450" stroke-width="1.08" mask="url(#H)"/></g><g transform="translate(41.732 37.375)"><mask id="J" fill="#fff"><use xlink:href="#I"/></mask><path d="M33.75-25.021L.135 40.355" stroke="#48B450" stroke-width="1.08" mask="url(#J)"/></g><g transform="translate(43.782 37.375)"><mask id="L" fill="#fff"><use xlink:href="#K"/></mask><path d="M33.662-25.021L.046 40.355" stroke="#48B450" stroke-width="1.08" mask="url(#L)"/></g><g transform="translate(45.32 37.375)"><mask id="N" fill="#fff"><use xlink:href="#M"/></mask><path d="M34.087-25.021L.47 40.355" stroke="#48B450" stroke-width="1.08" mask="url(#N)"/></g><g transform="translate(47.37 37.375)"><mask id="P" fill="#fff"><use xlink:href="#O"/></mask><path d="M33.999-25.021L.382 40.355" stroke="#48B450" stroke-width="1.08" mask="url(#P)"/></g><g transform="translate(49.42 37.375)"><mask id="R" fill="#fff"><use xlink:href="#Q"/></mask><path d="M33.91-25.021L.294 40.355" stroke="#48B450" stroke-width="1.08" mask="url(#R)"/></g><g transform="translate(51.471 37.375)"><mask id="T" fill="#fff"><use xlink:href="#S"/></mask><path d="M33.822-25.021L.205 40.355" stroke="#48B450" stroke-width="1.08" mask="url(#T)"/></g><g transform="translate(53.522 37.375)"><mask id="V" fill="#fff"><use xlink:href="#U"/></mask><path d="M33.734-25.021L.117 40.355" stroke="#48B450" stroke-width="1.08" mask="url(#V)"/></g><g transform="translate(55.572 37.375)"><mask id="X" fill="#fff"><use xlink:href="#W"/></mask><path d="M33.645-25.021L.03 40.355" stroke="#48B450" stroke-width="1.08" mask="url(#X)"/></g><g transform="translate(57.11 37.375)"><mask id="Z" fill="#fff"><use xlink:href="#Y"/></mask><path d="M34.07-25.021L.453 40.355" stroke="#48B450" stroke-width="1.08" mask="url(#Z)"/></g><g transform="translate(59.16 37.375)"><mask id="ab" fill="#fff"><use xlink:href="#aa"/></mask><path d="M33.982-25.021L.365 40.355" stroke="#48B450" stroke-width="1.08" mask="url(#ab)"/></g><g transform="translate(61.211 37.375)"><mask id="ad" fill="#fff"><use xlink:href="#ac"/></mask><path d="M33.893-25.021L.277 40.355" stroke="#48B450" stroke-width="1.08" mask="url(#ad)"/></g><g transform="translate(63.262 37.375)"><mask id="af" fill="#fff"><use xlink:href="#ae"/></mask><path d="M33.805-25.021L.188 40.355" stroke="#48B450" stroke-width="1.08" mask="url(#af)"/></g><g transform="translate(65.312 37.375)"><mask id="ah" fill="#fff"><use xlink:href="#ag"/></mask><path d="M33.717-25.021L.1 40.355" stroke="#48B450" stroke-width="1.08" mask="url(#ah)"/></g><g transform="translate(67.363 37.375)"><mask id="aj" fill="#fff"><use xlink:href="#ai"/></mask><path d="M33.628-25.021L.012 40.355" stroke="#48B450" stroke-width="1.08" mask="url(#aj)"/></g><g transform="translate(68.9 37.375)"><mask id="al" fill="#fff"><use xlink:href="#ak"/></mask><path d="M34.053-25.021L.436 40.355" stroke="#48B450" stroke-width="1.08" mask="url(#al)"/></g><path stroke="#221F20" stroke-width="1.44" d="M36.093 45.281h35.37v-7.906h-35.37z"/><path fill="#FEFEFE" d="M38.258 58.219h31.04V44.562h-31.04z"/><g><g transform="translate(38.258 45.281)"><mask id="an" fill="#fff"><use xlink:href="#am"/></mask><path d="M9.795-33.697l-33.369 67.923" stroke="#48B450" stroke-width="1.08" mask="url(#an)"/></g><g transform="translate(38.258 45.281)"><mask id="ap" fill="#fff"><use xlink:href="#ao"/></mask><path d="M11.743-33.697l-33.37 67.923" stroke="#48B450" stroke-width="1.08" mask="url(#ap)"/></g><g transform="translate(38.258 45.281)"><mask id="ar" fill="#fff"><use xlink:href="#aq"/></mask><path d="M13.69-33.697l-33.368 67.923" stroke="#48B450" stroke-width="1.08" mask="url(#ar)"/></g><g transform="translate(38.258 45.281)"><mask id="at" fill="#fff"><use xlink:href="#as"/></mask><path d="M15.639-33.697l-33.37 67.923" stroke="#48B450" stroke-width="1.08" mask="url(#at)"/></g><g transform="translate(38.258 45.281)"><mask id="av" fill="#fff"><use xlink:href="#au"/></mask><path d="M17.586-33.697l-33.369 67.923" stroke="#48B450" stroke-width="1.08" mask="url(#av)"/></g><g transform="translate(38.258 45.281)"><mask id="ax" fill="#fff"><use xlink:href="#aw"/></mask><path d="M19.534-33.697l-33.369 67.923" stroke="#48B450" stroke-width="1.08" mask="url(#ax)"/></g><g transform="translate(38.258 45.281)"><mask id="az" fill="#fff"><use xlink:href="#ay"/></mask><path d="M21.482-33.697l-33.37 67.923" stroke="#48B450" stroke-width="1.08" mask="url(#az)"/></g><g transform="translate(38.258 45.281)"><mask id="aB" fill="#fff"><use xlink:href="#aA"/></mask><path d="M23.43-33.697L-9.94 34.226" stroke="#48B450" stroke-width="1.08" mask="url(#aB)"/></g><g transform="translate(38.258 45.281)"><mask id="aD" fill="#fff"><use xlink:href="#aC"/></mask><path d="M25.378-33.697l-33.37 67.923" stroke="#48B450" stroke-width="1.08" mask="url(#aD)"/></g><g transform="translate(38.258 45.281)"><mask id="aF" fill="#fff"><use xlink:href="#aE"/></mask><path d="M27.325-33.697L-6.044 34.226" stroke="#48B450" stroke-width="1.08" mask="url(#aF)"/></g><g transform="translate(38.258 45.281)"><mask id="aH" fill="#fff"><use xlink:href="#aG"/></mask><path d="M29.273-33.697l-33.37 67.923" stroke="#48B450" stroke-width="1.08" mask="url(#aH)"/></g><g transform="translate(38.258 45.281)"><mask id="aJ" fill="#fff"><use xlink:href="#aI"/></mask><path d="M31.22-33.697L-2.147 34.226" stroke="#48B450" stroke-width="1.08" mask="url(#aJ)"/></g><g transform="translate(38.258 45.281)"><mask id="aL" fill="#fff"><use xlink:href="#aK"/></mask><path d="M33.169-33.697L-.201 34.226" stroke="#48B450" stroke-width="1.08" mask="url(#aL)"/></g><g transform="translate(39.785 45.281)"><mask id="aN" fill="#fff"><use xlink:href="#aM"/></mask><path d="M33.59-33.697L.22 34.226" stroke="#48B450" stroke-width="1.08" mask="url(#aN)"/></g><g transform="translate(41.82 45.281)"><mask id="aP" fill="#fff"><use xlink:href="#aO"/></mask><path d="M33.502-33.697L.133 34.226" stroke="#48B450" stroke-width="1.08" mask="url(#aP)"/></g><g transform="translate(43.856 45.281)"><mask id="aR" fill="#fff"><use xlink:href="#aQ"/></mask><path d="M33.415-33.697L.045 34.226" stroke="#48B450" stroke-width="1.08" mask="url(#aR)"/></g><g transform="translate(45.382 45.281)"><mask id="aT" fill="#fff"><use xlink:href="#aS"/></mask><path d="M33.836-33.697L.466 34.226" stroke="#48B450" stroke-width="1.08" mask="url(#aT)"/></g><g transform="translate(47.418 45.281)"><mask id="aV" fill="#fff"><use xlink:href="#aU"/></mask><path d="M33.748-33.697L.38 34.226" stroke="#48B450" stroke-width="1.08" mask="url(#aV)"/></g><g transform="translate(49.453 45.281)"><mask id="aX" fill="#fff"><use xlink:href="#aW"/></mask><path d="M33.66-33.697L.292 34.226" stroke="#48B450" stroke-width="1.08" mask="url(#aX)"/></g><g transform="translate(51.488 45.281)"><mask id="aZ" fill="#fff"><use xlink:href="#aY"/></mask><path d="M33.573-33.697L.203 34.226" stroke="#48B450" stroke-width="1.08" mask="url(#aZ)"/></g><g transform="translate(53.524 45.281)"><mask id="bb" fill="#fff"><use xlink:href="#ba"/></mask><path d="M33.485-33.697L.116 34.226" stroke="#48B450" stroke-width="1.08" mask="url(#bb)"/></g><g transform="translate(55.56 45.281)"><mask id="bd" fill="#fff"><use xlink:href="#bc"/></mask><path d="M33.398-33.697L.028 34.226" stroke="#48B450" stroke-width="1.08" mask="url(#bd)"/></g><g transform="translate(57.086 45.281)"><mask id="bf" fill="#fff"><use xlink:href="#be"/></mask><path d="M33.819-33.697L.449 34.226" stroke="#48B450" stroke-width="1.08" mask="url(#bf)"/></g><g transform="translate(59.121 45.281)"><mask id="bh" fill="#fff"><use xlink:href="#bg"/></mask><path d="M33.731-33.697L.362 34.226" stroke="#48B450" stroke-width="1.08" mask="url(#bh)"/></g><g transform="translate(61.156 45.281)"><mask id="bj" fill="#fff"><use xlink:href="#bi"/></mask><path d="M33.644-33.697L.274 34.226" stroke="#48B450" stroke-width="1.08" mask="url(#bj)"/></g><g transform="translate(63.192 45.281)"><mask id="bl" fill="#fff"><use xlink:href="#bk"/></mask><path d="M33.556-33.697L.187 34.226" stroke="#48B450" stroke-width="1.08" mask="url(#bl)"/></g><g transform="translate(65.227 45.281)"><mask id="bn" fill="#fff"><use xlink:href="#bm"/></mask><path d="M33.469-33.697L.099 34.226" stroke="#48B450" stroke-width="1.08" mask="url(#bn)"/></g><g transform="translate(67.263 45.281)"><mask id="bp" fill="#fff"><use xlink:href="#bo"/></mask><path d="M33.38-33.697L.013 34.226" stroke="#48B450" stroke-width="1.08" mask="url(#bp)"/></g></g><path stroke="#221F20" stroke-width="1.44" d="M38.258 58.938h31.04V45.28h-31.04z"/><path fill="#FEFEFE" d="M49.086 58.219h9.384V36.656h-9.384z"/><path stroke="#221F20" stroke-width="1.44" d="M49.086 58.938h9.384V37.374h-9.384z"/><g stroke="#221F20" stroke-width="1.44"><path d="M49.792 30.25c1.819 1 4.308 6.55 4.308 6.55s-6.284.729-8.103-.27c-1.818-1-2.443-3.216-1.395-4.95s3.372-2.33 5.19-1.33z"/><path d="M58.407 30.25c-1.818 1-4.307 6.55-4.307 6.55s6.284.729 8.102-.27c1.819-1 2.444-3.216 1.396-4.95s-3.372-2.33-5.19-1.33z"/></g></g></svg>