<?xml version="1.0" encoding="UTF-8" standalone="no"?>
<svg
   xmlns:dc="http://purl.org/dc/elements/1.1/"
   xmlns:cc="http://creativecommons.org/ns#"
   xmlns:rdf="http://www.w3.org/1999/02/22-rdf-syntax-ns#"
   xmlns:svg="http://www.w3.org/2000/svg"
   xmlns="http://www.w3.org/2000/svg"
   xmlns:sodipodi="http://sodipodi.sourceforge.net/DTD/sodipodi-0.dtd"
   xmlns:inkscape="http://www.inkscape.org/namespaces/inkscape"
   id="Layer_1_1_"
   enable-background="new 0 0 64 64"
   height="512"
   viewBox="0 0 64 64"
   width="512"
   version="1.1"
   sodipodi:docname="loan.svg"
   inkscape:version="0.92.4 (5da689c313, 2019-01-14)">
  <metadata
     id="metadata11">
    <rdf:RDF>
      <cc:Work
         rdf:about="">
        <dc:format>image/svg+xml</dc:format>
        <dc:type
           rdf:resource="http://purl.org/dc/dcmitype/StillImage" />
      </cc:Work>
    </rdf:RDF>
  </metadata>
  <defs
     id="defs9" />
  <sodipodi:namedview
     pagecolor="#ffffff"
     bordercolor="#666666"
     borderopacity="1"
     objecttolerance="10"
     gridtolerance="10"
     guidetolerance="10"
     inkscape:pageopacity="0"
     inkscape:pageshadow="2"
     inkscape:window-width="1920"
     inkscape:window-height="1013"
     id="namedview7"
     showgrid="false"
     inkscape:zoom="1.3037281"
     inkscape:cx="290.98763"
     inkscape:cy="160.00207"
     inkscape:window-x="-9"
     inkscape:window-y="-9"
     inkscape:window-maximized="1"
     inkscape:current-layer="Layer_1_1_" />
  <g
     inkscape:groupmode="layer"
     id="layer1"
     inkscape:label="Layer 1">
    <path
       style="fill:#d7e5f0;fill-opacity:1;stroke:none;stroke-width:0.125px;stroke-linecap:butt;stroke-linejoin:miter;stroke-opacity:1"
       d="m 28.284801,23.104898 c -0.434651,0.325989 -0.223717,0.287636 -0.575274,0.287636 -0.03196,0 -0.06556,-0.0101 -0.09588,0 -0.0678,0.0226 -0.123962,0.07328 -0.191758,0.09588 -0.719075,0.301864 -7.849079,3.666343 -7.766207,5.46512 -0.09096,0.03032 -0.20786,-0.05318 -0.287636,0 -0.115055,0.0767 0.05753,0.201345 0,0.287636 -0.05014,0.07521 -0.141615,0.116544 -0.191758,0.191758 -0.01773,0.02659 0,0.06392 0,0.09588 0,0.06392 0.02858,0.134588 0,0.191759 -0.01429,0.02858 -0.07328,-0.0226 -0.09588,0 -0.0226,0.0226 0.01429,0.06729 0,0.09588 -0.02021,0.04043 -0.06392,0.06392 -0.09588,0.09588 -0.06392,0.06392 -0.141615,0.116543 -0.191758,0.191757 -0.01773,0.02659 0.0226,0.07328 0,0.09588 -0.0226,0.0226 -0.08159,-0.02858 -0.09588,0 -0.02858,0.05717 0,0.127839 0,0.191757 0,0.03196 0.0226,0.07328 0,0.09588 -0.458306,0.458308 -0.0045,-0.274181 -0.191757,0.287638 -0.08378,0.251328 -0.131716,-0.06004 -0.287636,0.09588 -0.01284,0.01283 0.01091,0.446649 0,0.479394 -0.01429,0.04288 -0.07567,0.05545 -0.09588,0.09588 -0.01429,0.02858 0,0.06392 0,0.09588 0,0.06392 0.02021,0.131119 0,0.191757 -0.01429,0.04288 -0.08159,0.053 -0.09588,0.09588 -0.02021,0.06064 0.03546,0.138574 0,0.191758 -0.03964,0.05946 -0.152116,0.03642 -0.191758,0.09588 -0.191757,0.287638 0.09588,0.09588 0,0.287638 -0.02021,0.04043 -0.08159,0.053 -0.09588,0.09588 -1.276235,7.110931 -2.492861,15.344361 -2.492861,23.490347 0,0.102862 0.02113,0.607776 0,0.671152 -0.0226,0.0678 -0.07328,0.123962 -0.09588,0.191758 -0.02021,0.06064 0,0.127839 0,0.191758 v 0.575273 0.09588 c 0,0.06392 -0.03546,0.138573 0,0.191758 0.03964,0.05946 0.152117,0.03642 0.191757,0.09588 0,0.543314 -0.06392,0.03196 0.09588,0.191758 9.2e-5,9.1e-5 -1.25e-4,0.287202 0,0.287636 0.01429,0.04288 0.07567,0.05545 0.09588,0.09588 0.01429,0.02859 -0.01773,0.06929 0,0.09588 0.05014,0.07521 0.127837,0.127839 0.191757,0.191759 0.03196,0.03196 0.08159,0.053 0.09588,0.09588 0.02021,0.06064 0,0.127839 0,0.191757 0,0.03196 -0.01773,0.06929 0,0.09588 -0.08204,0.444821 0.206155,0.110276 0.287636,0.191758 0.0226,0.0226 -0.0226,0.07328 0,0.09588 0.0226,0.0226 0.07328,-0.0226 0.09588,0 0.0226,0.0226 -0.02859,0.08159 0,0.09588 0.05717,0.02859 0.14656,-0.0452 0.191759,0 0.15592,0.155921 -0.155451,0.203861 0.09588,0.287638 0.06064,0.02021 0.127837,0 0.191757,0 0.03196,0.06392 0.03642,0.152116 0.09588,0.191757 0.543314,0 0.03196,-0.06392 0.191757,0.09588 0.0226,0.0226 0.08159,-0.02858 0.09588,0 0.02859,0.05717 -0.02858,0.134586 0,0.191757 0.01429,0.02859 0.06392,0 0.09588,0 0.06392,0 0.131119,-0.02021 0.191759,0 0.04288,0.01429 0.053,0.08159 0.09588,0.09588 0.06064,0.02021 0.134587,-0.02858 0.191758,0 0.02858,0.01429 -0.0226,0.07328 0,0.09588 0.15468,0.154679 0.02247,-0.265165 0.287636,0 0.0452,0.0452 -0.02858,0.134586 0,0.191758 28.635859,2.978307 28.497007,-1.412378 30.681282,-4.410435 0.0452,-0.0452 0,-0.127839 0,-0.191758 V 55.607904 C 47.162441,32.614615 45.6381,24.592357 36.626244,23.488423 c -0.05717,-0.04288 -0.03642,-0.152117 -0.09588,-0.191758 -0.09588,-0.06392 -0.191757,0.03196 -0.287636,0 -0.0678,-0.0226 -0.123961,-0.07328 -0.191758,-0.09588 -0.03032,-0.0101 -0.07328,0.0226 -0.09588,0 -0.0226,-0.0226 0.0226,-0.07328 0,-0.09588 -0.04794,-0.04794 -0.239698,0.04794 -0.287638,0 -0.365956,-0.365956 0.639268,-0.05591 -0.287636,-0.287636 -0.06392,-0.01598 -0.255678,0.03196 -0.287636,0 0,-0.543314 0.06392,-0.03196 -0.09588,-0.191758 -0.0226,-0.0226 0,-0.06392 0,-0.09588 0,-0.06392 -0.0452,-0.14656 0,-0.191757 0.0452,-0.0452 0.134586,0.02859 0.191757,0 0.02858,-0.01429 -0.0226,-0.07328 0,-0.09588 0.0226,-0.0226 0.07328,0.0226 0.09588,0 0.127839,-0.127839 -0.159799,-0.09588 0.09588,-0.09588 0.383515,0 0.06392,0.06392 0.191757,-0.191757 0.01429,-0.02859 0.07328,0.0226 0.09588,0 0.0226,-0.0226 -0.02858,-0.08159 0,-0.09588 0.05717,-0.02859 0.138574,0.03546 0.191759,0 0.222561,-0.445122 -0.06333,-0.01628 0.287636,-0.191759 0.02858,-0.01429 -0.0226,-0.07328 0,-0.09588 0.0226,-0.0226 0.07328,0.0226 0.09588,0 0.05053,-0.05053 0.03642,-0.152117 0.09588,-0.191758 0.05318,-0.03546 0.127838,0 0.191757,0 0.03196,0 0.07328,0.0226 0.09588,0 0.0452,-0.0452 -0.05717,-0.163172 0,-0.191757 0.04433,-0.02216 0.455604,0.02379 0.479395,0 0.0452,-0.0452 -0.02858,-0.134587 0,-0.191758 0.01429,-0.02859 0.06392,0 0.09588,0 0.09588,0 0.20188,0.04288 0.287636,0 0.02859,-0.01429 -0.0226,-0.07328 0,-0.09588 0.0226,-0.0226 0.08159,0.02858 0.09588,0 0.02858,-0.05717 -0.0452,-0.14656 0,-0.191758 0.02446,-0.02446 0.263175,0.02446 0.287636,0 0.127839,-0.127838 -0.159799,-0.09588 0.09588,-0.09588 0.06392,0 0.14656,0.0452 0.191757,0 0.0452,-0.0452 -0.02858,-0.134586 0,-0.191758 0.01429,-0.02858 0.06556,0.01011 0.09588,0 l 0.191759,-0.09588 c 0,-0.03196 -0.0226,-0.07328 0,-0.09588 0.0226,-0.0226 0.06392,0 0.09588,0 0.06392,0 0.138573,0.03546 0.191757,0 1.110715,-1.001499 5.256619,-2.362062 5.177478,-5.752749 0.0226,-0.0226 0.08159,0.02859 0.09588,0 0.02858,-0.05717 0,-0.127837 0,-0.191757 0,-0.03196 -0.0226,-0.07328 0,-0.09588 0.0226,-0.0226 0.07328,0.0226 0.09588,0 0.0226,-0.0226 -0.03196,-0.09588 0,-0.09588 0.03196,0 0,0.127839 0,0.09588 v -0.287636 -0.09588 c 0.820895,-2.015313 0.926553,-3.467062 0.862913,-5.6568611 -0.0452,-0.045198 -0.134586,0.028586 -0.191757,0 -0.05717,-0.028586 0.0452,-0.14656 0,-0.1917577 -0.0226,-0.022599 -0.08159,0.028586 -0.09588,0 -0.02859,-0.057171 0,-0.1278385 0,-0.1917578 0,-0.03196 0.01773,-0.069287 0,-0.095879 L 44.488341,7.4766137 c 0,-0.03196 0.01429,-0.067293 0,-0.095879 -0.167552,-0.3351056 -0.01324,0.1785196 -0.287636,-0.095879 -0.04794,-0.047939 0.02397,-0.2157275 0,-0.2876366 l -0.09588,-0.1917577 c -0.03196,0 -0.07328,0.022599 -0.09588,0 -0.0226,-0.022599 0.02858,-0.081586 0,-0.095879 -0.05717,-0.028586 -0.14656,0.045198 -0.191758,0 -0.0452,-0.045198 0.02858,-0.1345868 0,-0.1917579 -0.01429,-0.028586 -0.07328,0.022599 -0.09588,0 -0.0226,-0.022599 0.02859,-0.081586 0,-0.095879 -0.05717,-0.028586 -0.134586,0.028586 -0.191757,0 -0.02858,-0.014293 0.0226,-0.07328 0,-0.095879 -0.0226,-0.022599 -0.06392,0 -0.09588,0 h -0.09588 -0.958789 -0.191757 c -0.03196,0 -0.07328,-0.022599 -0.09588,0 -0.0226,0.022599 0.02858,0.081586 0,0.095879 -0.05717,0.028586 -0.14656,-0.045198 -0.191759,0 -0.0452,0.045198 0.02859,0.1345868 0,0.1917578 -0.01429,0.028586 -0.07328,-0.022599 -0.09588,0 -0.0226,0.022599 0.02859,0.081586 0,0.095879 -0.09538,0.047692 -0.26867,-0.037934 -0.287637,0 -0.06237,0.1247366 0.0893,0.2259107 -0.09588,0.2876366 -0.06064,0.020213 -0.138574,-0.035456 -0.191758,0 -0.26997,0.00595 -0.02442,0.2161728 -0.09588,0.2876366 -0.05053,0.050533 -0.123961,0.07328 -0.191758,0.095879 -0.03032,0.010106 -0.07328,-0.022599 -0.09588,0 -0.05053,0.050533 -0.07328,0.1239611 -0.09588,0.1917578 -0.0101,0.03032 0.02859,0.081586 0,0.095879 -0.05717,0.028586 -0.14656,-0.045198 -0.191757,0 -0.0452,0.045198 0.02021,0.1311188 0,0.1917579 -0.03671,0.1101344 -0.228904,0.1330248 -0.287636,0.1917578 -0.05053,0.050533 -0.07328,0.1239611 -0.09588,0.1917577 -0.0101,0.030319 0.03032,0.085772 0,0.095879 -0.09096,0.03032 -0.20786,-0.053184 -0.287637,0 -0.05318,0.035456 0.03546,0.1385737 0,0.1917577 -0.03964,0.059462 -0.123961,0.07328 -0.191757,0.095879 -0.03032,0.010106 -0.08159,-0.028585 -0.09588,0 -0.02859,0.057171 0,0.1278385 0,0.1917578 0,0.2272685 0.03196,-0.010654 -0.287637,0.095879 -0.03032,0.010106 0.0226,0.07328 0,0.095879 -0.04794,0.047939 -0.239697,-0.04794 -0.287637,0 -0.0452,0.045198 0.05318,0.1563018 0,0.1917578 -0.07978,0.053184 -0.19462,-0.023254 -0.287636,0 -0.04385,0.010962 -0.053,0.081586 -0.09588,0.095879 -0.06064,0.020213 -0.14656,-0.045198 -0.191757,0 -0.0452,0.045198 0.05318,0.1563017 0,0.1917577 -0.07978,0.053184 -0.191759,0 -0.287638,0 H 37.872684 37.29741 c -0.06392,0 -0.134586,-0.028586 -0.191757,0 -0.02858,0.014293 0,0.1278385 0,0.095879 0,-0.5433136 0.06392,-0.03196 -0.09588,-0.1917578 -0.0226,-0.022599 0,-0.063919 0,-0.095879 -0.06392,-0.063919 -0.116544,-0.1416154 -0.191757,-0.1917578 -0.02659,-0.017728 -0.07328,0.022599 -0.09588,0 -0.0226,-0.022599 0.03032,-0.085772 0,-0.095879 -0.09096,-0.03032 -0.207861,0.053184 -0.287638,0 -0.287636,-0.1917578 0.143819,-0.1438183 0,-0.2876367 -0.255676,-0.255677 -0.159797,0.095879 -0.287636,-0.2876366 -0.0101,-0.03032 0.0101,-0.065559 0,-0.095879 -0.0226,-0.067797 -0.07328,-0.1239611 -0.09588,-0.1917578 -0.0101,-0.03032 0.02858,-0.081586 0,-0.095879 -0.05717,-0.028586 -0.14656,0.045198 -0.191757,0 -0.0452,-0.045198 0.02021,-0.1311187 0,-0.1917578 -0.01429,-0.042878 -0.07567,-0.055453 -0.09588,-0.095879 -0.01429,-0.028586 0.01773,-0.069287 0,-0.095879 -0.05014,-0.075214 -0.141615,-0.1165441 -0.191758,-0.1917577 -0.01773,-0.026592 0.0101,-0.065559 0,-0.095879 -0.0226,-0.067797 -0.07328,-0.1239611 -0.09588,-0.1917577 -0.02876,-0.086291 0.02876,-0.2013457 0,-0.2876367 -0.01429,-0.042878 -0.07567,-0.055453 -0.09588,-0.095879 -0.01429,-0.028586 0,-0.063919 0,-0.095879 -0.06392,-0.063919 -0.141615,-0.1165443 -0.191758,-0.1917579 -0.02909,-0.043629 0.01998,-0.3768545 0,-0.3835155 -0.09096,-0.03032 -0.196678,0.03032 -0.287636,0 -0.03032,-0.010106 0,-0.063919 0,-0.095879 0,-0.063919 -0.06392,-0.1917577 0,-0.1917577 0.06392,0 0.06392,0.1917577 0,0.1917577 -0.314229,0 -0.287637,-0.1346266 -0.287637,-0.2876366 0,-0.063919 0.05318,-0.1563017 0,-0.1917577 -0.07978,-0.053184 -0.196678,0.03032 -0.287637,0 -0.03032,-0.010106 0.0226,-0.07328 0,-0.095879 -0.0226,-0.022599 -0.08159,0.028586 -0.09588,0 -0.02859,-0.057171 0.05318,-0.1563018 0,-0.1917578 -0.07978,-0.053184 -0.196679,0.03032 -0.287638,0 -0.03032,-0.010106 0.03032,-0.085772 0,-0.095879 -0.09096,-0.03032 -0.196677,0.03032 -0.287636,0 -0.03032,-0.010106 0,-0.063919 0,-0.095879 h -0.287636 c -0.0313,0 -0.458803,0.020593 -0.479395,0 -0.0452,-0.045198 0.02859,-0.1345867 0,-0.1917578 -0.01429,-0.028586 -0.06556,0.010106 -0.09588,0 -0.330515,-0.1101716 -0.07102,-0.095879 -0.287636,-0.095879 h -0.09588 c -0.06392,0 -0.14656,0.045198 -0.191759,0 -0.0452,-0.045198 0.05318,-0.1563017 0,-0.1917577 -0.07977,-0.053184 -0.191757,0 -0.287636,0 h -0.287636 c -0.09588,0 -0.196679,-0.03032 -0.287638,0 -0.03032,0.010106 0.03032,0.085772 0,0.095879 -0.09096,0.03032 -0.196677,-0.03032 -0.287636,0 -0.03032,0.010106 0.02859,0.081586 0,0.095879 -0.05717,0.028585 -0.14656,-0.045198 -0.191758,0 -0.0452,0.045198 0.02021,0.1311187 0,0.1917578 -0.02742,0.082275 -0.243587,0.1770745 -0.287636,0.1917577 -0.03032,0.010106 -0.08159,-0.028586 -0.09588,0 -0.02859,0.057171 0.05318,0.1563018 0,0.1917578 -0.07978,0.053184 -0.196678,-0.03032 -0.287637,0 -0.03032,0.010106 0.0101,0.065559 0,0.095879 -0.0226,0.067797 -0.07328,0.1239612 -0.09588,0.1917578 -0.0101,0.03032 0.01773,0.069287 0,0.095879 0.236591,0.2902718 -0.260796,0.1649176 -0.287636,0.1917578 -0.0226,0.022599 0.0226,0.07328 0,0.095879 -0.05053,0.050533 -0.141225,0.045346 -0.191758,0.095879 -0.110172,0.1101716 -0.09588,0.1695641 -0.09588,0.2876366 0,0.063919 0.0452,0.1465602 0,0.1917578 -0.07146,0.071464 -0.216172,0.024415 -0.287636,0.095879 -0.0452,0.045198 0.0452,0.14656 0,0.1917577 -0.0452,0.045198 -0.131119,-0.020213 -0.191757,0 -0.208874,-0.035837 -0.03196,0.1597982 -0.09588,0.1917578 -0.05717,0.028586 -0.14656,-0.045198 -0.191758,0 -0.0452,0.045198 0.02858,0.1345866 0,0.1917577 -0.01429,0.028586 -0.07328,-0.022599 -0.09588,0 -0.0226,0.022599 0.01011,0.065559 0,0.095879 -0.0226,0.067797 -0.04535,0.1412251 -0.09588,0.1917578 -0.05053,0.050533 -0.123962,0.07328 -0.191758,0.095879 -0.03032,0.010106 -0.08159,-0.028586 -0.09588,0 -0.02858,0.057171 0.03546,0.1385738 0,0.1917579 -0.006,0.2699698 -0.216172,0.024415 -0.287636,0.095879 -0.0226,0.022599 0,0.063919 0,0.095879 -0.03196,0.063919 -0.03642,0.1521167 -0.09588,0.1917577 -0.05319,0.035456 -0.127838,0 -0.191758,0 -0.03196,0 -0.07328,-0.022599 -0.09588,0 -0.0226,0.022599 0.02859,0.081586 0,0.095879 -0.05717,0.028586 -0.14656,-0.045198 -0.191758,0 -0.0452,0.045198 0.0452,0.14656 0,0.1917577 -0.07146,0.071464 -0.189588,0.071367 -0.287636,0.095879 -0.03101,0.00775 -0.08159,-0.028585 -0.09588,0 -0.02859,0.057171 0.0452,0.1465601 0,0.1917578 -0.04794,0.04794 -0.239697,-0.047939 -0.287637,0 -0.0226,0.022599 0,0.063919 0,0.095879 -0.09588,0.063919 -0.180646,0.1489616 -0.287636,0.1917577 -0.05935,0.023739 -0.127839,0 -0.191758,0 -0.03196,0 -0.07328,-0.022599 -0.09588,0 -0.0226,0.022599 0.02858,0.081586 0,0.095879 -0.05717,0.028586 -0.138573,-0.035456 -0.191758,0 -0.05946,0.039641 -0.04535,0.1412251 -0.09588,0.1917577 -9.1e-5,9.15e-5 -0.287201,-1.5e-4 -0.287636,0 -0.04288,0.014293 -0.053,0.081586 -0.09588,0.095879 -0.05155,0.017182 -0.30234,0 -0.383516,0 -0.127838,0 -0.269173,0.057171 -0.383515,0 -0.05717,-0.028586 0.05318,-0.1563017 0,-0.1917577 -0.07978,-0.053184 -0.196678,0.030319 -0.287637,0 -0.03032,-0.010106 0.03032,-0.085772 0,-0.095879 -0.09096,-0.03032 -0.207861,0.053184 -0.287637,0 -0.05318,-0.035456 0.05318,-0.1563018 0,-0.1917578 -0.07978,-0.053184 -0.196678,0.030319 -0.287636,0 -0.03032,-0.010106 0.0101,-0.065559 0,-0.095879 l -0.09588,-0.1917579 c -0.03196,0 -0.07328,0.022599 -0.09588,0 -0.0226,-0.022599 0.0226,-0.07328 0,-0.095879 -0.05053,-0.050533 -0.123961,-0.07328 -0.191757,-0.095879 -0.03032,-0.010106 -0.08159,0.028586 -0.09588,0 -0.04769,-0.095384 0.03793,-0.2686698 0,-0.2876366 -0.05717,-0.028586 -0.138574,0.035456 -0.191758,0 -0.05946,-0.039641 -0.03642,-0.1521167 -0.09588,-0.1917577 -0.543313,0 -0.03196,0.063919 -0.191757,-0.095879 -0.0226,-0.022599 -0.08159,0.028586 -0.09588,0 -0.04288,-0.085757 0.04288,-0.20188 0,-0.2876368 -0.02021,-0.040426 -0.08159,-0.053001 -0.09588,-0.095879 -0.02021,-0.060639 0.0452,-0.14656 0,-0.1917578 -0.0452,-0.045198 -0.134587,0.028586 -0.191757,0 -0.03793,-0.018967 0.04769,-0.192253 0,-0.2876366 -0.01429,-0.028586 -0.07328,0.022599 -0.09588,0 -0.0226,-0.022599 0,-0.063919 0,-0.095879 0,-0.03196 -0.03196,-0.095879 0,-0.095879 0.03196,0 0.03196,0.095879 0,0.095879 -0.101065,0 -0.200974,-0.043881 -0.287636,-0.095879 -0.07751,-0.046508 -0.127839,-0.1278385 -0.191758,-0.1917577 -0.03196,-0.03196 -0.053,-0.081586 -0.09588,-0.095879 -0.06064,-0.020213 -0.127838,0 -0.191757,0 h -0.09588 c -0.03196,0 -0.06729,0.014293 -0.09588,0 -0.06454,-0.03227 -0.359805,-0.2637186 -0.479394,-0.2876366 -0.09402,-0.018803 -0.191757,0 -0.287637,0 -0.03196,0 -0.08159,0.028586 -0.09588,0 -0.02858,-0.057171 0.06064,-0.1715448 0,-0.1917578 -0.09588,-0.03196 -0.1938,0.058344 -0.287636,0.095879 -0.06635,0.026541 -0.123961,0.07328 -0.191758,0.095879 -0.03032,0.010106 -0.08577,-0.03032 -0.09588,0 -0.03032,0.090959 0.0767,0.2301093 0,0.2876366 -0.102272,0.076703 -0.264822,-0.047478 -0.383517,0 -0.06635,0.026541 -0.04535,0.1412252 -0.09588,0.1917579 -0.0226,0.022599 -0.06392,0 -0.09588,0 -0.06392,0.03196 -0.152116,0.036417 -0.191758,0.095879 -0.03546,0.053184 0.0452,0.14656 0,0.1917578 -0.374155,0.3741547 -0.229201,-0.1753076 -0.383516,0.2876366 -0.0173,0.05189 0,0.3508521 0,0.3835156 v 0.9587888 0.095879 c 0,0.063919 0.03546,0.1385737 0,0.1917578 -0.03964,0.059461 -0.141225,0.045346 -0.191757,0.095879 -0.0226,0.022599 0,0.063919 0,0.095879 v 0.1917577 1.0546673 0.191758 c 0,0.03196 -0.0226,0.07328 0,0.09588 0.0226,0.0226 0.07328,-0.0226 0.09588,0 0.0226,0.0226 0,0.06392 0,0.09588 0,0.06392 -0.02858,0.134587 0,0.191758 0.01429,0.02858 0.07328,-0.0226 0.09588,0 0.0226,0.0226 -0.02858,0.08159 0,0.09588 0.05717,0.02858 0.14656,-0.0452 0.191759,0 0.488376,5.058974 3.743232,9.990035 8.245611,9.971431 0.06392,0 0.14656,-0.0452 0.191757,0 0.0452,0.0452 -0.02858,0.134586 0,0.191757 0.0037,0.0074 0.361241,-0.02227 0.383516,0 0.02556,0.02556 -0.02556,0.262075 0,0.287637 0.274398,0.274398 0.120084,-0.239227 0.287637,0.09588 0.01429,0.02859 0,0.06392 0,0.09588 0,0.06392 -0.02021,0.131119 0,0.191758 0.01429,0.04288 0.08159,0.053 0.09588,0.09588 0.03032,0.09096 0,0.191757 0,0.287636 v 0.767031 z"
       id="path829"
       inkscape:connector-curvature="0"
       sodipodi:nodetypes="csccccccscscscscscccccscccccccccscsccccccscsccssccccccccscccccccscccccssssccsccssscscccsscsscccscscccsccccsscccsssssccccccsccccccscccsccssccsscccsccccccccccccccccccsccccccccscscscccsccccccccccccccccccccssssccsccccccscccsscsssccccccccccccccccscccccccsccccccccsscccccccccsscccccscccccccccscccccccccccccsssscccssccsccccccccccccscsccsccsssscsccccccccsccscc" />
  </g>
  <g
     inkscape:groupmode="layer"
     id="layer2"
     inkscape:label="Layer 2">
    <path
       style=""
       d="m16 36.947-1.469 14.204c-.003.034-.005.068-.005.103 0 .425-.047.847-.139 1.258-.515 2.321.043 4.717 1.53 6.57 1.489 1.855 3.706 2.918 6.083 2.918h20c2.377 0 4.594-1.063 6.082-2.918 1.487-1.854 2.045-4.249 1.529-6.572-.091-.409-.138-.831-.138-1.256 0-.034-.002-.068-.005-.103l-1.468-14.204c-.01-3.013-.861-5.944-2.464-8.481l-1.691 1.068c1.41 2.232 2.155 4.814 2.155 7.466 0 .034.002.068.005.103l1.469 14.205c.004.553.066 1.104.186 1.638.384 1.726-.031 3.507-1.138 4.886-1.106 1.377-2.754 2.168-4.522 2.168h-20c-1.768 0-3.416-.791-4.521-2.169-1.106-1.379-1.521-3.16-1.139-4.884.12-.535.183-1.087.187-1.64l1.469-14.205c.002-.034.004-.068.004-.102 0-4.818 2.447-9.074 6.162-11.594 3.157-.491 6.094-1.587 7.465-2.155 1.052 1.511 3.715 4.865 7.131 5.719l.484-1.939c-2.141-.536-4.01-2.429-5.165-3.856 3.201.483 6.171 2.049 8.359 4.492l1.49-1.334c-1.803-2.014-4.075-3.503-6.571-4.391 3.716-1.532 6.675-4.628 7.969-8.634l-1.902-.615c-1.33 4.115-4.709 7.105-8.798 8.014 1.538-1.893 2.376-4.235 2.376-6.707h-2c0 2.313-.9 4.486-2.535 6.121l-.859.859c-.075-.002-.149-.007-.223-.011l-1.761-1.761c-1.551-1.551-2.184-3.837-1.652-5.966l-1.939-.484c-.663 2.649.059 5.473 1.861 7.502-4.597-1.683-7.892-6.088-7.892-11.26v-1.172c0-.62.473-.863.617-.924s.65-.222 1.09.217l2.059 2.059c.59.59 1.406.906 2.237.877.832-.032 1.62-.413 2.161-1.046l3.076-3.589c.387-.449 1.133-.449 1.52 0l3.075 3.589c.542.633 1.33 1.014 2.162 1.046.834.028 1.647-.287 2.237-.877l2.059-2.059c.438-.438.944-.277 1.09-.217.144.061.617.304.617.924v1.172c0 .622-.048 1.243-.142 1.846l1.977.309c.109-.706.165-1.43.165-2.155v-1.172c0-1.236-.71-2.298-1.852-2.771-1.142-.472-2.395-.224-3.27.65l-2.058 2.059c-.2.2-.466.319-.746.292-.281-.011-.537-.134-.721-.348l-3.076-3.589c-.57-.666-1.4-1.048-2.277-1.048s-1.707.382-2.277 1.048l-3.077 3.589c-.183.214-.438.337-.72.348-.276.024-.546-.092-.746-.292l-2.059-2.059c-.874-.874-2.129-1.122-3.27-.65-1.141.473-1.851 1.535-1.851 2.771v1.172c0 5.829 3.582 10.832 8.659 12.936-1.128.401-2.197.921-3.193 1.553-3.134.424-6.196.113-7.634-2.043l-1.664 1.109c1.474 2.21 3.931 3.01 6.571 3.092-2.913 2.889-4.725 6.886-4.739 11.3z"
       id="path2" />
    <path
       style="stroke:#000000;stroke-opacity:1;fill:#42b573;fill-opacity:1;stroke-width:0.375;stroke-miterlimit:4;stroke-dasharray:none"
       d="m37 40v-.5c0-2.31-1.756-4.197-4-4.449v-3.051h-2v3.051c-2.244.252-4 2.139-4 4.449 0 2.481 2.019 4.5 4.5 4.5h1c1.379 0 2.5 1.121 2.5 2.5s-1.121 2.5-2.5 2.5h-1c-1.379 0-2.5-1.121-2.5-2.5v-.5h-2v.5c0 2.31 1.756 4.197 4 4.449v3.051h2v-3.051c2.244-.252 4-2.139 4-4.449 0-2.481-2.019-4.5-4.5-4.5h-1c-1.379 0-2.5-1.121-2.5-2.5s1.121-2.5 2.5-2.5h1c1.379 0 2.5 1.121 2.5 2.5v.5z"
       id="path4" />
  </g>
</svg>
