<svg xmlns="http://www.w3.org/2000/svg" xmlns:xlink="http://www.w3.org/1999/xlink" width="134" height="71" viewBox="0 0 153 84"><title>Make a sale</title><defs><path id="a" d="M0 84.597h153.297v-84H0z"/><path id="c" d="M14.01 25.449H.204V.619H14.01v24.83z"/><path id="e" d="M16.422 25.449H.204V.619h16.218v24.83z"/><path id="g" d="M18.835 25.449H.204V.619h18.631v24.83z"/><path id="i" d="M21.248 25.449H.204V.619h21.044v24.83z"/><path id="k" d="M23.661 25.449H.204V.619h23.457v24.83z"/><path id="m" d="M26.074 25.449H.204V.619h25.87v24.83z"/><path id="o" d="M28.487 25.449H.204V.619h28.283v24.83z"/><path id="q" d="M30.9 25.449H.204V.619H30.9v24.83z"/><path id="s" d="M33.313 25.449H.204V.619h33.109v24.83z"/><path id="u" d="M35.726 25.449H.204V.619h35.522v24.83z"/><path id="w" d="M38.139 25.449H.203V.619h37.934v24.83z"/><path id="y" d="M40.551 25.449H.204V.619h40.347v24.83z"/><path id="A" d="M.626 25.449h41.338V.619H.626v24.83z"/><path id="C" d="M.04 25.449h41.337V.619H.04v24.83z"/><path id="E" d="M.452 25.449H41.79V.619H.452v24.83z"/><path id="G" d="M.865 25.449h41.338V.619H.865z"/><path id="I" d="M.278 25.449h41.338V.619H.278v24.83z"/><path id="K" d="M.69 25.449H42.03V.619H.69v24.83z"/><path id="M" d="M.104 25.449h41.338V.619H.104v24.83z"/><path id="O" d="M.516 25.449h41.338V.619H.516v24.83z"/><path id="Q" d="M.93 25.449h41.337V.619H.93v24.83z"/><path id="S" d="M.342 25.449H41.68V.619H.342v24.83z"/><path id="U" d="M.755 25.449h41.338V.619H.755v24.83z"/><path id="W" d="M.168 25.449h41.338V.619H.168v24.83z"/><path id="Y" d="M.58 25.449H41.92V.619H.58z"/><path id="aa" d="M.994 25.449h41.338V.619H.994v24.83z"/><path id="ac" d="M.407 25.449h41.338V.619H.407v24.83z"/><path id="ae" d="M.82 25.449h41.337V.619H.82z"/><path id="ag" d="M.232 25.449H41.57V.619H.232v24.83z"/><path id="ai" d="M.645 25.449h41.338V.619H.645v24.83z"/><path id="ak" d="M.058 25.449h41.338V.619H.058v24.83z"/><path id="am" d="M.471 25.449H41.81V.619H.471z"/><path id="ao" d="M.884 25.449h41.338V.619H.884z"/><path id="aq" d="M.297 25.449h41.14V.619H.297z"/><path id="as" d="M.71 25.449h38.727V.619H.71z"/><path id="au" d="M.123 25.449h36.314V.619H.123v24.83z"/><path id="aw" d="M.535 25.449h33.902V.619H.536z"/><path id="ay" d="M.948 25.449h31.489V.619H.948z"/><path id="aA" d="M.361 25.449h29.076V.619H.361z"/><path id="aC" d="M.774 25.449h26.663V.619H.774z"/><path id="aE" d="M.187 25.449h24.25V.619H.187z"/><path id="aG" d="M.6 25.449h21.837V.619H.6v24.83z"/><path id="aI" d="M.013 25.449h19.424V.619H.013v24.83z"/><path id="aK" d="M.426 25.449h17.011V.619H.426z"/><path id="aM" d="M.839 25.449h14.598V.619H.839v24.83z"/><path id="aO" d="M.252 25.449h12.185V.619H.252z"/><path id="aQ" d="M.664 25.449h9.773V.619H.664z"/><path id="aS" d="M.077 25.449h7.36V.619H.077z"/><path id="aU" d="M.49 25.449h4.947V.619H.49v24.83z"/><path id="aW" d="M.903 25.449h2.534V.619H.903v24.83z"/><path id="aY" d="M.316 25.449h.121V.619H.316v24.83z"/></defs><g fill="none" fill-rule="evenodd"><g transform="translate(-1 -.597)"><path d="M152.547 83.07H7.97V54.65a5.653 5.653 0 0 1 5.653-5.652h133.27a5.653 5.653 0 0 1 5.654 5.653V83.07z" fill="#FFF"/><path d="M152.547 83.07H7.97V54.65a5.653 5.653 0 0 1 5.653-5.652h133.27a5.653 5.653 0 0 1 5.654 5.653V83.07z" stroke="#221F1F" stroke-width="1.5"/><path d="M111.671 83.07h40.876V54.65a5.653 5.653 0 0 0-5.653-5.652h-29.57a5.653 5.653 0 0 0-5.653 5.653V83.07z" fill="#B0BFC9"/><path d="M111.671 83.07h40.876V54.65a5.653 5.653 0 0 0-5.653-5.652h-29.57a5.653 5.653 0 0 0-5.653 5.653V83.07z" stroke="#231F1F" stroke-width="1.5" stroke-linecap="round"/><mask id="b" fill="#fff"><use xlink:href="#a"/></mask><path fill="#FFF" mask="url(#b)" d="M13.204 78.449h93.233V53.618H13.204z"/></g><g transform="translate(12 52.403)"><mask id="d" fill="#fff"><use xlink:href="#c"/></mask><path d="M14.01-45.731l-41.338 83.398" stroke="#B0BFC9" stroke-width="1.5" mask="url(#d)"/></g><g transform="translate(12 52.403)"><mask id="f" fill="#fff"><use xlink:href="#e"/></mask><path d="M16.422-45.731l-41.338 83.398" stroke="#B0BFC9" stroke-width="1.5" mask="url(#f)"/></g><g transform="translate(12 52.403)"><mask id="h" fill="#fff"><use xlink:href="#g"/></mask><path d="M18.835-45.731l-41.338 83.398" stroke="#B0BFC9" stroke-width="1.5" mask="url(#h)"/></g><g transform="translate(12 52.403)"><mask id="j" fill="#fff"><use xlink:href="#i"/></mask><path d="M21.248-45.731L-20.09 37.667" stroke="#B0BFC9" stroke-width="1.5" mask="url(#j)"/></g><g transform="translate(12 52.403)"><mask id="l" fill="#fff"><use xlink:href="#k"/></mask><path d="M23.661-45.731l-41.338 83.398" stroke="#B0BFC9" stroke-width="1.5" mask="url(#l)"/></g><g transform="translate(12 52.403)"><mask id="n" fill="#fff"><use xlink:href="#m"/></mask><path d="M26.074-45.731l-41.338 83.398" stroke="#B0BFC9" stroke-width="1.5" mask="url(#n)"/></g><g transform="translate(12 52.403)"><mask id="p" fill="#fff"><use xlink:href="#o"/></mask><path d="M28.487-45.731l-41.338 83.398" stroke="#B0BFC9" stroke-width="1.5" mask="url(#p)"/></g><g transform="translate(12 52.403)"><mask id="r" fill="#fff"><use xlink:href="#q"/></mask><path d="M30.9-45.731l-41.338 83.398" stroke="#B0BFC9" stroke-width="1.5" mask="url(#r)"/></g><g transform="translate(12 52.403)"><mask id="t" fill="#fff"><use xlink:href="#s"/></mask><path d="M33.313-45.731L-8.025 37.667" stroke="#B0BFC9" stroke-width="1.5" mask="url(#t)"/></g><g transform="translate(12 52.403)"><mask id="v" fill="#fff"><use xlink:href="#u"/></mask><path d="M35.726-45.731L-5.612 37.667" stroke="#B0BFC9" stroke-width="1.5" mask="url(#v)"/></g><g transform="translate(12 52.403)"><mask id="x" fill="#fff"><use xlink:href="#w"/></mask><path d="M38.139-45.731L-3.2 37.667" stroke="#B0BFC9" stroke-width="1.5" mask="url(#x)"/></g><g transform="translate(12 52.403)"><mask id="z" fill="#fff"><use xlink:href="#y"/></mask><path d="M40.551-45.731L-.787 37.667" stroke="#B0BFC9" stroke-width="1.5" mask="url(#z)"/></g><g transform="translate(13 52.403)"><mask id="B" fill="#fff"><use xlink:href="#A"/></mask><path d="M41.964-45.731L.626 37.667" stroke="#B0BFC9" stroke-width="1.5" mask="url(#B)"/></g><g transform="translate(16 52.403)"><mask id="D" fill="#fff"><use xlink:href="#C"/></mask><path d="M41.377-45.731L.04 37.667" stroke="#B0BFC9" stroke-width="1.5" mask="url(#D)"/></g><g transform="translate(18 52.403)"><mask id="F" fill="#fff"><use xlink:href="#E"/></mask><path d="M41.79-45.731L.452 37.667" stroke="#B0BFC9" stroke-width="1.5" mask="url(#F)"/></g><g transform="translate(20 52.403)"><mask id="H" fill="#fff"><use xlink:href="#G"/></mask><path d="M42.203-45.731L.865 37.667" stroke="#B0BFC9" stroke-width="1.5" mask="url(#H)"/></g><g transform="translate(23 52.403)"><mask id="J" fill="#fff"><use xlink:href="#I"/></mask><path d="M41.616-45.731L.278 37.667" stroke="#B0BFC9" stroke-width="1.5" mask="url(#J)"/></g><g transform="translate(25 52.403)"><mask id="L" fill="#fff"><use xlink:href="#K"/></mask><path d="M42.029-45.731L.69 37.667" stroke="#B0BFC9" stroke-width="1.5" mask="url(#L)"/></g><g transform="translate(28 52.403)"><mask id="N" fill="#fff"><use xlink:href="#M"/></mask><path d="M41.442-45.731L.104 37.667" stroke="#B0BFC9" stroke-width="1.5" mask="url(#N)"/></g><g transform="translate(30 52.403)"><mask id="P" fill="#fff"><use xlink:href="#O"/></mask><path d="M41.854-45.731L.516 37.667" stroke="#B0BFC9" stroke-width="1.5" mask="url(#P)"/></g><g transform="translate(32 52.403)"><mask id="R" fill="#fff"><use xlink:href="#Q"/></mask><path d="M42.267-45.731L.93 37.667" stroke="#B0BFC9" stroke-width="1.5" mask="url(#R)"/></g><g transform="translate(35 52.403)"><mask id="T" fill="#fff"><use xlink:href="#S"/></mask><path d="M41.68-45.731L.342 37.667" stroke="#B0BFC9" stroke-width="1.5" mask="url(#T)"/></g><g transform="translate(37 52.403)"><mask id="V" fill="#fff"><use xlink:href="#U"/></mask><path d="M42.093-45.731L.755 37.667" stroke="#B0BFC9" stroke-width="1.5" mask="url(#V)"/></g><g transform="translate(40 52.403)"><mask id="X" fill="#fff"><use xlink:href="#W"/></mask><path d="M41.506-45.731L.168 37.667" stroke="#B0BFC9" stroke-width="1.5" mask="url(#X)"/></g><g transform="translate(42 52.403)"><mask id="Z" fill="#fff"><use xlink:href="#Y"/></mask><path d="M41.919-45.731L.58 37.667" stroke="#B0BFC9" stroke-width="1.5" mask="url(#Z)"/></g><g transform="translate(44 52.403)"><mask id="ab" fill="#fff"><use xlink:href="#aa"/></mask><path d="M42.332-45.731L.994 37.667" stroke="#B0BFC9" stroke-width="1.5" mask="url(#ab)"/></g><g transform="translate(47 52.403)"><mask id="ad" fill="#fff"><use xlink:href="#ac"/></mask><path d="M41.745-45.731L.407 37.667" stroke="#B0BFC9" stroke-width="1.5" mask="url(#ad)"/></g><g transform="translate(49 52.403)"><mask id="af" fill="#fff"><use xlink:href="#ae"/></mask><path d="M42.157-45.731L.82 37.667" stroke="#B0BFC9" stroke-width="1.5" mask="url(#af)"/></g><g transform="translate(52 52.403)"><mask id="ah" fill="#fff"><use xlink:href="#ag"/></mask><path d="M41.57-45.731L.232 37.667" stroke="#B0BFC9" stroke-width="1.5" mask="url(#ah)"/></g><g transform="translate(54 52.403)"><mask id="aj" fill="#fff"><use xlink:href="#ai"/></mask><path d="M41.983-45.731L.645 37.667" stroke="#B0BFC9" stroke-width="1.5" mask="url(#aj)"/></g><g transform="translate(57 52.403)"><mask id="al" fill="#fff"><use xlink:href="#ak"/></mask><path d="M41.396-45.731L.058 37.667" stroke="#B0BFC9" stroke-width="1.5" mask="url(#al)"/></g><g transform="translate(59 52.403)"><mask id="an" fill="#fff"><use xlink:href="#am"/></mask><path d="M41.81-45.731L.47 37.667" stroke="#B0BFC9" stroke-width="1.5" mask="url(#an)"/></g><g transform="translate(61 52.403)"><mask id="ap" fill="#fff"><use xlink:href="#ao"/></mask><path d="M42.222-45.731L.884 37.667" stroke="#B0BFC9" stroke-width="1.5" mask="url(#ap)"/></g><g transform="translate(64 52.403)"><mask id="ar" fill="#fff"><use xlink:href="#aq"/></mask><path d="M41.635-45.731L.297 37.667" stroke="#B0BFC9" stroke-width="1.5" mask="url(#ar)"/></g><g transform="translate(66 52.403)"><mask id="at" fill="#fff"><use xlink:href="#as"/></mask><path d="M42.048-45.731L.71 37.667" stroke="#B0BFC9" stroke-width="1.5" mask="url(#at)"/></g><g transform="translate(69 52.403)"><mask id="av" fill="#fff"><use xlink:href="#au"/></mask><path d="M41.46-45.731L.124 37.667" stroke="#B0BFC9" stroke-width="1.5" mask="url(#av)"/></g><g transform="translate(71 52.403)"><mask id="ax" fill="#fff"><use xlink:href="#aw"/></mask><path d="M41.873-45.731L.536 37.667" stroke="#B0BFC9" stroke-width="1.5" mask="url(#ax)"/></g><g transform="translate(73 52.403)"><mask id="az" fill="#fff"><use xlink:href="#ay"/></mask><path d="M42.286-45.731L.948 37.667" stroke="#B0BFC9" stroke-width="1.5" mask="url(#az)"/></g><g transform="translate(76 52.403)"><mask id="aB" fill="#fff"><use xlink:href="#aA"/></mask><path d="M41.7-45.731L.36 37.667" stroke="#B0BFC9" stroke-width="1.5" mask="url(#aB)"/></g><g transform="translate(78 52.403)"><mask id="aD" fill="#fff"><use xlink:href="#aC"/></mask><path d="M42.112-45.731L.774 37.667" stroke="#B0BFC9" stroke-width="1.5" mask="url(#aD)"/></g><g transform="translate(81 52.403)"><mask id="aF" fill="#fff"><use xlink:href="#aE"/></mask><path d="M41.525-45.731L.187 37.667" stroke="#B0BFC9" stroke-width="1.5" mask="url(#aF)"/></g><g transform="translate(83 52.403)"><mask id="aH" fill="#fff"><use xlink:href="#aG"/></mask><path d="M41.938-45.731L.6 37.667" stroke="#B0BFC9" stroke-width="1.5" mask="url(#aH)"/></g><g transform="translate(86 52.403)"><mask id="aJ" fill="#fff"><use xlink:href="#aI"/></mask><path d="M41.35-45.731L.014 37.667" stroke="#B0BFC9" stroke-width="1.5" mask="url(#aJ)"/></g><g transform="translate(88 52.403)"><mask id="aL" fill="#fff"><use xlink:href="#aK"/></mask><path d="M41.764-45.731L.426 37.667" stroke="#B0BFC9" stroke-width="1.5" mask="url(#aL)"/></g><g transform="translate(90 52.403)"><mask id="aN" fill="#fff"><use xlink:href="#aM"/></mask><path d="M42.177-45.731L.839 37.667" stroke="#B0BFC9" stroke-width="1.5" mask="url(#aN)"/></g><g transform="translate(93 52.403)"><mask id="aP" fill="#fff"><use xlink:href="#aO"/></mask><path d="M41.59-45.731L.25 37.667" stroke="#B0BFC9" stroke-width="1.5" mask="url(#aP)"/></g><g transform="translate(95 52.403)"><mask id="aR" fill="#fff"><use xlink:href="#aQ"/></mask><path d="M42.002-45.731L.664 37.667" stroke="#B0BFC9" stroke-width="1.5" mask="url(#aR)"/></g><g transform="translate(98 52.403)"><mask id="aT" fill="#fff"><use xlink:href="#aS"/></mask><path d="M41.415-45.731L.077 37.667" stroke="#B0BFC9" stroke-width="1.5" mask="url(#aT)"/></g><g transform="translate(100 52.403)"><mask id="aV" fill="#fff"><use xlink:href="#aU"/></mask><path d="M41.828-45.731L.49 37.667" stroke="#B0BFC9" stroke-width="1.5" mask="url(#aV)"/></g><g transform="translate(102 52.403)"><mask id="aX" fill="#fff"><use xlink:href="#aW"/></mask><path d="M42.241-45.731L.903 37.667" stroke="#B0BFC9" stroke-width="1.5" mask="url(#aX)"/></g><g transform="translate(105 52.403)"><mask id="aZ" fill="#fff"><use xlink:href="#aY"/></mask><path d="M41.654-45.731L.316 37.667" stroke="#B0BFC9" stroke-width="1.5" mask="url(#aZ)"/></g><g><path stroke="#221F1F" stroke-width="1.5" d="M12.204 77.852h93.233V53.021H12.204z"/><path d="M31.413 62.011c7.85-14.627-8.465-29.255-.615-43.882h20.59c-7.85 14.627 8.466 29.255.616 43.882H31.413z" fill="#47B452"/><path d="M31.413 62.011c7.85-14.627-8.465-29.255-.615-43.882h20.59c-7.85 14.627 8.466 29.255.616 43.882H31.413z" stroke="#231F1F" stroke-width="1.5"/><path d="M37.26 59.517h11.123c.503-1.397 1.832-2.529 3.233-2.529 2.275-11.279-6.527-22.557-4.252-33.835-1.39 0-2.326-1.133-1.823-2.529H34.418c-.505 1.395-1.83 2.529-3.233 2.529-2.275 11.278 6.527 22.556 4.252 33.835 1.39 0 2.326 1.133 1.823 2.529" fill="#47B452"/><path d="M37.26 59.517h11.123c.503-1.397 1.832-2.529 3.233-2.529 2.275-11.279-6.527-22.557-4.252-33.835-1.39 0-2.326-1.133-1.823-2.529H34.418c-.505 1.395-1.83 2.529-3.233 2.529-2.275 11.278 6.527 22.556 4.252 33.835 1.39 0 2.326 1.133 1.823 2.529z" stroke="#231F1F" stroke-width="1.5"/><path d="M38.958 43.775c-.646-2.47-1.429-4.94-2.074-7.408-.51-1.922.768-3.48 2.691-3.48 1.92 0 3.758 1.558 4.268 3.48.645 2.469 1.43 4.939 2.074 7.408.511 1.922-.768 3.48-2.69 3.48-1.92 0-3.758-1.558-4.269-3.48" fill="#47B452"/><path d="M38.958 43.775c-.646-2.47-1.429-4.94-2.074-7.408-.51-1.922.768-3.48 2.691-3.48 1.92 0 3.758 1.558 4.268 3.48.645 2.469 1.43 4.939 2.074 7.408.511 1.922-.768 3.48-2.69 3.48-1.92 0-3.758-1.558-4.269-3.48z" stroke="#231F1F" stroke-width="1.5"/><path d="M20.625 61.645c7.305-12.904-6.926-25.807.378-38.711h19.591c-6.638 12.904 8.261 25.807 1.623 38.71H20.625z" fill="#47B452"/><path d="M20.625 61.645c7.305-12.904-6.926-25.807.378-38.711h19.591c-6.638 12.904 8.261 25.807 1.623 38.71H20.625z" stroke="#231F1F" stroke-width="1.5"/><path d="M26.672 59.444h11.602c.429-1.232 1.764-2.23 3.216-2.23 1.806-9.95-6.26-19.9-4.453-29.85-1.341 0-2.271-.997-1.841-2.23H24.552c-.461 1.233-1.738 2.23-3.088 2.23-2.211 9.95 5.451 19.9 3.24 29.85 1.443 0 2.429.998 1.968 2.23" fill="#47B452"/><path d="M26.672 59.444h11.602c.429-1.232 1.764-2.23 3.216-2.23 1.806-9.95-6.26-19.9-4.453-29.85-1.341 0-2.271-.997-1.841-2.23H24.552c-.461 1.233-1.738 2.23-3.088 2.23-2.211 9.95 5.451 19.9 3.24 29.85 1.443 0 2.429.998 1.968 2.23z" stroke="#231F1F" stroke-width="1.5"/><path d="M28.176 45.41c-.547-2.08-1.184-4.16-1.73-6.241-.562-2.099.813-3.8 2.874-3.8 2.055 0 4.057 1.701 4.664 3.8.587 2.08 1.264 4.16 1.851 6.24.607 2.099-.793 3.8-2.935 3.8-2.136 0-4.164-1.702-4.724-3.8" fill="#47B452"/><path d="M28.176 45.41c-.547-2.08-1.184-4.16-1.73-6.241-.562-2.099.813-3.8 2.874-3.8 2.055 0 4.057 1.701 4.664 3.8.587 2.08 1.264 4.16 1.851 6.24.607 2.099-.793 3.8-2.935 3.8-2.136 0-4.164-1.702-4.724-3.8z" stroke="#231F1F" stroke-width="1.5"/><path fill="#B0BFC9" d="M1.043 78.23h104.394V56.434H1.043z"/><path stroke="#231F1F" stroke-width="1.5" stroke-linecap="round" d="M1.043 78.23h104.394V56.434H1.043z"/><path fill="#FFF" d="M1.043 78.23h90.323V56.434H1.043z"/><path stroke="#221F1F" stroke-width="1.5" d="M1.043 78.23h90.323V56.434H1.043z"/><path d="M35.082 68.582H8.22a1.249 1.249 0 1 1 0-2.498h26.863a1.249 1.249 0 1 1 0 2.498" fill="#D9E8F7"/><path d="M35.082 68.582H8.22a1.249 1.249 0 1 1 0-2.498h26.863a1.249 1.249 0 1 1 0 2.498z" stroke="#231F1F" stroke-width="1.5"/><path d="M84.19 68.582H57.327a1.249 1.249 0 1 1 0-2.498H84.19a1.249 1.249 0 1 1 0 2.498" fill="#D9E8F7"/><path d="M84.19 68.582H57.327a1.249 1.249 0 1 1 0-2.498H84.19a1.249 1.249 0 1 1 0 2.498z" stroke="#231F1F" stroke-width="1.5"/><path d="M48.965 67.315a2.76 2.76 0 1 1-5.522 0 2.76 2.76 0 0 1 5.522 0" fill="#B0BFC9"/><path d="M48.965 67.315a2.76 2.76 0 1 1-5.522 0 2.76 2.76 0 0 1 5.522 0z" stroke="#231F1F" stroke-width="1.5" stroke-linecap="round"/><path d="M46.205 66.272v2.12" fill="#FFF"/><path d="M46.205 66.272v2.12" stroke="#221F1F" stroke-width="1.5" stroke-linecap="round"/><path d="M79.473 47.7a6.761 6.761 0 0 1-6.762 6.762 6.761 6.761 0 0 1-6.762-6.762 6.761 6.761 0 0 1 6.762-6.762 6.761 6.761 0 0 1 6.762 6.762" fill="#FFF"/><path d="M79.473 47.7a6.761 6.761 0 0 1-6.762 6.762 6.761 6.761 0 0 1-6.762-6.762 6.761 6.761 0 0 1 6.762-6.762 6.761 6.761 0 0 1 6.762 6.762z" stroke="#221F1F" stroke-width="1.5"/><path d="M77.459 47.7a4.748 4.748 0 1 1-9.497 0 4.748 4.748 0 0 1 9.497 0" fill="#FFF"/><path d="M77.459 47.7a4.748 4.748 0 1 1-9.497 0 4.748 4.748 0 0 1 9.497 0z" stroke="#221F1F" stroke-width="1.5"/><path d="M72.212 46.885c0-.148.005-.304.013-.466l-.824.684a.396.396 0 0 1-.327.085.377.377 0 0 1-.218-.128l-.379-.51 1.944-1.649h.99v5.597h-1.199v-3.613z" fill="#231F1F"/><path d="M67.963 29.88a6.761 6.761 0 0 1-6.762 6.763 6.761 6.761 0 0 1-6.762-6.762 6.761 6.761 0 0 1 6.762-6.762 6.761 6.761 0 0 1 6.762 6.762" fill="#FFF"/><path d="M67.963 29.88a6.761 6.761 0 0 1-6.762 6.763 6.761 6.761 0 0 1-6.762-6.762 6.761 6.761 0 0 1 6.762-6.762 6.761 6.761 0 0 1 6.762 6.762z" stroke="#221F1F" stroke-width="1.5"/><path d="M65.949 29.88a4.748 4.748 0 1 1-9.497 0 4.748 4.748 0 0 1 9.497 0" fill="#FFF"/><path d="M65.949 29.88a4.748 4.748 0 1 1-9.497 0 4.748 4.748 0 0 1 9.497 0z" stroke="#221F1F" stroke-width="1.5"/><path d="M60.702 29.066c0-.148.005-.304.013-.466l-.824.684a.396.396 0 0 1-.327.085.377.377 0 0 1-.218-.128l-.379-.51 1.944-1.649h.99L61.9 32.68h-1.198v-3.613z" fill="#231F1F"/><path d="M84.221 13.862a6.761 6.761 0 0 1-6.762 6.762 6.761 6.761 0 0 1-6.762-6.762A6.761 6.761 0 0 1 77.459 7.1a6.761 6.761 0 0 1 6.762 6.762" fill="#FFF"/><path d="M84.221 13.862a6.761 6.761 0 0 1-6.762 6.762 6.761 6.761 0 0 1-6.762-6.762A6.761 6.761 0 0 1 77.459 7.1a6.761 6.761 0 0 1 6.762 6.762z" stroke="#221F1F" stroke-width="1.5"/><path d="M82.207 13.862a4.748 4.748 0 1 1-9.497 0 4.748 4.748 0 0 1 9.497 0" fill="#FFF"/><path d="M82.207 13.862a4.748 4.748 0 1 1-9.497 0 4.748 4.748 0 0 1 9.497 0z" stroke="#221F1F" stroke-width="1.5"/><path d="M76.96 13.047c0-.148.005-.304.013-.466l-.824.684a.396.396 0 0 1-.327.085.377.377 0 0 1-.218-.128l-.379-.51 1.944-1.649h.99v5.597H76.96v-3.613z" fill="#231F1F"/><path fill="#FFF" d="M99.267.75v38.358l1.956 1.955 1.553-1.554 1.555 1.554 1.553-1.554 1.555 1.554 1.554-1.554 1.553 1.554 1.554-1.554 1.555 1.554 1.553-1.554 1.555 1.554 1.553-1.554 1.555 1.554 1.553-1.554 1.554 1.554 1.956-1.955V.75z"/><path stroke="#221F1F" stroke-width="1.5" d="M99.267.75v38.358l1.956 1.955 1.553-1.554 1.555 1.554 1.553-1.554 1.555 1.554 1.554-1.554 1.553 1.554 1.554-1.554 1.555 1.554 1.553-1.554 1.555 1.554 1.553-1.554 1.555 1.554 1.553-1.554 1.554 1.554 1.956-1.955V.75z"/></g><text font-family="Lato-Black, Lato" font-size="11" font-weight="700" fill="#231F1F" transform="translate(-1 -1)"><tspan x="110.117" y="15.033"> $ </tspan></text><g><path d="M103.595 20.03h16.862" fill="#FFF"/><path d="M103.595 20.03h16.862" stroke="#221F1F" stroke-width="1.5"/><path d="M103.595 23.82h16.862" fill="#FFF"/><path d="M103.595 23.82h16.862" stroke="#221F1F" stroke-width="1.5"/><g><path d="M103.595 27.608h16.862" fill="#FFF"/><path d="M103.595 27.608h16.862" stroke="#221F1F" stroke-width="1.5"/></g><g><path d="M103.595 31.397h9.252" fill="#FFF"/><path d="M103.595 31.397h9.252" stroke="#221F1F" stroke-width="1.5"/></g></g></g></svg>