<?xml version="1.0" encoding="UTF-8" standalone="no"?>
<!-- Generator: Adobe Illustrator 19.0.0, SVG Export Plug-In . SVG Version: 6.00 Build 0)  -->

<svg
   xmlns:dc="http://purl.org/dc/elements/1.1/"
   xmlns:cc="http://creativecommons.org/ns#"
   xmlns:rdf="http://www.w3.org/1999/02/22-rdf-syntax-ns#"
   xmlns:svg="http://www.w3.org/2000/svg"
   xmlns="http://www.w3.org/2000/svg"
   xmlns:sodipodi="http://sodipodi.sourceforge.net/DTD/sodipodi-0.dtd"
   xmlns:inkscape="http://www.inkscape.org/namespaces/inkscape"
   version="1.1"
   id="Capa_1"
   x="0px"
   y="0px"
   viewBox="0 0 201.387 201.387"
   style="enable-background:new 0 0 201.387 201.387;"
   xml:space="preserve"
   sodipodi:docname="sale.svg"
   inkscape:version="0.92.4 (5da689c313, 2019-01-14)"><metadata
   id="metadata69"><rdf:RDF><cc:Work
       rdf:about=""><dc:format>image/svg+xml</dc:format><dc:type
         rdf:resource="http://purl.org/dc/dcmitype/StillImage" /></cc:Work></rdf:RDF></metadata><defs
   id="defs67" /><sodipodi:namedview
   pagecolor="#ffffff"
   bordercolor="#666666"
   borderopacity="1"
   objecttolerance="10"
   gridtolerance="10"
   guidetolerance="10"
   inkscape:pageopacity="0"
   inkscape:pageshadow="2"
   inkscape:window-width="1920"
   inkscape:window-height="1013"
   id="namedview65"
   showgrid="false"
   inkscape:zoom="2.3437462"
   inkscape:cx="75.821273"
   inkscape:cy="135.16572"
   inkscape:window-x="-9"
   inkscape:window-y="-9"
   inkscape:window-maximized="1"
   inkscape:current-layer="Capa_1" />
<path
   d="M126.292,51.2h-51.2c-1.884,0-3.413-1.529-3.413-3.413V29.013C71.678,13.015,84.693,0,100.692,0  s29.013,13.015,29.013,29.013v18.773C129.705,49.671,128.176,51.2,126.292,51.2z M78.505,44.373h44.373v-15.36  c0-12.233-9.953-22.187-22.187-22.187S78.505,16.78,78.505,29.013V44.373z"
   id="path2" />
<polygon
   style="fill:#8d9aa3;fill-opacity:1"
   points="175.785,64.853 25.598,64.853 35.838,47.787 165.545,47.787 "
   id="polygon4" />
<path
   d="M175.785,68.267H25.598c-1.231,0-2.364-0.662-2.97-1.732c-0.606-1.07-0.591-2.382,0.043-3.439l10.24-17.067  c0.616-1.029,1.727-1.657,2.927-1.657h129.707c1.2,0,2.311,0.628,2.927,1.657l10.24,17.067c0.633,1.055,0.649,2.369,0.043,3.439  C178.149,67.604,177.015,68.267,175.785,68.267z M31.626,61.44h138.131l-6.144-10.24H37.772L31.626,61.44z"
   id="path6" />
<rect
   x="105.81"
   y="27.291"
   transform="matrix(-0.9737 -0.2277 0.2277 -0.9737 243.954 133.9249)"
   style="fill:#44b773;fill-opacity:1"
   width="47.785"
   height="51.198"
   id="rect8" />
<path
   d="M147.144,86.688c-0.258,0-0.519-0.029-0.782-0.09L99.831,75.715c-0.882-0.207-1.645-0.753-2.123-1.524  c-0.478-0.768-0.63-1.696-0.423-2.577l11.662-49.853c0.428-1.836,2.263-2.98,4.101-2.546l46.531,10.883  c0.882,0.207,1.645,0.753,2.123,1.524c0.478,0.768,0.63,1.696,0.423,2.577l-11.662,49.853  C150.096,85.627,148.692,86.688,147.144,86.688z M104.709,69.845l39.885,9.329l10.105-43.204l-39.885-9.329L104.709,69.845z"
   id="path10" />
<rect
   x="42.327"
   y="16.943"
   transform="matrix(-0.9931 0.1174 -0.1174 -0.9931 147.2561 86.8071)"
   style="fill:#d7e5f0;fill-opacity:1"
   width="57.488"
   height="61.595"
   id="rect12" />
<path
   d="M46.135,85.117c-1.707,0-3.18-1.277-3.386-3.014l-7.229-61.167c-0.22-1.872,1.118-3.569,2.988-3.791l57.09-6.748  c0.903-0.106,1.802,0.15,2.514,0.71s1.171,1.381,1.277,2.28l7.229,61.169c0.106,0.898-0.148,1.804-0.71,2.514  c-0.56,0.712-1.381,1.171-2.278,1.277l-57.09,6.746C46.403,85.108,46.268,85.117,46.135,85.117z M42.699,23.525l6.429,54.388  l50.311-5.944l-6.429-54.39L42.699,23.525z"
   id="path14" />
<rect
   x="70.59"
   y="41.967"
   transform="matrix(-0.9723 0.2338 -0.2338 -0.9723 211.7695 118.3532)"
   style="fill:#f4f7fa;fill-opacity:1"
   width="56.56"
   height="59.523"
   id="rect16" />
<path
   d="M78.324,110.689c-1.541,0-2.941-1.05-3.316-2.615L61.092,50.203c-0.44-1.833,0.688-3.676,2.521-4.116L118.6,32.864  c0.884-0.21,1.809-0.063,2.58,0.406c0.771,0.473,1.324,1.234,1.536,2.113l13.916,57.873c0.212,0.881,0.065,1.809-0.408,2.58  c-0.473,0.773-1.232,1.324-2.113,1.536l-54.987,13.222C78.857,110.66,78.587,110.689,78.324,110.689z M68.526,51.925l12.32,51.236  l48.35-11.626L116.876,40.3L68.526,51.925z"
   id="path18" />
<polygon
   style="fill:#aebcc6;fill-opacity:1"
   points="182.612,197.973 18.772,197.973 25.598,64.853 175.785,64.853 "
   id="polygon20" />
<path
   d="M182.612,201.387H18.772c-0.935,0-1.83-0.384-2.475-1.062c-0.643-0.678-0.981-1.592-0.934-2.526l6.827-133.12  c0.094-1.814,1.592-3.238,3.41-3.238h150.187c1.818,0,3.316,1.423,3.41,3.238l6.827,133.12c0.048,0.935-0.29,1.848-0.934,2.526  C184.441,201.003,183.547,201.387,182.612,201.387z M22.364,194.56h156.655l-6.477-126.293H28.841L22.364,194.56z"
   id="path22" />
<circle
   style="fill:#44b773;fill-opacity:1"
   cx="126.292"
   cy="85.333"
   r="6.827"
   id="circle24" />
<path
   d="M126.292,95.573c-5.647,0-10.24-4.593-10.24-10.24s4.593-10.24,10.24-10.24c5.647,0,10.24,4.593,10.24,10.24  S131.939,95.573,126.292,95.573z M126.292,81.92c-1.882,0-3.413,1.531-3.413,3.413s1.531,3.413,3.413,3.413  c1.882,0,3.413-1.531,3.413-3.413S128.174,81.92,126.292,81.92z"
   id="path26" />
<circle
   style="fill:#44b773;fill-opacity:1"
   cx="75.092"
   cy="85.333"
   r="6.827"
   id="circle28" />
<path
   d="M75.092,95.573c-5.647,0-10.24-4.593-10.24-10.24s4.593-10.24,10.24-10.24s10.24,4.593,10.24,10.24  S80.739,95.573,75.092,95.573z M75.092,81.92c-1.882,0-3.413,1.531-3.413,3.413s1.531,3.413,3.413,3.413  c1.882,0,3.413-1.531,3.413-3.413S76.974,81.92,75.092,81.92z"
   id="path30" />
<path
   d="M100.692,136.533c-15.998,0-29.013-13.015-29.013-29.013V88.747c0-1.884,1.529-3.413,3.413-3.413  c1.884,0,3.413,1.529,3.413,3.413v18.773c0,12.233,9.953,22.187,22.187,22.187s22.187-9.953,22.187-22.187V90.063  c-0.171-0.404-0.263-0.85-0.263-1.316c0-1.884,1.529-3.413,3.413-3.413h0.263c1.884,0,3.413,1.529,3.413,3.413v18.773  C129.705,123.518,116.69,136.533,100.692,136.533z"
   id="path32" />
<g
   id="g34">
</g>
<g
   id="g36">
</g>
<g
   id="g38">
</g>
<g
   id="g40">
</g>
<g
   id="g42">
</g>
<g
   id="g44">
</g>
<g
   id="g46">
</g>
<g
   id="g48">
</g>
<g
   id="g50">
</g>
<g
   id="g52">
</g>
<g
   id="g54">
</g>
<g
   id="g56">
</g>
<g
   id="g58">
</g>
<g
   id="g60">
</g>
<g
   id="g62">
</g>
</svg>