<?xml version="1.0" encoding="UTF-8" standalone="no"?>
<!-- Generator: Adobe Illustrator 19.0.0, SVG Export Plug-In . SVG Version: 6.00 Build 0)  -->

<svg
   xmlns:dc="http://purl.org/dc/elements/1.1/"
   xmlns:cc="http://creativecommons.org/ns#"
   xmlns:rdf="http://www.w3.org/1999/02/22-rdf-syntax-ns#"
   xmlns:svg="http://www.w3.org/2000/svg"
   xmlns="http://www.w3.org/2000/svg"
   xmlns:sodipodi="http://sodipodi.sourceforge.net/DTD/sodipodi-0.dtd"
   xmlns:inkscape="http://www.inkscape.org/namespaces/inkscape"
   version="1.1"
   id="Capa_1"
   x="0px"
   y="0px"
   viewBox="0 0 512 512"
   style="enable-background:new 0 0 512 512;"
   xml:space="preserve"
   sodipodi:docname="shop.svg"
   inkscape:version="0.92.4 (5da689c313, 2019-01-14)"><metadata
   id="metadata67"><rdf:RDF><cc:Work
       rdf:about=""><dc:format>image/svg+xml</dc:format><dc:type
         rdf:resource="http://purl.org/dc/dcmitype/StillImage" /></cc:Work></rdf:RDF></metadata><defs
   id="defs65" /><sodipodi:namedview
   pagecolor="#ffffff"
   bordercolor="#666666"
   borderopacity="1"
   objecttolerance="10"
   gridtolerance="10"
   guidetolerance="10"
   inkscape:pageopacity="0"
   inkscape:pageshadow="2"
   inkscape:window-width="1920"
   inkscape:window-height="1013"
   id="namedview63"
   showgrid="false"
   inkscape:zoom="1.3037281"
   inkscape:cx="358.34314"
   inkscape:cy="237.92928"
   inkscape:window-x="-9"
   inkscape:window-y="-9"
   inkscape:window-maximized="1"
   inkscape:current-layer="Capa_1" />
<rect
   x="39.565"
   y="183.85"
   style="fill:#d7e5f0;fill-opacity:1"
   width="432.87"
   height="272.55"
   id="rect2" />
<path
   style="fill:#d7e5f0;fill-opacity:1"
   d="M39.565,248.479c9.376,3.507,19.477,5.517,30.06,5.517c23.712,0,46.104-9.903,62.125-26.508  c16.022,16.605,38.413,26.508,62.125,26.508s46.104-9.903,62.125-26.508c16.022,16.605,38.413,26.508,62.125,26.508  s46.104-9.903,62.125-26.508c16.022,16.605,38.413,26.508,62.125,26.508c10.584,0,20.684-2.01,30.06-5.517v-64.624H39.565V248.479z"
   id="path4" />
<path
   style="fill:#44b773;fill-opacity:1"
   d="M504.5,167.823c0,34.311-27.814,62.125-62.125,62.125c-24.839,0-46.273-14.577-56.214-35.643  c-2.423-5.135-9.398-5.135-11.821,0c-9.941,21.066-31.376,35.643-56.214,35.643s-46.273-14.577-56.214-35.643  c-2.423-5.135-9.398-5.135-11.821,0c-9.941,21.066-31.376,35.643-56.214,35.643s-46.273-14.577-56.214-35.643  c-2.423-5.135-9.398-5.135-11.821,0c-9.941,21.066-31.376,35.643-56.214,35.643c-34.311,0-62.125-27.814-62.125-62.125  l59.51-104.148c2.854-4.995,8.167-8.078,13.92-8.078h350.134c5.753,0,11.065,3.083,13.92,8.078L504.5,167.823z"
   id="path6" />
<path
   style="fill:#8acf8f;fill-opacity:1"
   d="M431.067,55.597H80.933c-5.753,0-11.065,3.083-13.92,8.078L7.5,167.823h497L444.987,63.675  C442.132,58.68,436.82,55.597,431.067,55.597z"
   id="path8" />
<g
   id="g14">
	<rect
   x="336.16"
   y="264.02"
   style="fill:#FFFFFF;"
   width="96.19"
   height="192.39"
   id="rect10" />
	<rect
   x="79.64"
   y="264.02"
   style="fill:#FFFFFF;"
   width="216.44"
   height="152.31"
   id="rect12" />
</g>
<g
   id="g26"
   style="fill:#d7e5f0;fill-opacity:1">
	<polygon
   style="fill:#d7e5f0;fill-opacity:1"
   points="193.247,288.065 103.694,288.065 103.694,377.617  "
   id="polygon16" />
	<polygon
   style="fill:#d7e5f0;fill-opacity:1"
   points="117.309,392.273 143.774,392.273 247.984,288.065 221.519,288.065  "
   id="polygon18" />
	<polygon
   style="fill:#d7e5f0;fill-opacity:1"
   points="272.032,312.112 191.871,392.273 272.032,392.273  "
   id="polygon20" />
	<polygon
   style="fill:#d7e5f0;fill-opacity:1"
   points="408.306,302.151 408.306,288.065 360.21,288.065 360.21,350.247  "
   id="polygon22" />
	<polygon
   style="fill:#d7e5f0;fill-opacity:1"
   points="360.21,384.258 360.21,392.273 408.306,392.273 408.306,336.161  "
   id="polygon24" />
</g>
<path
   d="M488.468,448.903h-8.532V226.401C499.202,214.004,512,192.387,512,167.823c0-1.305-0.341-2.588-0.988-3.721L451.499,59.954  c-4.18-7.313-12.009-11.857-20.432-11.857H80.933c-8.423,0-16.252,4.543-20.432,11.857L0.988,164.102  C0.341,165.234,0,166.518,0,167.823c0,24.564,12.798,46.181,32.064,58.578v222.503h-8.532c-4.142,0-7.5,3.358-7.5,7.5  s3.358,7.5,7.5,7.5h464.936c4.143,0,7.5-3.358,7.5-7.5S492.61,448.903,488.468,448.903z M15.517,175.323h24.044  c4.142,0,7.5-3.358,7.5-7.5s-3.358-7.5-7.5-7.5H20.424l53.101-92.927c1.516-2.652,4.354-4.299,7.408-4.299h350.134  c3.054,0,5.893,1.647,7.408,4.299l53.1,92.927h-19.141c-4.143,0-7.5,3.358-7.5,7.5s3.357,7.5,7.5,7.5h24.048  c-3.667,26.584-26.532,47.125-54.108,47.125c-27.575,0-50.429-20.543-54.097-47.125h52.096c4.143,0,7.5-3.358,7.5-7.5  s-3.357-7.5-7.5-7.5H71.631c-4.142,0-7.5,3.358-7.5,7.5s3.358,7.5,7.5,7.5h52.091c-3.668,26.582-26.523,47.125-54.097,47.125  C42.049,222.448,19.184,201.906,15.517,175.323z M372.222,175.323c-3.668,26.582-26.523,47.125-54.097,47.125  c-27.575,0-50.429-20.543-54.097-47.125H372.222z M247.972,175.323c-3.668,26.582-26.523,47.125-54.097,47.125  s-50.429-20.543-54.097-47.125H247.972z M47.064,233.674c7.081,2.433,14.665,3.773,22.561,3.773  c27.095,0,50.624-15.556,62.125-38.207c11.501,22.65,35.03,38.207,62.125,38.207s50.624-15.556,62.125-38.207  c11.501,22.65,35.03,38.207,62.125,38.207s50.624-15.556,62.125-38.207c11.501,22.65,35.03,38.207,62.125,38.207  c7.896,0,15.48-1.34,22.561-3.772v215.228h-25.081V264.016c0-4.142-3.357-7.5-7.5-7.5h-96.193c-4.143,0-7.5,3.358-7.5,7.5v184.887  H47.064V233.674z M424.854,408.823h-81.193V271.516h81.193V408.823z M343.661,423.823h81.193v25.081h-81.193V423.823z"
   id="path28" />
<path
   d="M296.081,256.516H79.645c-4.142,0-7.5,3.358-7.5,7.5v152.307c0,4.142,3.358,7.5,7.5,7.5h216.436c4.143,0,7.5-3.358,7.5-7.5  V264.016C303.581,259.874,300.224,256.516,296.081,256.516z M288.581,408.823H87.145V271.516h201.436V408.823z"
   id="path30" />
<g
   id="g32">
</g>
<g
   id="g34">
</g>
<g
   id="g36">
</g>
<g
   id="g38">
</g>
<g
   id="g40">
</g>
<g
   id="g42">
</g>
<g
   id="g44">
</g>
<g
   id="g46">
</g>
<g
   id="g48">
</g>
<g
   id="g50">
</g>
<g
   id="g52">
</g>
<g
   id="g54">
</g>
<g
   id="g56">
</g>
<g
   id="g58">
</g>
<g
   id="g60">
</g>
</svg>