<?xml version="1.0" encoding="UTF-8" standalone="no"?>
<svg
   xmlns:dc="http://purl.org/dc/elements/1.1/"
   xmlns:cc="http://creativecommons.org/ns#"
   xmlns:rdf="http://www.w3.org/1999/02/22-rdf-syntax-ns#"
   xmlns:svg="http://www.w3.org/2000/svg"
   xmlns="http://www.w3.org/2000/svg"
   xmlns:sodipodi="http://sodipodi.sourceforge.net/DTD/sodipodi-0.dtd"
   xmlns:inkscape="http://www.inkscape.org/namespaces/inkscape"
   id="Capa_1"
   enable-background="new 0 0 512 512"
   height="512"
   viewBox="0 0 512 512"
   width="512"
   version="1.1"
   sodipodi:docname="shopping-basket.svg"
   inkscape:version="0.92.4 (5da689c313, 2019-01-14)">
  <metadata
     id="metadata52">
    <rdf:RDF>
      <cc:Work
         rdf:about="">
        <dc:format>image/svg+xml</dc:format>
        <dc:type
           rdf:resource="http://purl.org/dc/dcmitype/StillImage" />
      </cc:Work>
    </rdf:RDF>
  </metadata>
  <defs
     id="defs50" />
  <sodipodi:namedview
     pagecolor="#ffffff"
     bordercolor="#666666"
     borderopacity="1"
     objecttolerance="10"
     gridtolerance="10"
     guidetolerance="10"
     inkscape:pageopacity="0"
     inkscape:pageshadow="2"
     inkscape:window-width="1920"
     inkscape:window-height="1013"
     id="namedview48"
     showgrid="false"
     inkscape:zoom="0.65186406"
     inkscape:cx="685.16025"
     inkscape:cy="146.92353"
     inkscape:window-x="-9"
     inkscape:window-y="-9"
     inkscape:window-maximized="1"
     inkscape:current-layer="Capa_1" />
  <g
     id="g4">
    <path
       style="fill:#596c76"
       inkscape:connector-curvature="0"
       id="path2"
       d="m 74.99,211.001 c -3.286,0 -6.595,-1.075 -9.361,-3.288 -6.469,-5.175 -7.518,-14.614 -2.342,-21.083 l 120,-150 c 5.175,-6.469 14.614,-7.519 21.083,-2.342 6.469,5.175 7.518,14.614 2.342,21.083 l -120,150 c -2.962,3.703 -7.321,5.63 -11.722,5.63 z" />
  </g>
  <g
     id="g8">
    <path
       style="fill:#465a61"
       inkscape:connector-curvature="0"
       id="path6"
       d="m 437.01,211.001 c -4.401,0 -8.76,-1.927 -11.723,-5.63 l -120,-150 c -5.175,-6.469 -4.126,-15.909 2.342,-21.083 6.47,-5.175 15.909,-4.125 21.083,2.342 l 120,150 c 5.175,6.469 4.126,15.909 -2.342,21.083 -2.765,2.213 -6.075,3.288 -9.36,3.288 z" />
  </g>
  <path
     d="M 407,481 H 105 c -6.697,0 -12.583,-4.439 -14.423,-10.879 l -60,-210 C 29.284,255.596 30.19,250.725 33.025,246.968 35.859,243.21 40.293,241 45,241 h 422 c 4.707,0 9.141,2.209 11.975,5.967 2.834,3.757 3.741,8.628 2.448,13.153 l -60,210 C 419.583,476.561 413.697,481 407,481 Z"
     id="path10"
     inkscape:connector-curvature="0"
     style="fill:#aebcc6;fill-opacity:1" />
  <path
     d="m 339.518,421.003 c -0.819,0 -1.649,-0.067 -2.484,-0.207 -8.172,-1.362 -13.692,-9.09 -12.33,-17.262 l 15,-90 c 1.362,-8.172 9.09,-13.696 17.262,-12.33 8.172,1.362 13.692,9.09 12.33,17.262 l -15,90 c -1.223,7.337 -7.578,12.537 -14.778,12.537 z"
     id="path18"
     inkscape:connector-curvature="0"
     style="fill:#ffffff;fill-opacity:1" />
  <path
     d="m 173.482,421.003 c -7.201,0 -13.555,-5.199 -14.778,-12.537 l -15,-90 c -1.362,-8.171 4.158,-15.9 12.33,-17.262 8.173,-1.361 15.9,4.158 17.262,12.33 l 15,90 c 1.362,8.171 -4.158,15.9 -12.33,17.262 -0.835,0.14 -1.665,0.207 -2.484,0.207 z"
     id="path22"
     inkscape:connector-curvature="0"
     style="fill:#ffffff;fill-opacity:1" />
  <g
     id="g32"
     style="fill:#42b573;fill-opacity:1">
    <g
       id="g30"
       style="fill:#42b573;fill-opacity:1">
      <path
         d="M 497,271 H 15 C 6.716,271 0,264.284 0,256 v -60 c 0,-8.284 6.716,-15 15,-15 h 482 c 8.284,0 15,6.716 15,15 v 60 c 0,8.285 -6.716,15 -15,15 z"
         id="path28"
         inkscape:connector-curvature="0"
         style="fill:#42b573;fill-opacity:1" />
    </g>
  </g>
  <path
     style="fill:#ffffff;fill-opacity:1"
     inkscape:connector-curvature="0"
     id="path34"
     d="m 256,421 c -8.284,0 -15,-6.716 -15,-15 v -90 c 0,-8.284 6.716,-15 15,-15 8.284,0 15,6.716 15,15 v 90 c 0,8.285 -6.716,15 -15,15 z" />
</svg>
