<?xml version="1.0" encoding="UTF-8" standalone="no"?>
<svg
   xmlns:dc="http://purl.org/dc/elements/1.1/"
   xmlns:cc="http://creativecommons.org/ns#"
   xmlns:rdf="http://www.w3.org/1999/02/22-rdf-syntax-ns#"
   xmlns:svg="http://www.w3.org/2000/svg"
   xmlns="http://www.w3.org/2000/svg"
   xmlns:sodipodi="http://sodipodi.sourceforge.net/DTD/sodipodi-0.dtd"
   xmlns:inkscape="http://www.inkscape.org/namespaces/inkscape"
   version="1.1"
   id="Layer_1"
   x="0px"
   y="0px"
   viewBox="0 0 125.625 66.5625"
   xml:space="preserve"
   width="134"
   height="71"
   sodipodi:docname="support.svg"
   inkscape:version="0.92.4 (5da689c313, 2019-01-14)"><metadata
   id="metadata47"><rdf:RDF><cc:Work
       rdf:about=""><dc:format>image/svg+xml</dc:format><dc:type
         rdf:resource="http://purl.org/dc/dcmitype/StillImage" /><dc:title></dc:title></cc:Work></rdf:RDF></metadata><defs
   id="defs45" /><sodipodi:namedview
   pagecolor="#ffffff"
   bordercolor="#666666"
   borderopacity="1"
   objecttolerance="10"
   gridtolerance="10"
   guidetolerance="10"
   inkscape:pageopacity="0"
   inkscape:pageshadow="2"
   inkscape:window-width="1920"
   inkscape:window-height="1013"
   id="namedview43"
   showgrid="false"
   inkscape:zoom="7.375"
   inkscape:cx="81.094715"
   inkscape:cy="47.395984"
   inkscape:window-x="-9"
   inkscape:window-y="-9"
   inkscape:window-maximized="1"
   inkscape:current-layer="Layer_1" /><g
   id="g40"
   transform="matrix(0.13850636,0,0,0.13850636,32.033898,0.20656779)"><path
     style="fill:#21babd"
     d="m 216,80 c 0,30.952 50.096,56 112,56 v -8 c 0,-48.6 -39.4,-88 -88,-88 -48.6,0 -88,39.4 -88,88 35.376,0 64,-21.472 64,-48 z"
     data-original="#21BABD"
     id="path2"
     inkscape:connector-curvature="0" /><path
     style="fill:#fceade"
     d="m 280,248 h -3.496 v 0 c -2.768,1.264 -5.616,2.392 -8.52,3.376 2.912,-0.984 5.752,-2.112 8.52,-3.376 12.2,-5.576 22.944,-13.784 31.376,-24 C 320.448,208.784 328,189.272 328,168 v 8 h 12 c 15.464,0 28,-12.536 28,-28 0,-15.464 -12.536,-28 -28,-28 h -12 v 8 8 c -61.904,0 -112,-25.048 -112,-56 0,26.528 -28.624,48 -64,48 v -8 h -12 c -15.464,0 -28,12.536 -28,28 0,15.464 12.536,28 28,28 h 12 v -8 c 0,35.56 21.136,66.12 51.496,80 2.768,1.264 5.616,2.392 8.52,3.376 -2.912,-0.984 -5.752,-2.112 -8.52,-3.376 v 0 H 200 l 40,80 z m -29.112,7.256 c 2.68,-0.336 5.336,-0.752 7.928,-1.328 -2.592,0.584 -5.248,0.992 -7.928,1.328 z m 8.664,-1.512 c 2.84,-0.656 5.64,-1.424 8.376,-2.344 -2.736,0.92 -5.536,1.688 -8.376,2.344 z M 212.08,251.4 c 2.728,0.92 5.528,1.688 8.376,2.344 -2.848,-0.656 -5.648,-1.424 -8.376,-2.344 z m 9.096,2.536 c 2.6,0.576 5.256,0.984 7.928,1.328 -2.672,-0.344 -5.328,-0.752 -7.928,-1.328 z M 240,256 c 3.2,0 6.352,-0.184 9.456,-0.52 -3.104,0.336 -6.256,0.52 -9.456,0.52 -3.2,0 -6.352,-0.184 -9.456,-0.52 3.104,0.336 6.256,0.52 9.456,0.52 z"
     data-original="#FCEADE"
     id="path4"
     inkscape:connector-curvature="0" /><path
     style="fill:#21babd"
     d="m 96,360 c 0,-17.672 14.328,-32 32,-32 h 80 32 L 200,248 H 168 C 106.144,248 56,298.144 56,360 v 112 h 40 z"
     data-original="#21BABD"
     id="path6"
     inkscape:connector-curvature="0" /><path
     style="fill:#47b452"
     d="m 352,328 h -80 -32 -32 -80 c -17.672,0 -32,14.328 -32,32 V 472 H 384 V 360 c 0,-17.672 -14.328,-32 -32,-32 z m -112,96 c -13.256,0 -24,-10.744 -24,-24 0,-13.256 10.744,-24 24,-24 13.256,0 24,10.744 24,24 0,13.256 -10.744,24 -24,24 z"
     data-original="#FF8A5B"
     class="active-path"
     data-old_color="#FF8A5B"
     id="path8"
     inkscape:connector-curvature="0" /><circle
     style="fill:#fceade"
     cx="240"
     cy="400"
     r="24"
     data-original="#FCEADE"
     id="circle10" /><path
     style="fill:#21babd"
     d="m 272,328 h 80 c 17.672,0 32,14.328 32,32 v 112 h 40 V 360 C 424,298.144 373.856,248 312,248 h -32 l -40,80 z"
     data-original="#21BABD"
     id="path12"
     inkscape:connector-curvature="0" /><g
     id="g38">
	<path
   style="fill:#2b2d42"
   d="m 208,168 c 4.416,0 8,3.592 8,8 h 16 c 0,-13.232 -10.768,-24 -24,-24 -13.232,0 -24,10.768 -24,24 h 16 c 0,-4.408 3.584,-8 8,-8 z"
   data-original="#2B2D42"
   class=""
   data-old_color="#2B2D42"
   id="path14"
   inkscape:connector-curvature="0" />
	<path
   style="fill:#2b2d42"
   d="m 272,168 c 4.416,0 8,3.592 8,8 h 16 c 0,-13.232 -10.768,-24 -24,-24 -13.232,0 -24,10.768 -24,24 h 16 c 0,-4.408 3.584,-8 8,-8 z"
   data-original="#2B2D42"
   class=""
   data-old_color="#2B2D42"
   id="path16"
   inkscape:connector-curvature="0" />
	<path
   style="fill:#2b2d42"
   d="m 240,368 c -17.648,0 -32,14.352 -32,32 0,17.648 14.352,32 32,32 17.648,0 32,-14.352 32,-32 0,-17.648 -14.352,-32 -32,-32 z m 0,48 c -8.824,0 -16,-7.176 -16,-16 0,-8.824 7.176,-16 16,-16 8.824,0 16,7.176 16,16 0,8.824 -7.176,16 -16,16 z"
   data-original="#2B2D42"
   class=""
   data-old_color="#2B2D42"
   id="path18"
   inkscape:connector-curvature="0" />
	<path
   style="fill:#2b2d42"
   d="M 432,360 C 432,293.832 378.168,240 312,240 h -8.712 c 2.848,-2.504 5.528,-5.176 8.064,-8 H 320 c 22.056,0 40,-17.944 40,-40 v -14.096 c 9.64,-6.464 16,-17.456 16,-29.904 0,-12.496 -6.408,-23.504 -16.096,-29.96 C 358.84,52.784 305.512,0 240,0 174.488,0 121.16,52.784 120.096,118.04 110.408,124.496 104,135.504 104,148 c 0,19.848 16.152,36 36,36 h 5.448 c 3.744,22.168 15.072,41.744 31.272,56 H 168 C 101.832,240 48,293.832 48,360 V 464 H 0 v 16 h 56 40 288 40 56 V 464 H 432 Z M 240,264 c 8.56,0 16.824,-1.232 24.728,-3.344 L 240,310.112 215.272,260.656 C 223.176,262.768 231.44,264 240,264 Z m 59.056,-8 -32,64 h -14.112 l 32,-64 z M 344,192 c 0,12.136 -9.088,22.088 -20.792,23.672 5.544,-9.64 9.432,-20.32 11.344,-31.672 H 340 c 1.368,0 2.672,-0.256 4,-0.408 z m -4,-24 h -4 v -40 h 4 c 11.032,0 20,8.976 20,20 0,11.024 -8.968,20 -20,20 z M 240,16 c 54.768,0 99.68,42.584 103.616,96.368 C 342.408,112.24 341.24,112 340,112 h -5.448 C 326.904,66.672 287.472,32 240,32 192.528,32 153.096,66.672 145.448,112 H 140 c -1.24,0 -2.408,0.24 -3.616,0.368 C 140.32,58.584 185.232,16 240,16 Z m 79.992,111.8 C 262.256,125.768 224,102.16 224,80 c 0,-4.416 -3.576,-8 -8,-8 -4.424,0 -8,3.584 -8,8 0,19.992 -20.672,36.56 -47.536,39.496 C 164.728,79.368 198.768,48 240,48 c 44.04,0 79.88,35.784 79.992,79.8 z M 140,168 c -11.032,0 -20,-8.976 -20,-20 0,-11.024 8.968,-20 20,-20 h 4 v 40 z m 20,0 v -32.448 c 24.984,-2.168 46.184,-14.216 56.768,-31.088 16.736,22.176 55.848,37.784 103.232,39.376 V 168 c 0,18.024 -6.064,34.608 -16.152,48 H 240 v 16 h 47.792 c -4.592,3.44 -9.544,6.4 -14.824,8.8 -20.992,9.536 -44.952,9.536 -65.952,0 C 179.336,228.208 160,200.352 160,168 Z m 67.056,152 h -14.112 l -32,-64 h 14.112 z M 64,360 c 0,-55.72 44.08,-101.208 99.176,-103.752 L 195.056,320 H 128 c -22.056,0 -40,17.944 -40,40 V 464 H 64 Z m 40,104 V 360 c 0,-13.232 10.768,-24 24,-24 h 80 32 32 80 c 13.232,0 24,10.768 24,24 v 104 z m 288,0 V 360 c 0,-22.056 -17.944,-40 -40,-40 h -67.056 l 31.88,-63.752 C 371.92,258.792 416,304.28 416,360 v 104 z"
   data-original="#2B2D42"
   class=""
   data-old_color="#2B2D42"
   id="path20"
   inkscape:connector-curvature="0" />
	<rect
   x="344"
   y="392"
   style="fill:#2b2d42"
   width="16"
   height="56"
   data-original="#2B2D42"
   class=""
   data-old_color="#2B2D42"
   id="rect22" />
	<rect
   x="344"
   y="360"
   style="fill:#2b2d42"
   width="16"
   height="16"
   data-original="#2B2D42"
   class=""
   data-old_color="#2B2D42"
   id="rect24" />
	<rect
   x="416"
   y="72"
   style="fill:#2b2d42"
   width="16"
   height="16"
   data-original="#2B2D42"
   class=""
   data-old_color="#2B2D42"
   id="rect26" />
	<rect
   x="416"
   y="104"
   style="fill:#2b2d42"
   width="16"
   height="16"
   data-original="#2B2D42"
   class=""
   data-old_color="#2B2D42"
   id="rect28" />
	<rect
   x="416"
   y="136"
   style="fill:#2b2d42"
   width="16"
   height="16"
   data-original="#2B2D42"
   class=""
   data-old_color="#2B2D42"
   id="rect30" />
	<rect
   x="48"
   y="168"
   style="fill:#2b2d42"
   width="16"
   height="16"
   data-original="#2B2D42"
   class=""
   data-old_color="#2B2D42"
   id="rect32" />
	<rect
   x="48"
   y="200"
   style="fill:#2b2d42"
   width="16"
   height="16"
   data-original="#2B2D42"
   class=""
   data-old_color="#2B2D42"
   id="rect34" />
	<rect
   x="48"
   y="232"
   style="fill:#2b2d42"
   width="16"
   height="16"
   data-original="#2B2D42"
   class=""
   data-old_color="#2B2D42"
   id="rect36" />
</g></g> </svg>