<?xml version="1.0" encoding="UTF-8" standalone="no"?>
<svg
   xmlns:dc="http://purl.org/dc/elements/1.1/"
   xmlns:cc="http://creativecommons.org/ns#"
   xmlns:rdf="http://www.w3.org/1999/02/22-rdf-syntax-ns#"
   xmlns:svg="http://www.w3.org/2000/svg"
   xmlns="http://www.w3.org/2000/svg"
   xmlns:sodipodi="http://sodipodi.sourceforge.net/DTD/sodipodi-0.dtd"
   xmlns:inkscape="http://www.inkscape.org/namespaces/inkscape"
   id="Layer_1"
   height="512"
   viewBox="0 0 512 512"
   width="512"
   data-name="Layer 1"
   version="1.1"
   sodipodi:docname="ticket.svg"
   inkscape:version="0.92.4 (5da689c313, 2019-01-14)">
  <metadata
     id="metadata17">
    <rdf:RDF>
      <cc:Work
         rdf:about="">
        <dc:format>image/svg+xml</dc:format>
        <dc:type
           rdf:resource="http://purl.org/dc/dcmitype/StillImage" />
      </cc:Work>
    </rdf:RDF>
  </metadata>
  <defs
     id="defs15" />
  <sodipodi:namedview
     pagecolor="#ffffff"
     bordercolor="#666666"
     borderopacity="1"
     objecttolerance="10"
     gridtolerance="10"
     guidetolerance="10"
     inkscape:pageopacity="0"
     inkscape:pageshadow="2"
     inkscape:window-width="1920"
     inkscape:window-height="1013"
     id="namedview13"
     showgrid="false"
     inkscape:zoom="1.3037281"
     inkscape:cx="277.58923"
     inkscape:cy="206.07396"
     inkscape:window-x="-9"
     inkscape:window-y="-9"
     inkscape:window-maximized="1"
     inkscape:current-layer="layer1" />
  <g
     inkscape:groupmode="layer"
     id="layer1"
     inkscape:label="Layer 1">
    <path
       style="fill:#d7e5f0;fill-opacity:1;stroke:#000000;stroke-width:1px;stroke-linecap:butt;stroke-linejoin:miter;stroke-opacity:1"
       d="m 18.408746,115.44493 c 3.096116,113.32012 -0.767031,243.40548 -0.767031,355.90242 0,0.76703 -0.343027,1.61504 0,2.3011 0.114342,0.22868 0.58624,-0.1808 0.767031,0 0.178192,0.17819 -0.0593,3.03847 0,3.06812 0.457369,0.22868 1.17248,-0.36158 1.534062,0 0.361582,0.36158 -0.228684,1.07669 0,1.53406 0.114342,0.22869 0.58624,-0.18079 0.767031,0 0.180791,0.18079 -0.180791,0.58624 0,0.76703 0.184572,0.18457 2.883553,-0.18457 3.068125,0 0.180791,0.18079 -0.228685,0.65269 0,0.76703 0.180368,0.0902 2.564244,0 3.068124,0 0.511354,0 1.534062,-0.51135 1.534062,0 0,0.51136 -2.045416,0 -1.534062,0 h 2.301093 c 0.511354,0 1.534062,-0.51135 1.534062,0 0,0.51136 -2.045416,0 -1.534062,0 h 2.301093 4.602187 c 0.255677,0 0.58624,0.1808 0.767031,0 0.180791,-0.18079 -0.228684,-0.65268 0,-0.76703 0.76307,-0.38153 2.149359,0.30347 2.301093,0 0.381535,-0.76307 -0.303468,-2.14936 0,-2.30109 4.650032,0.12218 24.704916,-33.68627 38.351555,-30.68124 h 0.767031 1.534062 c 0.255677,0 0.767031,-0.25568 0.767031,0 0,0.25567 -1.022708,0 -0.767031,0 h 2.301093 c 0.255677,0 0.767031,-0.25568 0.767031,0 0,0.25567 -1.022708,0 -0.767031,0 h 1.534062 c 0.511354,0 1.10859,-0.28365 1.534062,0 0.475693,0.31712 0.586241,0.99169 0.767032,1.53406 0.08085,0.24256 -0.228685,0.65269 0,0.76703 0.457369,0.22868 1.076693,-0.22868 1.534062,0 0.228684,0.11434 -0.180791,0.58624 0,0.76703 0.180791,0.18079 0.554295,-0.14182 0.767031,0 9.958738,4.03627 31.586915,32.56232 41.419675,32.21531 0.18079,0.18079 -0.18079,0.58624 0,0.76703 0.40426,0.40426 1.21694,0.29134 1.53407,0.76703 0.28364,0.42547 -0.22869,1.07669 0,1.53406 0.11434,0.22869 0.58624,-0.18079 0.76703,0 0.18079,0.18079 -0.18079,0.58624 0,0.76703 34.78584,8.929 29.21499,-36.24632 53.69217,-32.98233 0.34303,-0.11435 0.51136,-0.51136 0.76703,-0.76704 0.51136,-0.51135 0.93236,-1.13292 1.53407,-1.53406 0.42547,-0.28365 1.17248,0.36158 1.53406,0 0.18079,-0.18079 0,-0.51135 0,-0.76703 0.51135,0 1.07669,0.22869 1.53406,0 0.22868,-0.11434 -0.18079,-0.58624 0,-0.76703 0.18079,-0.18079 0.65269,0.22868 0.76703,0 0.22869,-0.45737 -0.36158,-1.17248 0,-1.53406 0.38352,-0.38352 1.91758,0.38351 2.30109,0 0.1808,-0.18079 -0.18079,-0.58624 0,-0.76703 0.1808,-0.18079 0.51136,0 0.76704,0 h 1.53406 3.06812 1.53406 c 0.25568,0 0.76704,-0.25568 0.76704,0 0,0.25567 -1.02271,0 -0.76704,0 14.74934,2.08106 15.66063,36.02263 44.48781,35.28343 0.22868,0.11434 -0.18079,0.58624 0,0.76703 0.18079,0.18079 0.58624,-0.18079 0.76703,0 0.18079,0.18079 -0.22869,0.65269 0,0.76703 0.45737,0.22868 1.17248,-0.36158 1.53406,0 0.36158,0.36158 -0.22868,1.07669 0,1.53406 0.0297,0.0593 2.88993,-0.17819 3.06812,0 0.1808,0.18079 -0.18079,0.58624 0,0.76703 0.38352,0.38352 1.91758,-0.38351 2.3011,0 0.36158,0.36158 0.51135,1.53406 0,1.53406 -0.51136,0 -0.51136,-1.53406 0,-1.53406 0.57171,0 0.36277,1.1298 0.76703,1.53406 0.18079,0.1808 -0.22869,-0.65268 0,-0.76703 0.12001,-0.06 3.62071,0 3.83515,0 h 0.76704 c 1.39286,-0.0536 0.20113,0.0168 0,0 4.96929,-2.95841 25.90643,-21.52956 46.78889,-34.5164 0,-4.34651 -0.51135,-0.25567 0.76703,-1.53406 0.18079,-0.18079 -0.18079,-0.58624 0,-0.76703 0.40426,-0.40426 1.27839,-1.27838 1.53407,-0.76703 0.25567,0.51135 -2.10578,0.76703 -1.53407,0.76703 0.80852,0 1.51671,-0.57093 2.3011,-0.76703 0.24804,-0.062 0.65269,0.22868 0.76703,0 1.02271,-2.04542 -1.53406,-1.53406 1.53406,-1.53406 h 0.76703 c 0.51135,0 1.53406,-0.51136 1.53406,0 0,0.51135 -2.04541,0 -1.53406,0 h 4.60219 c 0.76703,0 1.61504,-0.34303 2.30109,0 0.22868,0.11434 -0.18079,0.58624 0,0.76703 0.18079,0.18079 0.51135,0 0.76703,0 0.51136,0 1.07669,-0.22869 1.53406,0 0.22869,0.11434 -0.18079,0.58624 0,0.76703 0.18079,0.18079 0.58624,-0.18079 0.76703,0 0.38352,0.38352 -0.38351,1.91758 0,2.30109 0.36159,0.36159 1.0767,-0.22868 1.53407,0 0.30347,0.15174 -0.38154,1.53803 0,2.3011 1.1697,-0.003 0.50681,0.0421 0,0 15.55051,2.81873 25.88888,24.82425 38.35155,26.07905 0.22869,0.11435 -0.18079,0.58624 0,0.76703 0.18079,0.1808 0.65269,-0.22868 0.76703,0 0.89487,1.78974 -0.95879,1.53407 0.76703,1.53407 0.21445,0 3.71515,-0.06 3.83516,0 0.22868,0.11434 -0.18079,0.58624 0,0.76703 0.38351,0.38351 1.91758,-0.38352 2.30109,0 0.36158,0.36158 -0.22868,1.07669 0,1.53406 0.11434,0.22868 0.51136,0 0.76703,0 0.76703,0 1.61504,0.34303 2.3011,0 0.22868,-0.11434 0,-0.51135 0,-0.76703 0,-0.76703 0.34302,-1.61504 0,-2.30109 -0.11435,-0.22869 -0.58624,0.18079 -0.76703,0 -0.1808,-0.1808 0,-0.51136 0,-0.76704 V 465.2111 c 4.43777,-79.81062 -0.76704,-139.33575 -0.76704,-228.57526 v -6.90328 c 0,-0.49449 -0.10987,-2.90332 0,-3.06812 0.40114,-0.60171 1.13293,-0.93236 1.53407,-1.53407 0.14182,-0.21273 0,-0.51135 0,-0.76703 0,-0.51135 -0.22869,-1.07669 0,-1.53406 0.11434,-0.22868 0.58624,0.18079 0.76703,0 0.18079,-0.18079 0,-0.51135 0,-0.76703 v -0.76703 -7.67031 c -3.73028,-57.91898 -21.66434,-108.16161 -68.26577,-105.08326 -0.22868,-0.45737 0.42547,-1.25041 0,-1.53406 -0.63821,-0.42548 -1.54896,0.15042 -2.30109,0 -0.56061,-0.11212 -0.99169,-0.58624 -1.53406,-0.76703 -0.24256,-0.0809 -0.76704,0 -0.76704,0 L 282.611,106 c -89.09946,4.29831 -226.689701,7.14384 -259.600067,10.21196 h -0.767032 c -0.966657,0 -4.042415,0.062 -3.835155,-0.76703 0.255677,-1.02271 2.045416,0.51135 0,0 z"
       id="path845"
       inkscape:connector-curvature="0"
       sodipodi:nodetypes="cccccscscccsssssscsccccccsssssssccsssccsccsccccsccscsccsccssccsscsccscssccsccccscscsssssscsscssscccccsscsccssscssccscsscssccccccsccscc" />
  </g>
  <g
     inkscape:groupmode="layer"
     id="layer3"
     inkscape:label="Layer 3">
    <path
       style="fill:#44b773;fill-opacity:1;stroke:#000000;stroke-width:1px;stroke-linecap:butt;stroke-linejoin:miter;stroke-opacity:1"
       d="m 490.13286,126.18336 c 3.88862,24.594 -8.68159,37.28501 -10.73843,43.72078 -0.67021,2.01063 -1.05373,-0.48034 -2.30109,0.76703 -68.7835,98.4177 -170.60151,57.34187 -193.29184,-36.8175 v -1.53406 -7.67031 -12.2725 -0.76703 c 0,-0.25567 -0.18079,-0.58624 0,-0.76703 0.18079,-0.18079 0.65269,0.22869 0.76703,0 0.22869,-0.45737 -0.36158,-1.17248 0,-1.53406 0.36158,-0.36158 1.0767,0.22868 1.53406,0 0.22869,-0.11434 0,-0.51135 0,-0.76703 v -1.53406 c 0,-2.46904 -0.18079,1.3094 0.76704,-1.53407 0.0873,-0.26196 -0.10268,-3.73248 0,-3.83515 0.36158,-0.36158 1.07669,0.22868 1.53406,0 0.22868,-0.11434 0,-0.51135 0,-0.76703 V 99.337276 C 324.11838,-10.43371 490.13286,9.148356 490.13286,126.18336 Z"
       id="path842"
       inkscape:connector-curvature="0"
       sodipodi:nodetypes="cccccccsscscsscccscc" />
  </g>
  <g
     inkscape:groupmode="layer"
     id="layer2"
     inkscape:label="Layer 2">
    <path
       style=""
       d="m99.661 198h99.692a6 6 0 0 0 0-12h-99.692a6 6 0 0 0 0 12z"
       id="path2" />
    <path
       style=""
       d="m293.937 252h-194.276a6 6 0 0 0 0 12h194.276a6 6 0 0 0 0-12z"
       id="path4" />
    <path
       style=""
       d="m293.937 318h-194.276a6 6 0 0 0 0 12h194.276a6 6 0 0 0 0-12z"
       id="path6" />
    <path
       style=""
       d="m388.658 18.868a108.01 108.01 0 0 0 -106.047 87.132h-261.411c-3.313 0-6.2 2.3-6.2 5.612v364.515a11.742 11.742 0 0 0 7 10.558 12.963 12.963 0 0 0 13.714-1.7l42.44-35.385a.892.892 0 0 1 1.055-.063l50.864 41.05a12.889 12.889 0 0 0 16.025-.1l50.146-40.916a.872.872 0 0 1 1.038-.056l50.286 41.029a12.828 12.828 0 0 0 7.978 2.785 13.022 13.022 0 0 0 8.044-2.8l50.718-40.941a.872.872 0 0 1 1.038-.052l42.493 35.445a12.536 12.536 0 0 0 13.464 1.7 11.46 11.46 0 0 0 6.7-10.558v-241.659c4 .32 7 .49 10.46.49 59.629 0 108.24-48.414 108.24-108.043a108.1 108.1 0 0 0 -108.045-108.043zm-22.658 456.955c0 .091-.4.169-.672-.058l-42.468-35.506a12.792 12.792 0 0 0 -16.07-.064l-50.69 40.94a.856.856 0 0 1 -1.025.054l-50.282-41.029a12.869 12.869 0 0 0 -16.067.057l-50.141 40.915a.878.878 0 0 1 -1.04.058l-50.856-41.05a12.861 12.861 0 0 0 -16.123.18l-42.593 35.445c-.276.228-.973.15-.973.058v-357.823h253.914c-.257 3-.593 5.908-.593 9.008a107.919 107.919 0 0 0 85.679 105.637zm22.658-252.869a96.14 96.14 0 1 1 96.141-96.14 96.248 96.248 0 0 1 -96.141 96.14z"
       id="path8" />
    <path
       style=""
       d="m388.658 83.292a20.475 20.475 0 0 1 20.452 20.452 6 6 0 1 0 12 0 32.5 32.5 0 0 0 -26.11-31.825v-7.919a6 6 0 0 0 -12 0v7.8a32.448 32.448 0 0 0 5.658 64.4 20.452 20.452 0 1 1 -20.451 20.451 6 6 0 0 0 -12 0 32.511 32.511 0 0 0 22.793 30.98v11.369a6 6 0 0 0 12 0v-10a32.447 32.447 0 0 0 -2.342-64.809 20.452 20.452 0 0 1 0-40.9z"
       id="path10" />
  </g>
</svg>
