<svg width="102" height="60" viewBox="0 0 102 60" xmlns="http://www.w3.org/2000/svg" xmlns:xlink="http://www.w3.org/1999/xlink"><title>Page 1</title><defs><path d="M.088 17.966c3.167 4.37 8.304 7.222 14.113 7.247a17.56 17.56 0 0 0 4.14-.474V.246H.088v17.72z" id="a"/><path d="M.088 17.966c3.167 4.37 8.304 7.222 14.113 7.247a17.56 17.56 0 0 0 4.14-.474V.246H.088v17.72z" id="c"/><path d="M.122 17.966c3.167 4.37 8.304 7.222 14.113 7.247a17.56 17.56 0 0 0 4.14-.474V.246H.122v17.72z" id="e"/><path d="M.122 17.966c3.167 4.37 8.304 7.222 14.113 7.247a17.56 17.56 0 0 0 4.14-.474V.246H.122v17.72z" id="g"/></defs><g fill="none" fill-rule="evenodd"><path d="M55.919 19.626a5.112 5.112 0 0 0-10.224 0l-2.276 15.692h14.776l-2.276-15.692z" fill="#AEBCC6"/><path d="M55.919 19.626a5.112 5.112 0 0 0-10.224 0l-2.276 15.692h14.776l-2.276-15.692z" stroke="#211F1F" stroke-width="1.5" stroke-linejoin="round"/><path d="M58.318 36.671a7.512 7.512 0 1 1-15.023.001 7.512 7.512 0 0 1 15.023 0" fill="#D7E5F0"/><path d="M58.318 36.671a7.512 7.512 0 1 1-15.023.001 7.512 7.512 0 0 1 15.023 0z" stroke="#211F1F" stroke-width="1.5"/><path d="M54.586 36.671a3.78 3.78 0 1 1-7.558 0 3.78 3.78 0 0 1 7.558 0" fill="#AEBCC6"/><path d="M54.586 36.671a3.78 3.78 0 1 1-7.558 0 3.78 3.78 0 0 1 7.558 0z" stroke="#211F1F" stroke-width="1.5" stroke-linejoin="round"/><path d="M43.766 12.804l-.009-.004c.094-.552.156-1.115.16-1.693C43.94 5.437 39.363.822 33.694.797a10.242 10.242 0 0 0-8.023 3.814l-.003-.001-.468.626c-.012.018-.027.035-.04.053l-5.177 6.924 3.82 1.739c1.243 4.245 5.152 7.356 9.802 7.376a10.227 10.227 0 0 0 4.326-.945l4.096 1.864 1.67-9.068.002-.018.066-.357z" fill="#AEBCC6"/><path d="M43.766 12.804l-.009-.004c.094-.552.156-1.115.16-1.693C43.94 5.437 39.363.822 33.694.797a10.242 10.242 0 0 0-8.023 3.814l-.003-.001-.468.626c-.012.018-.027.035-.04.053l-5.177 6.924 3.82 1.739c1.243 4.245 5.152 7.356 9.802 7.376a10.227 10.227 0 0 0 4.326-.945l4.096 1.864 1.67-9.068.002-.018.066-.357z" stroke="#211F1F" stroke-width="1.5" stroke-linejoin="round"/><path d="M44.481 28.1a17.6 17.6 0 0 0 .218-2.684c.04-9.671-7.765-17.545-17.436-17.587a17.458 17.458 0 0 0-12.903 5.594v-.001l-.01.01c-.346.374-.676.765-.99 1.169L4.336 25.24l5.473 2.225c1.046 8.637 8.377 15.348 17.302 15.386a17.437 17.437 0 0 0 11.049-3.867l5.27 2.142L44.482 28.1z" fill="#AEBCC6"/><path d="M44.481 28.1a17.6 17.6 0 0 0 .218-2.684c.04-9.671-7.765-17.545-17.436-17.587a17.458 17.458 0 0 0-12.903 5.594v-.001l-.01.01c-.346.374-.676.765-.99 1.169L4.336 25.24l5.473 2.225c1.046 8.637 8.377 15.348 17.302 15.386a17.437 17.437 0 0 0 11.049-3.867l5.27 2.142L44.482 28.1z" stroke="#211F1F" stroke-width="1.5" stroke-linejoin="round"/><path d="M43.804 37.229c-.051 11.889-9.73 21.485-21.62 21.434C10.297 58.612.7 48.933.752 37.043.8 25.156 10.48 15.56 22.37 15.61c11.889.05 21.485 9.73 21.434 21.619" fill="#D7E5F0"/><path d="M43.804 37.229c-.051 11.889-9.73 21.485-21.62 21.434C10.297 58.612.7 48.933.752 37.043.8 25.156 10.48 15.56 22.37 15.61c11.889.05 21.485 9.73 21.434 21.619z" stroke="#211F1F" stroke-width="1.5"/><path d="M39.788 37.211c-.042 9.671-7.915 17.478-17.587 17.436-9.67-.04-17.477-7.915-17.436-17.587.042-9.67 7.916-17.477 17.587-17.436 9.671.042 17.478 7.916 17.436 17.587" fill="#FFF"/><path d="M39.788 37.211c-.042 9.671-7.915 17.478-17.587 17.436-9.67-.04-17.477-7.915-17.436-17.587.042-9.67 7.916-17.477 17.587-17.436 9.671.042 17.478 7.916 17.436 17.587z" stroke="#211F1F" stroke-width="1.5" stroke-linecap="round" stroke-linejoin="round"/><path d="M57.926 12.713l.01-.004a10.28 10.28 0 0 1-.152-1.694C57.784 5.345 62.38.75 68.05.75c3.24 0 6.124 1.504 8.006 3.848h.003l.465.626c.013.02.027.036.04.054l5.147 6.947-3.826 1.722c-1.262 4.24-5.185 7.333-9.835 7.333-1.546 0-3.006-.35-4.32-.963l-4.106 1.847-1.63-9.076-.003-.018-.064-.357z" fill="#AEBCC6"/><path d="M57.926 12.713l.01-.004a10.28 10.28 0 0 1-.152-1.694C57.784 5.345 62.38.75 68.05.75c3.24 0 6.124 1.504 8.006 3.848h.003l.465.626c.013.02.027.036.04.054l5.147 6.947-3.826 1.722c-1.262 4.24-5.185 7.333-9.835 7.333-1.546 0-3.006-.35-4.32-.963l-4.106 1.847-1.63-9.076-.003-.018-.064-.357z" stroke="#211F1F" stroke-width="1.5" stroke-linejoin="round"/><path d="M57.145 28.007a17.626 17.626 0 0 1-.205-2.686c0-9.67 7.84-17.512 17.511-17.512 5.094 0 9.678 2.177 12.878 5.65h.001l.008.01c.346.374.674.767.986 1.172l8.98 10.68-5.484 2.2c-1.083 8.632-8.443 15.311-17.369 15.311-4.182 0-8.02-1.468-11.03-3.914l-5.28 2.12-.996-13.03z" fill="#AEBCC6"/><path d="M57.145 28.007a17.626 17.626 0 0 1-.205-2.686c0-9.67 7.84-17.512 17.511-17.512 5.094 0 9.678 2.177 12.878 5.65h.001l.008.01c.346.374.674.767.986 1.172l8.98 10.68-5.484 2.2c-1.083 8.632-8.443 15.311-17.369 15.311-4.182 0-8.02-1.468-11.03-3.914l-5.28 2.12-.996-13.03z" stroke="#211F1F" stroke-width="1.5" stroke-linejoin="round"/><path d="M57.784 37.138c0 11.889 9.638 21.527 21.527 21.527 11.889 0 21.527-9.638 21.527-21.527 0-11.89-9.638-21.527-21.527-21.527-11.89 0-21.527 9.638-21.527 21.527" fill="#D7E5F0"/><path d="M57.784 37.138c0 11.889 9.638 21.527 21.527 21.527 11.889 0 21.527-9.638 21.527-21.527 0-11.89-9.638-21.527-21.527-21.527-11.89 0-21.527 9.638-21.527 21.527z" stroke="#211F1F" stroke-width="1.5"/><path d="M61.8 37.138c0 9.67 7.84 17.512 17.511 17.512s17.511-7.841 17.511-17.512-7.84-17.512-17.51-17.512c-9.673 0-17.513 7.84-17.513 17.512" fill="#FFF"/><path d="M61.8 37.138c0 9.67 7.84 17.512 17.511 17.512s17.511-7.841 17.511-17.512-7.84-17.512-17.51-17.512c-9.673 0-17.513 7.84-17.513 17.512z" stroke="#211F1F" stroke-width="1.5" stroke-linecap="round" stroke-linejoin="round"/><g><g transform="translate(8 29.435)"><mask id="b" fill="#fff"><use xlink:href="#a"/></mask><path d="M12.953 15.315h-1.93v-1.143c0-.608.315-1.174.838-1.483a5.19 5.19 0 0 0 2.555-4.472v-2.77a5.201 5.201 0 0 0-10.402 0v2.77a5.19 5.19 0 0 0 2.554 4.472c.523.309.84.875.84 1.483v1.143h-1.93a5.388 5.388 0 0 0-5.39 5.388v8.547h18.253v-8.547a5.388 5.388 0 0 0-5.388-5.388" fill="#42B573" mask="url(#b)"/></g><g transform="translate(8 29.435)"><mask id="d" fill="#fff"><use xlink:href="#c"/></mask><path d="M12.953 15.315h-1.93v-1.143c0-.608.315-1.174.838-1.483a5.19 5.19 0 0 0 2.555-4.472v-2.77a5.201 5.201 0 0 0-10.402 0v2.77a5.19 5.19 0 0 0 2.554 4.472c.523.309.84.875.84 1.483v1.143h-1.93a5.388 5.388 0 0 0-5.39 5.388v8.547h18.253v-8.547a5.388 5.388 0 0 0-5.388-5.388z" stroke="#211F1F" stroke-width="1.5" stroke-linecap="round" stroke-linejoin="round" mask="url(#d)"/></g></g><path d="M39.788 37.211c-.042 9.671-7.915 17.478-17.587 17.436-9.67-.04-17.477-7.915-17.436-17.587.042-9.67 7.916-17.477 17.587-17.436 9.671.042 17.478 7.916 17.436 17.587z" stroke="#211F1F" stroke-width="1.5" stroke-linecap="round"/><g><g transform="translate(65 29.435)"><mask id="f" fill="#fff"><use xlink:href="#e"/></mask><path d="M12.987 15.315h-1.93v-1.143c0-.608.315-1.174.838-1.483a5.19 5.19 0 0 0 2.555-4.472v-2.77a5.201 5.201 0 0 0-10.402 0v2.77a5.19 5.19 0 0 0 2.554 4.472c.523.309.84.875.84 1.483v1.143h-1.93a5.388 5.388 0 0 0-5.39 5.388v8.547h18.253v-8.547a5.388 5.388 0 0 0-5.388-5.388" fill="#42B573" mask="url(#f)"/></g><g transform="translate(65 29.435)"><mask id="h" fill="#fff"><use xlink:href="#g"/></mask><path d="M12.987 15.315h-1.93v-1.143c0-.608.315-1.174.838-1.483a5.19 5.19 0 0 0 2.555-4.472v-2.77a5.201 5.201 0 0 0-10.402 0v2.77a5.19 5.19 0 0 0 2.554 4.472c.523.309.84.875.84 1.483v1.143h-1.93a5.388 5.388 0 0 0-5.39 5.388v8.547h18.253v-8.547a5.388 5.388 0 0 0-5.388-5.388z" stroke="#211F1F" stroke-width="1.5" stroke-linecap="round" stroke-linejoin="round" mask="url(#h)"/></g></g><path d="M96.822 37.211c-.042 9.671-7.915 17.478-17.587 17.436-9.67-.04-17.477-7.915-17.436-17.587.042-9.67 7.916-17.477 17.587-17.436 9.671.042 17.478 7.916 17.436 17.587z" stroke="#211F1F" stroke-width="1.5" stroke-linecap="round"/></g></svg>