<?xml version="1.0" encoding="UTF-8" standalone="no"?>
<!-- Generator: Adobe Illustrator 19.0.0, SVG Export Plug-In . SVG Version: 6.00 Build 0)  -->

<svg
   xmlns:dc="http://purl.org/dc/elements/1.1/"
   xmlns:cc="http://creativecommons.org/ns#"
   xmlns:rdf="http://www.w3.org/1999/02/22-rdf-syntax-ns#"
   xmlns:svg="http://www.w3.org/2000/svg"
   xmlns="http://www.w3.org/2000/svg"
   xmlns:sodipodi="http://sodipodi.sourceforge.net/DTD/sodipodi-0.dtd"
   xmlns:inkscape="http://www.inkscape.org/namespaces/inkscape"
   version="1.1"
   id="Capa_1"
   x="0px"
   y="0px"
   viewBox="0 0 512 512"
   style="enable-background:new 0 0 512 512;"
   xml:space="preserve"
   sodipodi:docname="woman.svg"
   inkscape:version="0.92.4 (5da689c313, 2019-01-14)"><metadata
   id="metadata43"><rdf:RDF><cc:Work
       rdf:about=""><dc:format>image/svg+xml</dc:format><dc:type
         rdf:resource="http://purl.org/dc/dcmitype/StillImage" /></cc:Work></rdf:RDF></metadata><defs
   id="defs41">
	

		
	</defs><sodipodi:namedview
   pagecolor="#ffffff"
   bordercolor="#666666"
   borderopacity="1"
   objecttolerance="10"
   gridtolerance="10"
   guidetolerance="10"
   inkscape:pageopacity="0"
   inkscape:pageshadow="2"
   inkscape:window-width="1920"
   inkscape:window-height="1013"
   id="namedview39"
   showgrid="false"
   inkscape:zoom="0.65186406"
   inkscape:cx="132.40857"
   inkscape:cy="261.59199"
   inkscape:window-x="-9"
   inkscape:window-y="-9"
   inkscape:window-maximized="1"
   inkscape:current-layer="Capa_1" />

<g
   id="g8">
</g>
<g
   id="g10">
</g>
<g
   id="g12">
</g>
<g
   id="g14">
</g>
<g
   id="g16">
</g>
<g
   id="g18">
</g>
<g
   id="g20">
</g>
<g
   id="g22">
</g>
<g
   id="g24">
</g>
<g
   id="g26">
</g>
<g
   id="g28">
</g>
<g
   id="g30">
</g>
<g
   id="g32">
</g>
<g
   id="g34">
</g>
<g
   id="g36">
</g>
<g
   inkscape:groupmode="layer"
   id="layer1"
   inkscape:label="Layer 1"><path
     style="fill:#d7e5f0;stroke:#000000;stroke-width:1px;stroke-linecap:butt;stroke-linejoin:miter;stroke-opacity:1;fill-opacity:1"
     d="m 83.606388,492.05719 c 0,-2.30109 0,-4.60218 0,-6.90328 0,-0.25568 -0.180791,-0.58624 0,-0.76703 0.180791,-0.18079 0.58624,0.18079 0.767031,0 0.02467,-0.0247 0,-2.11507 0,-2.30109 0,-5.11354 0,-10.22708 0,-15.34062 0,-1.53407 0,-3.06813 0,-4.60219 0,-0.76703 -0.343026,-1.61504 0,-2.30109 0.114343,-0.22869 0.586241,0.18079 0.767031,0 0.180791,-0.18079 0,-0.51136 0,-0.76703 0,-0.25568 0,-0.51136 0,-0.76704 0,-2.81244 0,-5.62489 0,-8.43734 0,-5.36922 0,-10.73843 0,-16.10765 0,-4.60219 0,-9.20437 0,-13.80656 0,-0.18603 -0.02467,-2.27643 0,-2.30109 0.180791,-0.18079 0.586241,0.18079 0.767032,0 0.180791,-0.18079 0,-0.51136 0,-0.76703 0,-0.51136 -0.228685,-1.0767 0,-1.53407 0.114342,-0.22868 0.58624,0.18079 0.767031,0 0.383515,-0.38351 -0.383516,-1.91757 0,-2.30109 0.180791,-0.18079 0.58624,0.18079 0.767031,0 0.180791,-0.18079 0,-0.51135 0,-0.76703 0,-0.76703 0,-1.53406 0,-2.30109 0,-0.25568 -0.228685,-0.65269 0,-0.76704 0.457369,-0.22868 1.076693,0.22869 1.534062,0 0.31839,-0.15919 -0.267737,-2.03335 0,-2.30109 0.180791,-0.18079 0.58624,0.18079 0.767031,0 0.269243,-0.26924 -0.264907,-3.30534 0,-3.83515 0.161704,-0.32341 0.605327,-0.44363 0.767031,-0.76704 0.228685,-0.45736 -0.228684,-1.07669 0,-1.53406 0.161704,-0.32341 0.605327,-0.44362 0.767031,-0.76703 0.116717,-0.23343 0,-1.95565 0,-2.30109 0,-1.53406 0,-3.06813 0,-4.60219 0,-0.25568 0,-0.51135 0,-0.76703 0,-0.25568 -0.180791,-0.58624 0,-0.76703 0.180791,-0.18079 0.58624,0.18079 0.767031,0 0.361582,-0.36158 -0.361582,-1.17248 0,-1.53406 0.180791,-0.18079 0.58624,0.18079 0.767031,0 0.184572,-0.18457 -0.184571,-2.88356 0,-3.06813 1.587015,-1.58701 -0.06204,2.42517 1.534062,-0.76703 0.228685,-0.45737 -0.361581,-1.17248 0,-1.53406 0.180791,-0.18079 0.586241,0.18079 0.767032,0 0.180791,-0.18079 -0.114343,-0.53835 0,-0.76703 0.161704,-0.32341 0.605326,-0.44362 0.767031,-0.76703 0.15206,-0.30412 -0.156809,-2.14429 0,-2.3011 0.180791,-0.18079 0.58624,0.1808 0.767031,0 0.361582,-0.36158 -0.361582,-1.17248 0,-1.53406 0.180791,-0.18079 0.58624,0.18079 0.767031,0 0.269243,-0.26924 -0.264907,-3.30534 0,-3.83515 0.161704,-0.32341 0.605327,-0.44363 0.767031,-0.76703 0.228684,-0.45737 -0.361582,-1.17248 0,-1.53407 0.180791,-0.18079 0.58624,0.18079 0.767031,0 0.156809,-0.15681 -0.152061,-1.99697 0,-2.30109 0.161704,-0.32341 0.605327,-0.44362 0.767031,-0.76703 0.114342,-0.22869 -0.180791,-0.58624 0,-0.76703 0.180791,-0.18079 0.586239,0.18079 0.767029,0 0.38352,-0.38352 -0.38351,-1.91758 0,-2.3011 0.18079,-0.18079 0.51136,0 0.76703,0 0.25568,-0.51135 0.58624,-0.99168 0.76703,-1.53406 0.17587,-0.52759 -0.22628,-1.84853 0,-2.30109 0.16171,-0.32341 0.60533,-0.44362 0.76704,-0.76703 0.11434,-0.22869 -0.1808,-0.58624 0,-0.76703 0.18079,-0.18079 0.58624,0.18079 0.76703,0 0.38351,-0.38352 -0.38352,-1.91758 0,-2.3011 0.18079,-0.18079 0.52447,0.0809 0.76703,0 0.54237,-0.18079 1.1298,-0.36277 1.53406,-0.76703 0.36158,-0.36158 -0.36158,-1.17248 0,-1.53406 0.18079,-0.18079 0.58624,0.18079 0.76703,0 0.38352,-0.38351 -0.38351,-1.91758 0,-2.30109 0.38352,-0.38352 1.91758,0.38351 2.30109,0 0.1808,-0.18079 -0.18079,-0.58624 0,-0.76703 0.1808,-0.18079 0.58624,0.18079 0.76704,0 0.18079,-0.18079 -0.22869,-0.65269 0,-0.76703 0.45736,-0.22869 1.0227,0 1.53406,0 0.25567,0 0.58624,0.18079 0.76703,0 0.36158,-0.36159 -0.36158,-1.17248 0,-1.53407 0.18079,-0.18079 0.58624,0.18079 0.76703,0 0.18079,-0.18079 -0.18079,-0.58624 0,-0.76703 0.18079,-0.18079 0.58624,0.18079 0.76703,0 0.18079,-0.18079 -0.18079,-0.58624 0,-0.76703 0.18079,-0.18079 0.65269,0.22869 0.76703,0 0.22869,-0.45737 -0.22868,-1.07669 0,-1.53406 0.22869,-0.45737 1.17248,0.36158 1.53406,0 0.18079,-0.18079 -0.18079,-0.58624 0,-0.76703 0.18079,-0.18079 0.58624,0.18079 0.76703,0 0.1808,-0.18079 -0.18079,-0.58624 0,-0.76703 0.36159,-0.36159 1.17249,0.36158 1.53407,0 0.18079,-0.18079 -0.11435,-0.53835 0,-0.76703 0.32341,-0.64682 1.13292,-0.93236 1.53406,-1.53407 0.31713,-0.47569 0.36277,-1.1298 0.76703,-1.53406 0.18079,-0.18079 0.58624,0.18079 0.76703,0 0.18079,-0.18079 -0.18079,-0.58624 0,-0.76703 0.18457,-0.18457 2.88355,0.18457 3.06813,0 1.58701,-1.58701 -2.42517,0.062 0.76703,-1.53406 0.82109,-0.41055 1.6369,0.66419 3.06812,-0.76703 0.18079,-0.18079 -0.18079,-0.58624 0,-0.76703 0.18079,-0.1808 0.58624,0.18079 0.76703,0 1.58702,-1.58702 -2.42517,0.062 0.76703,-1.53407 0.22869,-0.11434 0.58624,0.18079 0.76703,0 0.36159,-0.36158 -0.36158,-1.17248 0,-1.53406 0.25285,-0.25284 2.51307,0.18502 3.06813,0 2.39415,-0.79805 -0.25568,-0.51135 0.76703,-1.53406 0.18079,-0.18079 0.51135,0 0.76703,0 0.25568,0 0.51136,0 0.76703,0 2.04542,0 -0.25567,0.25568 0.76703,-0.76703 0.20988,-0.20988 2.65202,0.20805 3.06813,0 0.32341,-0.16171 0.44362,-0.60533 0.76703,-0.76703 0.22868,-0.11435 0.53835,0.11434 0.76703,0 0.32341,-0.16171 0.44362,-0.60533 0.76703,-0.76703 0.22869,-0.11435 0.53835,0.11434 0.76703,0 0.32341,-0.16171 0.44362,-0.60533 0.76703,-0.76704 0.22869,-0.11434 0.53835,0.11435 0.76703,0 0.32341,-0.1617 0.44363,-0.60532 0.76704,-0.76703 0.22868,-0.11434 0.51135,0 0.76703,0 0.62781,0 4.37775,0.11222 4.60218,0 0.22869,-0.11434 -0.18079,-0.58624 0,-0.76703 0.38352,-0.38351 1.91758,0.38352 2.3011,0 0.18079,-0.18079 -0.18079,-0.58624 0,-0.76703 0.36158,-0.36158 1.17248,0.36158 1.53406,0 0.18079,-0.18079 -0.22869,-0.65269 0,-0.76703 0.18037,-0.0902 2.56424,0 3.06812,0 2.81245,0 5.6249,0 8.43734,0 2.04542,0 4.09084,0 6.13625,0 0.25568,0 0.58624,0.18079 0.76703,0 0.1808,-0.18079 -0.18079,-0.58624 0,-0.76703 0.1808,-0.18079 0.51136,0 0.76704,0 0.25567,0 0.51135,0 0.76703,0 2.04541,0 4.09083,0 6.13625,0 0.60373,0 3.77356,-0.0616 3.83515,0 0.18079,0.18079 -0.18079,0.58624 0,0.76703 0.18079,0.18079 0.53835,-0.11434 0.76703,0 3.1922,1.5961 -0.81998,-0.053 0.76703,1.53406 0.18079,0.18079 0.53835,-0.11434 0.76703,0 0.64682,0.32341 0.88725,1.21066 1.53407,1.53406 0.45736,0.22869 1.17248,-0.36158 1.53406,0 0.18079,0.1808 -0.0808,0.52448 0,0.76704 0.18079,0.54237 0.36277,1.1298 0.76703,1.53406 0.36158,0.36158 1.17248,-0.36158 1.53406,0 0.18079,0.18079 0,0.51135 0,0.76703 0,0.25568 0,0.51135 0,0.76703 0,0.25568 0,1.02271 0,0.76703 0,-0.51135 0,-2.04541 0,-1.53406 0,0.76703 -0.18603,1.55696 0,2.30109 0.18047,0.72187 2.01026,1.31594 2.30109,1.53406 0.57854,0.4339 1.02271,1.02271 1.53407,1.53407 0.25567,0.25567 0.43131,0.63274 0.76703,0.76703 0.97878,0.39151 2.19099,0.18227 3.06812,0.76703 0.76703,0.51135 0.88221,1.64924 1.53406,2.30109 0.40427,0.40426 1.05837,0.44991 1.53407,0.76703 0.30085,0.20057 0.41624,0.67934 0.76703,0.76703 0.74413,0.18604 1.53406,0 2.30109,0 0.25568,0 0.52448,-0.0808 0.76703,0 0.54237,0.1808 0.97942,0.62838 1.53406,0.76704 0.49609,0.12402 1.03264,-0.10029 1.53407,0 0.79282,0.15856 1.51671,0.57093 2.30109,0.76703 0.49609,0.12402 1.07669,-0.22869 1.53406,0 0.32341,0.1617 0.44362,0.60532 0.76703,0.76703 0.34131,0.17065 2.7173,-0.11695 3.06813,0 0.34302,0.11434 0.44362,0.60532 0.76703,0.76703 0.23343,0.11672 1.95565,0 2.30109,0 1.27839,0 2.55677,0 3.83516,0 0.25567,0 0.65269,-0.22869 0.76703,0 0.22868,0.45737 -0.22869,1.07669 0,1.53406 0.0633,0.12667 2.09702,0 2.30109,0 3.06813,0 6.13625,0 9.20437,0 4.85787,0 9.71573,0 14.57359,0 2.3011,0 4.60219,0 6.90328,0 0.25568,0 0.51136,0 0.76704,0 0.25567,0 0.58624,0.18079 0.76703,0 0.18079,-0.18079 -0.18079,-0.58624 0,-0.76703 0.18079,-0.18079 0.51135,0 0.76703,0 1.02271,0 2.04541,0 3.06812,0 6.39193,0 12.78385,0 19.17578,0 3.57948,0 7.15896,0 10.73843,0 1.02271,0 2.04542,0 3.06813,0 0.25568,0 0.51135,0 0.76703,0 0.25568,0 0.53835,0.11434 0.76703,0 0.32341,-0.1617 0.44362,-0.60533 0.76703,-0.76703 0.41611,-0.20805 2.85825,0.20988 3.06813,0 0.18079,-0.18079 -0.18079,-0.58624 0,-0.76703 0.38351,-0.38352 1.91757,0.38351 2.30109,0 0,-2.04542 -0.25568,0.25567 0.76703,-0.76703 0.18079,-0.18079 -0.18079,-0.58624 0,-0.76703 0.36158,-0.36159 1.17248,0.36158 1.53406,0 0.18079,-0.1808 -0.18079,-0.58624 0,-0.76704 0.18079,-0.18079 0.51136,0 0.76703,0 0.25568,0 0.51136,0 0.76704,0 0.25567,0 0.65268,0.22869 0.76703,0 0.22868,-0.45736 -0.16171,-1.04894 0,-1.53406 0.79805,-2.39415 0.51135,0.25568 1.53406,-0.76703 0.18079,-0.18079 -0.11434,-0.53835 0,-0.76703 0.1617,-0.32341 0.60533,-0.44362 0.76703,-0.76703 0.11434,-0.22869 -0.18079,-0.58624 0,-0.76703 0.18079,-0.18079 0.52447,0.0808 0.76703,0 0.54237,-0.18079 1.1298,-0.36277 1.53406,-0.76703 0.18079,-0.18079 -0.18079,-0.58624 0,-0.76703 0.18079,-0.1808 0.58624,0.18079 0.76703,0 0.18079,-0.1808 -0.18079,-0.58624 0,-0.76704 0.18079,-0.18079 0.58624,0.1808 0.76703,0 0.1808,-0.18079 -0.18079,-0.58624 0,-0.76703 0.1808,-0.18079 0.58625,0.18079 0.76704,0 0.18079,-0.18079 -0.18079,-0.58624 0,-0.76703 0.18079,-0.18079 0.58624,0.18079 0.76703,0 0,-2.04541 -0.25568,0.25568 0.76703,-0.76703 0.17819,-0.17819 -0.0593,-3.03847 0,-3.06812 0.45737,-0.22869 1.02271,0 1.53406,0 0.25568,0 0.58624,0.18079 0.76703,0 0.18079,-0.18079 -0.11434,-0.53835 0,-0.76703 1.5961,-3.1922 -0.053,0.81998 1.53406,-0.76704 0.36159,-0.36158 -0.36158,-1.17248 0,-1.53406 0.36159,-0.36158 1.30538,0.45737 1.53407,0 0,-4.34651 -0.51136,-0.25567 0.76703,-1.53406 0.18079,-0.18079 -0.18079,-0.58624 0,-0.76703 0.38351,-0.38352 1.91757,0.38352 2.30109,0 0.18079,-0.18079 -0.18079,-0.58624 0,-0.76703 0.18079,-0.18079 0.53835,0.11434 0.76703,0 0.32341,-0.16171 0.44362,-0.60533 0.76703,-0.76703 0.22869,-0.11434 0.58624,0.18079 0.76703,0 0.18079,-0.18079 -0.18079,-0.58624 0,-0.76703 0.18457,-0.18458 2.88356,0.18457 3.06813,0 0.18079,-0.18079 -0.18079,-0.58624 0,-0.76703 0.38351,-0.38352 1.91758,0.38351 2.30109,0 0.18079,-0.1808 -0.18079,-0.58624 0,-0.76704 0.38352,-0.38351 1.91758,0.38352 2.30109,0 0.1808,-0.18079 -0.18079,-0.58624 0,-0.76703 0.36159,-0.36158 1.17248,0.36158 1.53407,0 0.18079,-0.18079 -0.18079,-0.58624 0,-0.76703 0.18079,-0.18079 0.51135,0 0.76703,0 0.50388,0 2.88775,-0.0902 3.06812,0 0.22869,0.11434 -0.18079,0.58624 0,0.76703 0.36158,0.36158 1.17248,-0.36158 1.53406,0 0.18079,0.18079 -0.18079,0.58624 0,0.76703 0.18079,0.1808 0.58624,-0.18079 0.76704,0 0.18079,0.1808 -0.1808,0.58624 0,0.76704 0.25284,0.25284 2.51306,-0.18503 3.06812,0 0.34303,0.11434 0.44362,0.60532 0.76703,0.76703 0.41611,0.20805 2.85825,-0.20988 3.06812,0 0.1808,0.18079 -0.18079,0.58624 0,0.76703 0.36159,0.36158 1.17249,-0.36158 1.53407,0 0.18079,0.18079 -0.18079,0.58624 0,0.76703 0.18457,0.18457 2.88355,-0.18457 3.06812,0 0.18079,0.18079 -0.18079,0.58624 0,0.76703 0.36158,0.36158 1.17248,-0.36158 1.53406,0 0.40426,0.40426 0.36277,1.1298 0.76703,1.53406 0.0348,0.0348 3.47351,0 3.83516,0 1.7329,0 -0.34303,-0.11434 2.30109,0.76703 0.42289,0.14096 2.90414,-0.16399 3.06813,0 0.18079,0.18079 -0.18079,0.58624 0,0.76703 0.23515,0.23515 3.59811,-0.23704 3.83515,0 0,2.04542 -0.25567,-0.25567 0.76703,0.76703 0.1808,0.1808 -0.18079,0.58625 0,0.76704 0.1808,0.18079 0.58624,-0.18079 0.76704,0 0.18079,0.18079 -0.1808,0.58624 0,0.76703 0.2375,0.23751 3.59764,-0.23751 3.83515,0 0.25568,0.51135 0.51135,1.02271 0.76703,1.53406 0.25568,0 0.58624,-0.18079 0.76703,0 0.18079,0.18079 -0.18079,0.58624 0,0.76703 0.38352,0.38352 1.91758,-0.38352 2.3011,0 0.18079,0.18079 -0.18079,0.58624 0,0.76703 0.36158,0.36158 1.17248,-0.36158 1.53406,0 0.18079,0.18079 -0.18079,0.58624 0,0.76703 0.18079,0.18079 0.58624,-0.18079 0.76703,0 0.18079,0.18079 -0.18079,0.58624 0,0.76703 0.18079,0.18079 0.53835,-0.11434 0.76703,0 0.64682,0.32341 0.84801,1.30538 1.53406,1.53407 0.48512,0.1617 1.0767,-0.22869 1.53406,0 0.22869,0.11434 -0.18079,0.58624 0,0.76703 0.36159,0.36158 1.17249,-0.36159 1.53407,0 0.18079,0.18079 -0.18079,0.58624 0,0.76703 0.52106,0.52106 1.52544,-0.78428 2.30109,0.76703 0.11434,0.22868 -0.22868,0.65269 0,0.76703 0.45737,0.22868 1.04895,-0.1617 1.53406,0 2.84347,0.94782 -0.93497,0.76703 1.53406,0.76703 0.25568,0 0.65269,-0.22868 0.76704,0 0.22868,0.45737 -0.22869,1.07669 0,1.53406 0.11434,0.22869 0.53834,-0.11434 0.76703,0 0.32341,0.16171 0.44362,0.60533 0.76703,0.76703 0.30412,0.15207 2.14428,-0.1568 2.30109,0 0,2.04542 -0.25568,-0.25567 0.76703,0.76704 0.18079,0.18079 -0.18079,0.58624 0,0.76703 0.512,0.512 1.02206,-0.512 1.53406,0 0.36159,0.36158 -0.36158,1.17248 0,1.53406 0.1808,0.18079 0.65269,-0.22869 0.76704,0 0.22868,0.45737 0,1.02271 0,1.53406 0,0.25568 -0.1808,0.58624 0,0.76703 1.58701,1.58702 -0.062,-2.42517 1.53406,0.76703 0.22868,0.45737 -0.22869,1.0767 0,1.53407 2.54392,2.54392 -0.36158,-0.72317 0.76703,1.53406 0.1617,0.32341 0.65269,0.424 0.76703,0.76703 0.0637,0.19121 -0.079,3.75614 0,3.83515 0.18079,0.18079 0.58624,-0.18079 0.76703,0 0.18079,0.18079 0,0.51136 0,0.76704 0,1.27838 0,2.55677 0,3.83515 0,0.25568 -0.18079,0.58624 0,0.76703 0.18079,0.18079 0.58624,-0.18079 0.76703,0 0.18079,0.18079 -0.18079,0.58624 0,0.76703 0.18079,0.18079 0.65269,-0.22868 0.76703,0 0.68606,0.60508 -0.34302,1.61504 0,2.3011 0.16171,0.3234 0.60533,0.44362 0.76703,0.76703 0.11435,0.22868 -0.22868,0.65269 0,0.76703 0.45737,0.22868 1.0767,-0.22869 1.53407,0 0.22868,0.11434 0,0.51135 0,0.76703 0,0.36165 -0.0348,3.80039 0,3.83515 0.36158,0.36159 1.17248,-0.36158 1.53406,0 0.36158,0.36159 -0.36158,1.17248 0,1.53407 0.18079,0.18079 0.58624,-0.18079 0.76703,0 0.36158,0.36158 -0.22868,1.07669 0,1.53406 0.1617,0.32341 0.60533,0.44362 0.76703,0.76703 0.11434,0.22868 -0.18079,0.58624 0,0.76703 0.18079,0.18079 0.58624,-0.18079 0.76703,0 0.26774,0.26774 -0.31839,2.1419 0,2.30109 0.45737,0.22869 1.07669,-0.22868 1.53406,0 0.22869,0.11435 -0.062,0.51899 0,0.76704 0.1961,0.78438 0.57094,1.51671 0.76703,2.30109 0.062,0.24804 -0.0808,0.52447 0,0.76703 0.25264,0.75789 1.28144,2.31023 1.53407,3.06812 0.7611,2.28333 -1.81623,-1.57379 0.76703,2.3011 0.20057,0.30085 0.60532,0.44362 0.76703,0.76703 0.11409,0.22817 0,4.27952 0,4.60219 0,0.25567 -0.18079,0.58624 0,0.76703 0.18079,0.18079 0.58624,-0.18079 0.76703,0 0.38352,0.38351 -0.38352,1.91757 0,2.30109 0.40426,0.40426 1.1298,0.36277 1.53406,0.76703 0.18079,0.18079 0,0.51135 0,0.76703 0,1.27839 0,2.55677 0,3.83516 0,0.25567 -0.18079,0.58624 0,0.76703 0.18079,0.18079 0.68618,-0.24256 0.76703,0 0,7.15895 -0.76703,0.76703 0.76703,2.30109 0.36159,0.36158 -0.36158,1.17248 0,1.53406 0.1808,0.18079 0.58624,-0.18079 0.76704,0 0.18079,0.18079 -0.1808,0.58624 0,0.76703 1.58701,1.58702 -0.062,-2.42516 1.53406,0.76704 0.11434,0.22868 -0.18079,0.58624 0,0.76703 0.18079,0.18079 0.58624,-0.18079 0.76703,0 0.18079,0.18079 -0.0808,0.52447 0,0.76703 0.18079,0.54237 0.58624,0.99169 0.76703,1.53406 0.1617,0.48511 -0.22868,1.07669 0,1.53406 0.32341,0.64682 1.21065,0.88725 1.53406,1.53406 0.11434,0.22869 -0.18079,0.58624 0,0.76704 0.18079,0.18079 0.65269,-0.22869 0.76703,0 0.22869,0.45736 -0.12402,1.03797 0,1.53406 0.13866,0.55464 0.58624,0.99169 0.76703,1.53406 0.16171,0.48511 -0.36158,1.17248 0,1.53406 0.1808,0.18079 0.58624,-0.18079 0.76704,0 0.36158,0.36158 -0.22869,1.0767 0,1.53406 0.1617,0.32341 0.60532,0.44363 0.76703,0.76704 0.11434,0.22868 0,0.51135 0,0.76703 0.25567,0.25567 0.60532,0.44362 0.76703,0.76703 0.11671,0.23343 0,1.95565 0,2.30109 0,2.04542 0,4.09083 0,6.13625 0,0.51135 0,1.02271 0,1.53406 0,0.25568 -0.22869,0.65269 0,0.76703 0.45737,0.22869 1.07669,-0.22868 1.53406,0 0.22868,0.11434 0,0.51136 0,0.76703 0,1.02271 0,2.04542 0,3.06813 0,1.53406 0,3.06812 0,4.60218 0,0.25568 -0.18079,0.58624 0,0.76704 0.18079,0.18079 0.58624,-0.1808 0.76703,0 0.38352,0.38351 -0.38351,1.91757 0,2.30109 0.18079,0.18079 0.58624,-0.18079 0.76703,0 0.18079,0.18079 -0.11434,0.53835 0,0.76703 0.16171,0.32341 0.60533,0.44362 0.76703,0.76703 0.17066,0.34131 -0.11694,2.7173 0,3.06813 0.11435,0.34302 0.60533,0.44362 0.76703,0.76703 0.30682,0.61362 -0.30681,1.68746 0,2.30109 0.16171,0.32341 0.60533,0.44362 0.76704,0.76703 0.13869,0.27738 0,3.30166 0,3.83516 0,0.25567 -0.1808,0.58624 0,0.76703 0.18079,0.18079 0.58624,-0.18079 0.76703,0 0.18079,0.18079 0,0.51135 0,0.76703 0,0.54367 -0.0992,4.40387 0,4.60218 0.1617,0.32341 0.60532,0.44363 0.76703,0.76704 0.11434,0.22868 -0.0808,0.52447 0,0.76703 0.18079,0.54237 0.58624,0.99169 0.76703,1.53406 0.20579,0.61738 -0.24508,2.57797 0,3.06812 0.1617,0.32341 0.67933,0.41625 0.76703,0.76703 0.22783,0.91133 0,2.73398 0,3.83516 0,2.55677 0,5.11354 0,7.67031 0,1.53406 0,3.06813 0,4.60219 0,0.34544 0.11672,2.06766 0,2.30109 -0.61277,1.22553 -0.9213,0.30853 -1.53406,1.53406 -0.22869,0.45737 0.36158,1.17248 0,1.53407 -0.18079,0.18079 -0.58624,-0.1808 -0.76703,0 -0.18079,0.18079 0.18079,0.58624 0,0.76703 -0.18079,0.18079 -0.58624,-0.18079 -0.76703,0 -0.36159,0.36158 0.22868,1.07669 0,1.53406 -0.16171,0.32341 -0.60533,0.44362 -0.76704,0.76703 -0.11434,0.22868 0.1808,0.58624 0,0.76703 -0.36158,0.36158 -1.17248,-0.36158 -1.53406,0 -0.18079,0.18079 0,0.51135 0,0.76703 -0.25567,0 -0.58624,-0.18079 -0.76703,0 -0.18079,0.18079 0.22869,0.65269 0,0.76703 -0.45737,0.22869 -1.04895,-0.1617 -1.53406,0 -0.34303,0.11434 -0.44362,0.60533 -0.76703,0.76703 -0.22869,0.11435 -0.58624,-0.18079 -0.76703,0 -1.02271,1.02271 1.27838,0.76703 -0.76703,0.76703 -0.25568,0 -0.51136,0 -0.76704,0 -0.25567,0 -0.65268,-0.22868 -0.76703,0 -0.22868,0.45737 0.36159,1.17249 0,1.53407 -0.18457,0.18457 -2.88355,-0.18457 -3.06812,0 -0.18079,0.18079 0.18079,0.58624 0,0.76703 -0.38352,0.38351 -1.91758,-0.38352 -2.30109,0 -0.1808,0.18079 0.18079,0.58624 0,0.76703 -0.15681,0.15681 -1.99698,-0.15206 -2.3011,0 -0.32341,0.1617 -0.44362,0.60533 -0.76703,0.76703 -0.22868,0.11434 -0.58624,-0.18079 -0.76703,0 -0.18079,0.18079 0.18079,0.58624 0,0.76703 -0.18079,0.18079 -0.51135,0 -0.76703,0 -0.51135,0 -1.07669,-0.22868 -1.53406,0 -0.22869,0.11434 0.18079,0.58624 0,0.76703 -0.18079,0.18079 -0.51136,0 -0.76703,0 -1.53407,0 -3.06813,0 -4.60219,0 -0.25568,0 -0.65269,-0.22868 -0.76703,0 -0.22869,0.45737 0.22868,1.0767 0,1.53406 -0.22869,0.45737 -1.17248,-0.36158 -1.53406,0 -0.18079,0.1808 0.18079,0.58624 0,0.76704 -0.23751,0.2375 -3.59765,-0.23751 -3.83516,0 -0.18079,0.18079 0.18079,0.58624 0,0.76703 -0.18457,0.18457 -2.88355,-0.18457 -3.06812,0 -0.18079,0.18079 0.18079,0.58624 0,0.76703 -0.18079,0.18079 -0.51136,0 -0.76703,0 -0.25568,0 -0.51136,0 -0.76704,0 -2.04541,0 -4.09083,0 -6.13624,0 -0.50388,0 -2.88776,0.0902 -3.06813,0 -0.22868,-0.11434 0.18079,-0.58624 0,-0.76703 -0.26924,-0.26925 -3.30534,0.2649 -3.83515,0 -0.32341,-0.16171 -0.44363,-0.60533 -0.76704,-0.76703 -0.45736,-0.22869 -1.17248,0.36158 -1.53406,0 -0.18079,-0.1808 0.18079,-0.58624 0,-0.76704 -0.18079,-0.18079 -0.51135,0 -0.76703,0 -0.51135,0 -1.07669,0.22869 -1.53406,0 -0.22869,-0.11434 0.18079,-0.58624 0,-0.76703 -0.18079,-0.18079 -0.51135,0 -0.76703,0 -2.04542,0 -4.09083,0 -6.13625,0 -0.25568,0 -0.51135,0 -0.76703,0 -0.25568,0 -0.65269,0.22869 -0.76703,0 -0.22869,-0.45737 0.22868,-1.07669 0,-1.53406 -0.11434,-0.22868 -0.51136,0 -0.76703,0 -0.25568,0 -0.51136,0 -0.76703,0 -1.78974,0 -3.57948,0 -5.36922,0 -6.90328,0 -13.80656,0 -20.70984,0 -0.36166,0 -3.80039,-0.0348 -3.83516,0 -0.18079,0.18079 0.18079,0.58624 0,0.76703 -0.18079,0.18079 -0.51135,0 -0.76703,0 -0.51135,0 -1.02271,0 -1.53406,0 -3.57948,0 -7.15896,0 -10.73844,0 -5.11354,0 -10.22708,0 -15.34062,0 -0.18602,0 -2.27642,-0.0247 -2.30109,0 -0.18079,0.18079 0.18079,0.58624 0,0.76703 -0.0247,0.0247 -2.11507,0 -2.30109,0 -4.34651,0 -8.69302,0 -13.03953,0 -1.78974,0 -3.57948,0 -5.36922,0 -0.25568,0 -0.58624,0.18079 -0.76703,0 -0.18079,-0.18079 0.22868,-0.65269 0,-0.76703 -0.18037,-0.0902 -2.56425,0 -3.06813,0 -2.04541,0 -4.09083,0 -6.13624,0 -6.13625,0 -12.2725,0 -18.40875,0 -0.4011,0 -2.86644,-0.10084 -3.06812,0 -0.32341,0.16171 -0.44363,0.60533 -0.76704,0.76703 -0.42209,0.21105 -4.00252,-0.19988 -4.60218,0 -0.34303,0.11435 -0.44362,0.60533 -0.76703,0.76703 -0.23344,0.11672 -1.95566,0 -2.3011,0 -1.53406,0 -3.06812,0 -4.60218,0 -5.11354,0 -10.22708,0 -15.34062,0 -3.83516,0 -7.67032,0 -11.50547,0 -0.54367,0 -4.40387,-0.0992 -4.60219,0 -0.32341,0.16171 -0.44362,0.60533 -0.76703,0.76704 -0.23343,0.11671 -1.95565,0 -2.30109,0 -2.30109,0 -4.60219,0 -6.90328,0 -6.39193,0 -12.78385,0 -19.17578,0 -8.94869,0 -17.89739,0 -26.84609,0 -3.06812,0 -6.13625,0 -9.20437,0 -0.30322,0 -3.50757,0.16379 -3.83515,0 -0.32341,-0.16171 -0.44363,-0.60533 -0.76704,-0.76704 -0.22868,-0.11434 -0.51135,0 -0.76703,0 -0.51135,0 -1.04895,0.16171 -1.53406,0 -0.34303,-0.11434 -0.44362,-0.60532 -0.76703,-0.76703 -0.22868,-0.11434 -0.51135,0 -0.76703,0 -0.25568,0 -0.51136,0 -0.76703,0 -1.27839,0 -2.55677,0 -3.83516,0 -0.25567,0 -0.51135,0 -0.76703,0 -0.25568,0 -0.53835,0.11435 -0.76703,0 -0.32341,-0.1617 -0.44362,-0.60532 -0.76703,-0.76703 -0.45737,-0.22868 -1.04895,0.16171 -1.53406,0 -0.54238,-0.18079 -0.99169,-0.58624 -1.53407,-0.76703 -0.52758,-0.17586 -1.84852,0.22628 -2.30109,0 -0.32341,-0.1617 -0.44362,-0.60533 -0.76703,-0.76703 -0.22868,-0.11434 -0.51135,0 -0.76703,0 -0.76703,0 -1.53406,0 -2.30109,0 -1.27839,0 -2.55677,0 -3.83516,0 -0.51135,0 -1.02271,0 -1.53406,0 -0.25568,0 -0.53835,0.11434 -0.76703,0 -0.32341,-0.1617 -0.44363,-0.60533 -0.76703,-0.76703 -0.4839,-0.24195 -3.35126,0.24195 -3.83516,0 -0.32341,-0.16171 -0.44362,-0.60533 -0.76703,-0.76703 -0.4821,-0.24105 -2.58603,0.24105 -3.06812,0 -0.32341,-0.16171 -0.44363,-0.60533 -0.76704,-0.76703 -0.4161,-0.20806 -2.85824,0.20987 -3.06812,0 -0.40426,-0.40426 -0.36277,-1.1298 -0.76703,-1.53407 -0.23705,-0.23704 -3.60001,0.23515 -3.83516,0 -0.18079,-0.18079 0.18079,-0.58624 0,-0.76703 -0.36158,-0.36158 -1.17248,0.36159 -1.534059,0 -0.180791,-0.18079 0.180791,-0.58624 0,-0.76703 -0.361582,-0.36158 -1.17248,0.36158 -1.534062,0 -0.180791,-0.18079 0.228684,-0.65269 0,-0.76703 -0.457369,-0.22868 -1.022708,0 -1.534062,0 -1.278385,0 -2.556771,0 -3.835156,0 -1.278385,0 -2.55677,0 -3.835155,0 -0.255677,0 -0.58624,0.18079 -0.767031,0 -0.180791,-0.18079 0.180791,-0.58624 0,-0.76703 -0.180791,-0.18079 -0.538347,0.11434 -0.767031,0 -0.323409,-0.1617 -0.511354,-0.51135 -0.767031,-0.76703 -0.255677,-0.25568 -0.605327,-0.44362 -0.767031,-0.76703 -0.114343,-0.22869 0.180791,-0.58624 0,-0.76703 -0.180791,-0.18079 -0.586241,0.18079 -0.767032,0 -0.18079,-0.18079 0.180791,-0.58624 0,-0.76703 -0.18079,-0.18079 -0.511354,0 -0.767031,0 -0.255677,-1.02271 -0.511354,-2.04542 -0.767031,-3.06813 z"
     id="path870"
     inkscape:connector-curvature="0" /><path
     style="fill:#44b773;stroke:#000000;stroke-width:1px;stroke-linecap:butt;stroke-linejoin:miter;stroke-opacity:1;fill-opacity:1"
     d="m 217.83683,349.38941 c 1.02271,-0.25568 2.02828,-0.59372 3.06812,-0.76703 1.0088,-0.16813 2.07595,0.24804 3.06813,0 1.23831,-0.30958 1.52139,-0.75436 2.30109,-1.53406 0.25568,-0.25568 0.44362,-0.60533 0.76703,-0.76703 0.22869,-0.11435 0.52448,0.0808 0.76703,0 0.54238,-0.1808 0.99169,-0.58624 1.53406,-0.76704 0.48512,-0.1617 1.0767,0.22869 1.53407,0 0.32341,-0.1617 0.44362,-0.60532 0.76703,-0.76703 0.22868,-0.11434 0.65269,0.22869 0.76703,0 0.22868,-0.45737 -0.22869,-1.07669 0,-1.53406 0.22868,-0.45737 1.07669,0.22869 1.53406,0 0.32341,-0.1617 0.44362,-0.60533 0.76703,-0.76703 0.20169,-0.10084 2.66703,0 3.06813,0 0.40109,0 2.86644,-0.10084 3.06812,0 0.32341,0.1617 0.44362,0.60533 0.76703,0.76703 0.22869,0.11434 0.58624,-0.18079 0.76703,0 0.18079,0.18079 -0.18079,0.58624 0,0.76703 0.18079,0.18079 0.53835,-0.11434 0.76703,0 1.89565,0.94782 -0.26476,0.76703 1.53407,0.76703 5.62489,0 11.24979,0 16.87468,0 1.53406,0 3.06812,0 4.60219,0 0.76703,0 1.61504,-0.34302 2.30109,0 0.22868,0.11435 -0.18079,0.58624 0,0.76703 0.18079,0.1808 0.51135,0 0.76703,0 0.77244,0 4.17801,-0.14139 4.60219,0 0.34302,0.11435 0.44362,0.60533 0.76703,0.76704 0.23343,0.11671 1.95565,0 2.30109,0 4.60219,0 9.20437,0 13.80656,0 1.27839,0 2.55677,0 3.83516,0 0.51135,0 1.07669,-0.22869 1.53406,0 0.22868,0.11434 -0.18079,0.58624 0,0.76703 0.512,0.512 1.02206,-0.512 1.53406,0 0.36158,0.36158 -0.36158,1.17248 0,1.53406 0.18079,0.18079 0.58624,-0.18079 0.76703,0 0.18079,0.18079 0,0.51135 0,0.76703 0,1.27839 0,2.55677 0,3.83516 0,2.81244 0,5.62489 0,8.43734 0,1.02271 0.5673,2.21718 0,3.06812 -0.28365,0.42547 -1.07669,-0.22868 -1.53406,0 -0.22868,0.11434 0.0808,0.52448 0,0.76703 -0.18079,0.54238 -0.4499,1.05837 -0.76703,1.53406 -0.20057,0.30086 -0.60533,0.44363 -0.76703,0.76704 -0.11434,0.22868 0.18079,0.58624 0,0.76703 -0.18079,0.18079 -0.58624,-0.18079 -0.76703,0 -0.38352,0.38351 0.38351,1.91757 0,2.30109 -0.18079,0.18079 -0.58624,-0.18079 -0.76703,0 -0.1808,0.18079 0.18079,0.58624 0,0.76703 -0.1808,0.18079 -0.58624,-0.18079 -0.76704,0 -0.18079,0.18079 0.1808,0.58624 0,0.76703 -0.18079,0.18079 -0.58624,-0.18079 -0.76703,0 -0.18079,0.18079 0.18079,0.58624 0,0.76703 -0.18079,0.18079 -0.58624,-0.18079 -0.76703,0 -0.18079,0.18079 0.18079,0.58624 0,0.76703 -0.18079,0.1808 -0.53834,-0.11434 -0.76703,0 -0.32341,0.16171 -0.44362,0.60533 -0.76703,0.76704 -0.19832,0.0992 -4.05851,0 -4.60219,0 -0.25567,0 -0.51135,0 -0.76703,0 -0.25567,0 -0.58624,-0.1808 -0.76703,0 0,2.04541 0.25568,-0.25568 -0.76703,0.76703 -0.18079,0.18079 0.18079,0.58624 0,0.76703 -0.18079,0.18079 -0.58624,-0.18079 -0.76703,0 0,2.04541 0.25568,-0.25568 -0.76703,0.76703 -0.18079,0.18079 0.18079,0.58624 0,0.76703 -0.40426,0.40426 -1.1298,0.36277 -1.53406,0.76703 -0.18079,0.18079 0.18079,0.58624 0,0.76703 -0.18079,0.18079 -0.58624,-0.18079 -0.76703,0 -0.40427,0.40426 -0.36278,1.1298 -0.76704,1.53406 -0.18079,0.1808 -0.58624,-0.18079 -0.76703,0 -0.18079,0.1808 0.18079,0.58624 0,0.76704 -0.18079,0.18079 -0.58624,-0.1808 -0.76703,0 -0.18079,0.18079 0.18079,0.58624 0,0.76703 -0.18079,0.18079 -0.58624,-0.18079 -0.76703,0 -0.18079,0.18079 0.22869,0.65269 0,0.76703 -0.45737,0.22868 -1.07669,-0.22869 -1.53406,0 -0.22869,0.11434 0.11434,0.53834 0,0.76703 -0.16171,0.32341 -0.44362,0.60533 -0.76703,0.76703 -0.22869,0.11434 -0.65269,-0.22868 -0.76703,0 0,4.34651 0.51135,0.25568 -0.76703,1.53406 -0.1808,0.18079 0.18079,0.58624 0,0.76703 -0.36159,0.36159 -1.17248,-0.36158 -1.53407,0 -0.18079,0.18079 0.18079,0.58624 0,0.76703 -0.18079,0.1808 -0.58624,-0.18079 -0.76703,0 -1.58701,1.58702 2.42517,-0.062 -0.76703,1.53407 -0.45737,0.22868 -1.17248,-0.36159 -1.53406,0 -0.18079,0.18079 0.11434,0.53834 0,0.76703 -0.46022,0.92043 -1.84088,1.38065 -2.30109,2.30109 -0.11435,0.22869 0.18079,0.58624 0,0.76703 -0.36159,0.36158 -1.0767,-0.22868 -1.53407,0 -0.64681,0.32341 -0.88724,1.21066 -1.53406,1.53406 -0.4221,0.21105 -4.00253,-0.19988 -4.60219,0 -0.34302,0.11435 -0.44362,0.60533 -0.76703,0.76704 -0.23343,0.11671 -1.95565,0 -2.30109,0 -2.04542,0 -4.09083,0 -6.13625,0 -0.18602,0 -2.27642,0.0247 -2.30109,0 -0.18079,-0.1808 0.18079,-0.58625 0,-0.76704 -0.18079,-0.18079 -0.58624,0.18079 -0.76703,0 -0.18079,-0.18079 0.18079,-0.58624 0,-0.76703 -0.18079,-0.18079 -0.58624,0.18079 -0.76703,0 -0.18079,-0.18079 0.18079,-0.58624 0,-0.76703 -0.18079,-0.18079 -0.58624,0.18079 -0.76703,0 -0.1808,-0.18079 0.18079,-0.58624 0,-0.76703 -0.1808,-0.18079 -0.58625,0.18079 -0.76704,0 -0.36158,-0.36158 0.36159,-1.17248 0,-1.53406 -0.18079,-0.18079 -0.58624,0.18079 -0.76703,0 -0.18079,-0.18079 0.18079,-0.58624 0,-0.76703 -0.18079,-0.18079 -0.53834,0.11434 -0.76703,0 -3.1922,-1.5961 0.81999,0.053 -0.76703,-1.53406 -0.18079,-0.1808 -0.58624,0.18079 -0.76703,0 -0.18079,-0.1808 0.18079,-0.58624 0,-0.76704 -0.18079,-0.18079 -0.58624,0.1808 -0.76703,0 -0.18079,-0.18079 0.18079,-0.58624 0,-0.76703 -0.18079,-0.18079 -0.58624,0.18079 -0.76703,0 -0.40426,-0.40426 -0.36277,-1.1298 -0.76703,-1.53406 -0.18079,-0.18079 -0.58624,0.18079 -0.76703,0 -0.36159,-0.36158 0.45736,-1.30538 0,-1.53406 -0.45737,-0.22869 -1.10859,0.28365 -1.53407,0 -0.47569,-0.31713 -0.4499,-1.05837 -0.76703,-1.53406 0.0766,-1.51954 -1.1298,-0.36277 -1.53406,-0.76703 -0.40426,-0.40427 -0.58624,-0.99169 -0.76703,-1.53407 -0.0808,-0.24255 0.18079,-0.58624 0,-0.76703 -0.36158,-0.36158 -1.07669,0.22869 -1.53406,0 -0.92044,-0.46022 -1.38066,-1.84087 -2.3011,-2.30109 -0.45737,-0.22869 -1.17248,0.36158 -1.53406,0 -0.36158,-0.36158 0.36158,-1.17248 0,-1.53406 -0.18079,-0.18079 -0.58624,0.18079 -0.76703,0 -0.18079,-0.18079 0.18079,-0.58624 0,-0.76703 -0.18079,-0.1808 -0.58624,0.18079 -0.76703,0 -0.18079,-0.1808 0.18079,-0.58624 0,-0.76704 -0.18079,-0.18079 -0.58624,0.1808 -0.76703,0 -0.18079,-0.18079 0.18079,-0.58624 0,-0.76703 -0.36158,-0.36158 -1.17248,0.36159 -1.53406,0 -0.36159,-0.36158 0.36158,-1.17248 0,-1.53406 -0.1808,-0.18079 -0.58624,0.18079 -0.76704,0 -0.18079,-0.18079 0.1808,-0.58624 0,-0.76703 -1.58701,-1.58701 0.062,2.42517 -1.53406,-0.76703 -0.11434,-0.22869 0.11434,-0.53835 0,-0.76703 -0.1617,-0.32341 -0.60532,-0.44362 -0.76703,-0.76703 -0.11434,-0.22869 0.18079,-0.58624 0,-0.76703 -0.18079,-0.18079 -0.58624,0.18079 -0.76703,0 -0.38352,-0.38352 0.38352,-1.91758 0,-2.3011 -1.02271,-1.02271 -0.73601,1.62712 -1.53406,-0.76703 -0.16171,-0.48511 0.22868,-1.07669 0,-1.53406 -0.11434,-0.22869 -0.58624,0.18079 -0.76703,0 -0.18079,-0.18079 0,-0.51135 0,-0.76703 0,-0.25568 0,-0.51136 0,-0.76703 0,-1.27839 0,-2.55677 0,-3.83516 0,-0.25568 0,-0.51135 0,-0.76703 0,-0.25568 0.11434,-0.53835 0,-0.76703 -0.32341,-0.64682 -1.21066,-0.88725 -1.53407,-1.53406 -0.11434,-0.22869 0,-0.51136 0,-0.76703 0,-2.81245 -0.30681,-1.12498 2.3011,-4.60219 z"
     id="path872"
     inkscape:connector-curvature="0" /><path
     style="fill:#aebcc6;fill-opacity:1;stroke:#000000;stroke-width:1px;stroke-linecap:butt;stroke-linejoin:miter;stroke-opacity:1"
     d="m 209.725,305.304 c 0.14717,-1.92387 0.55017,-3.84518 0.44152,-5.77161 -0.0144,-0.25527 -0.51136,0 -0.76703,0 h -4.60219 -19.17578 -15.34062 -6.13625 c -0.40109,0 -2.86644,0.10084 -3.06812,0 -0.32341,-0.1617 -0.44362,-0.60533 -0.76703,-0.76703 -0.22869,-0.11434 -0.58624,0.18079 -0.76703,0 -0.1808,-0.18079 0.18079,-0.58624 0,-0.76703 -0.1808,-0.18079 -0.51136,0 -0.76704,0 h -0.76703 -3.83515 -1.53406 c -0.25568,0 -0.53835,0.11434 -0.76704,0 -0.3234,-0.16171 -0.44362,-0.60533 -0.76703,-0.76703 -0.30412,-0.15206 -2.14428,0.15681 -2.30109,0 -0.18079,-0.18079 0.22869,-0.65269 0,-0.76703 -0.44543,-0.22272 -4.15004,0.22607 -4.60219,0 -0.3234,-0.16171 -0.44362,-0.60533 -0.76703,-0.76704 -0.22868,-0.11434 -0.51135,0 -0.76703,0 h -0.76703 -0.76703 c -0.25568,0 -0.65269,0.22869 -0.76703,0 -0.22869,-0.45737 0.22868,-1.07669 0,-1.53406 -0.11434,-0.22868 -0.53835,0.11434 -0.76703,0 -0.32341,-0.1617 -0.44362,-0.60532 -0.76703,-0.76703 -0.45737,-0.22868 -1.17248,0.36158 -1.53407,0 -0.18079,-0.18079 0.1808,-0.58624 0,-0.76703 -0.18079,-0.18079 -0.53834,0.11434 -0.76703,0 -0.32341,-0.1617 -0.44362,-0.60533 -0.76703,-0.76703 -0.22868,-0.11434 -0.58624,0.18079 -0.76703,0 -0.18079,-0.18079 0,-0.51136 0,-0.76703 v -1.53406 -3.83516 -1.53406 c 0,-0.25568 0.11434,-0.53835 0,-0.76703 -0.1617,-0.32341 -0.60533,-0.44363 -0.76703,-0.76703 -0.11434,-0.22869 0,-0.51136 0,-0.76704 v -0.76703 -3.83515 -0.76703 c 0,-0.25568 0.18079,-0.58624 0,-0.76703 -0.18079,-0.1808 -0.58624,0.18079 -0.76703,0 -0.0247,-0.0247 0,-2.11507 0,-2.3011 v -12.27249 -11.50547 -0.76703 c 0,-0.25568 -0.18079,-0.58624 0,-0.76703 0.18079,-0.18079 0.58624,0.18079 0.76703,0 0.23751,-0.23751 -0.23751,-3.59765 0,-3.83516 0.18079,-0.18079 0.58624,0.18079 0.76703,0 0.18079,-0.18079 0,-0.51135 0,-0.76703 v -3.83516 c 0,-0.25567 -0.18079,-0.58624 0,-0.76703 0.18079,-0.18079 0.58624,0.18079 0.76703,0 0.18079,-0.18079 -0.18079,-0.58624 0,-0.76703 0.18079,-0.18079 0.58624,0.18079 0.76703,0 0.0247,-0.0247 0,-2.11507 0,-2.30109 v -12.2725 c 0,-0.28168 0.0309,-3.03726 0,-3.06812 -0.18079,-0.18079 -0.58624,0.18079 -0.76703,0 -0.18079,-0.18079 0,-0.51136 0,-0.76703 v -0.76703 -6.90328 -16.10766 -3.83515 c 0,-0.25568 0.18079,-0.58624 0,-0.76703 -0.18079,-0.18079 -0.58624,0.18079 -0.76703,0 -0.18079,-0.18079 0,-0.51136 0,-0.76703 v -0.76704 -5.36921 c 0,-0.34544 0.11672,-2.06766 0,-2.3011 -0.1617,-0.32341 -0.60533,-0.44362 -0.76703,-0.76703 -0.11434,-0.22868 0,-0.51135 0,-0.76703 0,-0.51135 0.1617,-1.04895 0,-1.53406 -0.11434,-0.34303 -0.60533,-0.44362 -0.76703,-0.76703 -0.11409,-0.22817 0,-4.27953 0,-4.60219 v -11.50546 -21.47688 -8.43734 -0.76703 c 0,-0.25568 -0.18079,-0.58624 0,-0.76703 0.18079,-0.18079 0.58624,0.18079 0.76703,0 0.18079,-0.18079 0,-0.51135 0,-0.76703 v -4.60219 c 0,-2.99637 -0.22868,-0.081 0.76703,-3.06812 0.16109,-0.48327 0,-4.01663 0,-4.60219 0,-0.25567 -0.11434,-0.53834 0,-0.76703 0.16171,-0.32341 0.60533,-0.44362 0.76703,-0.76703 0.10084,-0.20168 0,-2.66703 0,-3.06812 v -7.67032 -6.136244 c 0,-0.255677 -0.18079,-0.58624 0,-0.767031 0.18079,-0.180791 0.58624,0.180791 0.76703,0 0.0744,-0.07445 0,-3.542862 0,-3.835155 0,-0.255677 -0.18079,-0.586241 0,-0.767031 1.58702,-1.587015 -0.062,2.425168 1.53407,-0.767032 0.22868,-0.457369 -0.36159,-1.17248 0,-1.534062 0.18079,-0.180791 0.65268,0.228685 0.76703,0 0.24811,-0.496231 -0.27553,-2.792595 0,-3.068124 0.18079,-0.180791 0.58624,0.180791 0.76703,0 0.512,-0.512 -0.512,-1.022062 0,-1.534062 0.18079,-0.180791 0.58624,0.180791 0.76703,0 0.22695,-0.226951 -0.23756,-2.593015 0,-3.068125 0.1617,-0.323408 0.60533,-0.443622 0.76703,-0.767031 0.22868,-0.457369 -0.45737,-1.305377 0,-1.534062 0.45737,-0.228684 1.07669,0.228685 1.53406,0 0.23697,-0.118484 -0.13719,-2.026708 0,-2.301093 0.16171,-0.323409 0.60533,-0.443622 0.76703,-0.767031 0.11435,-0.228685 -0.18079,-0.58624 0,-0.767031 0.18079,-0.180791 0.58624,0.180791 0.76703,0 0.36159,-0.361582 -0.36158,-1.172481 0,-1.534062 0.18079,-0.180791 0.58624,0.180791 0.76704,0 0.36158,-0.361582 -0.22869,-1.076694 0,-1.534063 1.59609,-3.192199 -0.053,0.819984 1.53406,-0.767031 0.26773,-0.267737 -0.31839,-2.141898 0,-2.301093 0.45737,-0.228684 1.07669,0.228685 1.53406,0 0.22868,-0.114342 0,-0.511354 0,-0.767031 0,-0.50388 -0.0902,-2.887756 0,-3.068124 0.11434,-0.228685 0.58624,0.180791 0.76703,0 0.36158,-0.361582 -0.22868,-1.076694 0,-1.534063 1.5961,-3.192199 -0.053,0.819984 1.53406,-0.767031 0.36158,-0.361582 -0.36158,-1.17248 0,-1.534062 0.18079,-0.180791 0.58624,0.180791 0.76703,0 2.15976,-0.04761 0.19532,-1.729382 0.76703,-2.301093 0.1808,-0.180791 0.58625,0.180791 0.76704,0 0.18079,-0.180791 -0.18079,-0.58624 0,-0.767031 0.18079,-0.180791 0.53834,0.114342 0.76703,0 0.32341,-0.161704 0.44362,-0.605327 0.76703,-0.767031 0.22868,-0.114342 0.58624,0.180791 0.76703,0 0.36158,-0.361582 -0.22869,-1.076693 0,-1.534062 0.1617,-0.323409 0.60533,-0.443623 0.76703,-0.767031 0.11434,-0.228685 -0.11434,-0.538347 0,-0.767032 0.1617,-0.323408 0.60533,-0.443622 0.76703,-0.767031 0.11434,-0.228684 -0.11434,-0.538346 0,-0.767031 0.16171,-0.323408 0.60533,-0.443622 0.76703,-0.767031 0.11434,-0.228684 -0.18079,-0.58624 0,-0.767031 0.18079,-0.180791 0.58624,0.180791 0.76703,0 0.18079,-0.180791 -0.11434,-0.538347 0,-0.767031 0.16171,-0.323409 0.60533,-0.443622 0.76703,-0.767031 0.11435,-0.228685 -0.11434,-0.538347 0,-0.767031 0.46022,-0.920437 1.84088,-1.380656 2.3011,-2.301093 0.11434,-0.228685 -0.18079,-0.586241 0,-0.767032 0.18079,-0.18079 0.58624,0.180791 0.76703,0 0.18079,-0.18079 -0.18079,-0.58624 0,-0.767031 0.18079,-0.180791 0.53835,0.114343 0.76703,0 0.32341,-0.161704 0.51135,-0.511354 0.76703,-0.767031 0.51136,-0.511354 1.13292,-0.932353 1.53406,-1.534062 0.14183,-0.212736 -0.18079,-0.58624 0,-0.767031 0.18079,-0.180791 0.58624,0.180791 0.76703,0 0.1808,-0.180791 -0.18079,-0.58624 0,-0.767031 0.1808,-0.180791 0.53835,0.114342 0.76704,0 0.3234,-0.161704 0.44362,-0.605327 0.76703,-0.767031 0.22868,-0.114342 0.58624,0.180791 0.76703,0 1.02271,-1.022708 -1.62712,-0.736012 0.76703,-1.534062 0.48511,-0.161705 1.17248,0.361582 1.53406,0 0.36158,-0.361582 -0.22868,-1.076693 0,-1.534062 0.11434,-0.228685 0.58624,0.180791 0.76703,0 0.18079,-0.180791 -0.18079,-0.586241 0,-0.767032 0.36158,-0.361581 1.17248,0.361582 1.53406,0 0.1808,-0.18079 -0.18079,-0.58624 0,-0.767031 0.1808,-0.180791 0.51136,0 0.76704,0 0,-0.255677 -0.11435,-0.538346 0,-0.767031 1.5961,-3.192199 -0.053,0.819984 1.53406,-0.767031 0.18079,-0.180791 -0.18079,-0.58624 0,-0.767031 0.18079,-0.180791 0.53834,0.114342 0.76703,0 3.1922,-1.5961 -0.81999,0.05295 0.76703,-1.534062 0.18079,-0.180791 0.58624,0.180791 0.76703,0 1.58702,-1.587015 -2.42517,0.06204 0.76703,-1.534062 0.22869,-0.114342 0.58624,0.180791 0.76703,0 0.36158,-0.361582 -0.36158,-1.17248 0,-1.534062 0.18079,-0.180791 0.58624,0.180791 0.76703,0 1.58702,-1.587015 -2.42516,0.06204 0.76704,-1.534063 0.22868,-0.114342 0.65268,0.228685 0.76703,0 0.22868,-0.457369 -0.22869,-1.076693 0,-1.534062 0.22868,-0.457369 1.17248,0.361582 1.53406,0 0.36158,-0.361582 -0.36158,-1.17248 0,-1.534062 0.18079,-0.180791 0.53834,0.114342 0.76703,0 0.32341,-0.161704 0.51135,-0.511354 0.76703,-0.767031 0.25568,-0.255677 0.60533,-0.443622 0.76703,-0.767031 0.11434,-0.228685 -0.18079,-0.58624 0,-0.767031 0.18079,-0.180791 0.51136,0 0.76703,0 0.51136,-0.511354 1.13293,-0.932354 1.53406,-1.534062 0.14183,-0.212736 -0.18079,-0.58624 0,-0.767031 0.36159,-0.361582 1.17249,0.361582 1.53407,0 0.36158,-0.361582 -0.36158,-1.172481 0,-1.534063 0.38351,-0.383515 1.91757,0.383516 2.30109,0 0.18079,-0.180791 -0.22868,-0.652688 0,-0.767031 0.4821,-0.241048 2.58603,0.241048 3.06812,0 3.1922,-1.596099 -0.81998,0.05295 0.76704,-1.534062 0.18079,-0.180791 0.58624,0.180791 0.76703,0 0.18079,-0.180791 -0.18079,-0.58624 0,-0.767031 0.18079,-0.180791 0.51135,0 0.76703,0 0.5335,0 3.55777,0.138692 3.83515,0 0.32341,-0.161704 0.44363,-0.605327 0.76703,-0.767031 0.45737,-0.228684 1.0767,0.228684 1.53407,0 2.54392,-2.543922 -0.72317,0.361582 1.53406,-0.767031 0.32341,-0.161704 0.44362,-0.605327 0.76703,-0.767031 0.20168,-0.100842 2.66703,0 3.06812,0 0.18603,0 2.27643,0.02467 2.3011,0 0.18079,-0.180791 -0.18079,-0.58624 0,-0.767031 0.38351,-0.383516 1.91758,0.383515 2.30109,0 0.18079,-0.180791 -0.18079,-0.58624 0,-0.767031 0.18079,-0.180791 0.51135,0 0.76703,0 h 4.60219 c 0.25568,0 0.58624,0.180791 0.76703,0 0.18079,-0.180791 -0.22869,-0.652689 0,-0.767031 0.45737,-0.228685 1.02271,0 1.53406,0 0.25568,0 0.58624,0.180791 0.76703,0 0.18079,-0.180791 -0.18079,-0.586241 0,-0.767032 0.36158,-0.361581 1.0767,0.228685 1.53406,0 0.32341,-0.161704 0.44363,-0.605326 0.76704,-0.767031 0.22868,-0.114342 0.58624,0.180791 0.76703,0 0.18079,-0.180791 -0.18079,-0.58624 0,-0.767031 0.18079,-0.180791 0.51135,0 0.76703,0 h 4.60218 0.76704 c 0.25567,0 0.58624,0.180791 0.76703,0 0.18079,-0.180791 -0.18079,-0.58624 0,-0.767031 0.23751,-0.237509 3.59764,0.237509 3.83515,0 0.18079,-0.180791 -0.18079,-0.5862399 0,-0.7670309 0.15681,-0.1568091 1.99697,0.1520608 2.3011,0 0.3234,-0.1617043 0.44362,-0.6053267 0.76703,-0.767031 0.20168,-0.1008422 2.66702,0 3.06812,0 h 3.06813 c 0.25567,0 0.58624,0.1807909 0.76703,0 0.18079,-0.180791 -0.18079,-0.5862402 0,-0.7670311 0.18079,-0.180791 0.51135,0 0.76703,0 h 0.76703 9.9714 10.73844 0.76703 c 0.25568,0 0.58624,-0.180791 0.76703,0 0.18079,0.1807909 -0.22868,0.6526888 0,0.7670311 0.49623,0.2481158 2.7926,-0.2755291 3.06812,0 0.1808,0.1807909 0,0.511354 0,0.767031 0.25568,0 0.58624,-0.1807909 0.76704,0 0.18079,0.180791 -0.1808,0.5862399 0,0.7670309 0.23704,0.237047 3.6,-0.235148 3.83515,0 0,2.045416 -0.25568,-0.255677 0.76703,0.767031 0.18079,0.180791 -0.18079,0.58624 0,0.767031 0.18079,0.180791 0.53835,-0.114342 0.76703,0 0.32341,0.161705 1.02271,0.511354 0.76703,0.767031 -0.25567,0.255678 -1.12861,-0.767031 -0.76703,-0.767031 0.57171,0 1.05837,0.449903 1.53407,0.767031 0.30085,0.20057 0.44362,0.605327 0.76703,0.767032 0.45737,0.228684 1.17248,-0.361582 1.53406,0 0.18079,0.180791 -0.18079,0.58624 0,0.767031 0.18079,0.180791 0.53834,-0.114343 0.76703,0 0.32341,0.161704 0.44362,0.605326 0.76703,0.767031 0.22868,0.114342 0.58624,-0.180791 0.76703,0 0.18079,0.180791 -0.18079,0.58624 0,0.767031 0.18079,0.180791 0.53835,-0.114342 0.76703,0 0.32341,0.161704 0.44363,0.605327 0.76703,0.767031 0.41611,0.208052 2.85825,-0.209877 3.06813,0 0.18079,0.180791 -0.18079,0.58624 0,0.767031 0.36158,0.361582 1.30538,-0.457369 1.53406,0 0.22868,0.457369 -0.22868,1.076693 0,1.534062 0.15173,0.303469 1.53802,-0.381535 2.30109,0 0.22869,0.114342 -0.18079,0.58624 0,0.767031 0.36159,0.361582 1.17248,-0.361582 1.53407,0 0.18079,0.180791 -0.1808,0.58624 0,0.767031 0.38351,0.383516 1.91757,-0.383515 2.30109,0 0.18079,0.180791 -0.22869,0.652689 0,0.767031 0.45737,0.228685 1.04895,-0.161704 1.53406,0 0.68605,0.228685 0.88725,1.210654 1.53406,1.534063 0.27439,0.137192 2.18261,-0.236969 2.3011,0 0.22868,0.457369 -0.36159,1.17248 0,1.534062 0.36158,0.361582 1.0227,0 1.53406,0 h 7.67031 9.9714 c 0.62782,0 4.37776,-0.112215 4.60219,0 0.22868,0.114342 -0.18079,0.58624 0,0.767031 0.18079,0.180791 0.51135,0 0.76703,0 h 0.76703 5.36922 c 0.25568,0 0.58624,-0.180791 0.76703,0 0.18079,0.180791 -0.18079,0.58624 0,0.767031 0.18079,0.180791 0.58624,-0.180791 0.76703,0 0.18079,0.180791 -0.18079,0.58624 0,0.767031 0.23751,0.237509 3.59765,-0.237509 3.83516,0 0.18079,0.180791 -0.18079,0.58624 0,0.767031 0.18079,0.180791 0.58624,-0.180791 0.76703,0 0.18079,0.180791 -0.18079,0.58624 0,0.767031 0.0309,0.03087 2.78644,0 3.06812,0 0.25568,0 0.65269,-0.228684 0.76703,0 0.22869,0.457369 -0.22868,1.076693 0,1.534062 0.22869,0.457369 1.17248,-0.361582 1.53407,0 0.18079,0.180791 -0.18079,0.58624 0,0.767031 0.36158,0.361582 1.17248,-0.361581 1.53406,0 0.18079,0.180791 -0.18079,0.586241 0,0.767032 0.18079,0.18079 0.58624,-0.180791 0.76703,0 0.18079,0.18079 -0.22869,0.652688 0,0.767031 0.45737,0.228684 1.07669,-0.228685 1.53406,0 0.22869,0.114342 -0.18079,0.58624 0,0.767031 0.36158,0.361582 1.17248,-0.361582 1.53406,0 0.18079,0.180791 -0.18079,0.58624 0,0.767031 0.18079,0.180791 0.58624,-0.180791 0.76703,0 0.36159,0.361582 -0.36158,1.17248 0,1.534062 0.36159,0.361582 1.17249,-0.361582 1.53407,0 0.36158,0.361582 -0.45737,1.305378 0,1.534062 0.45737,0.228685 1.02271,0 1.53406,0 0.25568,0 0.58624,-0.180791 0.76703,0 0.36158,0.361582 -0.36158,1.17248 0,1.534062 0.512,0.512 1.02206,-0.512 1.53406,0 0.18079,0.180791 -0.18079,0.58624 0,0.767031 0.18079,0.180791 0.58624,-0.180791 0.76703,0 0.18079,0.180791 -0.18079,0.586241 0,0.767031 0.18079,0.180791 0.58624,-0.18079 0.76703,0 0.36159,0.361582 -0.36158,1.172481 0,1.534063 0.1808,0.180791 0.58624,-0.180791 0.76704,0 0.18079,0.180791 -0.1808,0.58624 0,0.767031 1.02127,1.021276 0.51278,-1.021277 1.53406,0 0.18079,0.180791 -0.11434,0.538346 0,0.767031 0.1617,0.323409 0.60532,0.443622 0.76703,0.767031 0.22868,0.457369 -0.36158,1.17248 0,1.534062 0.18079,0.180791 0.58624,-0.180791 0.76703,0 0.40426,0.404261 0.4499,1.05837 0.76703,1.534062 0.20057,0.300855 0.60533,0.443623 0.76703,0.767031 0.11434,0.228685 -0.18079,0.58624 0,0.767031 0.38352,0.383516 1.91758,-0.383515 2.3011,0 0.18079,0.180791 -0.1808,0.586241 0,0.767031 0.18079,0.180791 0.58624,-0.18079 0.76703,0 0.36158,0.361582 -0.36159,1.172481 0,1.534063 0.18079,0.180791 0.58624,-0.180791 0.76703,0 0.18079,0.180791 -0.18079,0.58624 0,0.767031 0.18079,0.180791 0.58624,-0.180791 0.76703,0 0.18079,0.180791 0,0.511354 0,0.767031 0.25568,0 0.53835,-0.114342 0.76703,0 0.32341,0.161704 0.60533,0.443622 0.76703,0.767031 0.11434,0.228684 -0.22868,0.652689 0,0.767031 0.45737,0.228684 1.07669,-0.228684 1.53406,0 0.20245,0.101222 -0.15272,1.075898 0,1.534062 0.25568,0.511354 0.51136,1.022708 0.76703,1.534062 0.25568,0 0.58624,-0.180791 0.76704,0 0.1568,0.156809 -0.15207,1.996972 0,2.301094 0.1617,0.323408 0.60532,0.443622 0.76703,0.767031 0.11434,0.228684 -0.0809,0.524474 0,0.767031 0.18079,0.542373 0.58624,0.991689 0.76703,1.534062 0.0808,0.242556 -0.11434,0.538347 0,0.767031 0.1617,0.323409 0.60532,0.443622 0.76703,0.767031 0.25472,0.509444 -0.28302,2.643598 0,3.068124 0.31713,0.475693 1.1298,0.362771 1.53406,0.767032 0.18079,0.18079 -0.11434,0.538346 0,0.767031 0.32341,0.646817 1.21065,0.887244 1.53406,1.534062 0.11435,0.228684 1.61148,3.60647 6.13625,2.109335 -0.58626,18.997905 0.0785,29.706301 0,45.254831 0,0 -0.96975,2.90927 -1.15054,3.45165 -0.058,3.05725 -1.91758,5.94494 -1.91758,9.01261 v 7.67031 c 0,0.4011 -0.10084,2.86644 0,3.06812 0.1617,0.32341 0.65269,0.42401 0.76703,0.76703 0.14139,0.42419 0,3.82975 0,4.60219 v 0.76703 c -12.00642,22.35383 0.63286,40.09239 0.76703,55.99327 v 14.57359 16.87469 6.13624 c 0,0.34544 0.11672,2.06766 0,2.3011 -0.1617,0.32341 -0.60533,0.44362 -0.76703,0.76703 -0.24105,0.4821 0.24105,2.58603 0,3.06812 -0.16171,0.32341 -0.60533,0.44363 -0.76703,0.76703 -0.10084,0.20169 0,2.66703 0,3.06813 0,0.81138 0.13171,4.97406 0,5.36922 -0.11435,0.34302 -0.60533,0.44362 -0.76703,0.76703 -0.22869,0.45737 0.36158,1.17248 0,1.53406 -0.18079,0.18079 -0.58624,-0.18079 -0.76703,0 -0.1808,0.18079 0,0.51135 0,0.76703 v 0.76703 c 0,3.49175 0.36158,0.0439 -0.76704,2.3011 -0.20805,0.4161 0.20988,2.85824 0,3.06812 -0.40426,0.40426 -1.1298,0.36277 -1.53406,0.76703 -0.36158,0.36158 0.22869,1.07669 0,1.53406 -0.1617,0.32341 -0.60532,0.44363 -0.76703,0.76703 -0.22607,0.45215 0.22271,4.15676 0,4.60219 -0.11434,0.22868 -0.58624,-0.18079 -0.76703,0 -0.23751,0.23751 0.23751,3.59765 0,3.83516 -0.18079,0.18079 -0.65269,-0.22869 -0.76703,0 -0.11222,0.22443 0,3.97437 0,4.60218 0,0.25568 0.18079,0.58624 0,0.76703 -0.18079,0.18079 -0.65269,-0.22868 -0.76703,0 -0.68606,0.60508 0.34302,1.61504 0,2.3011 -0.16171,0.32341 -0.60533,0.44362 -0.76703,0.76703 -0.30682,0.61362 0.30681,1.68747 0,2.30109 -0.16171,0.32341 -0.60533,0.44362 -0.76703,0.76703 -0.15207,0.30412 0.1568,2.14429 0,2.3011 -0.1808,0.18079 -0.58624,-0.1808 -0.76704,0 -0.20987,0.20987 0.20806,2.65201 0,3.06812 -0.1617,0.32341 -0.60532,0.44362 -0.76703,0.76703 -0.11434,0.22869 0,0.51135 0,0.76703 -0.25567,0.25568 -0.60532,0.44362 -0.76703,0.76703 -0.11434,0.22869 0.18079,0.58624 0,0.76703 -0.15681,0.15681 -1.99697,-0.15206 -2.30109,0 -0.32341,0.16171 -0.44362,0.60533 -0.76703,0.76704 -0.22869,0.11434 -0.53835,-0.11435 -0.76703,0 -0.32341,0.1617 -0.44363,0.60532 -0.76703,0.76703 -0.23344,0.11671 -1.95566,0 -2.3011,0 h -5.36922 -3.06812 -0.76703 c -0.25568,0 -0.53835,-0.11435 -0.76703,0 -1.64603,0.82301 -0.0353,0.83763 -0.76703,2.30109 -0.11435,0.22868 -0.51136,0 -0.76703,0 h -2.3011 c -0.40109,0 -2.86644,-0.10084 -3.06812,0 -0.32341,0.1617 -0.44362,0.60533 -0.76703,0.76703 -0.20169,0.10084 -2.66703,0 -3.06813,0 h -6.13625 c -0.18602,0 -2.27642,-0.0247 -2.30109,0 -0.18079,0.18079 0.22869,0.65269 0,0.76703 -0.326,0.163 -3.19238,0 -3.83515,0 -0.25568,0 -0.58624,-0.18079 -0.76704,0 -0.18079,0.18079 0.1808,0.58624 0,0.76703 -0.18079,0.18079 -0.51135,0 -0.76703,0 h -1.53406 -8.43734 l -16.87469,-9.9714 h -5.36921 c -0.34544,0 -2.06766,0.11672 -2.3011,0 -0.32341,-0.1617 -0.51135,-0.51135 -0.76703,-0.76703 -0.76703,0 -1.54895,0.15043 -2.30109,0 -0.56061,-0.11212 -0.99169,-0.58624 -1.53406,-0.76703 -0.24256,-0.0808 -0.52448,0.0808 -0.76703,0 -0.54238,-0.18079 -0.97346,-0.65491 -1.53407,-0.76703 -0.75213,-0.15043 -1.53406,0 -2.30109,0 -0.51135,0 -1.04895,0.1617 -1.53406,0 -0.34303,-0.11434 -0.42401,-0.65269 -0.76703,-0.76703 -0.72767,-0.24256 -1.53406,0 -2.3011,0 h -4.60218 -13.03953 c -0.42812,0 -3.48404,0.11704 -3.83516,0 -0.34302,-0.11434 -0.44362,-0.60533 -0.76703,-0.76703 0.0869,-4.1736 -8.51657,-3.48736 -2.30109,-0.76703 -0.43276,-0.14426 -1.79707,0 -2.30109,0 h -4.60219 -20.70984 v 0 h -1.53406 c -0.25568,0 -0.52448,-0.0809 -0.76703,0 -0.54238,0.18079 -0.99169,0.58624 -1.53407,0.76703 -3.72309,-15.15506 -0.82251,-16.21537 -6.90328,0 -0.0989,0.26374 -6.54689,-3.98883 -6.57776,-3.95793 -0.18079,0.18079 2.9234,14.51557 2.74261,14.69636 -0.0309,0.0309 -2.78644,0 -3.06812,0 h -1.53407 c -0.25567,0 -0.83697,-0.24593 -0.76703,0 0.64253,2.25924 1.75107,4.35909 2.62661,6.53864"
     id="path874"
     inkscape:connector-curvature="0"
     sodipodi:nodetypes="ccscccsccccsccsccscccscsccccccccssccsccsccscssccssssssssssssscsscccsssscsccsccscccssssscsccscsscscscccccsccccccscccccccscsccsccssccsccccccssccccccscscsccccccsssccccccsccccssccccsscscscccscccccssscccccscccsssscsscccssscsscccccssssscccsscccccccsccsccssccsscccsscccccccscccscscsscssssccsscscccscccccsssccscssccssccccccccsccccccccsssccccccccccccccccccccccsccsccccsccccsccscsscsscccsscssccccccsccccsccccsccsccssccssccsccscccsccccccsccscssccscccsccccssscc" /><path
     style="fill:#ffffff;stroke:#000000;stroke-width:1px;stroke-linecap:butt;stroke-linejoin:miter;stroke-opacity:1;fill-opacity:0.99669969"
     d="m 177.18418,166.06898 c 4.34651,0 8.69302,0 13.03953,0 0.4011,0 2.86644,0.10084 3.06812,0 3.1922,-1.5961 -0.81998,0.0529 0.76703,-1.53406 0.0309,-0.0309 2.78645,0 3.06813,0 1.02271,0 2.04542,0 3.06812,0 0.25568,0 0.76703,-0.25568 0.76703,0 0,0.25568 -1.0227,0 -0.76703,0 0.51136,0 1.02271,0 1.53407,0 0.25567,0 0.58624,0.18079 0.76703,0 0.18079,-0.18079 -0.22869,-0.65269 0,-0.76703 0.49623,-0.24812 2.79259,0.27553 3.06812,0 0.18079,-0.18079 -0.18079,-0.58624 0,-0.76703 0.1493,-0.1493 3.55508,0.14004 3.83516,0 0.22868,-0.11435 -0.18079,-0.58624 0,-0.76703 0.38351,-0.38352 1.91757,0.38351 2.30109,0 0.18079,-0.1808 -0.18079,-0.58625 0,-0.76704 0.26924,-0.26924 3.30534,0.26491 3.83515,0 0.32341,-0.1617 0.44363,-0.60532 0.76704,-0.76703 0.30412,-0.15206 2.14428,0.15681 2.30109,0 0.18079,-0.18079 -0.18079,-0.58624 0,-0.76703 0.38351,-0.38351 1.91758,0.38352 2.30109,0 0.18079,-0.18079 -0.18079,-0.58624 0,-0.76703 0.18079,-0.18079 0.51136,0 0.76703,0 0.62782,0 4.37776,0.11222 4.60219,0 0.22868,-0.11434 -0.18079,-0.58624 0,-0.76703 0.18079,-0.18079 0.51135,0 0.76703,0 1.53406,0 3.06813,0 4.60219,0 0.25567,0 0.58624,0.18079 0.76703,0 0.18079,-0.18079 -0.18079,-0.58624 0,-0.76703 0.18079,-0.18079 0.58624,0.18079 0.76703,0 0.18079,-0.18079 -0.18079,-0.58624 0,-0.76703 0.20988,-0.20988 2.65202,0.20805 3.06812,0 0.32341,-0.16171 0.44363,-0.60533 0.76704,-0.76703 0.22868,-0.11435 0.65268,0.22868 0.76703,0 0.22868,-0.45737 -0.22869,-1.0767 0,-1.53407 0.11434,-0.22868 0.58624,0.1808 0.76703,0 0.18079,-0.18079 -0.18079,-0.58624 0,-0.76703 2.04541,0 -0.25568,0.25568 0.76703,-0.76703 0.36158,-0.36158 1.17248,0.36158 1.53406,0 0.18079,-0.18079 -0.18079,-0.58624 0,-0.76703 0.18457,-0.18457 2.88355,0.18457 3.06813,0 0.18079,-0.18079 -0.1808,-0.58624 0,-0.76703 0.2375,-0.23751 3.59764,0.23751 3.83515,0 0.18079,-0.18079 -0.18079,-0.58624 0,-0.76703 0.38352,-0.38352 1.91758,0.38351 2.30109,0 0.40426,-0.40426 0.36277,-1.1298 0.76703,-1.53406 0.1808,-0.18079 0.58625,0.18079 0.76704,0 0.18079,-0.18079 -0.18079,-0.58624 0,-0.76703 0.18079,-0.1808 0.51135,0 0.76703,0 0.51135,0 1.07669,0.22868 1.53406,0 0.22868,-0.11435 -0.18079,-0.58624 0,-0.76704 0.36158,-0.36158 1.17248,0.36159 1.53406,0 0.18079,-0.18079 -0.18079,-0.58624 0,-0.76703 0.18079,-0.18079 0.58624,0.18079 0.76703,0 0.18079,-0.18079 -0.18079,-0.58624 0,-0.76703 0.38352,-0.38351 1.91758,0.38352 2.3011,0 0.18079,-0.18079 -0.11435,-0.53834 0,-0.76703 1.5961,-3.1922 -0.053,0.81998 1.53406,-0.76703 0.18079,-0.18079 -0.18079,-0.58624 0,-0.76703 0.18079,-0.18079 0.58624,0.18079 0.76703,0 0.18079,-0.18079 -0.18079,-0.58624 0,-0.76703 0.36158,-0.36158 1.17248,0.36158 1.53406,0 0.18079,-0.18079 -0.18079,-0.58624 0,-0.76703 0.36158,-0.36159 1.17248,0.36158 1.53406,0 0.18079,-0.18079 -0.11434,-0.53835 0,-0.76703 0.16171,-0.32341 0.51136,-0.51136 0.76703,-0.76704 0.25568,-0.25567 0.44363,-0.60532 0.76704,-0.76703 0.22868,-0.11434 0.58624,0.18079 0.76703,0 0.18079,-0.18079 -0.18079,-0.58624 0,-0.76703 0.18079,-0.18079 0.58624,0.18079 0.76703,0 0.40426,-0.40426 0.36277,-1.1298 0.76703,-1.53406 0.18079,-0.18079 0.58624,0.18079 0.76703,0 0.18079,-0.18079 -0.18079,-0.58624 0,-0.76703 0.22695,-0.22695 2.59302,0.23755 3.06812,0 0.32341,-0.16171 0.44363,-0.60533 0.76704,-0.76703 0.22868,-0.11434 0.58624,0.18079 0.76703,0 1.58701,-1.58702 -2.42517,0.062 0.76703,-1.53406 0.45737,-0.22869 1.17248,0.36158 1.53406,0 0.18079,-0.18079 -0.18079,-0.58624 0,-0.76704 0.18079,-0.18079 0.58624,0.1808 0.76703,0 0.18079,-0.18079 -0.18079,-0.58624 0,-0.76703 0.18079,-0.18079 0.58624,0.18079 0.76703,0 0.18079,-0.18079 -0.18079,-0.58624 0,-0.76703 0.18079,-0.18079 0.58624,0.18079 0.76703,0 0.18079,-0.18079 -0.18079,-0.58624 0,-0.76703 0.18079,-0.18079 0.58624,0.18079 0.76703,0 0.18079,-0.18079 -0.18079,-0.58624 0,-0.76703 0.18079,-0.18079 0.58624,0.18079 0.76704,0 0.18079,-0.18079 -0.22869,-0.65269 0,-0.76703 0.45736,-0.22868 1.0227,0 1.53406,0 0.25567,0 0.58624,0.18079 0.76703,0 0.18079,-0.18079 -0.0808,-0.52448 0,-0.76703 0.18079,-0.54237 0.4499,-1.05837 0.76703,-1.53406 -0.0766,-1.51954 1.1298,-0.36277 1.53406,-0.76703 0.18079,-0.1808 -0.18079,-0.58624 0,-0.76704 0.18079,-0.18079 0.58624,0.1808 0.76703,0 0.18079,-0.18079 -0.18079,-0.58624 0,-0.76703 0.40426,-0.40426 1.05837,-0.4499 1.53406,-0.76703 0.30086,-0.20057 0.44363,-0.60532 0.76704,-0.76703 0.22868,-0.11434 0.65268,0.22869 0.76703,0 0.22868,-0.45737 -0.22869,-1.07669 0,-1.53406 0.11434,-0.22869 0.58624,0.18079 0.76703,0 0.18079,-0.18079 -0.18079,-0.58624 0,-0.76703 0.18079,-0.18079 0.58624,0.18079 0.76703,0 0.18079,-0.18079 -0.18079,-0.58624 0,-0.76703 0.18079,-0.18079 0.58624,0.18079 0.76703,0 0.18079,-0.18079 -0.18079,-0.58624 0,-0.76703 0.36158,-0.36159 1.17248,0.36158 1.53406,0 0.36158,-0.36159 -0.36158,-1.17248 0,-1.53407 0.36158,-0.36158 1.17248,0.36159 1.53406,0 0.36159,-0.36158 -0.22868,-1.07669 0,-1.53406 0.16171,-0.32341 0.60533,-0.44362 0.76704,-0.76703 0.11434,-0.22868 -0.1808,-0.58624 0,-0.76703 0.18079,-0.18079 0.58624,0.18079 0.76703,0 0.18079,-0.18079 -0.18079,-0.58624 0,-0.76703 0.18079,-0.18079 0.58624,0.18079 0.76703,0 0.18079,-0.18079 -0.18079,-0.58624 0,-0.76703 0.36158,-0.36159 1.17248,0.36158 1.53406,0 0.18079,-0.18079 -0.18079,-0.58624 0,-0.76703 0.18079,-0.1808 0.58624,0.18079 0.76703,0 0.18079,-0.1808 -0.18079,-0.58624 0,-0.76704 0.18079,-0.18079 0.58624,0.1808 0.76703,0 0.18079,-0.18079 -0.11434,-0.53834 0,-0.76703 1.5961,-3.1922 -0.053,0.81999 1.53406,-0.76703 0.1808,-0.18079 -0.18079,-0.58624 0,-0.76703 0.36159,-0.36158 1.17248,0.36158 1.53407,0 0.18079,-0.18079 -0.18079,-0.58624 0,-0.76703 0.18079,-0.18079 0.51135,0 0.76703,0 0.25567,0 0.51135,0 0.76703,0 0.25568,0 0.51135,0 0.76703,0 0.25568,0 0.58624,0.18079 0.76703,0 0.18079,-0.18079 -0.25568,-0.76703 0,-0.76703 0.25568,0 -0.25568,0.76703 0,0.76703 0.36158,0 0.44362,-0.60533 0.76703,-0.76703 0.20169,-0.10084 2.66703,0 3.06813,0 0.25567,0 0.51135,0 0.76703,0 0.51135,0 1.53406,-0.51135 1.53406,0 0,0.51135 -2.04542,0 -1.53406,0 0.76703,0 1.53406,0 2.30109,0 0.25568,0 0.76703,-0.25568 0.76703,0 0,0.25568 -0.76703,-0.25568 -0.76703,0 0,1.53258 1.84408,0.31002 2.30109,0.76703 0,2.04542 -0.25567,-0.25568 0.76703,0.76703 0.26774,0.26774 -0.31839,2.1419 0,2.30109 0.45737,0.22869 1.02271,0 1.53407,0 0.25567,0 0.58624,-0.18079 0.76703,0 0.18079,0.1808 -0.18079,0.58624 0,0.76704 0.36158,0.36158 1.17248,-0.36159 1.53406,0 0.38352,0.38351 -0.38352,1.91757 0,2.30109 0.36158,0.36158 1.17248,-0.36158 1.53406,0 1.02271,1.02271 -1.27838,0.76703 0.76703,0.76703 0.25568,0 0.65269,-0.22868 0.76703,0 0.22869,0.45737 -0.22868,1.07669 0,1.53406 0.22869,0.45737 1.17248,-0.36158 1.53407,0 0.18079,0.18079 -0.18079,0.58624 0,0.76703 0.36158,0.36159 1.17248,-0.36158 1.53406,0 0.18079,0.18079 -0.18079,0.58624 0,0.76703 0.18079,0.1808 0.76703,-0.25567 0.76703,0 0,0.22921 -2.54392,-0.50493 0,0.76704 0.4161,0.20805 2.85825,-0.20988 3.06812,0 0.1808,0.18079 -0.18079,0.58624 0,0.76703 0.1808,0.18079 0.58624,-0.18079 0.76704,0 0.18079,0.18079 -0.1808,0.58624 0,0.76703 0.36158,0.36158 1.17248,-0.36158 1.53406,0 0.40426,0.40426 0.29134,1.21693 0.76703,1.53406 4.34651,0 0.25568,-0.51135 1.53406,0.76703 1.02128,1.02128 0.51279,-1.02128 1.53406,0 0.36159,0.36158 -0.36158,1.17248 0,1.53406 0.38352,0.38352 1.91758,-0.38351 2.3011,0 0.18079,0.18079 -0.22869,0.65269 0,0.76703 4.34651,0 0.25567,-0.51135 1.53406,0.76704 0.36158,0.36158 1.30538,-0.45737 1.53406,0 0.22869,0.45736 -0.22868,1.07669 0,1.53406 0.11434,0.22868 0.58624,-0.18079 0.76703,0 0.18079,0.18079 -0.18079,0.58624 0,0.76703 0.18079,0.18079 0.58624,-0.18079 0.76703,0 0.18079,0.18079 -0.18079,0.58624 0,0.76703 0.18079,0.18079 0.58624,-0.18079 0.76703,0 0.18079,0.18079 -0.22868,0.65269 0,0.76703 0.45737,0.22869 1.04895,-0.1617 1.53407,0 0.34302,0.11434 0.44362,0.60533 0.76703,0.76703 0.22868,0.11434 0.53834,-0.11434 0.76703,0 0.32341,0.16171 0.44362,0.60533 0.76703,0.76703 0.22868,0.11435 0.58624,-0.18079 0.76703,0 0.18079,0.18079 -0.24256,0.68618 0,0.76703 5.44034,0 0.44932,-0.54237 3.06812,0.76703 0.30413,0.15207 2.14429,-0.1568 2.3011,0 0.18079,0.1808 -0.18079,0.58625 0,0.76704 0.15681,0.15681 1.99697,-0.15206 2.30109,0 1.55131,0.77565 0.24597,1.78003 0.76703,2.30109 0.18079,0.18079 0.58624,-0.18079 0.76703,0 0.18079,0.18079 -0.18079,0.58624 0,0.76703 0.36159,0.36158 1.17248,-0.36158 1.53407,0 0.18079,0.18079 -0.1808,0.58624 0,0.76703 0.18079,0.18079 0.51135,0 0.76703,0 0.51135,0 1.07669,-0.22868 1.53406,0 0.45737,0.22869 -0.36158,1.17248 0,1.53406 0.18079,0.18079 0.58624,-0.18079 0.76703,0 0.18079,0.18079 -0.18079,0.58624 0,0.76703 0.18079,0.1808 0.51135,0 0.76703,0 0,0.25568 -0.11434,0.53835 0,0.76704 1.5961,3.1922 -0.053,-0.81999 1.53406,0.76703 0.18079,0.18079 -0.18079,0.58624 0,0.76703 0.36159,0.36158 1.17248,-0.36158 1.53407,0 1.58701,1.58701 -2.42517,-0.062 0.76703,1.53406 0.22868,0.11434 0.58624,-0.18079 0.76703,0 1.58701,1.58701 -2.42517,-0.062 0.76703,1.53406 0.22868,0.11434 0.58624,-0.18079 0.76703,0 0.18457,0.18457 -0.18457,2.88356 0,3.06813 0.18079,0.18079 0.58624,-0.18079 0.76703,0 0.18079,0.18079 -0.18079,0.58624 0,0.76703 0.18079,0.18079 0.65269,-0.22869 0.76703,0 0.22869,0.45737 0,1.02271 0,1.53406 0,0.25568 -0.18079,0.58624 0,0.76703 0.18079,0.18079 0.58624,-0.18079 0.76703,0 0.18079,0.18079 -0.18079,0.58624 0,0.76703 0.18079,0.18079 0.76703,-0.25567 0.76703,0 0,0.25568 -0.76703,-0.25567 -0.76703,0 0,0.36158 0.60533,0.44362 0.76703,0.76703 0.22869,0.45737 -0.36158,1.17248 0,1.53407 0.1808,0.18079 0.51136,0 0.76704,0 0,0.51135 -0.22869,1.07669 0,1.53406 0.22868,0.45737 1.17248,-0.36158 1.53406,0 0.18079,0.18079 0,0.51135 0,0.76703 0,0.25568 0.25567,0.76703 0,0.76703 -0.25568,0 0,-1.02271 0,-0.76703 0,0.51135 -0.22869,1.07669 0,1.53406 0.11434,0.22869 0.58624,-0.18079 0.76703,0 0.512,0.512 -0.512,1.02206 0,1.53406 0.18079,0.18079 0.65269,-0.22868 0.76703,0 0.38153,0.76307 -0.30347,2.14936 0,2.3011 0.45737,0.22868 1.07669,-0.22869 1.53406,0 0.22869,0.11434 0,0.51135 0,0.76703 0,0.25567 0,0.51135 0,0.76703 0,1.78974 0,3.57948 0,5.36922 0,0.25567 0.18079,0.58624 0,0.76703 -1.58701,1.58701 0.062,-2.42517 -1.53406,0.76703 -0.20805,0.4161 0.20988,2.85825 0,3.06812 -0.18079,0.18079 -0.58624,-0.18079 -0.76703,0 -0.18079,0.18079 0.18079,0.58624 0,0.76703 -0.18079,0.18079 -0.58624,-0.18079 -0.76703,0 -0.18079,0.18079 0.18079,0.58624 0,0.76703 -0.18079,0.1808 -0.51136,0 -0.76703,0 0,0.25568 0.18079,0.58624 0,0.76704 -0.38352,0.38351 -1.91758,-0.38352 -2.3011,0 -0.18079,0.18079 0.0809,0.52447 0,0.76703 -0.18079,0.54237 -0.36277,1.1298 -0.76703,1.53406 -0.18079,0.18079 -0.58624,-0.18079 -0.76703,0 -0.36158,0.36158 0.36158,1.17248 0,1.53406 -0.18079,0.18079 -0.53835,-0.11434 -0.76703,0 -0.32341,0.16171 -0.44362,0.60533 -0.76703,0.76703 -0.22869,0.11434 -0.51136,0 -0.76703,0 -0.25568,0 -0.51136,0 -0.76703,0 -1.02271,0 -2.04542,0 -3.06813,0 -0.25567,0 -0.58624,-0.18079 -0.76703,0 -0.36158,0.36158 0.36158,1.17248 0,1.53406 -0.36158,0.36159 -1.30538,-0.45736 -1.53406,0 -0.38154,0.76307 0.30347,2.14936 0,2.3011 -0.45737,0.22868 -1.02271,0 -1.53406,0 -0.25568,0 -0.76703,0.25567 -0.76703,0 0,-0.25568 1.0227,0 0.76703,0 -0.51136,0 -1.02271,0 -1.53407,0 -0.25567,0 -0.58624,-0.18079 -0.76703,0 -0.18079,0.18079 0.11435,0.53834 0,0.76703 -1.5961,3.1922 0.053,-0.81998 -1.53406,0.76703 -0.36158,0.36158 0.45737,1.30538 0,1.53406 -0.45737,0.22869 -1.02271,0 -1.53406,0 -0.25568,0 -0.58624,-0.18079 -0.76703,0 -0.36158,0.36158 0.22868,1.0767 0,1.53406 -0.32341,0.64682 -1.21066,0.88725 -1.53406,1.53407 -0.11435,0.22868 0.11434,0.53834 0,0.76703 -0.16171,0.32341 -0.60533,0.44362 -0.76704,0.76703 -0.22868,0.45737 0.22869,1.07669 0,1.53406 -0.1617,0.32341 -0.60532,0.44362 -0.76703,0.76703 -0.24194,0.4839 0.24195,3.35126 0,3.83516 -0.1617,0.32341 -0.65269,0.424 -0.76703,0.76703 -0.1617,0.48511 0,1.02271 0,1.53406 0,0.25568 0.11434,0.53835 0,0.76703 -0.1617,0.32341 -0.60532,0.44362 -0.76703,0.76703 -0.16379,0.32759 0,3.53194 0,3.83516 0,0.25568 0.18079,0.58624 0,0.76703 -0.18079,0.18079 -0.58624,-0.18079 -0.76703,0 -0.36158,0.36158 0.36158,1.17248 0,1.53406 -0.18079,0.18079 -0.58624,-0.18079 -0.76703,0 -0.23705,0.23705 0.23515,3.60001 0,3.83516 -0.18079,0.18079 -0.58624,-0.18079 -0.76703,0 -0.23751,0.23751 0.23751,3.59764 0,3.83515 -0.18079,0.18079 -0.58624,-0.18079 -0.76703,0 -0.36158,0.36158 0.36158,1.17248 0,1.53406 -0.18079,0.1808 -0.58624,-0.18079 -0.76703,0 -0.21025,0.21026 0.17978,3.29581 0,3.83516 -0.18079,0.54237 -0.58624,0.99169 -0.76703,1.53406 -0.0809,0.24256 0.18079,0.58624 0,0.76703 -0.1808,0.18079 -0.58625,-0.18079 -0.76704,0 -0.18079,0.18079 0,0.51136 0,0.76703 0,1.53407 0,3.06813 0,4.60219 0,0.25568 0,0.51135 0,0.76703 0,0.25568 0.18079,0.58624 0,0.76703 -0.18079,0.18079 -0.58624,-0.18079 -0.76703,0 -0.18079,0.18079 0,0.51136 0,0.76703 0,0.51136 0.22869,1.0767 0,1.53407 -0.11434,0.22868 -0.58624,-0.18079 -0.76703,0 -7.3e-4,7.3e-4 10e-4,2.29761 0,2.30109 -0.11434,0.34303 -0.60532,0.44362 -0.76703,0.76703 -0.11672,0.23343 0,1.95566 0,2.30109 0,1.53407 0,3.06813 0,4.60219 0,0.25568 0,0.51135 0,0.76703 0,0.25568 0.18079,0.58624 0,0.76703 -0.18079,0.18079 -0.58624,-0.18079 -0.76703,0 -0.18079,0.18079 0.18079,0.58624 0,0.76703 -1.02128,1.02128 -0.51279,-1.02127 -1.53406,0 -0.36158,0.36159 0.36158,1.17248 0,1.53407 -0.18079,0.18079 -0.58624,-0.1808 -0.76703,0 -0.18079,0.18079 0,0.51135 0,0.76703 -0.25568,0 -0.58624,-0.18079 -0.76703,0 -0.1808,0.18079 0.18079,0.58624 0,0.76703 -0.1808,0.18079 -0.58624,-0.18079 -0.76704,0 -1.58701,1.58701 2.42517,-0.062 -0.76703,1.53406 -0.22868,0.11434 -0.58624,-0.18079 -0.76703,0 -0.18079,0.18079 0,0.51135 0,0.76703 0,0.51136 0.22869,1.07669 0,1.53406 -0.22868,0.45737 -1.17248,-0.36158 -1.53406,0 -0.36158,0.36159 0.36158,1.17248 0,1.53407 -0.18079,0.18079 -0.58624,-0.1808 -0.76703,0 -0.18079,0.18079 0.18079,0.58624 0,0.76703 -0.36158,0.36158 -1.17248,-0.36159 -1.53406,0 -1.58702,1.58701 2.42517,-0.062 -0.76703,1.53406 -0.45737,0.22868 -1.30538,-0.45737 -1.53407,0 -0.22868,0.45737 0.22869,1.07669 0,1.53406 -0.11434,0.22869 -0.58624,-0.18079 -0.76703,0 -0.18079,0.18079 0,0.51135 0,0.76703 -0.51135,0 -1.07669,-0.22868 -1.53406,0 -0.22868,0.11434 0.18079,0.58624 0,0.76703 -0.18079,0.18079 -0.58624,-0.18079 -0.76703,0 -0.18079,0.18079 0.18079,0.58624 0,0.76703 -0.18079,0.18079 -0.58624,-0.18079 -0.76703,0 -0.18079,0.18079 0.18079,0.58624 0,0.76704 -0.38352,0.38351 -1.91758,-0.38352 -2.3011,0 -0.36158,0.36158 0.36159,1.17248 0,1.53406 -0.40426,0.40426 -1.1298,0.36277 -1.53406,0.76703 -0.18079,0.18079 0.18079,0.58624 0,0.76703 -0.18079,0.18079 -0.58624,-0.18079 -0.76703,0 -0.18079,0.18079 0.18079,0.58624 0,0.76703 -0.512,0.512 -1.02206,-0.512 -1.53406,0 -0.36158,0.36158 0.22868,1.07669 0,1.53406 -0.77565,1.55131 -1.78003,0.24597 -2.30109,0.76703 -0.18079,0.18079 0,0.51136 0,0.76703 -0.25568,0.51136 -0.36277,1.12981 -0.76704,1.53407 -0.18079,0.18079 -0.58624,-0.18079 -0.76703,0 -0.18079,0.18079 0.18079,0.58624 0,0.76703 -0.18079,0.18079 -0.58624,-0.18079 -0.76703,0 -0.18079,0.18079 0.18079,0.58624 0,0.76703 -0.36158,0.36158 -1.07669,-0.22869 -1.53406,0 -2.87487,1.43743 1.3408,0.0966 -1.53406,1.53406 -0.22869,0.11434 -0.58624,-0.18079 -0.76703,0 -0.18079,0.18079 0.18079,0.58624 0,0.76703 -0.36158,0.36158 -1.17248,-0.36158 -1.53406,0 -0.40427,0.40426 -0.36278,1.1298 -0.76704,1.53406 -0.38351,0.38352 -1.91757,-0.38351 -2.30109,0 -0.18079,0.1808 0.22869,0.65269 0,0.76704 -0.45737,0.22868 -1.07669,-0.22869 -1.53406,0 -0.22869,0.11434 0.18079,0.58624 0,0.76703 -0.36158,0.36158 -1.17248,-0.36159 -1.53406,0 -0.18079,0.18079 0.18079,0.58624 0,0.76703 -0.38352,0.38351 -1.91758,-0.38352 -2.3011,0 -0.18079,0.18079 0.22869,0.65269 0,0.76703 -4.34651,0 -0.25567,-0.51136 -1.53406,0.76703 -0.26774,0.26774 -2.1419,-0.31839 -2.30109,0 0,4.34651 0.51135,0.25568 -0.76703,1.53406 -0.18079,0.18079 0.18079,0.58624 0,0.76703 -0.18457,0.18457 -2.88356,-0.18457 -3.06813,0 -0.18079,0.18079 0.18079,0.58624 0,0.76703 -0.512,0.512 -1.02206,-0.512 -1.53406,0 -0.18079,0.1808 0.18079,0.58624 0,0.76704 -0.18079,0.18079 -0.58624,-0.1808 -0.76703,0 -0.18079,0.18079 0.18079,0.58624 0,0.76703 -0.0247,0.0247 -2.11507,0 -2.30109,0 -0.34544,0 -2.06766,-0.11672 -2.3011,0 -0.32341,0.1617 -0.44362,0.60532 -0.76703,0.76703 -0.19831,0.0992 -4.05851,0 -4.60218,0 -0.25568,0 -0.58625,-0.18079 -0.76704,0 -0.18079,0.18079 0,0.51135 0,0.76703 -0.25567,0 -0.58624,-0.18079 -0.76703,0 -0.18079,0.18079 0.18079,0.58624 0,0.76703 -0.18079,0.18079 -0.51135,0 -0.76703,0 -0.32266,0 -4.37401,-0.11409 -4.60218,0 -0.32341,0.1617 -0.42401,0.65269 -0.76704,0.76703 -0.48511,0.16171 -1.07669,-0.22868 -1.53406,0 -0.22868,0.11434 0.18079,0.58624 0,0.76703 -0.23751,0.23751 -3.59764,-0.23751 -3.83515,0 -0.18079,0.18079 0.22868,0.65269 0,0.76703 -0.18037,0.0902 -2.56425,0 -3.06813,0 -2.55677,0 -5.11354,0 -7.67031,0 -2.55677,0 -5.11354,0 -7.67031,0 -0.50388,0 -2.88776,0.0902 -3.06812,0 -0.22869,-0.11434 0.18079,-0.58624 0,-0.76703 -0.18079,-0.18079 -0.58624,0.18079 -0.76703,0 -0.1808,-0.18079 0.18079,-0.58624 0,-0.76703 -0.38352,-0.38351 -1.91758,0.38352 -2.3011,0 -0.18079,-0.18079 0.18079,-0.58624 0,-0.76703 -0.23515,-0.23515 -3.59811,0.23705 -3.83515,0 -0.18079,-0.18079 0.18079,-0.58624 0,-0.76703 -0.1493,-0.1493 -3.55508,0.14004 -3.83516,0 -0.22868,-0.11434 0.18079,-0.58624 0,-0.76703 -0.36158,-0.36158 -1.07669,0.22868 -1.53406,0 -0.32341,-0.16171 -0.44362,-0.60533 -0.76703,-0.76703 -0.61363,-0.30682 -1.68747,0.30681 -2.3011,0 -0.92043,-0.46022 -1.38065,-1.84088 -2.30109,-2.3011 -0.45737,-0.22868 -1.07669,0.22869 -1.53406,0 -0.32341,-0.1617 -0.44362,-0.60532 -0.76703,-0.76703 -0.61363,-0.30681 -1.68747,0.30681 -2.3011,0 -0.22868,-0.11434 0.1808,-0.58624 0,-0.76703 -0.38351,-0.38351 -1.91757,0.38352 -2.30109,0 -0.18079,-0.18079 0.18079,-0.58624 0,-0.76703 -0.18079,-0.18079 -0.65269,0.22868 -0.76703,0 -0.22868,-0.45737 0.22868,-1.07669 0,-1.53406 -0.15173,-0.30347 -1.53802,0.38153 -2.30109,0 -0.22869,-0.11434 0.18079,-0.58624 0,-0.76703 -0.36158,-0.36159 -1.17248,0.36158 -1.53407,0 -0.18079,-0.18079 0.1808,-0.58624 0,-0.76703 -0.36158,-0.36159 -1.17248,0.36158 -1.53406,0 -0.18079,-0.1808 0.18079,-0.58624 0,-0.76704 -0.18079,-0.18079 -0.51135,0 -0.76703,0 -0.51135,0 -1.07669,0.22869 -1.53406,0 -0.22868,-0.11434 0.18079,-0.58624 0,-0.76703 -0.18079,-0.18079 -0.58624,0.18079 -0.76703,0 -0.18079,-0.18079 0.18079,-0.58624 0,-0.76703 -0.36158,-0.36158 -1.17248,0.36158 -1.53406,0 -0.40426,-0.40426 -0.58624,-0.99169 -0.76703,-1.53406 -0.0809,-0.24256 0.18079,-0.58624 0,-0.76703 -0.15681,-0.15681 -1.99698,0.15206 -2.3011,0 -0.32341,-0.16171 -0.44362,-0.60533 -0.76703,-0.76703 -0.22868,-0.11434 -0.58624,0.18079 -0.76703,0 -0.18079,-0.18079 0.18079,-0.58624 0,-0.76703 -0.36158,-0.36158 -1.17248,0.36158 -1.53406,0 -0.18079,-0.18079 0.11434,-0.53835 0,-0.76703 -0.84798,-1.69595 -0.47605,-0.23803 -1.53406,-0.76704 -0.32341,-0.1617 -0.44363,-0.60532 -0.76704,-0.76703 -0.45736,-0.22868 -1.17248,0.36159 -1.53406,0 -0.18079,-0.18079 0.18079,-0.58624 0,-0.76703 -0.18079,-0.18079 -0.58624,0.18079 -0.76703,0 -0.18079,-0.18079 0.18079,-0.58624 0,-0.76703 -0.36158,-0.36158 -1.17248,0.36158 -1.53406,0 -0.18079,-0.18079 0.18079,-0.58624 0,-0.76703 -0.18079,-0.18079 -0.51136,0 -0.76703,0 -0.51136,0 -1.0767,0.22869 -1.53406,0 -0.22869,-0.11434 0.18079,-0.58624 0,-0.76703 -0.1808,-0.18079 -0.58624,0.18079 -0.76704,0 -0.18079,-0.18079 0.1808,-0.58624 0,-0.76703 -0.36158,-0.36158 -1.17248,0.36158 -1.53406,0 -0.18079,-0.18079 0.18079,-0.58624 0,-0.76703 -0.18079,-0.18079 -0.58624,0.18079 -0.76703,0 -0.18079,-0.18079 0.18079,-0.58624 0,-0.76703 -0.18079,-0.18079 -0.58624,0.18079 -0.76703,0 -0.36158,-0.36159 0.36158,-1.17248 0,-1.53407 -0.40426,-0.40426 -0.99169,-0.58624 -1.53406,-0.76703 -0.24256,-0.0808 -0.58624,0.18079 -0.76703,0 -0.36158,-0.36158 0.36158,-1.17248 0,-1.53406 -0.18079,-0.18079 -0.58624,0.18079 -0.76703,0 -0.1808,-0.18079 0.18079,-0.58624 0,-0.76703 -0.1808,-0.18079 -0.58624,0.18079 -0.76704,0 -0.18079,-0.18079 0,-0.51135 0,-0.76703 0,-0.51136 0.22869,-1.07669 0,-1.53406 -0.22868,-0.45737 -1.17248,0.36158 -1.53406,0 -0.18079,-0.18079 0.18079,-0.58624 0,-0.76703 -0.18079,-0.1808 -0.58624,0.18079 -0.76703,0 -0.18079,-0.1808 0.18079,-0.58624 0,-0.76704 -0.18079,-0.18079 -0.58624,0.1808 -0.76703,0 -0.18079,-0.18079 0.18079,-0.58624 0,-0.76703 -0.18079,-0.18079 -0.58624,0.18079 -0.76703,0 -0.18079,-0.18079 0.11434,-0.53834 0,-0.76703 -0.1617,-0.32341 -0.51135,-0.51135 -0.76703,-0.76703 0,-0.51135 0.1617,-1.04895 0,-1.53406 -0.11434,-0.34303 -0.60533,-0.44362 -0.76703,-0.76703 -0.11435,-0.22869 0.11434,-0.53835 0,-0.76703 -0.16171,-0.32341 -0.60533,-0.44363 -0.76703,-0.76703 -0.11435,-0.22869 0.18079,-0.58624 0,-0.76704 -0.18079,-0.18079 -0.58624,0.1808 -0.76703,0 -0.1808,-0.18079 0,-0.51135 0,-0.76703 -0.51136,0 -1.0767,0.22869 -1.53407,0 -0.22868,-0.11434 0.18079,-0.58624 0,-0.76703 -0.18079,-0.18079 -0.58624,0.18079 -0.76703,0 -0.36158,-0.36158 0.36158,-1.17248 0,-1.53406 -0.18079,-0.18079 -0.58624,0.18079 -0.76703,0 -0.18079,-0.18079 0.11434,-0.53835 0,-0.76703 -0.1617,-0.32341 -0.60533,-0.44362 -0.76703,-0.76703 -1.12861,-2.25723 1.77689,1.00986 -0.76703,-1.53406 -0.25568,-0.25568 -0.44362,-0.60533 -0.76703,-0.76704 -0.22869,-0.11434 -0.53835,0.11435 -0.76703,0 -0.32341,-0.1617 -0.51136,-0.51135 -0.76703,-0.76703 -0.25568,-0.25567 -0.60533,-0.44362 -0.76704,-0.76703 -0.41054,-0.8211 0.66419,-1.6369 -0.76703,-3.06812 -0.18079,-0.18079 -0.58624,0.18079 -0.76703,0 -0.18457,-0.18457 0.18457,-2.88355 0,-3.06813 -0.18079,-0.18079 -0.58624,0.18079 -0.76703,0 -0.18079,-0.18079 0.22869,-0.65268 0,-0.76703 -0.45737,-0.22868 -1.17248,0.36158 -1.53406,0 -0.24031,-0.2403 0.23932,-3.59584 0,-3.83515 -0.18079,-0.18079 -0.58624,0.18079 -0.76703,0 -0.18079,-0.18079 0.18079,-0.58624 0,-0.76703 -0.18079,-0.18079 -0.58624,0.18079 -0.76703,0 -0.36159,-0.36159 0.22868,-1.0767 0,-1.53407 -0.16171,-0.3234 -0.60533,-0.44362 -0.76703,-0.76703 -0.11435,-0.22868 0,-0.51135 0,-0.76703 0,-0.25568 0,-0.51135 0,-0.76703 0,-1.53406 0,-3.06812 0,-4.60219 0,-0.25567 0,-0.51135 0,-0.76703 0,-0.25567 0.18079,-0.58624 0,-0.76703 -0.1808,-0.18079 -0.58624,0.18079 -0.76704,0 -0.36158,-0.36158 0.36159,-1.17248 0,-1.53406 -0.18079,-0.18079 -0.58624,0.18079 -0.76703,0 -0.0947,-0.0948 0,-2.58713 0,-3.06812 0,-0.61876 0.14759,-4.38082 0,-4.60219 -0.31712,-0.47569 -1.1298,-0.36277 -1.53406,-0.76703 -0.18079,-0.18079 0,-0.51136 0,-0.76703 0,-0.5335 0.13869,-3.55777 0,-3.83516 -0.1617,-0.32341 -0.60533,-0.44362 -0.76703,-0.76703 -0.22868,-0.45737 0.22868,-1.07669 0,-1.53406 -0.1617,-0.32341 -0.60533,-0.44362 -0.76703,-0.76703 -0.0992,-0.19832 0,-4.05852 0,-4.60219 0,-3.3238 0,-6.6476 0,-9.9714 0,-3.3238 0,-6.64761 0,-9.97141 0,-0.25567 0,-0.51135 0,-0.76703 0,-0.25568 -0.18079,-0.58624 0,-0.76703 0.18079,-0.18079 0.58624,0.18079 0.76703,0 0.36158,-0.36158 -0.22868,-1.07669 0,-1.53406 0.84797,-1.69595 0.47605,-0.23803 1.53406,-0.76703 0.32341,-0.16171 0.51136,-0.51136 0.76703,-0.76703 0.25568,-0.25568 0.60533,-0.44363 0.76703,-0.76704 0.11435,-0.22868 -0.18079,-0.58624 0,-0.76703 0.1808,-0.18079 0.51136,0 0.76704,0 0.25567,0 0.51135,0 0.76703,0 2.04541,0 4.09083,0 6.13625,0 1.0227,0 2.04541,0 3.06812,0 0.25568,0 0.68618,0.24256 0.76703,0 0.24256,-0.72767 0,-1.53406 0,-2.30109 z"
     id="path876"
     inkscape:connector-curvature="0" /></g><g
   inkscape:groupmode="layer"
   id="layer2"
   inkscape:label="Layer 2"><path
     style="enable-background:new 0 0 512 512"
     d="m 418.186,366.807 c -6.749,-33.805 -38.461,-39.559 -38.561,-39.605 v 10e-4 c -0.341,-0.1 2.909,0.715 -77.341,-19.177 v -2.723 h 59.075 c 12.177,0 22.083,-9.907 22.083,-22.083 V 170.554 c 0.993,-4.189 0.995,-8.544 0,-12.742 v -41.119 c 0,-4.144 -3.359,-7.501 -7.501,-7.501 -4.144,0 -7.501,3.357 -7.501,7.501 v 21.527 c -3.96,-2.364 -8.483,-4.059 -13.357,-4.898 -1.76,-7.817 -8.252,-13.997 -16.485,-15.078 -8.582,-1.128 -15.086,-6.131 -19.331,-14.869 -1.987,-4.091 -5.879,-6.778 -10.409,-7.19 -4.534,-0.41 -8.827,1.527 -11.514,5.185 -12.894,17.548 -48.739,56.907 -110.636,56.905 -4.709,0 -7.902,-0.223 -9.014,-0.273 -11.374,-0.685 -20.991,8.403 -20.991,19.8 v 17.235 c 0,27.547 11.428,54.253 31.352,73.269 6.608,6.307 13.897,11.568 21.67,15.763 v 6.234 H 150.92 c -3.905,0 -7.082,-3.177 -7.082,-7.081 v -168.55 c 0,-54.643 44.553,-99.669 98.371,-99.669 0.174,0 0.348,10e-4 0.521,0.002 19.282,0.103 41.545,5.58 56.716,13.949 9.615,5.307 15.554,1.089 25.049,1.089 23.175,0 41.747,23.83 43.973,45.263 0.014,0.314 0.047,1.571 0.051,6.387 0.005,7.241 8.183,7.797 7.507,7.495 4.144,-0.003 7.498,-3.365 7.495,-7.507 -0.001,-1.332 0.01,-6.555 -0.115,-7.767 -3.016,-29.837 -28.467,-58.873 -58.91,-58.873 -11.89,0 -13.743,3.014 -17.802,0.778 C 289.491,6.328 264.415,0.119 242.811,0.003 180.539,-0.4 128.835,51.477 128.835,114.671 v 168.55 c 0,12.177 9.907,22.083 22.084,22.083 h 58.806 v 2.723 l -77.038,19.093 c -0.102,0.025 -0.202,0.054 -0.303,0.083 l -5.628,1.66 c -0.169,0.05 -0.335,0.105 -0.5,0.166 -10.044,3.748 -27.613,13.639 -32.434,37.782 -22.83,114.682 -21.869,109.785 -21.924,110.178 -2.75,19.451 6.987,35.01 30.41,35.01 h 81.115 c 4.144,0 7.501,-3.358 7.501,-7.501 0,-4.144 -3.358,-7.501 -7.501,-7.501 h -28.227 v -70.75 c 0,-4.144 -3.358,-7.501 -7.501,-7.501 -4.143,0 -7.501,3.358 -7.501,7.501 v 70.75 h -37.886 c -9.964,0 -15.75,-3.208 -15.846,-13.675 -0.042,-5.106 -0.243,-0.129 22.073,-113.578 3.359,-16.823 15.575,-23.85 22.732,-26.571 l 5.202,-1.534 44.24,-10.965 c 49.213,57.976 46.299,54.904 49.143,57.678 16.426,16.023 39.864,14.892 55.29,-3.224 l 46.325,-54.413 44.071,10.923 c 1.275,0.586 23.213,4.445 27.936,28.103 22.124,112.467 22.116,108.451 22.074,113.575 -0.076,10.252 -5.622,13.682 -15.846,13.682 h -37.617 v -70.751 c 0,-4.144 -3.357,-7.501 -7.501,-7.501 -4.144,0 -7.501,3.358 -7.501,7.501 v 70.75 H 218.428 c -4.144,0 -7.501,3.358 -7.501,7.501 0,4.144 3.358,7.501 7.501,7.501 h 191.275 c 18.532,0 30.677,-10.197 30.848,-28.563 0.063,-8.577 -0.448,-4.479 -22.365,-116.629 z m -62.612,-218.01 c 6.264,1.863 11.095,5.991 12.867,11.089 v 8.594 c -1.772,5.099 -6.603,9.227 -12.867,11.089 z m 0,47.546 v -1.385 c 4.688,-0.866 9.041,-2.526 12.867,-4.811 v 93.074 c 0,3.905 -3.177,7.08 -7.081,7.08 h -59.076 v -5.797 c 31.804,-16.627 53.29,-49.918 53.29,-88.161 z m -157.16,61.109 c -16.973,-16.201 -26.707,-38.95 -26.707,-62.417 0.446,-16.332 -1.081,-18.311 1.525,-20.765 0.923,-0.87 2.164,-1.375 3.561,-1.295 53.784,3.238 100.044,-20.406 130.586,-59.994 8.235,14.46 20.312,18.962 29.266,20.139 2.238,0.294 3.927,2.204 3.927,4.445 0,20.751 0,38.177 0,58.779 0,74.636 -89.352,111.507 -142.158,61.108 z m 75.303,117.95 c -10.451,12.277 -25.081,12.244 -35.507,-0.062 l -15.651,-18.473 h 66.938 z m 28.554,-33.538 H 209.85 l -12.891,-15.216 22.074,-5.472 c 3.348,-0.829 5.696,-3.907 5.696,-7.355 l 10e-4,-23.206 c 20.64,6.88 42.437,6.805 62.552,0.214 0.141,23.975 -0.322,23.426 0.418,25.541 0.818,2.338 2.767,4.183 5.277,4.805 l 22.219,5.507 z"
     id="path2"
     inkscape:connector-curvature="0" /></g></svg>